<?xml version="1.0" standalone="no"?>
<!DOCTYPE svg PUBLIC "-//W3C//DTD SVG 1.1//EN" "http://www.w3.org/Graphics/SVG/1.1/DTD/svg11.dtd" >
<svg>
<metadata>
Created by FontForge 20090622 at Tue Jan 15 10:49:46 2019
 By ffonts
Copyright (c) 2019 by Garisman Studio. All rights reserved.
</metadata>
<defs>
<font id="NORTHEN" horiz-adv-x="928" >
  <font-face 
    font-family="NORTHEN"
    font-weight="400"
    font-stretch="normal"
    units-per-em="1000"
    panose-1="0 0 0 0 0 0 0 0 0 0"
    ascent="750"
    descent="-250"
    x-height="695"
    cap-height="719"
    bbox="-119.143 -197 1063.23 858"
    underline-thickness="50"
    underline-position="-50"
    unicode-range="U+000D-U+FB02"
  />
<missing-glyph horiz-adv-x="242" 
 />
    <glyph glyph-name="N_O" unicode="NO" horiz-adv-x="881" 
d="M160 303h3q1 -1 2 0q1 3 2 5.5t2 5.5q-4 0 -4 1v4q2 -2 3 0q2 1 2 6q2 2 1.5 3.5t-0.5 3.5q5 7 5 21q4 5 5 10.5t1 10.5q2 7 4 9q-2 2 -4 2t-1 3q0 -1 3 2h-1q2 -4 4 0v6q2 1 0 5v-5h-2q0 2 -0.5 4t-0.5 4h1q4 -2 4 2q-2 0 -4 -2v8q1 1 3 1q0 2 -1 4t2 4q0 1 -0.5 2.5
t-0.5 2.5t1 1.5t2 2.5q0 1 -2 5h4v-4.5t2 -4.5q0 3 0.5 6t0.5 7h1h-1q-1 -2 -3 -4q-1 2 -1 3.5t-1 3.5q4 0 8 1q-4 2 -5 3q1 2 1 3.5t3 1.5v-3h1q0 2 -1 4q0 3 -2 7h2q2 -2 4 0v3l-1 -2q-1 0 -1.5 -0.5t-1.5 -0.5q1 15 -6 28l-2 -2q1 11 -6 25q-4 -3 -4 -6.5t-1 -7.5
q-4 -10 -6.5 -20t-4.5 -21q-3 -15 -6.5 -30.5l-6.5 -29.5q-4 -17 -7.5 -34.5t-8.5 -34.5l-10 -43l-10 -42q-3 -15 -5 -30t-6 -29l-4 -20.5l-4 -20.5q-2 -5 -3 -11t-2 -11q-2 -1 -5 -1q-1 2 -1 3t-2 3q-4 -8 -5 -17.5t-11 -16.5q2 -5 -2 -9t-3 -10l-3 3q-1 1 -1 4
q-8 6 -12 10q-3 -5 -3 -11.5t-7 -10.5q-1 2 -2 3t-2 3q-2 -1 -4 -1.5t-4 -1.5q-4 0 -5 -1q-2 -2 -4 -1t-3 -1q-4 3 -6 7t-5 7q-2 3 -2.5 7t-1.5 8q0 4 0.5 7.5t0.5 7.5q1 2 0.5 4.5t-0.5 4.5h1q0 1 0.5 1t0.5 1l9 45q2 8 3 15.5t3 15.5v6q-2 -4 -2.5 -6t-1.5 -4q-1 1 -2 1
q1 4 1 8t1 8l10 46l10 47l10 42.5l10 42.5q3 12 7 23.5t7 24.5l1 1v-8v-2v2q2 5 3.5 10.5t3.5 10.5l6 23l6 22q2 6 2.5 11t2.5 10q2 8 5 16.5t5 16.5l6 22l6 22l10 29t11 28l12 21q3 6 9 9l4.5 4.5t5.5 4.5v-5q0 -2 -1 -3q1 1 1 3q1 4 4 7q6 6 15 4q3 0 11 -2q0 -2 -0.5 -5
t-0.5 -7q0 -1 2 -1q4 3 4 9q2 -2 5 -2.5t4 -5.5v1v-1v-1q1 -1 1 -2q0 1 0.5 1t0.5 1h4q5 -3 6 -7q2 -4 4 -5t1.5 -3.5t2.5 -1.5l3 -5l7 -7l1 -1q0 1 -1 1q-1 2 -1.5 5t-1.5 5q2 -2 2.5 -3.5t2.5 -3.5q1 -2 5 -6v-1q0 1 -1 1l2 1q1 -2 2 -3t1 -3l17.5 -34.5l16.5 -34.5
l9 -20.5t7 -20.5q2 -6 4.5 -12t4.5 -13q0 -1 0.5 -1t0.5 -1q3 -2 3 -6t1 -7q1 -4 6 -9h-1v-2q2 -1 2 -3t2 -4v-2h-1l1 -1q0 -1 0.5 -1t0.5 -1q1 -1 1 -1.5t1 -1.5q2 -2 2 -4q-1 -4 0 -5.5t3 -3.5q2 -1 2 -4v-1v1q5 -3 2 -8h-1h1l3 -3v-2q1 -2 1 -2.5t1 -2.5h-1h1
q2 -3 3.5 -7t2.5 -7q0 -7 3 -12.5t5 -12.5q0 -2 0.5 -3.5l1.5 -4.5l1 -1q1 -2 1 -5t1 -5q2 -3 2.5 -5.5t2.5 -4.5q2 -6 3.5 -12t4.5 -12q4 1 4 6q4 17 7.5 33.5t6.5 33.5l12 52.5t13 52.5q7 28 13 55.5t13 54.5q2 9 5.5 18t7.5 18q0 1 2 5l2 -2l-2 2q0 3 4 1q0 -1 1 -1l-1 1
v5h3q1 2 1 3.5t1 3.5q1 3 3 7h-1v-2q1 -5 2 -6t6 -2q1 10 5 19q3 1 5.5 1t5.5 1q0 -7 1 -11h4q2 -7 6 -5q1 1 2 -0.5t3 -1.5q0 -7 -1 -11q0 -5 -4 -2v-4v1l2 -2q0 -5 -0.5 -8.5t-1.5 -8.5q2 1 3 1q2 7 3.5 13.5t3.5 13.5q1 2 1 3.5t1 3.5q0 6 4 7q1 0 3 4q6 1 7.5 -3t4.5 -6
q-2 -10 -3.5 -19.5t-3.5 -19.5h7q1 3 2 5l2 4q1 3 1.5 6.5t1.5 6.5q1 0 4 3q-2 -6 -2.5 -10.5t-1.5 -9.5l-3 -18h2q2 11 4.5 22.5t5.5 22.5l4 -4q2 -8 2 -11q1 -8 0.5 -15.5t-0.5 -15.5t-1 -15t-2 -15l-4 -26l-4 -26q-2 -11 -3.5 -21t-3.5 -21q-5 -28 -11 -56t-11 -56
q-5 -22 -9 -43l-8 -43q-3 -14 -5.5 -27.5t-5.5 -27.5q-4 -18 -7.5 -35.5t-6.5 -35.5q-4 -18 -7.5 -35.5t-7.5 -35.5q-3 -18 -7 -35.5l-8 -34.5q-5 -20 -10.5 -39t-10.5 -39l-4 -10l-4 -10q0 1 -0.5 1t-0.5 1q0 -1 -0.5 -1t-0.5 -1q-4 -2 -6 -9q0 -2 -0.5 -4t-0.5 -4
q-2 -5 -3.5 -10t-6.5 -9q-1 0 -1 -1q-2 -8 -12 -8h-3q-9 -15 -30 -8q-2 1 -3.5 1.5t-3.5 1.5q-7 3 -6 11q-2 0 -4 -0.5t-3 -0.5q-3 1 -5 6q-3 5 -4.5 11t-3.5 12q-3 12 -3 23.5t1 24.5l2 21.5t3 21.5l9 60q2 15 5 29.5l6 29.5q1 7 -4 14q0 5 -2.5 9.5t-4.5 9.5q0 7 -5 12
q0 8 -5 13q0 7 -5 14q-1 6 -2.5 11.5t-5.5 10.5q1 7 -3 11q0 6 -3 8q0 5 -3 10q0 6 -5 8q0 1 1 3t-2 2q0 4 -2 5q1 6 -3 10q0 8 -5 7q-1 0 -3 5q4 -2 5 -2q-1 2 -1.5 5t-2.5 5h1q0 5 -4 8q0 7 -4 14l-1 1q1 4 -3 9q0 2 0.5 5.5t-4.5 2.5q-3 0 -3 6l4 -4q-1 3 -1 5.5t-2 4.5
q0 5 -3 8q1 6 -3 10h-1q0 8 -4 10q-1 5 -2 9.5t-4 8.5q1 6 -3 10q-1 2 -1 4t-1 4q-5 -2 -5 3l-4 10.5l-4 11.5q2 -2 3 -2q0 -6 3 -10q1 -6 1.5 -7.5t5.5 -3.5q-2 4 -3 6.5t-3 5.5q-2 6 -3 10q-1 2 -1.5 4t-2.5 4q1 6 -4 13h-1q0 6 -3 8q1 5 -1.5 8.5t-5.5 8.5q0 1 -0.5 1
t-0.5 1v-3q1 -3 1 -7v1q-3 3 -4 6q-2 -4 0 -11q8 -18 14 -36.5t13 -37.5q5 -14 10 -29.5t11 -29.5q5 -16 10.5 -31t10.5 -31l9.5 -26.5l9.5 -25.5q6 -17 12.5 -33.5t12.5 -33.5q3 -9 5.5 -17.5t5.5 -16.5q0 -1 -1 -2q-1 2 -2 3.5t-2 3.5q-3 9 -10 16q-3 2 -4.5 6.5t-3.5 8.5
q-11 20 -20.5 40.5t-17.5 43.5q-5 17 -11 32l-13 32l-12 36.5l-12 36.5l-8.5 24.5l-8.5 24.5q-1 2 -4 5v1v-1q-1 -4 -2 -7.5t-2 -8.5l-6 -33t-7 -33l-10.5 -46l-10.5 -45q-3 -12 -5.5 -23.5t-4.5 -23.5l-4 -18.5t-4 -20.5l-4 -16.5t-5 -17.5q-2 -7 -4.5 -13t-4.5 -12v7
q-1 -1 -2 -1t-2 -1q-1 1 -1 2t-1 2q2 1 7 1q1 5 1.5 8.5t1.5 7.5h-1q-2 -2 -4 -8q-2 4 -2 5l3 6h5l4 15.5t2 15.5q3 3 0 7q0 -5 -1 -6q0 -3 -3 -6q-1 0 -5 2q2 0 2.5 0.5t1.5 0.5q1 2 -0.5 3.5t0.5 3.5q2 1 1.5 3.5t1.5 4.5v4h4h-1q1 0 1 -0.5t1 -0.5v1q5 9 5 21h1q0 3 2 9
q-2 2 -3.5 0.5t-0.5 2.5q1 1 3 0.5t1 2.5v2q3 7 2 12q-1 -4 -4 -8q0 2 -0.5 3t0.5 3q0 5 1 6q2 2 1 3t0 3l2 2h1h-1q1 2 0 4t2 3q1 0 0.5 2t-0.5 4q1 0 1.5 -0.5t1.5 -0.5q4 -3 2 3l-3 -3q0 3 -0.5 5.5t1.5 4.5v3q3 1 1 6zM159 447l-1 -1l1 1v1v-1zM250 447l-1 1q1 -1 1 -2
h1q0 1 -1 1zM275 342h1v1h-2zM206 648v-1v1zM89 130q1 0 1 -1l-1 1v1v-1zM91 142v-1q0 -2 -1 -2l1 -1v3v2q0 1 -1 1q0 -1 1 -2zM102 190v-2q-7 0 -2 -5q0 2 0.5 3t0.5 2l1 1q0 1 -1 1h1zM329 221h1h-1q0 1 -1 1zM326 231v-1v1h-1h1zM149 404l1 1zM267 399q0 1 -1 1l1 -1h1
h-1zM137 355v1v-1h-1h1zM311 272q0 -1 1 -1q0 1 -1 1v1v-1zM308 283q0 -1 1 -1q-1 0 -1 1h-1h1zM144 382v-1v1l1 1q-1 0 -1 -1zM302 300h1h-1l-1 1q0 -1 1 -1zM294 319v-1h2q-1 1 -2 1zM229 503l1 -1v1l-1 1v-1zM211 546v-1v1h-1h1zM320 220q-1 0 -1 0.5t-1 0.5q0 -1 0.5 -1
t0.5 -1q1 -1 1 -2v3zM261 388l-1 1v-1l2 -4v4h-1zM268 370h-2q0 -1 1 -1q0 -1 0.5 -1t0.5 -1v3zM313 237h1q-1 0 -1 1q0 2 -0.5 2.5t-0.5 1.5h-2q1 0 1 -1q1 -1 1 -2t1 -2zM309 252h-2q0 -1 1 -1q0 -1 0.5 -1.5t0.5 -1.5v3v1zM244 436h-2l1 -1l2 -2v2zM258 398q-1 0 -1 0.5
t-2 0.5q2 -1 2 -2l2 -2q-1 1 -1 3zM343 159v-1v1q-1 1 -1 1.5t-1 1.5q0 2 -1 5h-2l1 -1q1 -2 1 -3t1 -2zM97 171q1 0 1 -1l-1 1v2h-1q0 -1 0.5 -1t0.5 -1zM247 426q-1 0 -1 1q0 -1 1 -2v-1q0 -2 1 -2v4h-1zM69 422l-1 -1v1h1zM251 416h-2q0 -1 1 -1q0 -1 2 -3q-1 1 -1 4z
M305 261q-1 0 -1 1v-2l2 -2q0 2 -1 3zM325 207q-1 1 -2 1l1 -1q0 -1 0.5 -1.5t0.5 -1.5v3zM156 262v3q0 -1 -0.5 -1t-0.5 -1t-0.5 -1t-0.5 -1q1 0 1 0.5t1 0.5zM236 457h-2l1 -1q1 -1 1 -1.5t1 -1.5l1 -1v1zM215 640h1q-1 1 -1 3h-1q1 -1 1 -3zM296 289q-2 1 -3 1l1 -1
q0 -2 3 -2zM247 455v-1v1v2h-2zM279 335l-1 1v-2q1 -1 1 -2v3zM214 513h-1h1v-3h1q0 1 -0.5 1.5t-0.5 1.5zM209 524q1 0 1 -1q0 1 -1 1q0 1 -0.5 1.5t-0.5 2.5l-2 2q-1 2 -1.5 1.5t-2.5 -0.5q0 2 -2 5t-1 6q1 0 3 -2l2 -2q-1 1 -1 3q-2 4 -3 5q-1 2 -2 3t-2 3q2 2 -1 6
q-7 -13 -3 -20l5.5 -15l5.5 -15l3 -3l3 6h1h-1q-2 5 -3 9.5t-3 9.5h3q0 -1 0.5 -1.5t0.5 -1.5q1 -1 1 -1.5t1 -1.5zM229 474h1v1q-1 1 -1 1.5t-1 1.5q0 1 -2 1l1 -1zM258 626h-1q0 1 1 0zM29 86q0 2 1 3h-1v-3q-1 0 -1 -0.5t-1 -0.5q0 -1 1 -1zM288 307h-1l1 -1q0 -2 1 -2h1
q0 1 -0.5 1.5t-0.5 1.5h-1zM190 410q3 2 0 5v-5h-1h1zM315 231q-1 1 -2 1l1 -1q1 -2 3 -4l1 1zM224 487q1 -1 1 -2q0 1 0.5 1.5t0.5 1.5h-1q0 3 -4 3q1 -2 3 -4zM157 268q2 2 1.5 3.5t0.5 3.5q3 3 0 6v-6q-2 -4 -2 -6l-1 -1h1zM299 280q-1 1 -2 1q1 0 1 -2q2 -2 2 -4h1
q0 3 -2 5zM119 274q1 2 1 3.5t1 3.5q-1 -2 -1 -3.5t-1 -3.5v-2v2zM282 326h-2l1 -1q2 -2 2 -4l1 1zM272 354v1q2 2 -1 5q-1 1 -2 1q0 -1 0.5 -1t0.5 -1l2 -4v-2q0 -3 2 -5l1 1q-1 2 -1.5 2.5t-1.5 2.5zM231 469q-1 0 -1 1v-2q1 -1 3 -5q2 4 -2 6zM239 447q-1 0 -1 1v-2
l1.5 -3t3.5 0zM20 209q0 1 1 1.5t1 1.5h-2v-3q0 -2 -0.5 -2.5t-0.5 -1.5h1v4zM327 196q0 1 -1 1q1 0 1 -1q0 -4 3 -6q0 4 -3 6zM219 503q-1 1 -3 1v-1h2q0 -1 3 -7q1 7 -2 7zM333 182l-2 2l1 -2q2 -4 4 -6q0 -1 1 -1l-1 1q2 4 -3 6zM93 147h-1l1 2v2h-1q-1 0 -1 -2zM163 297
q-2 -3 -3 -9q4 2 3.5 4.5t0.5 4.5q0 1 1 2l-1 1q0 -1 -0.5 -1.5t-0.5 -1.5zM209 664q1 2 2 5t2 5q-4 -2 -4 -4.5v-5.5v-1v1zM223 673q-4 -3 -4 -10q6 -2 10 -4q-2 5 -3 8t-3 6zM173 506h-1q0 -1 -0.5 -1.5t-0.5 -2.5h1q0 2 0.5 2.5t0.5 1.5zM97 177h3v3h-3v-3zM144 206h-1
q0 -1 -2 -3q1 0 1 -1t1 -1q0 2 0.5 3t0.5 2zM88 134q1 0 1 -0.5t1 -0.5q1 1 0 1l-1 1q-1 0 -1 -1zM488 694h-1v-4h1v4zM193 421h-1q0 -1 -0.5 -1.5t-0.5 -1.5t1 -1q0 1 0.5 2t0.5 2zM254 404q0 1 1 1q-1 1 -1 1.5t-1 1.5l-1 -1q1 -1 1 -1.5t1 -1.5zM264 376l1 1
q0 1 -0.5 1.5t-0.5 1.5l-1 -1q0 -1 0.5 -1.5t0.5 -1.5zM285 315h1q0 1 -2 3h-1q2 -2 2 -3zM291 296q1 0 1 0.5t1 0.5l-2 2h-1q0 -1 0.5 -1.5t0.5 -1.5zM306 289v1q-1 1 -1.5 1t-1.5 1v-1q1 -1 1.5 -1t1.5 -1zM301 271q-1 0 -1 -1l2 -2h1q0 1 -2 3zM118 268h-1q0 -1 -1 -2
q1 0 1 -1q0 1 0.5 1.5t0.5 1.5zM161 453v3v-3zM108 226h1l2 2l-1 1q-1 -1 -1 -1.5t-1 -1.5zM346 180q-1 0 -1 1l-1 -1l1 -1q1 0 1 1zM257 428v-1v-1l1 1q0 1 -1 1zM239 478q0 1 -1 1v-1l1 -1v1zM254 436q0 1 -1 1h-1l1 -1h1zM25 76h1h1l-1 1q0 -1 -1 -1zM314 263v-1l1 -1v1
q0 1 -1 1zM162 462l1 1v1l-1 -1v-1zM541 625v1v1l-1 -1zM483 689q1 0 1 1h-1v-1zM165 472h-1v-1q0 1 1 1zM127 306v1l-1 -1h1zM140 362v1h-1v-1h1zM193 588l-1 1v-1v-1zM173 516h1h-1zM299 308v-1v1zM288 336v-1h1v1h-1zM122 286q1 0 1 1h-1v-1zM132 334h1h-1zM188 570h1v1
h-1v-1zM212 506v1h-1v-1h1zM186 564q1 0 1 -1l1 1q-1 0 -2 1v-1zM278 370l-1 1v-1h1zM200 456v-1v-1h1q0 1 -1 2zM105 208h-1h1zM334 208h-1q1 0 1 -1q0 1 1 1h1h-2zM146 391q-1 0 -1 -1h1h1zM103 200v1v-1zM131 328h-1v-1zM101 194h1h-1zM96 167h-1v-1zM94 158h-1l1 -1l1 1
h-1zM319 252h-1v-1q0 1 1 1v0zM155 433h1h-1zM112 247h1v1q0 -1 -1 -1zM134 340v1q-1 0 -1 -1h1zM141 369h-1l1 -1q0 1 1 1h-1zM107 220v-1v1zM23 216h1v1zM151 411v1h-1zM204 563l-1 -1h1v1zM171 497l-1 -1h1v1zM222 495v-1l1 1h-1zM243 468v-1v1zM266 373l1 1zM115 254v-1
v1zM322 214v1l-1 -1h1v0zM322 211h-1h1zM327 200l-1 1v-1h1zM340 194h1h-1zM331 187l1 1h-1v-1zM537 642v-1h1zM882 643q1 -1 3 -2l-1 -1h-1h2q1 -2 2 -4.5t2 -4.5v-1l1 1l3 -6l-1 -1h1q4 -9 6 -19l4 -20q1 -4 1 -15v-18t-1 -20q0 -8 -1 -15t-3 -15l-4 -21t-5 -21
q-2 -9 -6 -18t-7 -19q-5 -12 -9.5 -24l-9.5 -26q-5 -12 -11.5 -24.5l-12.5 -24.5l-10.5 -18t-11.5 -17q-2 -4 -5.5 -8t-5.5 -9q-4 -1 -3.5 -4.5t-2.5 -5.5v1v-1q-8 -8 -14.5 -18t-16.5 -18h-2l-3 -3q-1 -1 -5 -3q-4 -4 -6 -5t-3.5 -1.5t-3.5 -1.5q-13 -8 -25 -14t-25 -11
q-14 -5 -22 -3q-4 -3 -14 -1q-14 2 -23 8h6q3 3 2 3q3 1 11 1h11v1q-5 2 -7 1q-8 -2 -14.5 0.5t-12.5 7.5l-11 7.5l-11 7.5q-11 8 -18.5 20l-14.5 24q-2 3 -3.5 6t-1.5 8q-2 10 -3 19.5t-3 20.5q0 5 0.5 8.5t-1.5 7.5v1q2 4 2 7q-3 1 -1 6q-1 0 -1 1v2q-1 2 1 3.5t-1 4.5
q-1 1 -0.5 3.5t0.5 4.5q0 3 0.5 5.5t0.5 4.5q0 6 1 9l4 32.5t7 31.5q5 20 11.5 38t13.5 35t15 32.5t17 30.5q20 33 49 57l15.5 13t15.5 11q4 2 7 4t8 2q0 -1 -0.5 -1.5t-0.5 -1.5h-1h1q6 2 11.5 3t11.5 0q5 0 7 -1q8 -3 18 0t21 3h7q7 2 13 1t13 -1l10.5 -2l10.5 -2t9 -2
t7 -4t6 -5l6 -4l-2 -1q1 0 2 1l6 -12v-1zM885 615v-1v1h-2h2zM860 648v-1v1h-1h1zM844 659h1l1 -1q0 1 -2 1q0 1 -0.5 1t-0.5 1q-1 0 -1.5 0.5t-1.5 0.5l-1 1q0 -1 1 -1t1.5 -0.5t1.5 -0.5q0 -1 0.5 -1t0.5 -1zM677 195h1h-1v-1v1zM745 223v1v-1h-1h1zM606 231h2
q5 -1 7.5 -4t4.5 -6q2 4 5.5 2.5t6.5 -0.5q-1 4 -7 8q-6 3 -16 12q-5 3 -9.5 7t-9.5 8l-1 1l-1 1q0 -1 1 -1v-1l-1 -1q1 0 1 1h1q0 -5 3 -8.5t5 -7.5v-1v1q2 -3 4 -5l4 -4v-1v-1zM590 270h2q-1 -3 1 -5l4 -4q0 -3 4 -2l-4 2q1 5 -5 9v2zM881 458q-1 0 -1 -1q0 1 1 1z
M886 483h1l-1 -1v1zM894 533h1h-1v1v-1zM732 570l-2 -2q-4 -3 -10 -9q-8 -8 -13.5 -17t-10.5 -20q-18 -30 -27 -65q-4 -14 -6.5 -29.5t-4.5 -30.5q-5 -28 -2 -53q2 -20 13 -34q3 -5 6.5 -8.5l7.5 -7.5q5 -5 9.5 -5.5t9.5 1.5q8 4 14.5 9t12.5 12q13 18 24 36t20 36t15 38
q4 10 6.5 20t6.5 19q12 36 12 71q0 25 -14 45q-5 8 -9.5 14.5t-9.5 14.5q-1 2 -1 3.5t-1 3.5q1 -1 5 -1q-4 4 -5 1q-13 -3 -22 -17l-2 -2q0 -1 -0.5 -1t-0.5 -1q-1 0 -1 -0.5t-1 -0.5q0 -1 -0.5 -1t-0.5 -1h-1q0 -1 1 -1l-12 -12v1v-1q-1 -1 -2 -2.5t-2 -2.5h-2zM696 200
l-2 -2zM893 514v5v1v-1q-3 -3 0 -5zM702 204q2 0 2.5 0.5t2.5 0.5q2 1 4 0.5t2 3.5h3l-1 1q-1 -1 -2 -1q-2 -1 -3 -2t-3 -2q-2 0 -2.5 -0.5t-2.5 -0.5q-1 -1 -2 -1h1q1 0 1 1zM721 210q2 2 3 2l-1 1q-1 -1 -1 -1.5t-1 -1.5zM582 289q0 1 -1 2q1 -1 1 -2q1 -1 1 -3h1
q-1 1 -1 1.5t-1 1.5zM622 319q0 -1 0.5 -1.5t0.5 -1.5l1 1l-2 2q0 3 -3 5h-1h1q0 -4 3 -5zM682 196q2 0 3 -1t2 3q-1 0 -5 -2q0 -1 -1 -2zM664 522q-1 1 -2 1q-1 -1 -1.5 -2t-1.5 -2q-3 -8 -8 -16q-8 -14 -13.5 -28.5t-10.5 -30.5q-4 -11 -7 -29q-3 -13 -5.5 -26t-1.5 -27
q1 -18 12 -32q2 -3 4 -5.5t4 -5.5h1v2q-2 11 -2.5 22.5t0.5 22.5v13t-2 14v6q2 8 3 16t3 17t5 18t5 20q3 15 11 33q2 5 3.5 9.5t3.5 9.5zM807 640q18 -18 32 -20q-2 11 -11 16.5t-21 3.5zM807 632q5 -2 7.5 -6t9.5 -6q-5 5 -8.5 8t-8.5 4zM675 288q2 5 -4 5q3 -3 4 -5z
M765 341l1 -1q3 1 3 3l-1 1q-2 -1 -2 -1.5t-1 -1.5zM735 219q1 -1 1 -2q2 1 4 3v1q-1 0 -5 -2zM669 193v-1h4q0 1 -1 2q-1 -1 -3 -1zM749 222q1 0 1 0.5t1 0.5v1h-2v-2zM836 664l-1 1h-2q0 -2 1 -2q1 1 2 1zM638 312q0 1 0.5 1t0.5 1v1q0 1 -2 1q1 -1 1 -4zM823 565
q1 0 1 -1l1 1l-1 1q-1 0 -1 -1zM640 497h-1h1zM672 528v1q-1 0 -2 -1h1h1zM638 323q-1 0 -1 1l-1 -1l1 -1zM890 595v-1q1 0 1 -1q0 1 0.5 1t0.5 1h-2zM588 279l-1 -1h1v1zM804 448v1v-1zM637 331v1v-1zM895 561v1v-1zM580 299v-1v1zM729 212l1 -1v1h-1zM646 191h-1h1z
M653 191h1h-1zM588 254h-1v-1zM590 249v1h-1v-1h1zM774 354l-1 -1h1v1zM661 146q2 -2 3 -2h21q5 1 8.5 1h6.5q13 0 26 -0.5t25 -1.5h10.5t10.5 -1q5 -2 10 -3t10 -3q2 -2 0 -3q0 -2 -2 -2q-7 2 -9 -1h-5q2 -1 3 -3t2 3q1 0 2 -0.5t3 -0.5h-1l-1 -2q1 -2 -1 -6q0 -2 2 -8
q0 -1 -0.5 -1.5t-0.5 -1.5q-4 -10 3 -13v-3q0 -1 -0.5 -1t-0.5 -1q0 1 0.5 1t0.5 1q2 -1 2.5 -1t2.5 -1q-3 -10 -9 -11q-9 -5 -17 -4h-8q-10 0 -19 -3q-8 -3 -16 -3.5t-16 -0.5q-11 -1 -23 -1t-23 -1h-15q-11 -1 -23 -1h-24q-10 -1 -20 -1.5t-21 -1.5q-8 -1 -15 -1t-15 -1
q-8 0 -12 5q2 2 3.5 2.5t3.5 2.5q-2 6 -7 5t-8 2q0 2 -0.5 3t-0.5 3l-1 2q2 2 3 2.5t3 2.5q-4 8 -5 12l7 9t3 9q3 2 7 8h2q2 0 2 1l4 2q4 1 6.5 3t7.5 1q4 -2 8 -0.5t8 1.5q24 0 47 3q5 1 9.5 1.5t9.5 0.5q1 1 4 -1q2 0 3.5 -0.5t3.5 0.5q-1 0 -2 0.5t-3 0.5q7 2 13.5 3.5
t13.5 -0.5v0zM776 108h1h-1zM753 98v2q-5 -1 -9 -1t-9 -1q5 0 9 -1t9 1zM658 142q-5 2 -6.5 2t-6.5 -2h13zM607 138q1 0 1 1h-2zM782 136v-1q1 0 1 1h-1zM740 150q-19 -2 -37 -2.5t-37 -1.5q35 6 74 4zM751 149q-1 -1 -6 1q2 0 3 -0.5t3 -0.5zM753 149h4v-1q-1 0 -2 0.5
t-2 0.5zM764 226h-2h2zM754 220l1 -1zM753 149h-2h2zM524 130h2h-2v0zM627 366q1 3 1 10q3 -6 -1 -10zM629 354v-7h-2v7h2zM629 382v6v-6zM629 338v-3q0 1 -0.5 1.5t-0.5 1.5h1zM608 231h-2v2z" />
    <glyph glyph-name="N_o" unicode="No" horiz-adv-x="875" 
d="M160 303h3q1 -1 2 0q1 3 2 5.5t2 5.5q-4 0 -4 1v4q2 -2 3 0q2 1 2 6q2 2 1.5 3.5t-0.5 3.5q5 7 5 21q4 5 5 10.5t1 10.5q2 7 4 9q-2 2 -4 2t-1 3q0 -1 3 2h-1q2 -4 4 0v6q2 1 0 5v-5h-2q0 2 -0.5 4t-0.5 4h1q4 -2 4 2q-2 0 -4 -2v8q1 1 3 1q0 2 -1 4t2 4q0 1 -0.5 2.5
t-0.5 2.5t1 1.5t2 2.5q0 1 -2 5h4v-4.5t2 -4.5q0 3 0.5 6t0.5 7h1h-1q-1 -2 -3 -4q-1 2 -1 3.5t-1 3.5q4 0 8 1q-4 2 -5 3q1 2 1 3.5t3 1.5v-3h1q0 2 -1 4q0 3 -2 7h2q2 -2 4 0v3l-1 -2q-1 0 -1.5 -0.5t-1.5 -0.5q1 15 -6 28l-2 -2q1 11 -6 25q-4 -3 -4 -6.5t-1 -7.5
q-4 -10 -6.5 -20t-4.5 -21q-3 -15 -6.5 -30.5l-6.5 -29.5q-4 -17 -7.5 -34.5t-8.5 -34.5l-10 -43l-10 -42q-3 -15 -5 -30t-6 -29l-4 -20.5l-4 -20.5q-2 -5 -3 -11t-2 -11q-2 -1 -5 -1q-1 2 -1 3t-2 3q-4 -8 -5 -17.5t-11 -16.5q2 -5 -2 -9t-3 -10l-3 3q-1 1 -1 4
q-8 6 -12 10q-3 -5 -3 -11.5t-7 -10.5q-1 2 -2 3t-2 3q-2 -1 -4 -1.5t-4 -1.5q-4 0 -5 -1q-2 -2 -4 -1t-3 -1q-4 3 -6 7t-5 7q-2 3 -2.5 7t-1.5 8q0 4 0.5 7.5t0.5 7.5q1 2 0.5 4.5t-0.5 4.5h1q0 1 0.5 1t0.5 1l9 45q2 8 3 15.5t3 15.5v6q-2 -4 -2.5 -6t-1.5 -4q-1 1 -2 1
q1 4 1 8t1 8l10 46l10 47l10 42.5l10 42.5q3 12 7 23.5t7 24.5l1 1v-8v-2v2q2 5 3.5 10.5t3.5 10.5l6 23l6 22q2 6 2.5 11t2.5 10q2 8 5 16.5t5 16.5l6 22l6 22l10 29t11 28l12 21q3 6 9 9l4.5 4.5t5.5 4.5v-5q0 -2 -1 -3q1 1 1 3q1 4 4 7q6 6 15 4q3 0 11 -2q0 -2 -0.5 -5
t-0.5 -7q0 -1 2 -1q4 3 4 9q2 -2 5 -2.5t4 -5.5v1v-1v-1q1 -1 1 -2q0 1 0.5 1t0.5 1h4q5 -3 6 -7q2 -4 4 -5t1.5 -3.5t2.5 -1.5l3 -5l7 -7l1 -1q0 1 -1 1q-1 2 -1.5 5t-1.5 5q2 -2 2.5 -3.5t2.5 -3.5q1 -2 5 -6v-1q0 1 -1 1l2 1q1 -2 2 -3t1 -3l17.5 -34.5l16.5 -34.5
l9 -20.5t7 -20.5q2 -6 4.5 -12t4.5 -13q0 -1 0.5 -1t0.5 -1q3 -2 3 -6t1 -7q1 -4 6 -9h-1v-2q2 -1 2 -3t2 -4v-2h-1l1 -1q0 -1 0.5 -1t0.5 -1q1 -1 1 -1.5t1 -1.5q2 -2 2 -4q-1 -4 0 -5.5t3 -3.5q2 -1 2 -4v-1v1q5 -3 2 -8h-1h1l3 -3v-2q1 -2 1 -2.5t1 -2.5h-1h1
q2 -3 3.5 -7t2.5 -7q0 -7 3 -12.5t5 -12.5q0 -2 0.5 -3.5l1.5 -4.5l1 -1q1 -2 1 -5t1 -5q2 -3 2.5 -5.5t2.5 -4.5q2 -6 3.5 -12t4.5 -12q4 1 4 6q4 17 7.5 33.5t6.5 33.5l12 52.5t13 52.5q7 28 13 55.5t13 54.5q2 9 5.5 18t7.5 18q0 1 2 5l2 -2l-2 2q0 3 4 1q0 -1 1 -1l-1 1
v5h3q1 2 1 3.5t1 3.5q1 3 3 7h-1v-2q1 -5 2 -6t6 -2q1 10 5 19q3 1 5.5 1t5.5 1q0 -7 1 -11h4q2 -7 6 -5q1 1 2 -0.5t3 -1.5q0 -7 -1 -11q0 -5 -4 -2v-4v1l2 -2q0 -5 -0.5 -8.5t-1.5 -8.5q2 1 3 1q2 7 3.5 13.5t3.5 13.5q1 2 1 3.5t1 3.5q0 6 4 7q1 0 3 4q6 1 7.5 -3t4.5 -6
q-2 -10 -3.5 -19.5t-3.5 -19.5h7q1 3 2 5l2 4q1 3 1.5 6.5t1.5 6.5q1 0 4 3q-2 -6 -2.5 -10.5t-1.5 -9.5l-3 -18h2q2 11 4.5 22.5t5.5 22.5l4 -4q2 -8 2 -11q1 -8 0.5 -15.5t-0.5 -15.5t-1 -15t-2 -15l-4 -26l-4 -26q-2 -11 -3.5 -21t-3.5 -21q-5 -28 -11 -56t-11 -56
q-5 -22 -9 -43l-8 -43q-3 -14 -5.5 -27.5t-5.5 -27.5q-4 -18 -7.5 -35.5t-6.5 -35.5q-4 -18 -7.5 -35.5t-7.5 -35.5q-3 -18 -7 -35.5l-8 -34.5q-5 -20 -10.5 -39t-10.5 -39l-4 -10l-4 -10q0 1 -0.5 1t-0.5 1q0 -1 -0.5 -1t-0.5 -1q-4 -2 -6 -9q0 -2 -0.5 -4t-0.5 -4
q-2 -5 -3.5 -10t-6.5 -9q-1 0 -1 -1q-2 -8 -12 -8h-3q-9 -15 -30 -8q-2 1 -3.5 1.5t-3.5 1.5q-7 3 -6 11q-2 0 -4 -0.5t-3 -0.5q-3 1 -5 6q-3 5 -4.5 11t-3.5 12q-3 12 -3 23.5t1 24.5l2 21.5t3 21.5l9 60q2 15 5 29.5l6 29.5q1 7 -4 14q0 5 -2.5 9.5t-4.5 9.5q0 7 -5 12
q0 8 -5 13q0 7 -5 14q-1 6 -2.5 11.5t-5.5 10.5q1 7 -3 11q0 6 -3 8q0 5 -3 10q0 6 -5 8q0 1 1 3t-2 2q0 4 -2 5q1 6 -3 10q0 8 -5 7q-1 0 -3 5q4 -2 5 -2q-1 2 -1.5 5t-2.5 5h1q0 5 -4 8q0 7 -4 14l-1 1q1 4 -3 9q0 2 0.5 5.5t-4.5 2.5q-3 0 -3 6l4 -4q-1 3 -1 5.5t-2 4.5
q0 5 -3 8q1 6 -3 10h-1q0 8 -4 10q-1 5 -2 9.5t-4 8.5q1 6 -3 10q-1 2 -1 4t-1 4q-5 -2 -5 3l-4 10.5l-4 11.5q2 -2 3 -2q0 -6 3 -10q1 -6 1.5 -7.5t5.5 -3.5q-2 4 -3 6.5t-3 5.5q-2 6 -3 10q-1 2 -1.5 4t-2.5 4q1 6 -4 13h-1q0 6 -3 8q1 5 -1.5 8.5t-5.5 8.5q0 1 -0.5 1
t-0.5 1v-3q1 -3 1 -7v1q-3 3 -4 6q-2 -4 0 -11q8 -18 14 -36.5t13 -37.5q5 -14 10 -29.5t11 -29.5q5 -16 10.5 -31t10.5 -31l9.5 -26.5l9.5 -25.5q6 -17 12.5 -33.5t12.5 -33.5q3 -9 5.5 -17.5t5.5 -16.5q0 -1 -1 -2q-1 2 -2 3.5t-2 3.5q-3 9 -10 16q-3 2 -4.5 6.5t-3.5 8.5
q-11 20 -20.5 40.5t-17.5 43.5q-5 17 -11 32l-13 32l-12 36.5l-12 36.5l-8.5 24.5l-8.5 24.5q-1 2 -4 5v1v-1q-1 -4 -2 -7.5t-2 -8.5l-6 -33t-7 -33l-10.5 -46l-10.5 -45q-3 -12 -5.5 -23.5t-4.5 -23.5l-4 -18.5t-4 -20.5l-4 -16.5t-5 -17.5q-2 -7 -4.5 -13t-4.5 -12v7
q-1 -1 -2 -1t-2 -1q-1 1 -1 2t-1 2q2 1 7 1q1 5 1.5 8.5t1.5 7.5h-1q-2 -2 -4 -8q-2 4 -2 5l3 6h5l4 15.5t2 15.5q3 3 0 7q0 -5 -1 -6q0 -3 -3 -6q-1 0 -5 2q2 0 2.5 0.5t1.5 0.5q1 2 -0.5 3.5t0.5 3.5q2 1 1.5 3.5t1.5 4.5v4h4h-1q1 0 1 -0.5t1 -0.5v1q5 9 5 21h1q0 3 2 9
q-2 2 -3.5 0.5t-0.5 2.5q1 1 3 0.5t1 2.5v2q3 7 2 12q-1 -4 -4 -8q0 2 -0.5 3t0.5 3q0 5 1 6q2 2 1 3t0 3l2 2h1h-1q1 2 0 4t2 3q1 0 0.5 2t-0.5 4q1 0 1.5 -0.5t1.5 -0.5q4 -3 2 3l-3 -3q0 3 -0.5 5.5t1.5 4.5v3q3 1 1 6zM159 447l-1 -1l1 1v1v-1zM250 447l-1 1q1 -1 1 -2
h1q0 1 -1 1zM275 342h1v1h-2zM206 648v-1v1zM89 130q1 0 1 -1l-1 1v1v-1zM91 142v-1q0 -2 -1 -2l1 -1v3v2q0 1 -1 1q0 -1 1 -2zM102 190v-2q-7 0 -2 -5q0 2 0.5 3t0.5 2l1 1q0 1 -1 1h1zM329 221h1h-1q0 1 -1 1zM326 231v-1v1h-1h1zM149 404l1 1zM267 399q0 1 -1 1l1 -1h1
h-1zM137 355v1v-1h-1h1zM311 272q0 -1 1 -1q0 1 -1 1v1v-1zM308 283q0 -1 1 -1q-1 0 -1 1h-1h1zM144 382v-1v1l1 1q-1 0 -1 -1zM302 300h1h-1l-1 1q0 -1 1 -1zM294 319v-1h2q-1 1 -2 1zM229 503l1 -1v1l-1 1v-1zM211 546v-1v1h-1h1zM320 220q-1 0 -1 0.5t-1 0.5q0 -1 0.5 -1
t0.5 -1q1 -1 1 -2v3zM261 388l-1 1v-1l2 -4v4h-1zM268 370h-2q0 -1 1 -1q0 -1 0.5 -1t0.5 -1v3zM313 237h1q-1 0 -1 1q0 2 -0.5 2.5t-0.5 1.5h-2q1 0 1 -1q1 -1 1 -2t1 -2zM309 252h-2q0 -1 1 -1q0 -1 0.5 -1.5t0.5 -1.5v3v1zM244 436h-2l1 -1l2 -2v2zM258 398q-1 0 -1 0.5
t-2 0.5q2 -1 2 -2l2 -2q-1 1 -1 3zM343 159v-1v1q-1 1 -1 1.5t-1 1.5q0 2 -1 5h-2l1 -1q1 -2 1 -3t1 -2zM97 171q1 0 1 -1l-1 1v2h-1q0 -1 0.5 -1t0.5 -1zM247 426q-1 0 -1 1q0 -1 1 -2v-1q0 -2 1 -2v4h-1zM69 422l-1 -1v1h1zM251 416h-2q0 -1 1 -1q0 -1 2 -3q-1 1 -1 4z
M305 261q-1 0 -1 1v-2l2 -2q0 2 -1 3zM325 207q-1 1 -2 1l1 -1q0 -1 0.5 -1.5t0.5 -1.5v3zM156 262v3q0 -1 -0.5 -1t-0.5 -1t-0.5 -1t-0.5 -1q1 0 1 0.5t1 0.5zM236 457h-2l1 -1q1 -1 1 -1.5t1 -1.5l1 -1v1zM215 640h1q-1 1 -1 3h-1q1 -1 1 -3zM296 289q-2 1 -3 1l1 -1
q0 -2 3 -2zM247 455v-1v1v2h-2zM279 335l-1 1v-2q1 -1 1 -2v3zM214 513h-1h1v-3h1q0 1 -0.5 1.5t-0.5 1.5zM209 524q1 0 1 -1q0 1 -1 1q0 1 -0.5 1.5t-0.5 2.5l-2 2q-1 2 -1.5 1.5t-2.5 -0.5q0 2 -2 5t-1 6q1 0 3 -2l2 -2q-1 1 -1 3q-2 4 -3 5q-1 2 -2 3t-2 3q2 2 -1 6
q-7 -13 -3 -20l5.5 -15l5.5 -15l3 -3l3 6h1h-1q-2 5 -3 9.5t-3 9.5h3q0 -1 0.5 -1.5t0.5 -1.5q1 -1 1 -1.5t1 -1.5zM229 474h1v1q-1 1 -1 1.5t-1 1.5q0 1 -2 1l1 -1zM258 626h-1q0 1 1 0zM29 86q0 2 1 3h-1v-3q-1 0 -1 -0.5t-1 -0.5q0 -1 1 -1zM288 307h-1l1 -1q0 -2 1 -2h1
q0 1 -0.5 1.5t-0.5 1.5h-1zM190 410q3 2 0 5v-5h-1h1zM315 231q-1 1 -2 1l1 -1q1 -2 3 -4l1 1zM224 487q1 -1 1 -2q0 1 0.5 1.5t0.5 1.5h-1q0 3 -4 3q1 -2 3 -4zM157 268q2 2 1.5 3.5t0.5 3.5q3 3 0 6v-6q-2 -4 -2 -6l-1 -1h1zM299 280q-1 1 -2 1q1 0 1 -2q2 -2 2 -4h1
q0 3 -2 5zM119 274q1 2 1 3.5t1 3.5q-1 -2 -1 -3.5t-1 -3.5v-2v2zM282 326h-2l1 -1q2 -2 2 -4l1 1zM272 354v1q2 2 -1 5q-1 1 -2 1q0 -1 0.5 -1t0.5 -1l2 -4v-2q0 -3 2 -5l1 1q-1 2 -1.5 2.5t-1.5 2.5zM231 469q-1 0 -1 1v-2q1 -1 3 -5q2 4 -2 6zM239 447q-1 0 -1 1v-2
l1.5 -3t3.5 0zM20 209q0 1 1 1.5t1 1.5h-2v-3q0 -2 -0.5 -2.5t-0.5 -1.5h1v4zM327 196q0 1 -1 1q1 0 1 -1q0 -4 3 -6q0 4 -3 6zM219 503q-1 1 -3 1v-1h2q0 -1 3 -7q1 7 -2 7zM333 182l-2 2l1 -2q2 -4 4 -6q0 -1 1 -1l-1 1q2 4 -3 6zM93 147h-1l1 2v2h-1q-1 0 -1 -2zM163 297
q-2 -3 -3 -9q4 2 3.5 4.5t0.5 4.5q0 1 1 2l-1 1q0 -1 -0.5 -1.5t-0.5 -1.5zM209 664q1 2 2 5t2 5q-4 -2 -4 -4.5v-5.5v-1v1zM223 673q-4 -3 -4 -10q6 -2 10 -4q-2 5 -3 8t-3 6zM173 506h-1q0 -1 -0.5 -1.5t-0.5 -2.5h1q0 2 0.5 2.5t0.5 1.5zM97 177h3v3h-3v-3zM144 206h-1
q0 -1 -2 -3q1 0 1 -1t1 -1q0 2 0.5 3t0.5 2zM88 134q1 0 1 -0.5t1 -0.5q1 1 0 1l-1 1q-1 0 -1 -1zM488 694h-1v-4h1v4zM193 421h-1q0 -1 -0.5 -1.5t-0.5 -1.5t1 -1q0 1 0.5 2t0.5 2zM254 404q0 1 1 1q-1 1 -1 1.5t-1 1.5l-1 -1q1 -1 1 -1.5t1 -1.5zM264 376l1 1
q0 1 -0.5 1.5t-0.5 1.5l-1 -1q0 -1 0.5 -1.5t0.5 -1.5zM285 315h1q0 1 -2 3h-1q2 -2 2 -3zM291 296q1 0 1 0.5t1 0.5l-2 2h-1q0 -1 0.5 -1.5t0.5 -1.5zM306 289v1q-1 1 -1.5 1t-1.5 1v-1q1 -1 1.5 -1t1.5 -1zM301 271q-1 0 -1 -1l2 -2h1q0 1 -2 3zM118 268h-1q0 -1 -1 -2
q1 0 1 -1q0 1 0.5 1.5t0.5 1.5zM161 453v3v-3zM108 226h1l2 2l-1 1q-1 -1 -1 -1.5t-1 -1.5zM346 180q-1 0 -1 1l-1 -1l1 -1q1 0 1 1zM257 428v-1v-1l1 1q0 1 -1 1zM239 478q0 1 -1 1v-1l1 -1v1zM254 436q0 1 -1 1h-1l1 -1h1zM25 76h1h1l-1 1q0 -1 -1 -1zM314 263v-1l1 -1v1
q0 1 -1 1zM162 462l1 1v1l-1 -1v-1zM541 625v1v1l-1 -1zM483 689q1 0 1 1h-1v-1zM165 472h-1v-1q0 1 1 1zM127 306v1l-1 -1h1zM140 362v1h-1v-1h1zM193 588l-1 1v-1v-1zM173 516h1h-1zM299 308v-1v1zM288 336v-1h1v1h-1zM122 286q1 0 1 1h-1v-1zM132 334h1h-1zM188 570h1v1
h-1v-1zM212 506v1h-1v-1h1zM186 564q1 0 1 -1l1 1q-1 0 -2 1v-1zM278 370l-1 1v-1h1zM200 456v-1v-1h1q0 1 -1 2zM105 208h-1h1zM334 208h-1q1 0 1 -1q0 1 1 1h1h-2zM146 391q-1 0 -1 -1h1h1zM103 200v1v-1zM131 328h-1v-1zM101 194h1h-1zM96 167h-1v-1zM94 158h-1l1 -1l1 1
h-1zM319 252h-1v-1q0 1 1 1v0zM155 433h1h-1zM112 247h1v1q0 -1 -1 -1zM134 340v1q-1 0 -1 -1h1zM141 369h-1l1 -1q0 1 1 1h-1zM107 220v-1v1zM23 216h1v1zM151 411v1h-1zM204 563l-1 -1h1v1zM171 497l-1 -1h1v1zM222 495v-1l1 1h-1zM322 214v1l-1 -1h1zM327 200l-1 1v-1h1z
M331 187l1 1h-1v-1zM537 642v-1h1zM882 643q1 -1 3 -2l-1 -1h-1h2q1 -2 2 -4.5t2 -4.5v-1l1 1l3 -6l-1 -1h1q4 -9 6 -19l4 -20q1 -4 1 -15v-18t-1 -20q0 -8 -1 -15t-3 -15l-4 -21t-5 -21q-2 -9 -6 -18t-7 -19q-5 -12 -9.5 -24l-9.5 -26q-5 -12 -11.5 -24.5l-12.5 -24.5
l-10.5 -18t-11.5 -17q-2 -4 -5.5 -8t-5.5 -9q-4 -1 -3.5 -4.5t-2.5 -5.5v1v-1q-8 -8 -14.5 -18t-16.5 -18h-2l-3 -3q-1 -1 -5 -3q-4 -4 -6 -5t-3.5 -1.5t-3.5 -1.5q-13 -8 -25 -14t-25 -11q-14 -5 -22 -3q-4 -3 -14 -1q-14 2 -23 8h6q3 3 2 3q3 1 11 1h11v1q-5 2 -7 1
q-8 -2 -14.5 0.5t-12.5 7.5l-11 7.5l-11 7.5q-11 8 -18.5 20l-14.5 24q-2 3 -3.5 6t-1.5 8q-2 10 -3 19.5t-3 20.5q0 5 0.5 8.5t-1.5 7.5v1q2 4 2 7q-3 1 -1 6q-1 0 -1 1v2q-1 2 1 3.5t-1 4.5q-1 1 -0.5 3.5t0.5 4.5q0 3 0.5 5.5t0.5 4.5q0 6 1 9l4 32.5t7 31.5
q5 20 11.5 38t13.5 35t15 32.5t17 30.5q20 33 49 57l15.5 13t15.5 11q4 2 7 4t8 2q0 -1 -0.5 -1.5t-0.5 -1.5h-1h1q6 2 11.5 3t11.5 0q5 0 7 -1q8 -3 18 0t21 3h7q7 2 13 1t13 -1l10.5 -2l10.5 -2t9 -2t7 -4t6 -5l6 -4l-2 -1q1 0 2 1l6 -12v-1zM885 615v-1v1h-2h2zM860 648
v-1v1h-1h1zM844 659h1l1 -1q0 1 -2 1q0 1 -0.5 1t-0.5 1q-1 0 -1.5 0.5t-1.5 0.5l-1 1q0 -1 1 -1t1.5 -0.5t1.5 -0.5q0 -1 0.5 -1t0.5 -1zM677 195h1h-1v-1v1zM745 223v1v-1h-1h1zM606 231h2q5 -1 7.5 -4t4.5 -6q2 4 5.5 2.5t6.5 -0.5q-1 4 -7 8q-6 3 -16 12q-5 3 -9.5 7
t-9.5 8l-1 1l-1 1q0 -1 1 -1v-1l-1 -1q1 0 1 1h1q0 -5 3 -8.5t5 -7.5v-1v1q2 -3 4 -5l4 -4v-1v-1zM590 270h2q-1 -3 1 -5l4 -4q0 -3 4 -2l-4 2q1 5 -5 9v2zM881 458q-1 0 -1 -1q0 1 1 1zM886 483h1l-1 -1v1zM894 533h1h-1v1v-1zM732 570l-2 -2q-4 -3 -10 -9q-8 -8 -13.5 -17
t-10.5 -20q-18 -30 -27 -65q-4 -14 -6.5 -29.5t-4.5 -30.5q-5 -28 -2 -53q2 -20 13 -34q3 -5 6.5 -8.5l7.5 -7.5q5 -5 9.5 -5.5t9.5 1.5q8 4 14.5 9t12.5 12q13 18 24 36t20 36t15 38q4 10 6.5 20t6.5 19q12 36 12 71q0 25 -14 45q-5 8 -9.5 14.5t-9.5 14.5q-1 2 -1 3.5
t-1 3.5q1 -1 5 -1q-4 4 -5 1q-13 -3 -22 -17l-2 -2q0 -1 -0.5 -1t-0.5 -1q-1 0 -1 -0.5t-1 -0.5q0 -1 -0.5 -1t-0.5 -1h-1q0 -1 1 -1l-12 -12v1v-1q-1 -1 -2 -2.5t-2 -2.5h-2zM696 200l-2 -2zM893 514v5v1v-1q-3 -3 0 -5zM702 204q2 0 2.5 0.5t2.5 0.5q2 1 4 0.5t2 3.5h3
l-1 1q-1 -1 -2 -1q-2 -1 -3 -2t-3 -2q-2 0 -2.5 -0.5t-2.5 -0.5q-1 -1 -2 -1h1q1 0 1 1zM721 210q2 2 3 2l-1 1q-1 -1 -1 -1.5t-1 -1.5zM582 289q0 1 -1 2q1 -1 1 -2q1 -1 1 -3h1q-1 1 -1 1.5t-1 1.5zM622 319q0 -1 0.5 -1.5t0.5 -1.5l1 1l-2 2q0 3 -3 5h-1h1q0 -4 3 -5z
M682 196q2 0 3 -1t2 3q-1 0 -5 -2q0 -1 -1 -2zM664 522q-1 1 -2 1q-1 -1 -1.5 -2t-1.5 -2q-3 -8 -8 -16q-8 -14 -13.5 -28.5t-10.5 -30.5q-4 -11 -7 -29q-3 -13 -5.5 -26t-1.5 -27q1 -18 12 -32q2 -3 4 -5.5t4 -5.5h1v2q-2 11 -2.5 22.5t0.5 22.5v13t-2 14v6q2 8 3 16t3 17
t5 18t5 20q3 15 11 33q2 5 3.5 9.5t3.5 9.5zM807 640q18 -18 32 -20q-2 11 -11 16.5t-21 3.5zM807 632q5 -2 7.5 -6t9.5 -6q-5 5 -8.5 8t-8.5 4zM675 288q2 5 -4 5q3 -3 4 -5zM765 341l1 -1q3 1 3 3l-1 1q-2 -1 -2 -1.5t-1 -1.5zM735 219q1 -1 1 -2q2 1 4 3v1q-1 0 -5 -2z
M669 193v-1h4q0 1 -1 2q-1 -1 -3 -1zM749 222q1 0 1 0.5t1 0.5v1h-2v-2zM836 664l-1 1h-2q0 -2 1 -2q1 1 2 1zM638 312q0 1 0.5 1t0.5 1v1q0 1 -2 1q1 -1 1 -4zM823 565q1 0 1 -1l1 1l-1 1q-1 0 -1 -1zM640 497h-1h1zM672 528v1q-1 0 -2 -1h1h1zM638 323q-1 0 -1 1l-1 -1
l1 -1zM890 595v-1q1 0 1 -1q0 1 0.5 1t0.5 1h-2zM588 279l-1 -1h1v1zM637 331v1v-1zM895 561v1v-1zM580 299v-1v1zM729 212l1 -1v1h-1zM646 191h-1h1zM588 254h-1v-1zM590 249v1h-1v-1h1zM774 354l-1 -1h1v1zM661 146q2 -2 3 -2h21q5 1 8.5 1h6.5q13 0 26 -0.5t25 -1.5h10.5
t10.5 -1q5 -2 10 -3t10 -3q2 -2 0 -3q0 -2 -2 -2q-7 2 -9 -1h-5q2 -1 3 -3t2 3q1 0 2 -0.5t3 -0.5h-1l-1 -2q1 -2 -1 -6q0 -2 2 -8q0 -1 -0.5 -1.5t-0.5 -1.5q-4 -10 3 -13v-3q0 -1 -0.5 -1t-0.5 -1q0 1 0.5 1t0.5 1q2 -1 2.5 -1t2.5 -1q-3 -10 -9 -11q-9 -5 -17 -4h-8
q-10 0 -19 -3q-8 -3 -16 -3.5t-16 -0.5q-11 -1 -23 -1t-23 -1h-15q-11 -1 -23 -1h-24q-10 -1 -20 -1.5t-21 -1.5q-8 -1 -15 -1t-15 -1q-8 0 -12 5q2 2 3.5 2.5t3.5 2.5q-2 6 -7 5t-8 2q0 2 -0.5 3t-0.5 3l-1 2q2 2 3 2.5t3 2.5q-4 8 -5 12l7 9t3 9q3 2 7 8h2q2 0 2 1l4 2
q4 1 6.5 3t7.5 1q4 -2 8 -0.5t8 1.5q24 0 47 3q5 1 9.5 1.5t9.5 0.5q1 1 4 -1q2 0 3.5 -0.5t3.5 0.5q-1 0 -2 0.5t-3 0.5q7 2 13.5 3.5t13.5 -0.5zM776 108h1h-1zM753 98v2q-5 -1 -9 -1t-9 -1q5 0 9 -1t9 1zM658 142q-5 2 -6.5 2t-6.5 -2h13zM607 138q1 0 1 1h-2zM782 136
v-1q1 0 1 1h-1zM740 150q-19 -2 -37 -2.5t-37 -1.5q35 6 74 4zM751 149q-1 -1 -6 1q2 0 3 -0.5t3 -0.5zM753 149h4v-1q-1 0 -2 0.5t-2 0.5zM764 226h-2h2zM753 149h-2h2zM524 130h2h-2v0zM627 366q1 3 1 10q3 -6 -1 -10zM629 354v-7h-2v7h2zM629 382v6v-6zM629 338v-3
q0 1 -0.5 1.5t-0.5 1.5h1zM608 231h-2v2z" />
    <glyph glyph-name=".notdef" horiz-adv-x="242" 
 />
    <glyph glyph-name="NULL" horiz-adv-x="0" 
 />
    <glyph glyph-name="NULL" horiz-adv-x="0" 
 />
    <glyph glyph-name="nonmarkingreturn" unicode="&#xd;" horiz-adv-x="242" 
 />
    <glyph glyph-name="space" unicode=" " horiz-adv-x="242" 
 />
    <glyph glyph-name="E" unicode="E" horiz-adv-x="476" 
d="M299 303q-4 -2 -10 -8q2 -1 3.5 -1t3.5 -1v-1l-15.5 -4l-15.5 -4q-14 -3 -28.5 -5.5t-29.5 -5.5q-11 -1 -21.5 -3l-20.5 -4q-3 0 -6.5 -1t-6.5 -2l-3.5 -8.5t-2.5 -7.5l-15.5 -48l-15.5 -48q-3 -10 -5.5 -20.5t-4.5 -20.5q0 -2 0.5 -3.5t-0.5 -3.5q6 1 12.5 1.5t11.5 2.5
q21 5 43 8.5t43 8.5q20 4 38 4.5t35 -0.5q6 0 8 -1q9 -3 17.5 -2.5t17.5 2.5q10 1 23 -2q1 -1 2.5 -2t1.5 -2q-1 -5 1.5 -5.5t4.5 -2.5q6 -3 4 -10q0 -6 -4 -6q-5 -1 -10 -1h-10l-3 -1.5t-3 -3.5q2 -1 3 -1t3 -1h16q5 0 6.5 -3.5t-2.5 -8.5q-2 -2 -6 -2q-6 2 -12.5 1
l-13.5 -2q-2 0 -2 -3q0 -1 2 -3q3 -1 6.5 -1.5t8.5 -1.5q-2 -4 -5 -4q-5 -1 -15 -5q-5 -2 -9.5 -2t-9.5 -1q-2 -1 -2.5 -1t-3.5 -3q2 -1 4 -1.5t4 -2.5q-8 -1 -15.5 -1t-15.5 -1q-17 -2 -34 -5.5l-35 -7.5q-20 -5 -39.5 -8.5t-39.5 -7.5q-8 -2 -16 -3t-17 -1
q-13 -1 -25.5 -3.5t-26.5 -1.5q-12 0 -22 6l-6 3q-14 5 -21.5 15t-11.5 22q-6 25 -1 56q4 30 12.5 60t18.5 60q5 12 8.5 24t7.5 24q0 2 -4 8q1 3 5 9q-6 6 0 13q-5 1 -9.5 -0.5t-9.5 -3.5q-4 -2 -7.5 -4.5t-5.5 -4.5q-3 1 -4 3t-1 4q1 5 0.5 11t2.5 12q0 1 1 2q0 -1 -0.5 -1
t-0.5 -1q-2 1 -4 1t-4 1q0 2 0.5 3t0.5 2l10.5 12.5t13.5 11.5q3 2 7 4t6 4l15.5 10t16.5 9q7 4 12 13q3 11 6.5 21.5l7.5 21.5q8 24 17.5 48l18.5 48q4 7 7 15l3 -3t2 -3q2 3 6 11l-6 2t-5 2q0 1 2 5q-5 1 -11.5 -0.5t-10.5 4.5q2 4 1.5 5t-4.5 4q3 4 4 9q2 2 0.5 4t-3.5 2
h-13q-4 3 0 7q8 4 10 6q-2 2 -3 5t-3 5q6 12 16 19q16 13 36 19q17 4 33 9.5l32 11.5q23 8 46 13t47 9q40 6 81 6q19 -1 37 -9q5 -2 9.5 -4t9.5 -4q14 -5 19 -14q2 -3 3.5 -5.5t3.5 -5.5q9 -14 5 -28q-1 -3 -3 -11q-4 -2 -8 -3t-9 -3q-13 -3 -14 -15v-9q-4 -3 -7 -4t-7 -2
q-14 -2 -29 -3t-30 -1q-6 0 -11.5 -0.5t-10.5 -1.5q-4 0 -7 -0.5t-7 -0.5q-25 -1 -50 -3.5t-48 -7.5q-2 0 -4 -2l-3 -3q2 -14 -1.5 -28t-6.5 -29q-8 -38 -21 -73q-2 -4 -2.5 -8t-1.5 -8q5 -4 9 -3.5t8 1.5q10 2 19.5 2t18.5 1q23 1 45 -5q9 -2 18 -6q9 -3 11 -5t6 -13
q13 -3 22.5 -9.5t9.5 -23.5q-3 -2 -6 -5t-6 -5q-2 -1 -4 -1t-4 -2q-12 -5 -23 -2q-2 2 -7 1.5t-9 -2.5q8 -1 14.5 -1.5t13.5 -2.5q4 -2 3 -6h1q-8 2 -11 -6q-7 1 -14 0.5t-15 1.5q-11 2 -21.5 2t-21.5 -2q-13 -2 -24.5 -3t-23.5 -3q-10 -2 -19.5 -3.5t-18.5 -3.5
q-2 -5 -3 -6q-9 -22 13 -16l42.5 7.5t42.5 5.5l18.5 2t19.5 1zM179 323h3q1 0 1 1q-1 1 -2 0l-2 -2v1zM97 191q-4 -3 -4 -7v-9q3 5 3 9t1 7l2 2v2l-1 -1q0 -2 -1 -3zM239 333h24q2 0 3.5 1t3.5 2h1h-1h-11t-13 -1q-3 0 -7 -2q0 -1 -0.5 -1t-0.5 -1q0 1 0.5 1t0.5 1zM219 329
q-13 0 -16 -0.5t-9 -5.5l10.5 2l11.5 2q1 0 1 1l1 1l1 1v-1zM199 523v-17l11 26t7 24q0 1 -1 1.5t-1 1.5q-15 1 -16 -10q-4 -9 -6 -20q0 -2 -0.5 -4.5t-0.5 -6.5q6 4 7 5zM92 169q-8 -14 -12.5 -27.5l-9.5 -27.5q0 -4 -1 -7.5t1 -7.5t5 -1q4 3 6 8q2 14 5 27t5 26q0 2 0.5 5
t0.5 5zM190 501q-4 -3 -4 -5v-2q1 0 1.5 0.5t1.5 0.5q0 3 1 6zM180 477q0 -1 -2 -3q2 -4 2 0q1 0 1 2zM104 210v1q0 -1 -0.5 -1t-0.5 -1zM130 528v1h-1v-1h1zM195 497q0 -1 -0.5 -1t-0.5 -1h1l1 1q-1 0 -1 1zM15 28l1 1h-1h-1q0 -1 1 -1zM177 440h1v1zM158 409l-1 -1v-2l1 1
v2zM230 331h-2l1 -1zM290 330l1 1h-1v-1zM307 331v-1l1 1h-1zM246 327v1h-1zM131 298l-1 -1q0 -1 1 -2v1v2zM282 295h-2v-1zM126 284v-1q0 -1 1 -1v1zM118 255l-1 -1q0 -1 -1 -2l2 1v2z" />
    <glyph glyph-name="F" unicode="F" horiz-adv-x="499" 
d="M218 345q-7 -7 -13 -6h-7v2l1 1v-1l-2 -1q1 -1 2 -1q-1 -1 -1 -4v1q-4 0 -8 -4q-2 -3 -5 0q0 1 1 1q-1 0 -1 -1q-6 -1 -8.5 -4.5t-4.5 -7.5t-2.5 -7t-1.5 -5q-5 -25 -11 -49t-11 -48l-16.5 -67.5t-16.5 -68.5l-5.5 -21t-6.5 -20q-4 -11 -12 -12q-8 -3 -11 -9q-2 -3 -5 -4
t-6 -3q-14 -4 -28 -1q-4 1 -7 1.5t-7 1.5q-6 8 -8 12q-2 0 -2.5 -0.5t-1.5 -0.5q-3 5 -4 10.5l-2 10.5q0 5 -1 10.5t-1 11.5q-2 14 -0.5 27.5t4.5 27.5l12 57.5l12 56.5l10 43.5l10 43.5q1 5 0.5 7.5t-4.5 5.5q-3 2 -5 5t-5 5q2 1 4 1q2 2 3 2q-3 3 -2 3q0 1 -4 1q-5 2 -5 8
q0 7 5 8q5 3 13 4q-4 2 -6 2t-4 1q-5 3 -2 9q6 9 19 14q9 3 13 9t6 14q9 35 19.5 69.5l21.5 68.5q0 4 1 6q-4 4 -6 5q-4 2 -8 2t-8 2q-16 7 -23 25q-1 2 -1 9q-1 5 2.5 9t-0.5 9q2 5 2.5 9t2.5 9q11 6 26 10.5t25 6.5q3 1 6 1t6 2q15 7 29 8q15 2 29.5 4.5t28.5 6.5
q12 2 24 5.5t24 5.5q17 4 34 6.5t34 4.5q23 2 46.5 3t47.5 1q3 -1 6 -0.5t6 -0.5q12 -3 15 -4.5t8 -13.5q-5 -2 -9.5 -2t-9.5 -2q4 -2 7 -3t7 -2q4 -2 14 -6q11 -5 14 -14q-2 -5 -3 -9t-3 -8q-3 -11 -12 -15q-3 -2 -6.5 -4t-6.5 -4q-8 -2 -11 -3l-46 -11.5t-46 -7.5
q-8 -1 -17 -2t-17 -3q-3 0 -5.5 -0.5t-5.5 -0.5q-19 -2 -37 -3.5t-36 -3.5q-10 -2 -17 -4q-1 -2 -2 -4.5t-1 -4.5q-2 -18 -6 -35.5t-9 -36.5q-5 -27 -12 -53q0 -6 -1 -10h7q22 5 41 5h10q16 4 31 3t30 -3q2 0 4.5 -0.5t4.5 -0.5q7 1 6 -6q0 -2 5 -2h-1q2 -6 3.5 -7t9.5 -1
q1 -2 2 -3.5t1 -3.5q1 -2 1.5 -4t1.5 -4q-2 -1 -4 -3q-7 -4 -2 -9q3 -3 5 -4q-6 -2 -8 -3.5t-7 -9.5q-8 -1 -16 -3.5t-16 -5.5q-8 -2 -16.5 -4.5t-17.5 -4.5q-11 -2 -22.5 -5.5t-22.5 -6.5q-3 -2 -6.5 -1t-5.5 -2zM493 656h-1v-1zM60 372v-1h2zM58 350h-1h-1l1 -1q1 0 1 1z
M209 342v1h-1zM186 339q-1 1 -2 1l1 -1h1zM229 697h15h1h-8.5t-8.5 -1zM317 703h-9v1h9v-1zM221 695q-4 -1 -5 -1.5t-2 -0.5t-1.5 0.5t-1.5 0.5q1 1 3 1h7zM198 691h-3h1q1 1 2 0zM263 699q-1 1 -2 1q1 1 2 1t1 -0.5t1 -0.5q-1 -1 -2 -1zM198 335h9q-4 -2 -5.5 -1.5
t-3.5 2.5v-1zM339 430q1 1 1 2l2 -1h-1q-1 -1 -3 -1h1zM218 345q0 -1 1 -1z" />
    <glyph glyph-name="G" unicode="G" horiz-adv-x="567" 
d="M464 467q-2 -1 -3.5 -1.5t-3.5 -1.5q-2 2 -3 4t-3 4q-3 0 -5 -4t-4 -5q-4 -4 -7 3q-1 1 -1 1.5t-1 1.5q-4 -5 -5 -8t-3 -17q0 3 -2 7h-3q-2 -1 -2.5 2t-3.5 1q-2 -1 -2.5 0.5t-1.5 1.5q-1 2 -3 4v12q-3 4 -6.5 2.5t-8.5 0.5q0 1 -1 2l-3 3q-4 5 -4 11q0 11 -3 20
q-2 8 -1.5 14.5t2.5 14.5q1 4 2 9t-1 10q-5 -2 -6 -3q-27 -24 -52 -49.5t-47 -55.5q-24 -35 -45.5 -70.5t-39.5 -73.5q-16 -32 -28 -66t-19 -69q-2 -14 -3.5 -29t-0.5 -29v-10q-2 8 -3 13.5t-3 11.5q-1 5 -0.5 11t-4.5 11l-2 -14t-1 -13q0 -13 11 -26q8 2 15.5 6.5t14.5 9.5
l13.5 7.5t13.5 8.5q2 -2 4 0q4 2 7.5 3.5t7.5 4.5q5 4 11 8t11 8l36 30l35 30q8 6 13 14.5t8 18.5q-3 1 -7 1q-5 -1 -8.5 -1.5t-7.5 -1.5q-9 -3 -18 -2.5t-17 2.5q-9 1 -10 10v4q-7 3 -14 2h-14q3 2 5 4t7 5q-5 -1 -9 -1h-8q1 2 0.5 5t1.5 5q2 3 4.5 5.5t7.5 4.5q11 4 26 7
q8 2 11 3q14 5 27 7.5t27 5.5t28.5 5.5t29.5 4.5l13.5 2t14.5 1q5 2 7 -2q4 -5 14 -7q3 -1 5.5 -3.5t5.5 -4.5q2 1 4.5 2.5t4.5 1.5t3.5 -2t3.5 -3t5 -1t6 -1q-3 -2 -5 -2t-4 -1q-3 -2 -3 -7q-2 -7 -1 -10q2 -4 0 -7t-2 -7h-3q-2 1 -3 0l-1 -1l-1 -1l2 2h3v-7q0 -1 -1 -2
q1 1 1 2q2 1 3 3t1 3q4 4 7 7.5t8 7.5q4 -2 1 -5q0 -9 -3 -15q-6 -17 -11 -33.5t-12 -31.5q-4 -8 -7 -16t-6 -17l-16 -48t-18 -48l-8.5 -18.5t-9.5 -18.5l-6.5 -9t-8.5 -7q-2 -1 -5 -6q-8 -20 -29 -24l-4 2l-4 2l-4 -2q-7 -3 -10 -2.5t-8 6.5q-2 2 -4 3t-6 1q-3 0 -6 3
q-5 3 -6 5q-4 8 -8.5 16t-4.5 17q-1 5 -1.5 11.5t-2.5 12.5q-1 0 -1 1t-0.5 1t-0.5 2q-3 -2 -5 -3.5t-4 -3.5q-28 -27 -57 -41q-9 -5 -19 -9t-19 -9l-2 -1q-18 -1 -36 -1t-37 10q-41 21 -64 60q-25 40 -26 81q0 4 -0.5 7t-0.5 7q-1 2 -1 9q2 31 6 61t14 60q9 28 21 54.5
t26 52.5q7 11 13.5 23t11.5 26q6 11 12.5 21t12.5 21l9 14.5t8 14.5q1 1 1 4v-1q3 5 6 8.5t5 6.5l-2 4q8 5 11.5 11t6.5 12q1 2 2.5 4.5t3.5 4.5q4 2 7 6l11.5 15.5t13.5 13.5q9 10 17.5 18t19.5 16q7 4 13 8.5l13 9.5q3 2 6 3.5t6 2.5q6 2 12 5t12 5q7 4 18 8q5 2 11 3.5
t11 3.5q1 1 3 1q20 2 39 0t37 -10q5 -2 8.5 -4t7.5 -4q5 2 8 5t6 5l12 10.5l12 10.5q24 16 55 14q12 -2 19 -7q8 -5 15 -14.5t9 -19.5q0 -2 1 -4q0 -4 -2 -6.5t-3 -5.5q-1 -2 0.5 -6t-0.5 -7q-4 -5 -5.5 -10t-6.5 -9q-2 -2 -1 -5q1 -5 -1 -9t-3 -9q-2 -5 -3 -9t-3 -7
l-3.5 -9t-3.5 -8q-3 -7 -5.5 -13.5t-5.5 -12.5q-2 -1 -4 -1.5t-4 -1.5q-4 -1 -3 -8q-4 -4 -4.5 -10t-3.5 -10q-6 -7 -11 -16q-2 -4 -3 -7.5t-2 -7.5q-1 -5 -2 -9t-3 -7q-9 -2 -11 -2t-6 3q-2 -1 -2 -2.5t-1 -3.5h1zM116 484q2 2 4 3q3 3 3 6q5 2 7 10q3 1 3 6h1q0 1 1 1
l-2 -2q-3 -1 -3 -5q-5 -2 -7 -10q-3 -3 -3 -6q-2 -2 -4 -5v2zM515 555l1 1q0 -1 -1 -1v-1v1zM213 617q1 1 1.5 2t2.5 2l3 3l1 1l-1 -1q-2 -2 -3 -4q-2 -2 -4 -3v-1v1zM140 519q1 1 1 2v2q0 -3 -1 -4l-1 -1q1 0 1 1zM149 535l-2 -2v-1l2 4l1 1q0 -1 -0.5 -1t-0.5 -1zM409 482
q0 3 -1 4l-2 -1q0 -1 0.5 -2t0.5 -3zM139 173q0 1 -0.5 1.5t-0.5 1.5q0 -1 -0.5 -1t-0.5 -1q1 -1 1 -2zM319 288h1l-1 1q-1 0 -1 -1h1zM255 272l-1 1l-1 -1h2zM407 460q0 -2 -0.5 -3.5t-0.5 -4.5q-3 5 1 8zM96 476q0 -1 -0.5 -1t-0.5 -1v-1h-1q1 1 1 1.5t1 1.5zM519 542
q-2 -1 -4 -3q2 1 4 3zM515 539q-2 -3 -3 0h3zM133 525h-1q1 0 1 -1v1zM463 467q1 -1 2 -1q-1 0 -1 1h-1z" />
    <glyph glyph-name="H" unicode="H" horiz-adv-x="587" 
d="M208 490q0 -5 -0.5 -10t-0.5 -10q-2 -9 -3 -18l-2 -18l-2 -11.5l-2 -10.5q3 -1 5 -3h10q14 2 28 3t28 4q5 1 11 1.5t12 1.5q17 2 33.5 2.5t33.5 1.5l24 2t23 -1q4 2 6 9l20 78.5l20 78.5q8 34 19 67.5t23 66.5q5 11 11 22l6 6q6 6 12 2q3 0 5 -1q0 2 0.5 4t0.5 4
q2 -3 4 -5q5 -8 12 -3q1 0 2 1t2 0q2 -2 3 -4l1 1q4 6 8 5q7 -3 8 -9v-1q-2 -8 0.5 -14t5.5 -12q1 4 4 8q4 -11 4 -23q0 -10 0.5 -19.5t-0.5 -19.5q0 -11 -1 -21t-3 -21l-15.5 -87l-15.5 -87q-5 -32 -12 -62.5l-14 -61.5l-24.5 -107.5t-26.5 -107.5q-8 -30 -17 -59.5
t-20 -58.5q-7 -20 -30 -33q-2 8 -3.5 9.5l-6.5 6.5q-17 -4 -21 -6t-11 -9q-16 5 -23.5 16.5t-11.5 27.5t-2.5 31.5t4.5 31.5l10 45.5l10 45.5l13.5 62.5t14.5 62.5q0 2 0.5 3.5t0.5 3.5q0 7 -6 7q-10 0 -19.5 -0.5t-19.5 -0.5q-7 -1 -14 -1.5t-14 -0.5h-37.5t-37.5 2
q-11 1 -21.5 0.5t-21.5 0.5q-3 0 -9 -2t-7 -6t-1.5 -7t-1.5 -7q-1 -3 -2 -7t-1 -7q1 -4 -0.5 -7t-2.5 -6q-2 -4 0 -8q2 -5 -3 -7q-1 -1 -1 -6t2 -11q-2 -1 -4 -3q-1 -5 0.5 -10.5t-2.5 -10.5h-1h1q-3 -26 -8.5 -50.5t-13.5 -47.5q-10 -31 -25 -53q-8 -13 -11 -26
q-2 -6 -3.5 -12t-3.5 -12q-8 -2 -13 -7t-13 -7q-1 0 -1 1q-2 4 0.5 7.5t-1.5 7.5q-5 -2 -5.5 -6.5t-4.5 -6.5q-8 -2 -16 0t-14 11q2 8 3 16t3 16q2 4 2 8q-1 3 -2.5 2.5t-3.5 -1.5q0 2 0.5 3.5t0.5 3.5q-1 5 -2 5.5t-7 2.5l1 -1q-4 5 -5.5 10t-3.5 10q-3 10 0 20l10 46
l10 46q4 19 7 37.5t7 37.5l18 84l16 71.5l16 71.5l12.5 53t13.5 53q6 25 12.5 49t14.5 47l3.5 9t4.5 7t6 3q8 -3 14 3q5 5 14 -2q2 -3 7 -8q5 0 6 4t5 6q1 0 1.5 0.5t1.5 0.5q16 -4 18.5 -7.5t0.5 -19.5q-2 -6 -2.5 -12t-1.5 -12v-5.5t2 -5.5q3 -3 3 -6v-7q-2 -7 -2 -13.5
v-13.5l-3 -12q-4 -14 -6 -27l-4 -27l-3 -24q-2 -8 3 -10q-1 -4 -1 -7.5t-3 -6.5v3.5t-2 3.5q-1 -4 2 -7zM245 385q4 -2 7 -2.5t7 -0.5t7.5 -0.5t7.5 -0.5q6 -1 11.5 -1.5t11.5 -1.5q5 0 9.5 0.5t9.5 -1.5q12 -2 24 -2t24 -1q7 0 13 0.5t13 0.5q8 0 9 7q1 1 1 4q1 2 -1 4.5
t-4 1.5q-11 -2 -20.5 -2t-20.5 -1h-23t-24 -2t-24 -1.5t-25 0.5q-4 -1 -13 -1zM403 407q-8 0 -14 -0.5t-12 -0.5h-20.5t-20.5 -1l-16.5 -2t-16.5 0q-9 0 -18.5 0.5t-18.5 -1.5q-11 -2 -21 -2.5t-21 -0.5h-11t-11 -2q16 -2 31.5 -1.5t31.5 0.5q1 0 1.5 0.5t1.5 0.5
q5 1 9.5 1.5t9.5 0.5h37q8 0 11 1q6 2 11.5 2h10.5h39q2 0 4 0.5t3 4.5zM210 697v-1h1zM310 393v2l-1 -1zM232 390h1l-1 1h-1q0 -1 1 -1zM212 504v1v-1z" />
    <glyph glyph-name="I" unicode="I" horiz-adv-x="351" 
d="M210 93q1 -4 7 -4q7 -1 9 -11q0 -4 -0.5 -7.5t-0.5 -7.5q-2 -3 -6 -3t-4 -4q0 -2 4 -10q-14 -25 -48 -31q-26 -6 -48 -5q-8 1 -17 1h-17q-9 0 -17.5 2t-16.5 5q-11 3 -20 6.5t-17 7.5q-17 8 -22 30q-2 9 3 21.5t16 15.5q4 2 14 6l-2 4q12 6 25.5 8.5t26.5 9.5q2 5 3 10
t3 10q7 32 13 63t13 63l8 35l8 36l24 117l9.5 45.5l9.5 45.5q7 25 12 51q1 3 0.5 5.5t-0.5 4.5l-2 2q-19 6 -32 20q-1 2 -3 2.5t-4 2.5q-5 5 -5 8q1 5 -2 7t-4 5q0 3 2 4.5t3 3.5q1 3 -0.5 5.5t-3.5 4.5q-3 4 -1.5 7.5t6.5 4.5q4 1 12 1q0 5 -4 4.5t-6 2.5q3 3 5 4
q3 2 6.5 2t7.5 1t14 3q-4 3 -18 4q2 2 3.5 3t3.5 2q4 2 6 2h29t28 -3v-1q-6 -2 -10 -2q1 -3 2 -3h3h64q8 0 13 1q11 3 18 -4q2 -2 6 -4q0 -4 3 -4h17q5 0 5 -3q0 -1 -3 -4q-2 -2 -4 -3q2 -2 3.5 -2.5t3.5 -2.5q0 -2 -0.5 -3.5t-0.5 -3.5q-3 -8 7 -11q-6 -2 -11.5 -3
t-10.5 -3q-3 -10 4 -16q-5 -11 -14 -14l-15.5 -6t-15.5 -5q-5 -2 -9 -3t-9 -1q-2 -8 -2 -11q0 -8 -0.5 -15.5t0.5 -15.5q2 -23 -1 -45.5t-8 -44.5q-8 -41 -17 -80.5l-19 -79.5l-13.5 -49.5l-13.5 -48.5q-2 -8 -4 -14.5l-4 -13.5q-5 -14 -9 -29t-9 -29q-1 -2 -1 -6
q-2 -6 6 -8q15 0 26 -8q-2 -3 -4.5 -3h-4.5q-4 0 -4 -3q0 -4 4 -4q3 -1 6.5 -1h6.5h9q4 -8 -3 -13q-2 1 -4 3q0 1 -1 1l1 -1q1 -1 2 -1.5t2 -1.5zM319 686h-1q1 0 2 -1z" />
    <glyph glyph-name="J" unicode="J" horiz-adv-x="470" 
d="M311 420q2 2 2.5 5t1.5 6l11.5 45t10.5 45l4 18l4 18t3.5 18t3.5 18q2 5 3 10.5l2 10.5q2 9 -6 7q-4 0 -12 -2q-13 -4 -22 -1q-3 2 -5 -0.5t-6 -2.5q-5 2 -10 0q-8 -2 -17 -1t-18 1q5 2 8.5 3t8.5 3q2 0 4.5 0.5t4.5 0.5q3 -1 5.5 -0.5t5.5 1.5q7 1 13 3t14 2q4 -2 4 5
q-11 2 -21.5 -2t-21.5 -4q-11 -1 -21 -4t-21 -5q-5 5 -6 7h-21t-20 -1q2 4 4 4t4 1q5 2 10 2.5t10 2.5q2 0 3 1t3 2v2q0 1 1 1q-3 3 -4 3l-14 -2t-14 -3q-5 -1 -9 -2t-9 -2q-2 0 -4 1.5t-1 3.5q0 3 2 9q0 2 -2 6q5 4 8 8.5t8 6.5q3 9 10 10.5t15 3.5q20 4 41 7.5t42 6.5
q2 1 6 1q11 4 21 5l21 2q7 0 13.5 1.5t16.5 3.5q-5 1 -7.5 1h-4.5q-13 1 -25.5 0.5t-25.5 -2.5q-5 -1 -9 -0.5t-9 1.5q13 2 25.5 3.5t24.5 3.5q8 1 15.5 0.5t15.5 -2.5q5 -2 10.5 -1.5t10.5 -3.5q3 0 5 1q10 3 19 0l18 -6q19 -5 29 -19q2 -3 5 -6t5 -6q4 -5 6.5 -9t3.5 -10
q0 -4 1.5 -7.5t2.5 -6.5q-2 -4 -5 -4.5t-6 -1.5q-4 2 -6.5 5.5t-7.5 3.5h-1h1q5 -12 13 -17q5 -5 4 -11v1q-5 2 -6.5 1.5t-4.5 -5.5q-5 -2 -6.5 2.5t-6.5 2.5q-1 -4 1.5 -5t4.5 -3l6 -9l-4 -2q-3 1 -6 2.5t-6 3.5q-3 -5 -4 -9t-2 -9t-1 -10.5v-10.5q-2 -22 -9 -41l-1 1l1 -1
l-2 -12t-5 -12q0 1 -1 1h1q-1 -8 -2 -14.5t-5 -13.5q0 1 -1 1h2q-2 -14 -4 -22q-7 -23 -12.5 -45.5l-11.5 -45.5l-3 -6l-1 1l1 -1q0 -7 -3 -10q-1 0 -1 1q0 -1 1 -1q-2 -7 -3 -14t-3 -14q-7 -23 -13 -45t-13 -45q-2 -8 -5.5 -16.5t-6.5 -16.5q-2 -5 -4 -15q-3 -2 -3 -7v1
l-6 -9q-2 -7 3 -9l-1 1q-2 -9 -6 -16t-8 -15q-7 -12 -8 -22q0 -5 -2 -9q-13 -22 -28 -40t-35 -32q-16 -11 -33 -17.5t-36 -10.5q-4 -1 -8 -1.5t-8 -2.5q-10 -3 -20 -5t-21 -1h-14q-8 -1 -20 4q-9 4 -17 5q-11 3 -17 11l-11.5 12t-10.5 13l-9.5 13.5t-6.5 14.5q-4 13 -7 25
t-5 26q0 2 -0.5 5t-0.5 5q-2 12 -0.5 23t10.5 21q3 7 8 12t9 11q5 8 12.5 10t15.5 3q6 -3 12.5 -4t11.5 -6l19.5 -17l19.5 -16q8 -8 19 -12.5t22 -6.5q9 -2 20 0q4 1 7 2.5t7 2.5q21 6 26 24q0 3 2 5q2 3 4 5.5t3 5.5q2 3 2 6.5t1 6.5q2 4 4 6v-2h1l-2 2q2 2 4 7q0 -1 1 -1
h-1q0 5 1 7h5q0 2 -0.5 4.5t-0.5 5.5q0 2 1.5 1.5t3.5 1.5q2 1 3 2.5t-1 2.5q-6 3 -2 7q0 1 2 3q1 0 3 -2q2 4 0 7.5t0 7.5q2 3 2.5 6.5t2.5 6.5h1h-1q0 2 0.5 4t0.5 4q2 0 3.5 -1t2.5 2v5q3 2 3 4.5v5.5l1 1q0 -1 -1 -1h-3q0 8 3 10q1 0 1 -1q0 1 -1 1q2 12 3 23.5t5 22.5
q2 4 1.5 8t1.5 8l4 15.5t3 15.5q2 5 6 5q2 -2 4 0h-1q3 2 3 5t1 5q3 2 3 5v6v-1zM318 143q1 0 1 1v1q0 -1 -0.5 -1t-0.5 -1l-1 -1zM297 373l1 1v-1q-1 0 -1 -1v1zM301 383l1 1l-2 -2zM416 488l-2 -2v-2l2 4q0 1 1 1zM301 99q3 4 3.5 5.5t1.5 6.5q-4 -2 -4.5 -5.5t-0.5 -6.5
q0 -1 -1 -1zM421 512q-1 -1 -1 -3t2 0v3h-1zM334 652h2l-1 1zM338 631q1 0 1 1h-1h-1zM405 448h-1v-1zM286 329h-1l1 -1v1zM308 410q-3 4 -3 5t3 5v1v-11zM281 706h-1l1 1v-1zM301 400q0 2 1 3l1 1l1 -1v-3h1h-4zM487 616h1l-1 1v-1zM308 420q1 3 3 0v1h-3v-1z" />
    <glyph glyph-name="K" unicode="K" horiz-adv-x="539" 
d="M422 11q1 -4 0.5 -8t1.5 -8q2 -6 -4 -8q-4 1 -5.5 5t-6.5 4l3 -9h-10q0 -6 4.5 -10t2.5 -11q-4 1 -6 3.5t-4 4.5q-3 2 -5 4t-5 4q-4 2 -7 -2q-3 -2 -1 -6q3 -3 7 -9v-5q-3 -2 -6 0t-7 1t-5.5 2.5t-5.5 4.5q0 -2 -2 -4h1q-6 0 -10 2t-9 5q-21 15 -39 32t-35 37
q-20 24 -38 49.5l-37 50.5q-2 4 -4 7.5t-7 5.5q-4 -2 -6 -5l-4 -6l-25 -34l-25 -34q-26 -34 -36 -72q-2 -7 -4.5 -13t-5.5 -12q-10 -19 -32 -22q-28 -6 -42 17q-4 5 -8 12q0 7 0.5 13.5t0.5 14.5q1 3 1 6.5t1 6.5q2 10 4.5 19.5t5.5 19.5q6 21 11 42t9 42q4 20 7.5 40.5
t5.5 41.5q2 11 3.5 21.5t3.5 21.5q2 13 4.5 25t4.5 25q3 18 6.5 36l7.5 37l13.5 63.5l13.5 63.5l10.5 46l10.5 46q1 4 2 7.5t2 7.5q2 6 5 11.5t10 7.5q0 2 0.5 4.5t0.5 4.5q1 5 2.5 8t7.5 2q5 4 10 7t7 11q0 1 2 7q3 -2 5.5 -4t4.5 -4q6 2 6.5 8.5t8.5 7.5q1 -7 5 -14
q2 -5 3 -5q5 0 5.5 -4t2.5 -5q3 -2 3.5 -5.5t5.5 -3.5q0 -3 0.5 -6.5t0.5 -6.5v-20q0 -6 4 -7q3 0 3 -4v-26t-2 -26l-10.5 -60.5l-10.5 -60.5q-3 -21 -7 -42t-9 -41q-2 -5 0 -8q3 1 4.5 3.5t3.5 4.5l45 69q27 43 57 84q19 25 39.5 47.5l41.5 45.5l30.5 34.5l31.5 34.5
l9.5 9.5l9.5 9.5q15 14 30 19q9 4 18 3q6 0 11 -1.5t7 -8.5q2 -5 6 -6t7 -3q-3 -8 0.5 -13.5t3.5 -11.5q-1 -4 -4.5 -6.5t-2.5 -7.5t-3 -11q-3 -5 -6.5 -8.5t-6.5 -7.5q-3 -5 -6.5 -8.5t-7.5 -8.5q-3 -3 -3 -8q-1 -11 -5.5 -21.5t-11.5 -19.5l-22 -31l-22 -29l-93 -123
q-23 -30 -44 -60.5l-44 -61.5q-4 -5 -7.5 -11t-7.5 -11q-2 -2 -2.5 -3.5t-1.5 -3.5q2 -5 4.5 -8t5.5 -6l29 -29l29 -30q9 -9 17 -18.5l17 -19.5l21.5 -24.5l21.5 -24.5l21.5 -21.5t18.5 -23.5q2 -2 4 -6q3 -5 1 -10q-1 -3 -9 -3q-2 2 -3 4h-1h1q1 -1 1.5 -2t1.5 -2zM218 600
h-1q0 -2 0.5 -2.5t0.5 -1.5l1 1q0 1 -0.5 1.5t-0.5 1.5z" />
    <glyph glyph-name="L" unicode="L" horiz-adv-x="485" 
d="M261 681l7 -7t6 -7q-5 -23 -9 -46t-7 -47q-1 -4 -2 -7.5t-3 -8.5q-5 -15 -13 -26t-10 -24l-4 -18l-4 -18q-1 -4 -1 -8t-1 -9q-4 -2 -3.5 -5.5t0.5 -7.5q-4 -3 -3.5 -6.5t0.5 -7.5q-4 -2 -4 -5.5v-7.5q-4 -3 -3.5 -6.5t0.5 -7.5q-4 -4 -1 -8q0 6 1 9q3 2 3 5.5v7.5
q4 3 3.5 6.5t-0.5 7.5q4 2 4 5.5v7.5q3 3 3 6.5v7.5q1 2 2 3.5t2 3.5q10 40 28 83t27 94q0 -1 2 5q2 -10 2 -16q-2 -20 -4.5 -39t-4.5 -37q-4 -20 -14.5 -34.5t-14.5 -31.5l-22 -94l-22 -94q-12 -51 -25 -101t-28 -101l-8 -25.5t-9 -25.5q-1 -2 -1 -4t-1 -4q-2 -9 6 -7
q10 2 20 4.5t20 4.5q18 3 36 6.5t37 6.5q6 2 12.5 2t13.5 1q3 -4 8 -2q10 0 20 0.5t20 1.5h10q17 5 34.5 3.5t34.5 -4.5q2 0 6 -2q8 -3 14.5 -6.5l14.5 -7.5q5 -2 8.5 -6t6.5 -9q0 -1 -0.5 -1.5t-0.5 -1.5q-4 -6 -4 -8t5 -7l1 -1q5 -5 7.5 -8.5t4 -6.5t2.5 -7t2 -11
q-2 -5 -4.5 -10.5t-4.5 -10.5q-2 1 -4.5 1t-5.5 1q-2 -4 -1 -9q-2 -2 -3 -2q-4 2 -8 1q-4 -2 -14 -4q-4 -1 -8 -1t-7 3t-5 0.5t-4 -2.5q-6 2 -11.5 5.5t-10.5 8.5q-11 13 -31 8q-30 -10 -60.5 -17l-61.5 -14l-53.5 -12t-52.5 -11q-7 -2 -14 -2.5t-14 -2.5q-8 -1 -14.5 -2
t-14.5 -2l-13.5 -2t-14.5 2q-9 -2 -18 -3t-19 -3q-13 -2 -23 2q-14 8 -17 24q-1 22 16 39q1 1 2 1.5t2 1.5l9.5 5.5t6.5 6.5q3 4 3 9.5t2 10.5q5 15 9 30.5t9 30.5q11 34 20.5 68l18.5 68l11.5 40l10.5 40q5 17 8.5 33l7.5 33l4 14t4 15q3 7 4.5 13.5t3.5 13.5q2 14 7 23
q3 4 3.5 8.5t2.5 9.5q5 11 8 23t5 23l11.5 45t11.5 50l10 43l10 43q2 10 4.5 18.5t7.5 16.5q2 2 2.5 5.5t1.5 6.5q2 -2 3.5 -4t2.5 -4q2 -2 4 0q1 2 2.5 2.5t3.5 2.5q1 -2 1 -6q1 -1 1 -1.5t2 -1.5q7 -3 19 -3q3 -5 0.5 -8.5t-1.5 -7.5q0 -2 2 -2h1q2 0 2 1q2 7 4 13t4 13
q3 1 6 1t7 1q1 -2 1.5 -2t0.5 -2q-2 -8 -2 -12q0 -2 1 -2.5t3 -2.5zM454 -4v-1h-1v1h1zM183 307q5 5 2 10q-2 -2 -1.5 -5t-0.5 -5q0 -1 -1 -1q1 0 1 1zM433 26l-1 1l1 -1q2 -6 5 -8q0 -1 1 -1t1 1q1 0 1 3q-2 5 -8 5zM195 353q0 1 0.5 1.5t0.5 1.5l-2 2v-1q0 -2 1 -4z
M189 328q0 2 -1 3q0 -1 -0.5 -1.5t-0.5 -1.5q1 -1 1 -2q1 1 1 2zM201 380q2 2 2 3l-2 2v-2v-3zM191 340h1v1zM181 297v-1l1 1h-1zM198 367q1 0 1 1h-1l-1 -1h1z" />
    <glyph glyph-name="M" unicode="M" horiz-adv-x="676" 
d="M436 -128q-1 7 2 12.5t7 10.5q3 6 1 11q-2 2 -1.5 4.5t0.5 5.5h-15q1 2 1.5 4t1.5 4q7 15 8 28q0 2 2 4q0 1 1 1l-1 -1q-2 2 -2 6q2 8 3.5 15.5t3.5 15.5q9 35 16 69.5l14 69.5q2 14 4.5 26.5l5.5 26.5l6 36t7 35q5 23 9 45.5t9 45.5q7 30 13 60.5t13 60.5q3 12 5.5 24.5
t5.5 24.5q1 2 1 5q0 2 -2 4q-1 0 -1 -0.5t-1 -0.5h-1q-8 -14 -11 -25l-10.5 -46l-10.5 -46q-8 -33 -15 -66l-14 -66q-6 -27 -11 -54.5l-10 -54.5q-4 -21 -7.5 -41.5t-7.5 -41.5l-15 -69q-5 -20 -9 -39.5t-9 -39.5q-2 -6 -3.5 -12t-2.5 -13q-3 -13 -16 -13q0 2 -0.5 4t-0.5 4
q-1 17 -0.5 32.5t3.5 32.5v2q0 24 4.5 48l8.5 47l18 108l8 42l8 41q6 38 14 75l16 74q2 5 1.5 11t-0.5 11q1 0 1 1l-1 -1q-5 -3 -8 -8t-7 -10q-14 -17 -27 -34.5l-26 -34.5q-8 -10 -14 -20t-14 -20q-5 -8 -11 -16.5l-12 -16.5q-2 -3 -4.5 -5t-4.5 -4v6q0 1 1 1v1
q-1 -1 -1 -2q-7 1 -7 -6h-4h1l-3.5 -3.5l-3.5 -3.5q-2 2 -4 0h-3q-1 1 -1 2t-1 2q-1 0 -1 -0.5t-1 -0.5v-1q1 -1 2 -1t2 -1q-2 -3 -3.5 -6t-3.5 -6q-2 -5 -4 -5t-7 5q-2 2 -4 3v-7q-2 -2 -3.5 -1t-3.5 1t-4 -0.5t-4 0.5q-5 2 -9.5 3.5t-8.5 5.5q-11 11 -19.5 23.5
t-14.5 26.5q-5 13 -9.5 26t-9.5 26l-8 18t-9 17q-3 3 -5 4q-5 -5 -5 -14q-1 -16 -4 -31t-5 -30q-5 -25 -9.5 -50l-9.5 -51l-12.5 -72l-13.5 -72l-4 -22.5l-4 -22.5q-2 -7 -4.5 -13t-9.5 -11q-2 4 -1.5 7.5t-0.5 7.5q4 2 4.5 6t1.5 9q5 24 8.5 48t8.5 48q4 24 8.5 48.5
t9.5 48.5q2 8 3 14.5t0 14.5v-1l2 4t1 4q2 9 4.5 18.5t4.5 18.5l18 93q2 5 2.5 11t-4.5 11q-2 2 -2 5t-1 5q0 2 -1 2.5t-2 2.5q-3 -2 -3.5 -3.5t-1.5 -3.5l-12 -62.5l-12 -62.5q-5 -27 -11 -54.5t-11 -55.5l-11.5 -62.5l-11.5 -62.5q-2 -14 -4.5 -28t-5.5 -28q-1 -7 -8 -12
q-1 0 -1.5 0.5t-1.5 0.5l-9 -9q-2 4 -2 3q-1 5 -1 15q4 4 4 7.5t-2 8.5q-2 -5 -2 -8.5v-7.5q-1 -2 -2 -3.5t-3 -3.5q-6 -3 -12 4q-2 -5 -4.5 -8t-4.5 -7q-3 3 -4 5l2 2q-1 1 -1 2l-1 -1v-3h-7.5t-7.5 4v7q0 2 0.5 3.5t-1.5 3.5q-2 -2 -4 -3.5t-4 -3.5q-4 2 -6.5 5t-4.5 6
q-7 10 -10 20.5t-1 22.5q3 13 4.5 25.5t3.5 26.5q1 3 1 7v8q2 5 2 6.5t-2 7.5v-14q-6 0 -9 1l3 21l10 61.5t11 61.5q4 22 9 44l10 45q8 32 15 64t15 64q2 7 5 14t5 14q4 11 7 26q2 6 3 11.5t3 11.5q2 16 7 30.5t11 29.5q4 11 11 16q-2 8 -3 13q1 1 5 3q3 3 3 5q0 4 -2 12
q-2 6 5 8q5 1 8 4t5 7q4 1 7 1t5 1q5 2 9.5 1.5t9.5 -5.5q2 -2 5 -3t6 -3q9 -3 14 -11q2 -4 4 -7.5t4 -7.5q8 -19 15 -38t13 -38l7.5 -27t10.5 -26q2 -4 3 -5q5 0 3 5q-1 8 -5 19q-2 6 -3.5 11.5t-1.5 11.5q2 -3 3 -5.5t2 -4.5q2 -5 3 -9.5t3 -9.5q5 7 2.5 12t-3.5 10
q4 -1 6 -7l10 -29l10 -29l8 -20l8 -20q4 -7 9 -10q5 -8 8.5 -16.5t6.5 -16.5l4 -10t7 -10q2 3 8 9l42.5 59l43.5 60l20 29t21 29l41 56.5t43 55.5q4 4 7 8t6 9q6 8 12 8q7 1 12.5 4t10.5 7q5 5 11 8t11 7q24 -2 38 -20q2 -2 4 -5l4 -6q5 -10 6.5 -21t1.5 -22q-2 -36 -9 -70
l-15.5 -66.5l-15.5 -66.5l-15.5 -66.5l-14.5 -66.5q-7 -32 -13 -64l-12 -64l-20.5 -100t-23.5 -99l-10.5 -40l-10.5 -40q-6 -24 -22 -45q-4 -5 -8.5 -8.5t-7.5 -8.5q-2 -3 -8 -3q-2 -1 -5 -0.5t-6 -1.5v3q-2 0 -2 1l-1 -1v-3q-2 -2 -4 -5l-4 -6q-5 9 -3 14q1 2 1 8
q0 10 -11 7q-1 0 -1.5 -0.5t-1.5 -0.5zM274 474v-3l1 -1q1 1 1 2l-2 2q-1 1 -1 3q-1 0 -1 1zM267 491q0 -2 1 -3l1 -1v1q-1 1 -1 1.5t-1 1.5t-1 1.5t-1 1.5v-1zM199 656v1l-1 1l2 -2q0 -1 0.5 -1.5t0.5 -1.5q1 1 0 1zM88 78q-3 -6 -3 -7.5t3 -6.5v14q2 5 2 6t-2 5v-11z
M81 34h-3v-8q0 -2 1 -3q0 1 1 1l1 1v9zM80 56q2 -4 1 -7t3 -5q-1 3 0 5.5t-4 6.5zM123 595q4 5 0 11q-3 -6 0 -11zM120 579q-3 -4 0 -8q3 4 0 8zM262 508q-1 -1 -1 -2t0.5 -1.5t0.5 -1.5q2 2 3 4h-1zM125 615q-1 2 -0.5 4t-2.5 5q1 -3 0.5 -5t2.5 -4zM218 603l-1 -1l1 -1
l1 1zM116 548v-1l1 1h-1zM279 461l-1 -1h1v1z" />
    <glyph glyph-name="N" unicode="N" horiz-adv-x="576" 
d="M335 136q-20 26 -32.5 54t-23.5 57l-33 93.5l-33 94.5q-1 3 -1.5 6t-5.5 5q-2 -2 -2 -3q-3 -12 -5.5 -24t-5.5 -24l-15.5 -70l-15.5 -70l-10 -44.5l-10 -44.5q-2 -8 -3.5 -15t-3.5 -15q-3 4 -2 7.5t0 6.5h-1q2 2 3 4q2 3 0.5 6t0.5 7q2 2 2 5t2 6q3 5 2 11t1 11l4 11.5
t3 11.5q0 2 0.5 4.5t-1.5 4.5q0 2 1.5 4.5t3.5 4.5q2 5 2 7.5t-2 13.5q5 2 5 3.5t-3 6.5v-1l2 5q6 1 4 6q-1 3 -1 5.5t4 4.5q1 0 1 3q2 8 4.5 16.5t4.5 17.5q1 4 0.5 8t1.5 8q1 5 2.5 8.5t2.5 7.5q1 3 0 7t1 6q1 3 2 5.5t0 5.5v4.5t4 3.5v2v3q0 2 -0.5 4.5t-0.5 4.5q4 3 4 4
t-2 6q1 1 1 2.5t1 1.5q5 1 5 8l3 20q2 4 2 6q-2 7 -2.5 14t-4.5 14q-2 3 -3 7t-3 9q-1 2 -1.5 4t-4.5 4q-1 -2 -2 -2.5t-1 -2.5q-2 -7 -3 -13t-3 -12l-33 -141q-9 -42 -19 -84t-18 -85q-2 -12 -4.5 -24.5t-4.5 -24.5q-2 -6 -3 -8q-2 -2 -6 0q-3 -6 -5 -12.5t-6 -11.5t-6 -11
t-6 -11q-5 2 -8.5 5t-8.5 4q-2 -5 -3 -8.5t-3 -8.5q-8 3 -14.5 1t-12.5 -3q-2 1 -2.5 2t-2.5 3q-8 8 -10 17t0 20l7.5 37t6.5 36l3 15q0 4 -1 5q-3 5 -2.5 9t1.5 9q6 35 14 68.5l16 67.5q5 17 9 33l8 33q2 5 4.5 10.5t4.5 11.5q3 7 5 14.5l4 15.5q8 26 14 51t14 50
q14 53 36 100q5 12 14 19.5t20 14.5q4 3 22 -1q0 -2 -0.5 -4t0.5 -4q0 -1 1 -2q1 1 2 1t2 1q2 1 3 2t3 0q3 -3 4 -5t1 -7q-1 0 -1 -1v1q2 2 3 2.5t2 2.5h2q2 -3 0.5 -6.5t-0.5 -6.5q2 -5 5 -6q4 -1 6 4h-1q4 -1 5 -3.5t3 -4.5t3 -4t3 -2q7 -1 10 -5t5 -9q23 -44 42 -92
l10 -27t11 -27q7 -14 11.5 -30t12.5 -30q5 -9 8 -18.5l6 -19.5q5 -14 9.5 -28.5l9.5 -29.5q1 0 3 -2q4 1 4 6q2 10 4.5 20t4.5 20q5 24 11 48t11 49l19 75.5l18 75.5l6 21q2 9 6.5 17.5t12.5 16.5q4 0 6 1q4 1 6 9q1 7 10 7q2 -6 7.5 -9.5l10.5 -6.5q0 -7 -2 -14t1 -14
l-2 -2q0 -1 1 -2v1q1 1 1 3q4 6 6 12.5l4 13.5q2 5 3 6l6 6q8 -3 8 -11q-1 -5 -1.5 -9t-0.5 -9q-1 -4 -1.5 -7t-0.5 -6q0 -4 3 -4t5 2q1 2 1 3.5t1 3.5l2 4q2 -3 1.5 -6t0.5 -6q-3 -5 -3 -7t3 -7v14q2 2 2.5 4t1.5 4l2 8t3 9l1 1q1 0 1 -0.5t1 -0.5q0 -1 0.5 -2t0.5 -3
q0 -14 0.5 -28.5t-1.5 -28.5q-2 -22 -5.5 -43.5t-7.5 -43.5q-4 -24 -8.5 -48t-9.5 -48q-8 -44 -17 -87l-18 -87q-8 -37 -15 -74t-15 -74q-11 -62 -27 -120q-3 -11 -6.5 -22t-6.5 -22t-10 -18q-4 -4 -4.5 -9t-2.5 -10t-4.5 -10t-7.5 -9q-2 -4 -5 -4q-4 -2 -8 -3t-6 -5
q0 -2 -3 -2q-9 -2 -17.5 -1.5t-16.5 8.5q-2 4 -3 4q-10 3 -12.5 10.5t-4.5 15.5q-5 16 -5 32t2 33l9 60l12 75q2 8 3.5 16.5t-0.5 16.5q2 5 0 8l-4 6q-2 1 -2 6q-1 2 -0.5 4t-0.5 2q-6 3 -5.5 8t-2.5 10q-3 3 -4 7.5t-1 9.5q0 2 -2 2q0 4 -3 6.5t-1 7.5q-4 2 -3.5 6t-2.5 7
q-2 3 -2 7t-3 6q2 4 -1 6.5t-2 5.5q1 4 -1.5 6.5t-2.5 5.5t-2 6l-4 6t-1.5 6.5t-3.5 5.5h-1q1 1 1 2t1 2q-4 2 -3.5 6t-1.5 7t-2.5 6.5t-2.5 7.5q-2 3 -2.5 6.5t-2.5 6.5q-1 2 -1 6q2 5 -3 8h1q-5 4 -5.5 10t-3.5 11q-2 2 -1 5.5t-3 6.5q-3 3 -5 11q-2 4 -3 7.5t-2 8.5
q0 5 -3 10q-5 8 -6.5 17t-7.5 17q1 7 -3 12q2 5 -1.5 7t-3.5 5q-1 5 -3 9.5t-2 9.5q0 2 -2 2.5t-4 -0.5q-6 -5 -5 -11q1 -3 1.5 -6.5t2.5 -7.5l34 -97.5l34 -97.5l24.5 -66l24.5 -67q2 -8 3 -13zM197 559q-9 -11 -5 -21q3 -7 5.5 -14t5.5 -14q2 -4 5 -3q3 2 2.5 5.5t0.5 6.5
q1 6 -3 12q-2 2 -2 4q0 6 -3 11q-2 3 -3 5.5zM97 177q-1 0 -1 -1h1l1 1h-1z" />
    <glyph glyph-name="O" unicode="O" horiz-adv-x="465" 
d="M78 513q3 1 4 3.5t3 5.5l16.5 30l17.5 30q8 13 17.5 25.5t20.5 23.5l12 10t13 10q4 2 8 3.5l9 3.5q17 5 32 15q2 1 3 2.5t3 3.5h-1q6 0 7 3q6 0 7 4v-1l16 4l16 4q1 1 1 1.5t1 1.5v-1l6 -2t8 0q-2 2 -3.5 3t-3.5 3q5 -2 11 -3t12 -1q5 0 10.5 1l10.5 2q26 3 45 -5
q23 -8 35 -26q12 -17 20.5 -35t12.5 -38q3 -15 5.5 -30.5t4.5 -31.5q2 -12 1.5 -24.5t0.5 -25.5q0 -22 -2 -43.5t-5 -42.5q-2 -18 -4.5 -36t-5.5 -36q-5 -27 -12.5 -53t-17.5 -52q-8 -22 -18.5 -42t-22.5 -40q-1 -2 -1.5 -2.5t-1.5 -2.5q-13 -25 -30.5 -45t-37.5 -39
q-10 -9 -21.5 -14t-23.5 -7q-3 -1 -6 -1t-6 -1q-4 -1 -7.5 -2.5l-8.5 -3.5q5 -3 9 -3.5t18 0.5q-16 -6 -27 -5q-5 1 -11 1.5t-11 1.5q-1 0 -5 -2q3 -4 7 -4.5t9 -3.5q-5 -2 -9.5 -1.5t-8.5 -0.5q-8 0 -15.5 -0.5t-15.5 0.5h-13.5t-12.5 2q-11 3 -17 4.5t-11.5 3.5t-11 6
t-14.5 10q-12 7 -22 19l-3 3q-22 20 -33.5 44.5t-18.5 52.5q-6 22 -7.5 44t-0.5 45q0 23 2.5 45t6.5 45l10 50.5t12 48.5q5 20 13 39.5l16 38.5q2 5 6 10.5t9 9.5h-1v-10q-3 -2 -3 -7q-3 -1 -3 -7q-2 0 -2 -2v-1l2 4q3 1 3 6q4 1 4 7zM149 12l-1 1h1q0 -1 0.5 -1.5t0.5 -1.5
q1 0 1.5 0.5t1.5 0.5l-1 1h-3zM128 422q-3 -3 -4 -6.5t-3 -6.5q-14 -32 -21.5 -65.5t-12.5 -68.5q-2 -11 -2 -22t-2 -22t-2 -21v-21q1 -22 13 -43q2 -5 7 -7q3 -3 5 1q2 5 0 5q-4 1 -4 8q0 9 -0.5 18.5t-0.5 18.5q-1 16 -1 31t2 31q1 12 1.5 24t2.5 23q7 48 18 96
q2 7 3.5 13.5t0.5 13.5q1 0 1 1q0 -1 -1 -1zM365 357v-23q0 -1 -1 -1q1 0 1 1q1 2 2 3.5t1 3.5l4 25l4 25l4 30t2 30q0 20 3 40q1 11 0.5 23t-2.5 24q-2 11 -5.5 22t-5.5 22q-1 7 -10 12l-1 1q0 -1 1 -1q4 -8 5 -12q2 -4 -2 -5q-2 4 -4.5 7.5t-4.5 8.5q-3 4 -5.5 8t-5.5 8
q-7 8 -15 7l-3.5 -9t-6.5 -8l-36 -33q-22 -20 -35 -45q-8 -13 -14.5 -25.5l-13.5 -26.5q-12 -25 -21.5 -50.5t-15.5 -52.5q-5 -20 -8.5 -40.5t-6.5 -40.5q-2 -12 -2.5 -24.5t-1.5 -24.5q-1 -17 0.5 -33.5t3.5 -33.5q2 -18 8.5 -33.5t19.5 -28.5q5 -5 10.5 -8.5t13.5 -3.5
q9 4 20 13q32 25 55 60q11 17 20 35l18 36q3 8 6.5 15t5.5 15q5 20 9 41t7 41zM363 613q-3 16 -15 21q-2 2 -4.5 2t-4.5 1q-2 0 -3.5 -1.5t-0.5 -3.5q2 -5 5 -6q2 -2 5.5 -3t6.5 -3t5.5 -3.5t5.5 -3.5zM206 634q-8 -1 -12.5 -4t-7.5 -8v-5q5 4 10 7.5t10 9.5zM118 76
q3 -10 4.5 -11.5t8.5 -2.5q-3 3 -5.5 6t-7.5 8zM397 641q0 5 -5 5h-2v-2q2 -4 6 -4zM176 8q-6 2 -9 1q-1 0 -1 -0.5t-1 -0.5q0 -1 0.5 -1t0.5 -1q6 -2 10 2zM111 129q-1 0 -1 2q-1 0 -1 -1v-3zM363 324v-1h1zM110 79v2h-1v-1q1 0 1 -1z" />
    <glyph glyph-name="P" unicode="P" horiz-adv-x="488" 
d="M0 97q1 2 2 3t1 3q0 6 -1.5 12t-7.5 12q-2 2 -4.5 5t-5.5 7q-4 4 -4 15v7q-2 9 5 16q7 -2 12.5 -6t13.5 -6q6 6 0 13q-2 2 -4 3.5t-4 5.5q4 -2 7 -2t5 -2q3 5 4 10t3 10q4 16 7 31.5t7 32.5l16.5 69.5l16.5 69.5q2 8 4 17l4 18q5 23 11 47t11 48q1 8 4 16q4 17 8.5 33.5
t12.5 33.5q-1 3 -4 4q-6 7 -11 19q-3 11 0 20q2 5 4.5 7t11.5 6q3 11 15 16l4 2t4 3q5 2 10 3.5t11 1.5q11 1 21.5 1.5t21.5 0.5q6 1 11 -1l10 -4q3 0 9 -2q5 -2 7 2l1 2q6 -2 12 0t11 -1q5 -2 10 -3t10 -3q6 -2 12 -4.5t13 -3.5q50 -16 85 -57q33 -38 53 -79
q7 -14 11.5 -29t7.5 -30q11 -52 8 -102q-1 -17 -4 -33t-7 -33q-9 -33 -25.5 -63t-37.5 -56q-12 -16 -25.5 -30l-27.5 -28q-9 -9 -19.5 -16.5t-21.5 -14.5l-19.5 -12t-20.5 -11q-5 -2 -11.5 -5t-12.5 -5q-2 -1 -6 -1q-5 0 -7 -1q-8 -2 -16 -3l-16 -2q-3 -1 -6.5 -1.5
t-5.5 0.5q-9 4 -18 3t-18 -3q-3 -1 -6.5 -2t-7.5 -1h-8q-3 -2 -7 -2.5t-7 -2.5q-2 -2 -2.5 -5t-0.5 -5l-10 -36.5l-10 -36.5l-8 -27.5t-10 -26.5l-5.5 -9t-7.5 -7q-2 -3 -3.5 -5.5t-3.5 -4.5q-7 -11 -18 -14q-10 -4 -15 -3q-3 1 -6.5 0.5t-6.5 -0.5q-2 3 -3 7.5t-6 6.5
q-4 0 -7 -3q-2 5 -0.5 8.5t2.5 8.5q1 3 1.5 7t1.5 7q1 5 1.5 9t1.5 8q2 5 2.5 8.5t2.5 8.5l2 8t2 9q2 4 2 7.5t1 7.5q0 5 2 8.5t-1 9.5q-4 -12 -9.5 -23t-7.5 -22q-2 -4 -3 -8t-3 -8q-3 7 -2 15q2 8 2.5 15t2.5 15q0 -1 -2 3l-12 -44.5l-12 -44.5q-16 9 -9 28q4 15 7 30.5
t7 30.5q3 14 6.5 28t7.5 28q1 8 3 15.5t1 15.5v-1q3 3 3 6v7zM389 548q-1 0 -1 1q0 -1 1 -1l1 -1zM191 432v1q0 -1 1 -1q-2 -9 -3 -18.5t-3 -19.5l-4 -22.5l-4 -22.5q-4 -20 -7 -40.5t-7 -40.5l-9.5 -45.5l-9.5 -45.5v-6q2 0 3 -0.5t3 0.5l39.5 10t37.5 14q13 7 25 14.5
t23 18.5q17 19 32 38q9 11 16.5 22.5t13.5 25.5q11 24 10 46q-1 7 -1.5 14.5t-0.5 14.5q-3 34 -14 71q-5 16 -11 30t-15 27q-8 9 -14.5 18.5t-13.5 17.5l-7.5 9t-8.5 7q-12 8 -24.5 14t-26.5 12q-4 2 -10 -2q0 1 -0.5 2t-0.5 2h-3q-1 -1 0 -2l3 -3q2 -4 2 -6
q-2 -6 -2.5 -11.5t-1.5 -11.5q2 0 2.5 0.5t2.5 0.5q1 -3 1.5 -5t0.5 -5q4 -1 4 -3.5v-4.5q-2 -14 -2.5 -28.5t-2.5 -28.5q-2 -10 -3.5 -19.5t-4.5 -19.5q-1 -5 -1.5 -9.5t-3.5 -8.5zM412 332q2 3 4 5q1 2 0.5 4t1.5 3q3 4 3.5 8.5t1.5 7.5q2 5 3 8.5t1 8.5q2 14 0.5 27.5
t-4.5 27.5q-2 9 -2.5 14t-2 8.5t-3.5 7.5t-6 11q0 4 -3 3q2 -16 2.5 -32t2.5 -32q0 -6 1 -10q1 -11 1 -21.5t-2 -21.5q-3 -11 1 -27zM226 92h-3v-1h3v1zM3 8l-1 1q-1 -1 -1 -2t1 -1q0 1 0.5 1t0.5 1zM429 431l-1 1h-1v-3zM409 325q0 1 0.5 1t0.5 1l-1 -1v-1zM5 18v1v-1z" />
    <glyph glyph-name="Q" unicode="Q" horiz-adv-x="473" 
d="M121 -49q-4 2 -7 2t-6 -0.5t-8 -0.5q2 4 1 6q0 1 -4 3h-8q-2 6 -4 14q-1 2 -3 4t0 5q1 2 2.5 2.5t3.5 2.5q1 2 1 4t1 5q1 1 2.5 1.5t3.5 2.5q7 4 2 11q-3 3 -7 5q0 5 4 7q4 3 12 7q4 2 7.5 4l8.5 5q-2 2 -2.5 3t-2.5 2q-8 5 -16 9t-18 6q-23 7 -34 26q-4 6 -9 10
q-14 14 -22 35q-5 17 -9 34.5t-7 34.5q-7 42 -1 88q2 11 2 21t2 21q2 16 5 32t8 32l10.5 34.5t13.5 34.5l18 41.5t20 41.5q31 61 81 111q2 2 4.5 3.5t4.5 3.5q1 0 1 -1q0 1 -1 1q7 9 14 10q1 -3 3 0q7 2 8 3q20 9 41 15.5t43 9.5q17 2 35.5 2.5t35.5 -6.5q16 -6 30.5 -13.5
t28.5 -18.5q7 -5 11.5 -11l9.5 -13q16 -26 24 -54.5t11 -59.5q2 -16 3 -32t-1 -32q-2 -19 -2.5 -38t-2.5 -39q-3 -25 -8.5 -49t-12.5 -48l-14 -45t-17 -44q-5 -11 -10.5 -21.5t-12.5 -20.5l-6.5 -10.5l-6.5 -10.5q-12 -17 -26 -32t-30 -29q-4 -2 -7.5 -4t-7.5 -4
q-5 -3 -9 -7t-6 -9q3 -4 8 -5t10 -3q17 -4 36 -15q15 -8 33 -23q-4 -2 -5 -3q-1 3 -4 4v1h-1q1 0 1 -0.5t1 -0.5l3 -3q4 -5 8 -9.5t8 -9.5q-2 -3 -3 -2t-3 2q-2 0 -3 0.5t-3 0.5q-2 1 -3.5 0.5t-3.5 -0.5q-4 -2 -7 -4l3 -3t3 -2q4 -2 7.5 -4t7.5 -4q7 -4 4 -11q0 -2 -4 -8
q-7 3 -12.5 7t-13.5 5q1 -2 1 -3t1 -2q4 -2 7.5 -4t6.5 -4q2 -2 4 -6v-1q-2 -2 -3 -1q-2 0 -2.5 1t-2.5 2q-4 2 -7 3t-8 1q2 -4 4 -7t4 -7q-3 -3 -6 -5t-7 -4q-9 7 -19 11.5t-22 2.5l-1 1l1 -1q2 -4 3 -7v1q-3 0 -5 1q-25 16 -57 16h-60q-13 0 -25 -2l-24 -4q-5 0 -8 3
q-2 2 -5 0.5t-5 2.5v-1zM181 168q5 -6 8 -13t11 -11q40 -3 69 20q9 7 17 14.5t14 16.5q20 27 35.5 56.5t24.5 61.5l6 21q7 25 11.5 49.5t4.5 50.5v9q6 45 0 92q-2 19 -9.5 34.5t-18.5 29.5q-11 15 -28 12q-15 -2 -29 -7t-26 -14q-14 -10 -26 -21.5t-22 -25.5
q-4 -5 -7.5 -10.5t-8.5 -11.5q-23 -33 -34 -74q-3 -9 -3 -17q1 -10 -2 -23l-4 -18l-4 -18q-5 -18 -8 -36l-6 -36q-2 -11 -2 -23t-1 -24q-2 -15 0.5 -29.5t7.5 -28.5q10 -25 31 -43q2 -2 2 0q-1 5 -1 8.5t-1 8.5h-1zM430 598q1 -11 1.5 -17.5t2 -11.5l3.5 -11.5t7 -17.5
q2 19 -1 32t-13 26z" />
    <glyph glyph-name="R" unicode="R" horiz-adv-x="522" 
d="M312 663q-3 3 -4 2q-2 0 -3 -1t-3 -1q-4 -2 -7 -3q1 2 1 4q2 3 1 5.5t-3 1.5q-8 -1 -14.5 1.5t-13.5 4.5l-23 4t-25 3q-12 1 -24.5 2.5t-26.5 5.5q5 1 8 1t6 1q3 0 5 3q1 3 3 3h4q10 -2 19 -2.5t19 -0.5v-6q5 0 8 1q7 2 13.5 1.5t14.5 -1.5l16 -4t16 -1q4 -4 8 0h-9
q-3 3 -4 3q-11 2 -22 5t-22 3q-5 -1 -8.5 0.5t-7.5 3.5q10 1 19 1h18q39 2 77 -6q30 -7 55.5 -21t45.5 -37q12 -14 20.5 -28t12.5 -32q1 -4 2 -7.5t6 -5.5l16.5 -35.5t13.5 -36.5q2 -11 2 -22t-2 -22q-3 -17 -9.5 -33t-15.5 -31l-20 -31.5t-22 -29.5q-31 -36 -67 -67
q-32 -29 -68 -52.5l-73 -46.5l-32 -19.5t-32 -20.5q-7 -3 -13 -9q2 -2 2.5 -3t2.5 -2l37 -23.5l37 -23.5q6 -5 12.5 -8.5l13.5 -7.5l48 -29.5l49 -28.5l18 -12t18 -13q8 -8 17 -13.5l18 -11.5q6 -4 7 -5q1 0 1 -3l-1 -1q-1 0 -1 -1q-7 0 -10 1t-5.5 2.5t-6.5 1.5
q2 -5 6 -6.5t6 -3.5q3 -2 5.5 -5t5.5 -6q-4 -2 -5 -4q-8 -11 -20 -5q-2 2 -4 0l-2 -1q-2 -3 0 -5t5 -3.5t5 -3.5q1 -1 1 -6q0 -2 -2 -3t-4 -1q-10 4 -14 5q-2 -1 -2 -5q-1 -7 -6 -7q-8 2 -16 1.5t-16 -2.5q-3 1 -9 5q-5 3 -10.5 4.5t-11.5 -0.5q-7 -3 -11 5h-1h7h1h-1
q-1 2 -7 4h1q-4 4 -7 0q-12 2 -17 10l4 2h-2l-2 -2q-4 0 -8 2q-23 13 -46.5 25t-46.5 27l-32 21.5l-32 21.5q-5 3 -9.5 6t-9.5 5l-5 -5l-2 -6l-2 -6q-2 -10 -5 -20t-10 -18q-2 -3 -3.5 -6.5l-3.5 -8.5q-4 3 -7 6t-7 6q-2 -5 -4 -9t-4 -9q-2 0 -5 0.5t-5 0.5q-2 -1 -3.5 -2
t-3.5 -2h-13q-1 2 -5 8q-3 -2 -7 -4q-7 3 -5 13q2 5 2.5 9t2.5 9q1 5 1.5 8.5t-0.5 8.5q-3 -1 -3 -2.5t-1 -3.5t-3 -8q-5 1 -5 7q-1 4 -1 10q1 8 0.5 14t-4.5 13q-3 4 -1 13q2 7 2.5 14t2.5 14q2 8 -5 12q-7 5 -12.5 11t-7.5 15q2 2 2.5 5t2.5 6q-2 6 -4 9q-3 8 -3.5 14.5
t5.5 13.5q2 2 1 4.5t-1 6.5q2 2 4 3.5t4 3.5t3.5 4.5t3.5 5.5q3 -1 6 -1t5 -1q2 0 2.5 0.5t2.5 0.5v2v4l2 1q11 0 13 13q2 8 3.5 16t2.5 16q10 60 23 118l27 116q8 26 15 53t15 53q2 8 5 14.5t8 12.5q3 3 6.5 4.5t5.5 4.5q9 13 25 9q1 -1 3 1q3 3 7 -1q2 -2 6 0q9 1 14 -8
q2 -3 3.5 -6.5t3.5 -6.5q2 -2 2.5 -5.5t1.5 -6.5q2 1 3.5 1t3.5 1q2 -6 5 -11.5t1 -12.5q0 -2 1 -3q5 -6 5 -13t-2 -14q-6 -50 -18 -100q-4 -18 -7 -35.5t-7 -35.5q-2 -6 -2.5 -12t-2.5 -11q-1 -5 -1.5 -8.5t0.5 -8.5q0 -3 -1 -6.5t-2 -7.5q8 2 9.5 3.5l6.5 6.5q8 1 13 5
t10 9q1 1 0.5 1.5t0.5 1.5h-1q5 0 7 1q14 9 29 20q3 1 5 6q10 2 15 7q8 7 16 13l16 12q14 11 26.5 22.5t23.5 24.5q3 3 5.5 6t3.5 8q-4 2 -5 2h1q4 6 7 9q6 6 5 13q0 5 0.5 9.5t0.5 9.5v-1q3 2 0 4q6 24 -9 48q-8 13 -18 23t-21 19q-21 15 -44 26t-49 16q-14 3 -26.5 6
t-26.5 6q-3 0 -7 3q6 2 10 4q-5 1 -9.5 1t-8.5 1q-9 0 -14 8q-2 2 -2.5 4.5t-2.5 4.5q2 5 7 5q9 0 14 4q5 5 13 3h27q2 0 3.5 0.5t3.5 -0.5q13 -2 25.5 -2.5t25.5 -2.5l25 -4l24 -4q1 0 1.5 0.5t1.5 0.5q-3 5 -7.5 5.5t-8.5 2.5q1 2 1 2.5t1 2.5l1 -1h-1zM424 630h-1h1l1 -1
zM366 606q-1 0 -1 1l1 -1q1 0 1 -1zM275 292l3 3h1l1 1q-1 0 -1 -0.5t-1 -0.5q-2 -2 -3 -4q-1 0 -1 -1q0 1 0.5 1t0.5 1zM275 302l1 1l-1 -1q-1 -2 -3 -4q-8 0 -11 -6q-10 -4 -14 -7l-28.5 -18l-29.5 -19l-9 -6q-6 -6 -1 -13q2 2 5 3t5 3q5 3 9.5 6.5l9.5 7.5l24.5 18.5
l24.5 18.5q2 1 2.5 2t2.5 3q6 2 9 7zM187 329q-1 -1 -1 -1.5t-1 -1.5v-1l2 4l1 1zM217 481q0 -2 -2 -2v-2l2 1v3l1 1q0 -1 -1 -1zM430 619q0 1 -1 1h2v-4t3 -3q0 -2 0.5 -2.5t0.5 -1.5t3 -1v1l-1 1l-3 3q0 5 -4 6zM339 650l2 -2q1 0 2 1h-1q-1 1 -3 1l-2 2q-1 -1 -2 -1
q1 0 1 -1h3zM309 673l-1 1h1q1 -1 1 -1.5t1 -1.5l1 1q-1 0 -1.5 0.5t-1.5 0.5zM292 -94l1 -1l-1 1q-1 1 -1.5 1t-1.5 1h-1q1 -1 2 -1t2 -1zM275 -84q-1 0 -1 1l1 -1l2 -2h2zM359 650q2 -2 3 -2h1q-1 1 -2 1t-2 1q-2 5 -6.5 8t-9.5 5q-4 2 -5 -3l10 -6t11 -4zM385 -109
q0 -4 3 -4.5t5 -2.5q2 -1 3.5 0t1.5 3q0 3 -2 3q-6 5 -11 1zM492 434q8 6 4 15q-3 -8 -4 -15zM222 508q1 4 1.5 5t0.5 2q0 2 -0.5 4t-0.5 6q-1 -4 -1.5 -5t-0.5 -3q0 -4 1 -9zM330 666q0 1 -1 1l-4 2l-1 -1q0 -2 1.5 -3t3.5 0q1 0 1 1zM181 658q0 -1 -2 -3q1 0 1.5 -0.5
t1.5 -0.5q3 0 2 3h-1q-1 0 -1 0.5t-1 0.5zM293 680l1 1q-1 1 -3 1v-1zM316 681q1 0 1.5 0.5t1.5 0.5l-1 1h-3q1 -1 1 -2zM26 -12v-1l1 -1v2h-1zM213 692h1l1 1zM363 659l-1 -1h1v1zM194 656q-1 0 -1 -1h2q-1 0 -1 1zM373 622v-1h1zM221 503h-1q1 0 1 -1v1zM209 436v1h-1z
" />
    <glyph glyph-name="S" unicode="S" horiz-adv-x="522" 
d="M353 530q1 -1 2 -1t3 -1q-8 -9 -16.5 -16.5t-16.5 -15.5q-22 -20 -42.5 -41t-38.5 -44l-29.5 -38.5l-28.5 -39.5q-2 -2 -3 -5t-3 -5q1 -6 9 -8q12 -6 24 -11l25 -10q22 -11 42 -23t38 -28q5 -5 11 -9q5 -5 6 -8q7 -12 14 -18q11 -9 20 -23q5 -8 10 -14t11 -12
q18 -23 21 -50q2 -10 2 -17q2 -22 -13 -34q-5 -5 -7 -10.5t-6 -10.5l1 1q-4 -4 -4 -5t4 -6h-1q-1 -6 -5.5 -10t-9.5 -7q-7 -5 -14 -9.5l-15 -9.5q-4 -1 -4 -7q-4 2 -8 1q-3 -1 -4.5 -2.5t-5.5 -6.5q5 3 10 3.5t8 4.5q3 2 9 4t8 3q-23 -24 -56 -30l-21.5 -2t-21.5 0h-15
q-27 -2 -53 1.5t-52 10.5q-10 2 -19.5 5t-20.5 6l2 4l-3 3q-12 8 -25 13l-27 10q-3 2 -6.5 3.5t-6.5 4.5q-1 2 -3.5 2.5t-4.5 2.5q-8 4 -16 7.5t-15 8.5l-4 4q2 1 3 1t2 1q3 -4 10 -4q2 0 2 -2q1 0 1.5 0.5t1.5 0.5q-1 0 -1 0.5t-1 0.5h-3q-2 3 -4.5 3t-5.5 1q-4 2 -7 5
t-7 6q3 2 6 -0.5t7 1.5q-4 3 -8.5 5t-9.5 4q-8 4 -11 6q-4 6 -1 10q4 1 6.5 -1.5t6.5 -4.5l15 -6q4 -1 7.5 -2.5t8.5 -1.5q-2 3 -3.5 4.5t-2.5 3.5q-1 5 -3.5 7t-5.5 4q-5 3 -9.5 6t-9.5 7q2 3 4.5 1.5t4.5 0.5t3.5 2.5t3.5 2.5h4q3 1 3 1.5t-2 5.5q2 2 4.5 0.5t4.5 -0.5
q2 2 4 3t5 0t10 -1q16 -2 32 -2.5t32 -2.5q7 -1 13.5 -1.5t12.5 -1.5q8 -2 15 -2h15h53q34 0 67 6q4 0 7 5l-5 5q-21 15 -44 27.5t-49 20.5q-27 8 -53.5 17.5l-52.5 18.5q-26 11 -48 33q-18 18 -10 44q1 5 3 10.5l4 10.5q-2 1 -3 1t-3 1q1 3 0 6t-3 7q-3 6 -3 12
q-4 14 -2.5 27t6.5 26q3 11 6.5 20.5t9.5 18.5q1 2 1 3.5t2 2.5q9 7 13 21q1 2 2 2.5t2 1.5q8 8 13.5 16.5t10.5 18.5q-2 3 -0.5 4.5l3.5 3.5q9 5 14 13t8 18q0 4 2 4q5 2 7 7t7 9q5 7 11 13l12 12q37 39 81 69l19 13.5t19 12.5q19 12 38.5 21.5t41.5 14.5q2 1 4.5 1t4.5 1
q1 0 1.5 -0.5t1.5 -0.5q-2 -2 -2.5 -3t-1.5 -2q-6 0 -7 -3l-1 -1l1 1q6 0 7 3q5 -1 9 0.5l9 3.5q26 11 60 6q16 -2 31 -6t29 -11q13 -8 21 -16q-1 -4 -1 -12q2 -1 3.5 -2t3.5 -3q27 -19 24 -48h-1q0 1 -0.5 1t-0.5 1q-6 4 -6 0q-2 -5 -2.5 -9t-5.5 -7l-1 1l1 -1
q-1 -2 -1.5 -5t-2.5 -5q-1 -2 -3.5 -3.5t-4.5 -3.5q2 -4 3 -8t3 -9q4 -10 0 -24q-2 -5 -4 -6t-9 2q0 2 0.5 5t0.5 6q1 6 -3 9l-4 4t-6 -1h-2l-3.5 3.5t-3.5 1.5q-9 0 -11 5q-10 11 -25 4q-12 -6 -24.5 -11.5t-24.5 -13.5q-4 -3 -7.5 -5t-7.5 -4h1q-9 -1 -17 -9
q-1 -1 -1.5 -2t-2.5 -2h-2q-1 0 -1 -0.5t-1 -0.5l2 -1l2 2q1 2 2 2.5t2 1.5zM373 17q1 2 3 4l1 1v-1l-4 -4q0 -1 -1 -1zM506 628v-3l1 -1l1 2l-2 2q0 2 -1 3l-1 1v-2zM418 648l1 -1h-1q-5 3 -6 3t-5 -2h11zM492 598h1h-1q1 1 1 3q2 3 0 6t-3 1q-2 -2 0 -8zM187 349
q-9 -5 -11 -16q-1 -1 -2 -1.5t-2 -2.5v-4q1 1 1.5 1t1.5 1q1 2 1 3t1 3q10 5 10 16q7 2 11 13q15 11 19 30l1 1v-1q-7 -7 -13 -14t-8 -15q-3 -2 -5.5 -4t-4.5 -4q-1 -1 -0.5 -2.5t0.5 -3.5zM10 326q8 0 9 6q-6 13 -7 18t0 19q-4 -2 -4.5 -4.5t-1.5 -5.5q-1 -4 -1 -10
q0 -1 2 -3q6 -7 -2 -10q-2 0 0 -4q1 -2 5 -6v-1v1zM428 615l1 -1q-1 0 -1 1q-11 20 -38 22h-2q-6 2 -10.5 0.5t-9.5 -3.5q-16 -7 -29 -22q-1 0 -1 -3q3 -2 10 0q5 2 11 3.5t12 1.5q13 1 25.5 1t25.5 -2q2 0 6 2zM451 613q-8 8 -14.5 15.5t-20.5 8.5q8 -6 15 -12.5t15 -12.5
h1q1 0 4 1zM461 634q3 -6 4.5 -10t3.5 -8q2 -7 6 -7q2 0 2 3t-2 7t-4.5 8t-9.5 7zM18 317q-1 1 -2 1v-1h2zM120 -11l-1 1v-1h1zM333 616v1l-2 -1h2zM50 398l-1 1v-1h1z" />
    <glyph glyph-name="T" unicode="T" horiz-adv-x="582" 
d="M568 635q-2 -4 -3 -4q-3 -2 -5.5 -2t-6.5 -1q2 -8 3 -13q3 3 4 5q4 -1 7.5 -1t7.5 -1q-1 -2 -2 -2t-3 -1h-5l2 -2q9 0 17 -6q-1 -7 -5.5 -11t-10.5 -7q0 1 -1 1h1q-4 -11 -12 -15.5t-18 -7.5q-5 -1 -10 -1t-10 -1q-5 0 -7 1q-6 5 -12.5 4t-14.5 -1q-8 -1 -14.5 -1h-14.5
l-21 -3l-25 -4t-25 -3l-30 -3q-9 -2 -18 -2t-18 -1q-10 -2 -7 -9q4 -13 5 -25.5t0 -24.5t-1.5 -24.5t-2.5 -24.5q-4 -23 -7.5 -46t-8.5 -46q-5 -22 -11 -44t-11 -44q-11 -38 -21 -76.5t-22 -76.5q-5 -14 -10 -26.5t-10 -26.5q-3 -8 -6.5 -16.5t-6.5 -16.5l-2 -4t-3 -4
q-2 1 -4 1q-1 -2 -2 -4.5t-2 -4.5q-2 -8 -6.5 -12l-10.5 -9l-8 -6l-8 -6q-5 -3 -10 -4.5t-10 -3.5q-2 5 -0.5 9t2.5 8q0 5 2 9t-1 9q-2 -4 -4 -7.5t-4 -7.5l-1 1h1q-1 -3 -1 -5.5t-2 -4.5l-5 -5t-5 -7q-2 -1 -3.5 2t-3.5 1q-4 -2 -4 0.5t-2 3.5q-2 -1 -3.5 -3t-5.5 1
q-2 1 -6 1q-9 0 -10 6q0 3 -3 3q-5 0 -6.5 3t-2.5 7q-2 0 -3 -0.5t-3 0.5q-1 0 -1 4l2 8t2 9q0 5 -6 7h-4q-4 0 -4 3q2 7 0.5 13t-1.5 11q0 1 2 3q0 -2 1 -3q0 -1 1 -1q-2 2 -2 4q3 19 8.5 37.5t10.5 37.5l22 77l22 77l21 75l20 75q7 24 13 48.5t10 48.5l3 12q3 10 -8 10
q-21 1 -42.5 2.5t-44.5 0.5q-8 0 -15.5 1t-15.5 3q-5 2 -8.5 2t-8.5 1t-8.5 2t-7.5 4q1 1 1.5 2t1.5 2q-3 3 -6.5 1.5t-8.5 1.5q-1 2 -2.5 4.5t-3.5 4.5q-2 5 -3 8t3 7t2 11q-1 2 -1 3.5t-1 4.5l13 9.5t14 5.5q4 2 7 2q17 2 25 15q1 2 5 4q-2 1 -4 1t-3 2q-3 5 -9 3
q-3 -2 -6 -1.5t-6 -1.5q-10 -3 -16 5v-1q2 1 3 2t3 1q10 0 19.5 2t18.5 5t20 3q8 1 15.5 1.5t15.5 1.5q7 1 13.5 1h13.5q-2 3 -4 3h-4h-16t-16 1q1 4 6 4q11 3 22.5 4l22.5 2q19 1 37 1t36 1q6 1 12 1.5t12 0.5t12.5 0.5t13.5 0.5q8 0 16.5 0.5t16.5 1.5q18 2 37 0
q13 -1 25 0q4 1 11 1q31 0 56 7q13 3 27 3q8 0 15.5 1t15.5 1q6 0 12 -1t12 -1q10 0 21 -6q-4 -2 -7.5 -3t-8.5 -2q27 -2 44 -14q-2 -5 -7 -4.5t-6 -4.5q5 -2 10 -3.5t11 0.5q2 0 4 -2l1 -1q0 -2 -0.5 -3t-0.5 -3q-8 -2 -15.5 1t-15.5 -2q3 -2 5.5 -2.5t4.5 -2.5
q-4 1 -8.5 1t-9.5 -2q6 -1 10.5 -2t8.5 3q1 -1 4 -1q2 -5 4 -4q2 0 2.5 1t2.5 2q1 -1 9 -5q-5 -2 -9.5 -2h-8.5h-15q-2 -1 -5 -4q-1 -4 4 -4q5 -1 9 -1.5t9 -0.5zM452 696h-13q-1 0 -7 -2q0 -1 -1 -1q1 0 1 1h13q5 0 7 2q2 0 4 0.5t4 0.5q-5 2 -8 -1zM289 680
q-8 -1 -15 -0.5t-15 -1.5q12 -2 26 0q2 0 4 2q7 1 13.5 0.5t12.5 1.5q0 1 1 2q-9 0 -13 -1q-2 0 -3.5 0.5t-3.5 -0.5q-4 -2 -7 -3zM371 684q-14 3 -19 2.5t-10 -2.5h29zM503 696q-11 6 -22 2q6 -2 7 -2h15zM520 675q6 1 9.5 1t6.5 1v2q-4 1 -7.5 1t-8.5 -5zM249 679h-8
q4 -3 8 0zM414 689h-2q0 -1 2 -1q1 0 2 1h-2zM324 686l-1 -1h1v1z" />
    <glyph glyph-name="U" unicode="U" horiz-adv-x="579" 
d="M204 679q7 -2 9 -7q1 -3 -1 -9l-18 -54l-6 -21q5 -2 7 0t4 3q6 2 8 -4q1 -7 0 -13t-3 -12q-7 -20 -13 -39.5l-12 -39.5q-13 -38 -23 -77.5t-18 -79.5q-5 -24 -9 -47.5t-7 -46.5q-1 -7 -1.5 -14.5t-0.5 -14.5q0 -5 1 -7q4 0 5 1q6 8 10 12q0 11 3 22t1 22q1 2 2 3.5t1 3.5
q3 18 6.5 35.5t7.5 35.5q4 13 5 22q1 4 1 6.5t1 5.5q-2 0 -3 -0.5t-3 -0.5v3q8 4 9.5 10t3.5 12q4 23 12 47q1 2 2 3.5t2 3.5q-1 -5 -1.5 -10t-1.5 -10q-5 -24 -9.5 -48t-9.5 -48q-5 -23 -8 -45l-6 -45q-1 -2 -0.5 -2.5t0.5 -2.5q4 -1 5 1t3 4q14 17 26.5 35l25.5 35
q2 4 5 6.5t5 5.5q1 0 1 -1l-1 1q2 2 3.5 5t3.5 5q1 -3 3 0q1 1 2 1.5t2 2.5v-1l31 45q15 24 32 47l34 46q10 12 18.5 26t17.5 27l25 37.5l25 37.5q7 9 14.5 17.5l15.5 17.5q4 5 7.5 10t5.5 11q5 11 12 20.5t18 14.5q5 -2 4 -5t0 -6l8 -2l8 -2q5 -8 2 -14t-1 -13q3 4 3.5 8
t2.5 8l6 18q2 5 4.5 8.5l5.5 7.5q8 -1 14 -4.5t11 -8.5q2 -1 4 -5t1 -9t4 -8q4 -3 3.5 -7t0.5 -8q-1 0 -1 -1v1q3 -3 3 -4q-2 -7 -1 -14t3 -14q2 -6 -1 -9q-1 1 -2 1.5t-2 1.5q0 1 -1 1q1 0 1 -0.5t1 -0.5v-3q-5 -1 -6 -4t-1 -7q-2 0 -2 -2v-1q1 0 1 1q1 1 0.5 1.5t0.5 1.5
q4 6 6 10h4q-1 -13 -4 -25.5t-5 -25.5q-5 -20 -9 -38t-8 -38q-3 -17 -5.5 -35.5t-5.5 -35.5q-4 -23 -7.5 -45.5t-8.5 -44.5l-6 -34l-6 -34l-6 -26t-5 -26l-21.5 -92l-21.5 -92q-3 -17 -8 -35q-4 -21 -23 -35h-2q0 8 2 15.5l4 14.5q2 8 3 15.5t3 15.5t3.5 15.5t3.5 15.5
q-5 -2 -5 -3q-4 -8 -5 -12l-1 1l1 -1q-1 -4 -0.5 -7.5t-3.5 -6.5q0 1 -1 1h2q1 -8 -2.5 -15t-3.5 -15q-4 -3 -2.5 -8t-2.5 -7h-1h1q-2 -6 -4 -10q0 -4 -2 -8q-1 -6 -2.5 -7.5t-7.5 -1.5q-1 1 -3 1q-4 -4 -6 -7q-2 4 -4 6q-3 -3 -4 -5q-2 -6 -7 -6t-8 6h-1q-2 -2 -3 -4t-4 -1
q-5 0 -7 8q-13 -4 -24 4q-16 10 -12 29q3 13 5 26.5l4 26.5q0 4 -2 5q-3 -2 -2.5 -5t-0.5 -5q-1 -1 -1.5 -1t-1.5 -1q-2 2 -2 4q-1 2 -0.5 3t0.5 3q2 6 2 8q1 2 0.5 4t-0.5 4q-3 0 -3 -2q-4 -9 -5 -17q-6 2 -4 9l4 22l4 22q1 5 1.5 9t1.5 8q1 3 0.5 5.5t-0.5 5.5
q-4 -4 -4.5 -8.5t-2.5 -9.5q-4 4 -1 9q2 9 3 18.5t4 19.5q3 8 4.5 17.5t3.5 18.5q2 7 3 13t3 12q1 5 1 8.5t1 8.5q2 2 2 4q-1 7 1.5 12.5t4.5 10.5q1 2 1.5 5t-1.5 6q-1 0 -1 3q6 6 7.5 15t2.5 17v1v-1q-5 -2 -7 -4v11h1q0 1 1 1q-2 0 -2 -2l-11.5 -14t-10.5 -16l-16.5 -24
t-16.5 -25q-4 -4 -7 -8t-4 -9h1q-1 0 -1.5 -0.5t-1.5 -0.5q-15 -17 -21 -34q-6 -2 -9 -6.5t-5 -10.5h1q-3 -3 -4 -7q0 -1 -1 -1l1 1h4h-1q0 -6 -6 -7q-8 -3 -11 -7.5t-5 -13.5q0 -4 -4 -6l-2 1q0 -1 0.5 -1t0.5 -1q-4 -4 -6 -5q-1 -1 -2.5 -1.5t-1.5 -1.5q-2 -9 -9 -13.5
t-12 -10.5q-3 -5 -7 -7.5l-9 -5.5h-1l1 1q9 -1 17 5q11 7 20 16t17 19q3 4 6.5 7.5l7.5 7.5q-1 -1 -1 -4q-12 -18 -26 -33.5t-31 -28.5q-9 -9 -21 -12q-7 -3 -14 -8q-3 -2 -5.5 -4t-6.5 -3q-13 -5 -27 -6t-28 5q-5 3 -9 3q-12 1 -22 13q-2 2 -4.5 4t-5.5 5l1 1q0 1 -0.5 1.5
t-0.5 1.5v-1q2 5 -1 7q-2 2 -4 3q-3 3 -5 -3q-4 2 -6 6l-4 8q-4 9 -7 19.5t-3 21.5t-0.5 21t-2.5 20q-2 8 -1.5 14.5t5.5 13.5q1 3 0 6q-1 2 -1.5 3.5t1.5 3.5t2 4q1 11 1.5 22t2.5 23q2 16 2.5 32t4.5 32q0 5 3 10q4 2 2 7q-1 4 0.5 6.5t2.5 5.5l9.5 45.5l9.5 45.5
q2 8 3.5 16t3.5 16l12 50t14 50l13.5 40l12.5 40q4 13 7.5 18t15.5 17q1 0 3 -5q-3 -2 -3 -7l-2 -2q-1 0 -1 -2l2 1v3q4 1 4 7q5 -2 6.5 -1.5t3.5 2.5q4 6 7.5 12.5t7.5 12.5q1 2 5 4q8 1 15 1.5t15 -3.5q-1 -4 -1.5 -7t-1.5 -8q5 2 6 6t6 6q0 -2 2 -4q-4 -1 0 -4v1
q0 -2 -0.5 -4.5t-0.5 -4.5q0 -1 3 -1q3 2 2.5 5t-1.5 5zM187 108q2 2 4 3l1 1l-1 -1q-2 -2 -4 -3v-1v1zM293 253l1 1q0 -1 -1 -1q0 -1 -1 -1q1 0 1 1zM351 298l3 3q0 1 1 1l-1 -1l-3 -3l-1 -1zM303 270q-3 -2 -3 -7q0 -1 -0.5 -1t-0.5 -1q0 1 0.5 1t0.5 1q3 1 3 8q2 2 4 3
q2 4 3 7q7 1 7 9l4 4q7 8 13 17.5t11 20.5q5 4 7 10q5 6 9.5 13t5.5 16q2 1 4 3q1 1 1 1.5t1 1.5v1q-1 -1 -1 -2t-1 -2l-3 -3q-8 -5 -11.5 -12.5l-6.5 -14.5q-6 -4 -7 -11q-7 -7 -12 -15.5l-10 -17.5q-1 -2 -1 -5q-1 -1 -2 -1.5t-2 -2.5q-6 -3 -6 -10q-3 -2 -3 -7zM197 654
l2 2v3h-2q-1 -1 -1 -2q1 -1 1 -1.5t1 -1.5q-4 -3 -4 -7q-1 -2 -2 -3t-2 -3l1 -2h1q1 0 1 1q0 2 0.5 3.5t0.5 3.5q3 3 3 7zM187 622q-2 -2 -2 -5q-1 0 1 -2l2 2q0 4 -1 6q1 0 1 1q0 -1 -1 -2zM133 650q-6 -5 -6 -16q-1 -1 -1 -2v2q7 5 7 17q1 0 1 1q0 -1 -1 -2zM322 49
q1 1 1 2t-0.5 1.5t-0.5 1.5q0 -1 -0.5 -1.5t-0.5 -1.5q0 -2 1 -2zM191 632q0 1 -1 1v-1l1 -1v1zM570 618v2h-1q0 -1 1 -2zM117 606l1 -1l1 1h-2zM187 580v-1h2z" />
    <glyph glyph-name="V" unicode="V" horiz-adv-x="527" 
d="M96 6q-1 -1 -2 -1.5t-2 -1.5q-1 0 -5 -2q-8 2 -13 4q-2 3 -4 5.5t-4 6.5q-2 3 -2.5 6.5t-1.5 6.5q-3 6 -8 4q-3 0 -7 -2q-7 -3 -6 -9q0 -1 -2 -3q-9 6 -14.5 13.5t-10.5 16.5q-6 12 -10 24t-5 26q-2 23 -2.5 46t1.5 46q2 16 1.5 31.5t0.5 31.5q1 19 1.5 38t2.5 39
q2 26 3.5 52.5t3.5 53.5q2 32 2 63t1 63v51q0 27 6 54q1 2 1 5q3 8 6 11t13 6q4 -2 8.5 -4.5t6.5 -7.5q1 -2 3 -1.5t3 2.5t1 3.5t1 3.5q0 3 1 5q0 3 1 5h10q2 -5 3.5 -8l3.5 -7q2 -1 8 -3q1 -5 4 -12q4 6 5 12.5t9 9.5q7 -3 7 -12q0 -11 2 -21l4 -21t2.5 -21.5t2.5 -21.5
l2 -12.5t3 -12.5q2 -5 2 -11t1 -11q0 -4 5 -3q-1 6 -1 12.5t-1 13.5l-3 27v13t-1 13t-2.5 14t1.5 15q3 -14 6 -26t5 -24l6 -37.5t5 -38.5l4 -46t3 -46q0 -20 1 -38.5t1 -37.5q-1 -8 -1 -16v-16q0 -2 -0.5 -3.5t2.5 -2.5l5 5q8 14 15 28l15 29l27.5 52l27.5 52
q9 18 19.5 35.5l21.5 34.5l20.5 33l20.5 33l27.5 44l27.5 44q7 10 15 15l9 5.5t10 3.5q3 2 6.5 5t7.5 6q7 7 15.5 10.5t18.5 5.5q2 1 6 -1q3 -3 6 -2q3 2 5.5 0.5t5.5 -2.5q10 -2 13.5 -9t5.5 -15q1 -2 0 -4t-1 -4l-4 -11.5t-2 -11.5q0 -3 -2 -7l-14 -27.5t-15 -26.5
l-25 -40t-23 -41l-27 -47.5l-29 -46.5q-26 -38 -48.5 -78.5t-43.5 -82.5l-37 -72.5l-37 -73.5q-8 -14 -14.5 -28.5t-14.5 -28.5q-2 -2 -2.5 -4.5t-2.5 -4.5q-3 -4 -4.5 -8l-3.5 -9q-2 -8 -5 -15.5t-7 -15.5q-2 -5 -5 -9t-8 -7q-2 -1 -4 -5q-2 -5 -6 -8.5t-8 -6.5
q-4 -4 -14 -6q-4 -1 -6.5 1.5t-5.5 4.5zM139 519q-5 -3 -1 -7q3 2 1 7z" />
    <glyph glyph-name="W" unicode="W" horiz-adv-x="701" 
d="M540 674q7 6 7 9t-6 8l-12 6q5 1 8.5 0.5t7.5 -1.5q3 -1 7 -2t6 1q5 2 9.5 0.5t9.5 -0.5q1 0 1 -0.5t1 -0.5q-1 0 -1 0.5t-1 0.5q3 3 6 1q6 -2 12 -4.5t13 -1.5q2 0 6 -2q8 -4 11 -7q14 -12 24 -26t15 -31l6 -24.5l6 -25.5q3 -12 3 -23l2 -18.5t0 -18.5
q-1 -16 -1.5 -32.5t-2.5 -32.5q-2 -21 -6 -41t-9 -40q-9 -40 -22 -78t-32 -75q-8 -14 -15 -29t-16 -29l-10.5 -16l-10.5 -16q-8 -8 -12 -15q-1 -2 -0.5 -3.5t-0.5 -5.5l11 14.5l10 13.5q3 4 6 7.5t8 6.5h-1q0 -6 -3 -9.5t-6 -7.5q-8 -14 -18 -27t-19 -27q-11 -17 -24.5 -34
t-27.5 -31q-10 -10 -21 -17t-22 -12q-12 -5 -21 -4q-22 0 -43 7q-10 2 -14 3q-7 2 -13 3.5t-12 3.5q-4 2 -7 5t-7 6t-7.5 7t-7.5 8q-1 -2 -2 -3.5t-1 -3.5h-3q-8 5 -14.5 11t-13.5 11q-11 10 -19 24l-3.5 9t-3.5 8q-5 12 -9.5 24t-7.5 25q-2 10 -5.5 20t-7.5 19q0 1 -3 3
q-3 1 -5 -3l-5.5 -9l-5.5 -9l-28 -52.5t-30 -52.5q-5 -8 -10 -15t-10 -15q-2 -4 -4.5 -7.5t-7.5 -5.5q-1 2 -3 4l-2 4q-5 -5 -8 -10t-9 -8v4q0 2 0.5 3t-1.5 2q-2 0 -4 -5q-1 -2 -1 -4.5t-1 -4.5q-11 -10 -24 -4q-2 7 -3 8.5t-8 5.5q-3 5 -2.5 11.5t-4.5 11.5l-3 -6
q-2 -5 -6 -1q-1 0 -2.5 -1.5t-2.5 -0.5q-4 1 -4 8v9q0 4 -1 5q-6 8 -5.5 17t0.5 18q-1 3 -1 8q-2 2 -6 4q0 8 -1 15.5t0 15.5q1 12 -0.5 23.5t-1.5 24.5q1 20 1.5 39.5t0.5 38.5q0 13 0.5 25t0.5 23q-1 13 -0.5 25t0.5 24t-0.5 24t-0.5 24v88q0 15 -1 28.5t-1 27.5
q-1 8 -0.5 15t3.5 15q2 5 2 10t1 10q2 5 3.5 10t3.5 10q1 2 2 2.5t2 2.5q2 2 3 2q7 -2 10.5 4t10.5 5q5 -1 9.5 -0.5t9.5 -0.5q6 0 12 -6q6 -8 14 -9q3 0 4.5 -2.5t3.5 -4.5q8 -16 14.5 -32t9.5 -33q4 -22 7 -44t5 -45q2 -27 2 -54t1 -55q1 -18 1.5 -37t1.5 -38
q0 -2 0.5 -3.5t0.5 -4.5l5 5q11 20 23 39t23 39q5 9 9.5 19t9.5 20t11 19l13 19q21 28 54 29q5 0 10 0.5t9 5.5q2 -2 5 -3.5t5 -1.5q3 0 5.5 -1t5.5 -2q13 -3 21 -16q2 -2 2 -3t2 -2q5 -5 6.5 -11t1.5 -14q0 -5 0.5 -9t4.5 -8q4 -3 4 -9q1 -13 3 -25t1 -24v-36.5t1 -35.5
v-7.5t4 -6.5q2 2 4 6l6 -30q3 -14 7 -22q1 -3 3.5 -3.5t4.5 1.5q8 6 12 10q17 18 30.5 38t25.5 42q25 47 41.5 96.5t26.5 101.5q5 23 7.5 46.5t2.5 47.5q0 8 0.5 16.5t-0.5 18.5q-1 12 -4 24t-11 23q-1 2 -3 8q5 1 6.5 -2.5t5.5 -2.5q2 2 2 4v4h-1q4 -2 5 -5.5t3 -6.5
q2 -5 2.5 -9t4.5 -7q1 0 1 -1l-1 1q1 19 -11 36q-6 9 -16 14l-11.5 5.5t-11.5 6.5q0 8 7 6q4 -1 7.5 -2.5t7.5 -3.5q2 -1 5 -2t5 -2q0 -2 2 -2l2 1v1q-1 1 -3 1zM554 670h1h-1l-2 1zM564 187l-2 -2q0 -2 1 -3v2q1 1 1 3l1 1zM571 467l2 2q-1 1 -1 2q0 -2 -0.5 -2.5
t-0.5 -1.5l-1 -1zM571 685l1 -1q-1 0 -1 1l-2 2q-1 0 -1.5 -0.5t-1.5 -0.5q1 0 1 -0.5t1 -0.5h3zM577 512q5 5 1 10q-4 -4 0 -10q-6 -4 -1 -11v11zM470 193q1 1 2 1.5t2 1.5l17.5 23.5t16.5 25.5l12 18t11 19l8 15.5t6 15.5q2 6 4.5 11.5t6.5 10.5q4 7 7 19q2 8 5.5 16.5
t4.5 17.5q5 6 6.5 12t3.5 13q1 4 2 7.5t2 7.5q4 14 7 27t7 27q1 3 0 6.5t0 6.5q2 8 3.5 17t3.5 18q-2 5 0 8.5t2 7.5q0 12 -0.5 23.5t-1.5 24.5q0 7 -2.5 13t-5.5 12q-2 2 -4 4.5t-6 0.5v-34q1 -19 -0.5 -36.5t-3.5 -34.5q-3 -24 -8 -48.5l-10 -48.5q-6 -23 -14 -46l-16 -46
l-12 -28.5t-14 -29.5l-18.5 -35t-20.5 -34q-2 -2 -3.5 -4t0.5 -6zM25 32q-4 -8 -1 -21q2 5 2 8.5v5.5t-0.5 3.5t-0.5 3.5zM584 587q-5 -5 -1 -15q0 2 0.5 3.5t0.5 3.5v8zM580 619l-2 -1q0 -2 0.5 -3.5t0.5 -3.5q0 -1 2 -1l1 1q-1 2 -1 4t-1 4zM559 410q0 2 0.5 3t0.5 2
t-0.5 1.5t-0.5 1.5q-1 -1 -1 -3t1 -5zM580 534q0 2 -1 3q0 -1 -0.5 -1.5t-0.5 -1.5l2 -2v2zM572 480q1 0 1 3q0 2 -1 3q0 -1 -0.5 -1.5t-0.5 -1.5v-2q0 -1 1 -1zM582 601l1 1h-1v-1zM580 545l1 -1q0 1 1 1h-2zM623 315h1l-1 1v-1z" />
    <glyph glyph-name="X" unicode="X" horiz-adv-x="596" 
d="M399 269q-9 8 -13.5 18.5t-10.5 19.5q-3 6 -7 12q-5 8 -9.5 16.5t-9.5 16.5q-2 4 -3 5q-1 0 -2 0.5t-2 0.5t-1 -1v-2q0 -1 0.5 -1.5t0.5 -1.5q11 -17 20 -34.5t19 -33.5l24.5 -40l24.5 -40q1 -2 1.5 -4t1.5 -4q-4 -2 -7 -3q5 -8 8.5 -15t8.5 -14l9.5 -15l9.5 -15t7 -19
q-10 11 -19 22.5t-20 21.5q-5 -8 -1 -13l6 -10.5t7 -10.5q4 -6 7 -11.5l6 -10.5q4 -6 -1 -11q-4 3 -8 8q-2 -5 -1 -5l6 -10.5l6 -11.5l14 -22t15 -22q4 -5 5 -11q3 -4 -2 -9q-2 2 -3.5 3t-3.5 3q-4 0 -4 -1q-2 -4 -6 -14q-16 -12 -36 2q-2 2 -4.5 2.5t-5.5 1.5
q-3 0 -5.5 2.5t-4.5 3.5q-3 2 -6 1t-5 1q-5 5 -12 9.5t-12 11.5q-8 12 -16 18q-13 11 -23 24t-19 27l-33.5 46.5t-31.5 48.5q-4 6 -7.5 12l-7.5 13q-2 4 -4 6q-5 -1 -7.5 -4t-5.5 -7q-8 -10 -15.5 -20.5l-15.5 -21.5l-30.5 -39.5l-30.5 -39.5l-20 -27.5l-21 -27.5
q-4 -7 -8 -10q-2 -3 -4 -3q-5 2 -7.5 -1.5t-4.5 -5.5q-5 -5 -9.5 -10t-9.5 -12q-1 3 -1 8q-2 2 -3.5 0.5t-3.5 -1.5v-2q0 6 -1 8q1 1 1 2v-2q-3 -1 -7 -3q-2 5 -3.5 5.5t-6.5 -2.5q0 5 2.5 7.5t4.5 5.5v5l-1 1q-15 -2 -28 -9v7l1 1q0 -1 -1 -1t-2 -0.5t-2 -0.5l-1 1
q0 9 -0.5 13t0 7.5t3 7.5l7.5 12q6 8 11.5 16.5t8.5 19.5q2 5 5.5 8.5t5.5 8.5t4.5 9t4.5 8l33.5 48.5l33.5 49.5q13 20 27 39l28 39l7.5 10.5t3 6.5t-1 7.5t-5.5 12.5q-44 96 -77 196q-3 5 -2 7q2 8 -1 13t-5 10q-1 1 -1 1.5t-1 1.5q-4 13 1 22q3 0 4.5 -3t6.5 -1
q-1 1 -1 2t-1 2q-2 5 -5.5 11l-6.5 11q-2 3 -3 6.5t-3 6.5q-5 10 6 15q3 -2 6 -4.5t6 -4.5q2 -2 4 -3q2 -6 4 -10q2 -5 6 -3l1 -1h-1l-3.5 8.5t-6.5 5.5q-2 1 -4 3q-1 2 -0.5 3.5t-0.5 2.5q-7 11 -4 25q2 5 6 7.5t9 4.5q6 2 9 2q5 -1 9 -0.5t9 1.5q10 2 17 -1.5t14 -8.5
q4 -5 8 -9.5t10 -6.5q4 -1 6 -6q8 -12 15 -28q5 -8 10 -17.5l10 -18.5l11.5 -24l10.5 -24q4 -7 7.5 -14l7.5 -15q1 -3 6 -8q-2 -11 7 -18q2 -3 3 -6t4 -5q0 -4 0.5 -7.5t4.5 -6.5q1 5 0.5 7t-5.5 7q-1 6 -1.5 7t-5.5 3q5 11 -8 18q0 8 -2 12l-14 33t-15 32q-2 5 -4 8t-5 7
q-2 4 -3.5 7.5t-0.5 8.5h-1q7 -5 11 -10.5t7 -12.5l12 -25l12 -25q8 -16 14.5 -30.5l13.5 -29.5q1 -2 2 -3.5t2 -3.5q4 -1 8 3q11 11 20 21.5t19 20.5l19 19.5l19 19.5q33 32 68 60.5l71 56.5q6 5 11.5 8l10.5 6q2 2 4 2t8 -2q-2 -14 -10 -24q-6 -6 -6 -12v1q6 -5 14 0
l30 15q1 -2 2 -3t1 -3q3 -11 -2 -25q-9 -20 -24 -35q-8 -7 -15 -14.5l-14 -14.5l-32.5 -36l-32.5 -36q-9 -11 -18 -20.5t-18 -20.5l-35.5 -40.5t-35.5 -41.5q-4 -7 -8 -13q2 -4 4 -7.5t4 -7.5l18 -36t19 -35q5 -8 5 -15zM51 15q9 5 5 11q-5 -5 -5 -11z" />
    <glyph glyph-name="Y" unicode="Y" horiz-adv-x="573" 
d="M432 485q-7 -4 -11 -9.5t-9 -10.5l-6 -8t-8 -6h-1h1q-1 -5 -3.5 -8t-4.5 -6q-6 -6 -6 -10h1q-2 -1 -4 -3q-5 -2 -6.5 -5.5l-3.5 -8.5q-4 -2 -5 -3l-7 -9l-7 -9q-1 -1 -1 -6q-9 -3 -11 -14l1 1q-8 -5 -12 -12q-2 -3 2 -5h-1q-3 -3 -5 -3q-2 -2 -8 -4q-1 0 -1 1l1 -1v-10
q-4 -1 -10 -3v-1v7v1v-1q-6 -3 -10.5 -8t-9.5 -10q-6 -8 -6 -17q2 0 3 0.5t3 0.5h-1v-3q-7 -7 -9.5 -15.5t-4.5 -16.5l-18 -56t-19 -56l-29 -86l-29 -86q-3 -9 -6.5 -17.5t-6.5 -17.5q-6 -22 -23 -39q-7 -8 -17 -11l-3 12l3 6l-2 2l-2 -2q0 -2 0.5 -3t0.5 -3q-4 -2 -7.5 -5
t-8.5 -5q-1 4 0.5 7.5t1.5 7.5q1 5 1 8.5v8.5q-2 2 -5.5 2.5t-6.5 1.5q0 1 -0.5 1.5t-0.5 1.5q-1 20 2.5 39.5t8.5 39.5q10 49 22.5 96.5t26.5 95.5q2 5 3 11t3 12q2 2 0 5q-1 0 -1 1l-1 1h-1l-2 -1q-2 -4 -2 -6l-15.5 -52.5l-15.5 -52.5l-10 -36l-10 -36l-15.5 -64
t-11.5 -64q-2 -6 -3 -8q-3 1 -3 3v4v8q0 7 -5 10q-5 5 -4 11v20t1 20q2 19 5 37l6 37q2 11 3 23t3 23q2 16 5.5 31t7.5 30l12 46l12 46q3 9 -3 16l-5.5 9l-5.5 9q-15 26 -26.5 53.5l-22.5 56.5l-10.5 29l-10.5 29q-11 30 -18 60q-4 14 -8.5 26.5l-9.5 26.5l-6 15q5 2 5 10
q4 0 6 1q1 1 1 3v8q0 2 -0.5 3.5t0.5 3.5q4 8 4 16v16q2 3 4 1t5 -1q0 1 0.5 2.5t0.5 2.5q-2 5 -3.5 10t-3.5 10v-1h8.5t7.5 3q6 4 12.5 4t12.5 2t12 -4q2 -3 3.5 -5.5t5.5 -4.5q2 1 2 2.5t1 3.5l-1 -1q5 0 7 7q7 -2 10.5 -8t10.5 -9h-1q3 -3 4 0q8 -5 12.5 -13t9.5 -16
q4 -5 6.5 -11.5t6.5 -11.5q1 -3 6 -8q0 -6 3 -7q1 -2 1.5 -4t1.5 -4h1q1 0 1 1v1q-1 2 -5 6q0 5 -4 6q0 3 0.5 5.5t0.5 5.5l-1 -1q8 -8 12.5 -17t9.5 -18q16 -29 27 -55q7 -15 13 -30l12 -31q1 -2 2 -5t5 -4q2 2 3.5 3t3.5 3l26.5 33l26.5 33q8 8 14.5 16.5t14.5 16.5
l21.5 22.5l21.5 23.5q10 11 18.5 22.5t18.5 22.5l13 15t13 14q8 9 19 14t22 9q3 2 6.5 2t6.5 2q6 4 12.5 5t14.5 2q-1 -3 -2.5 -6.5t-0.5 -5.5q1 -4 -2 -6.5t-2 -6.5q2 1 4.5 2t4.5 1t8 -2q10 -3 18 5q3 2 6 5t6 5q4 -8 5.5 -9t7.5 -1q7 -11 12 -28q-3 -7 -8.5 -12.5
t-10.5 -12.5q-2 -2 -4.5 -4t-2.5 -5q-1 -7 -5 -12t-5 -12q-2 -2 -3 -4h-2v-1l2 2l3 3q5 2 8 5t5 7q5 9 14 11v1q-1 -5 -3 -7.5t-5 -5.5l-13.5 -16l-13.5 -16q-2 -2 -2 -6q-5 -3 -8.5 -7t-5.5 -10q-3 -1 0 -4v1q-5 -5 -9.5 -10.5t-9.5 -10.5q-2 -3 -5 -5.5t-3 -7.5
q-8 -5 -14 -12l-12 -14q-1 -1 -1 -5q-6 -3 -10 -8.5t-9 -10.5q-1 -1 -1 -4zM401 474l4 4q7 3 7 10l3 3q1 2 3 4q13 5 14 17l3 3q16 8 20 24q2 1 4 3q12 7 20 21v3l1 1l-1 -1q-7 -3 -11 -8.5l-8 -10.5q-1 -2 -1 -5l-3 -3q-7 -4 -11 -9t-9 -10q0 -3 -1 -5l-3 -3
q-11 -7 -14 -17q-1 -1 -1.5 -2t-1.5 -2l-3 -3q-7 -3 -7 -10l-4 -4l-3 -3q-2 -1 -5 -4q-1 -1 -1 -2.5t2 -1.5l2 2q1 2 1 3t1 3zM499 590q1 0 1 1v-2q-1 -1 -2 -1.5t-2 -1.5q-1 -2 -1.5 -3.5t-1.5 -3.5l-1 -1q0 1 1 1q3 3 3 7q2 2 3 4zM520 607h1q-1 0 -1 -1q-1 0 -1 -1
q0 1 0.5 1t0.5 1zM516 620q1 1 2 1.5t2 1.5t3 1q0 1 1 1l-4 -2l-3 -3l-1 -1v1zM138 603v-3l1 -1l1 2l-2 2l-2 4v-2zM334 390q4 2 5 2l1 2q-1 0 -1.5 0.5t-1.5 0.5q-2 -4 -3 -5l-1 -1zM111 661q0 -2 -1 -1q0 4 -1 5h-3l1 -1q2 -2 4 -3zM378 444q-6 -5 -7.5 -6.5t-3.5 -6.5
q9 3 11 13l4 4l4 4v4q-5 -5 -5.5 -6t-2.5 -6zM351 417q-1 0 -1 1l1 -1q0 -5 -3.5 -8t-5.5 -8q6 0 8 4q8 10 13 17q1 1 -1 4q-8 -6 -11 -9zM326 381q-2 -2 -3 -2.5t-3 -2.5l-7 -7v2l1 -1q-4 -4 -8 -6.5t-6 -7.5q-9 -8 -11.5 -12.5t-1.5 -13.5q2 0 4 2l19 22.5t18 24.5
q2 2 1 2q-1 2 -3 0zM170 273q1 2 2 2.5t1 1.5q0 2 -1 3t-2.5 -0.5t-1.5 -3.5l1 -1q0 -1 1 -2zM156 593v-1l1 1h-1zM149 247l1 1h-1v-1zM126 167l-1 -1h1v1zM106 93h-1v-2z" />
    <glyph glyph-name="Z" unicode="Z" horiz-adv-x="673" 
d="M234 139q10 2 19 2.5t18 2.5q25 4 52 6q29 2 56.5 2.5t55.5 -7.5q26 -6 47 -20q20 -14 33 -40q1 -2 1 -4.5t1 -4.5q1 -5 0 -10.5t4 -10.5q1 -2 1 -7q-2 -10 -6 -15q-3 0 -3 2t-2 3q-1 0 -2 0.5t-2 0.5l-4 -2t-4 -3q3 -4 4 -8l-1 -1q-5 0 -8.5 -2t-7.5 1q-3 2 -8 0l-1 1
l1 -1q-2 -2 -4 -3l-4 -2q-5 -2 -9 0q-3 1 -3 3.5t-1 4.5l1 1v-1q-8 7 -19 7q-23 0 -45.5 0.5t-45.5 -0.5q-24 -2 -48.5 -3.5t-48.5 -3.5q-48 -4 -97 -12l-27.5 -4l-27.5 -4q-8 -1 -16.5 -3.5t-16.5 -4.5q-5 -1 -9 -2t-9 -2l-1 1v2q4 2 7 3t7 2q13 3 25 5.5t25 5.5q3 1 6 1
t7 2l7 3.5t8 0.5q1 0 4 3q2 -1 5 -1q1 -1 3 1q1 2 -2 4q-5 3 -15 1q-17 -2 -33.5 -6.5l-33.5 -9.5q-8 -3 -16 -2q1 2 1 4t1 4q-4 1 -7.5 -0.5t-6.5 -2.5q-2 0 -3 -8q-5 -1 -10.5 -1t-11.5 2q-2 6 -2 9v10q0 4 -5 6q-3 1 -5.5 1.5t-5.5 0.5q2 13 8 27.5t18 34.5q3 2 5.5 3
t4.5 5q8 18 20 33.5t23 31.5q16 21 29 41l13.5 18.5t14.5 17.5l37 46t38 46l34 38.5l35 37.5l43.5 43t44.5 41l10 8l10 8q2 2 3 3.5l3 4.5q-14 2 -27.5 1t-28.5 1q8 2 7 2h5h12t12 1q-11 3 -21.5 2.5t-21.5 -0.5q-11 1 -22 1t-22 1q5 1 15 1h93h7.5t6.5 3l-2 2
q-18 0 -36 -0.5t-36 -0.5q-20 0 -39 0.5t-39 0.5q-10 1 -18.5 3.5t-17.5 4.5q-3 1 -6 3l-6 4q-2 1 -3.5 2.5t-3.5 1.5q-8 1 -15 11q1 1 1.5 2t1.5 2q4 6 -2 8q-3 1 -5.5 1.5t-6.5 1.5q3 5 0 7.5t-7 4.5q2 3 3 5.5t2 5.5q-1 2 -1 3t-2 3q-7 10 1 16q1 1 1 2v1q-1 5 1 8.5
t4 7.5q10 12 20 18q38 21 80 24q14 2 28.5 3.5t28.5 3.5q5 1 10 1.5t10 0.5q16 2 32 2t32 1q15 1 30.5 1.5t30.5 -0.5q15 0 30.5 0.5t30.5 -0.5q8 0 16.5 -1l16.5 -2q1 0 4 -3q1 -2 5 -4l27 -3q13 -2 20 -8q0 -1 0.5 -1.5t0.5 -2.5q-4 -2 -8.5 -1.5t-8.5 0.5q-5 -1 -8.5 -1
t-8.5 -1q8 -3 17 -2t17 -2q-2 -8 -3.5 -10.5t-8.5 -7.5l6 -3q6 -2 12 -3l12 -2q5 -1 7.5 -3t4.5 -4q9 -11 10.5 -25.5t-6.5 -26.5q-9 -16 -18.5 -30.5t-23.5 -26.5q-6 -5 -11 -11.5t-11 -12.5l-19 -19l-43.5 -37.5t-42.5 -38.5q-23 -21 -44.5 -44l-44.5 -46l-43.5 -47
l-43.5 -47l-25.5 -26.5t-24.5 -26.5l-13.5 -13l-13.5 -12q-3 -3 -5 -9v-1v1zM167 31q3 -2 7 -4t8 0q5 2 9 2.5t9 0.5q5 -2 8 0q5 2 10 2.5t10 1.5q-1 0 5 2q-5 3 -7 3q-5 -1 -9.5 -1t-9.5 -1l-1 1l1 -1l-1 -1l-1 -1q-8 1 -16.5 -1t-16.5 -1q-1 0 -2 -1t-3 -2q-6 2 -9 -1v-2
l1 -1q5 0 8 5zM245 34v-1q0 1 -1 1q3 3 11 3h11.5t10.5 1q7 2 13.5 2h13.5q8 1 16 1h16l1 -1q-1 0 -1 1q3 3 6.5 3h7.5h81q5 0 6 2q-2 2 -3 2q-17 0 -34 1t-34 0q-12 -1 -24 -0.5t-23 -3.5q-28 0 -53 -3q-6 -1 -12 -1t-12 -1l-3 -3q1 -1 2 -1.5t2 -1.5h2zM617 662h-3
q-4 0 0 -2l2 1q1 0 1 1zM6 40q-1 0 -2 -1l2 -1q1 0 1.5 0.5t1.5 0.5q-1 1 -3 1z" />
    <glyph glyph-name="D" unicode="D" horiz-adv-x="462" 
d="M152 22q-8 0 -10 -4v1q-3 -1 -5.5 -0.5t-3.5 -4.5h-2h-3q-8 2 -15 0t-15 -5l-1 -1h1q-4 2 -5 2q-7 2 -7 -2q-1 -7 -9 -9q-8 -3 -16 -3.5t-16 4.5q-4 2 -8.5 3t-9.5 2q-12 1 -21 12q-2 3 -6 11q-1 2 -2 5t-2 5q-6 11 0 24q8 -2 13 -2t3 5q0 1 -0.5 1.5t-0.5 1.5
q-6 4 -3 12q5 14 7 27l4 27q4 26 8.5 51t7.5 51q2 17 5 33.5t7 33.5q6 31 12.5 61.5l13.5 61.5l15 78l7.5 37t7.5 36q1 2 1 4t1 4q-2 4 -4 7t-4 7q-7 15 4 24q5 5 8 10.5l6 10.5q6 13 18 22q19 15 47 25q12 5 24 4.5t23 -2.5q6 -1 11 -1.5t11 1.5q5 2 10.5 2.5t10.5 1.5h12
q17 -2 33 -5t31 -8q20 -7 36 -18t27 -28q10 -15 19 -30t16 -32q5 -12 8.5 -25t3.5 -27v-34.5t-1 -34.5q-1 -43 -15 -85q-8 -25 -17 -49.5t-20 -48.5q-8 -16 -16.5 -31t-19.5 -29l-15.5 -22t-18.5 -20q-13 -20 -28.5 -36.5l-32.5 -33.5q-20 -20 -42.5 -36.5t-47.5 -30.5
l-12 -6q-9 -5 -14 -3q-2 0 -4 -2zM372 583l3 -3q2 -2 3 -2h1q-1 1 -2 1t-2 1q-2 2 -4 3v1zM385 529q-2 -4 0 -11q3 -17 4 -33l2 -33q0 -7 -0.5 -14t-1.5 -14q0 -5 -0.5 -9t-0.5 -8v-3.5t3 -3.5q4 10 6.5 20t4.5 21q8 34 -1 66q-1 6 0 10q1 5 -2 10q-4 5 -7.5 10.5t-8.5 11.5
q0 1 -1 1q-3 0 -4 1q2 -6 4 -11t2 -10zM233 586q-4 4 -8 2q3 -1 8 -1q-2 -2 -3.5 -3t-3.5 -3q3 -7 3.5 -9t-0.5 -7l-6 -33l-2 -4t1 -4q2 0 3.5 0.5t3.5 0.5q-2 -11 -2.5 -21t-2.5 -21l-6 -34l-6 -34q-5 -32 -12.5 -64l-15.5 -64l-14 -48t-15 -48q-5 -15 -9 -30.5t-9 -30.5
q-1 -2 -1.5 -5t2.5 -5q7 2 13 5t12 8l19.5 14l19.5 15q17 15 31.5 31t26.5 35q25 37 42 80q23 56 27 115q0 5 0.5 8.5t0.5 8.5v20q0 4 -0.5 7t-1.5 7q-2 10 -3.5 20t-3.5 21q-2 5 -4 8.5t-4 8.5q-12 16 -27 30q-13 11 -27 17q-7 2 -13 3.5t-13 3.5zM164 675h-1l1 -1v1z
M185 583l-1 1q-1 0 -1 -1q1 0 1 -1q0 1 1 1zM13 23v1h-1z" />
    <glyph glyph-name="exclam" unicode="!" horiz-adv-x="250" 
d="M190 727q2 -8 3 -13q2 2 4 3t4 3q3 -10 2 -17q0 -4 1 -5t2 -1.5t2 -1.5q-2 -9 -1.5 -18.5t0.5 -19.5q2 3 2 6.5t1 7.5l3 15q1 3 1 5.5t2 4.5q5 4 7.5 9.5t4.5 11.5q1 2 5 8q7 -7 7 -16v-15.5t-1 -15.5q-3 -18 -6.5 -36t-7.5 -36q-8 -42 -17 -82.5t-17 -82.5
q-6 -28 -12.5 -55.5t-12.5 -55.5l-10 -45t-11 -45q-6 -25 -12.5 -49.5t-14.5 -48.5q-2 -6 -4 -9q-6 0 -10 -1q-2 -2 -2.5 -4t-2.5 -4q-1 -2 -5 -2q-2 0 -2 4q0 2 0.5 3t-1.5 3q-2 -3 -5 -6.5t-5 -6.5q-2 1 -4.5 1t-4.5 1q-8 1 -7 9v2q1 5 0 6t-8 3q0 5 -0.5 9t0.5 9
q2 16 3.5 31.5t4.5 31.5q8 42 17.5 82l19.5 82l15.5 72l15.5 71l20.5 85t22.5 84q2 6 3.5 12.5t6.5 11.5q1 2 4 5zM175 514q-2 -5 -2.5 -6t1.5 -6v12q1 1 1.5 1t1.5 1q-1 1 -1 2q0 -2 -0.5 -2.5t-0.5 -1.5zM203 639l-2 -1l-2 -8l-2 -8q0 -1 1 -2q5 5 4.5 9.5t-0.5 9.5
q4 3 2 9q-1 -4 -1 -9zM181 537q-2 -2 -2.5 -3l-1.5 -3l2 -2l1 1q0 3 1 7zM163 453q0 1 -1 2q0 -1 -0.5 -1.5t-0.5 -1.5l1 -1q0 1 0.5 1t0.5 1zM195 611v-2l2 2v1zM190 584q-1 -1 -1 -3q0 -3 2 -1v3zM183 552q-1 -1 -1 -3t2 0v3h-1zM169 493q0 -1 -0.5 -1.5t-0.5 -1.5
q1 -1 2 0v3h-1zM167 473q0 1 -0.5 1.5t-0.5 1.5q-1 -1 -1 -3v-1q1 0 1 0.5t1 0.5zM194 597v1q-1 0 -1 -1v-1zM187 566v1l-1 -1q0 -1 1 -1v1zM151 413l1 -1v1h-1zM12 11q-1 5 -2 8.5t0 8.5q2 9 2.5 18t2.5 18q5 16 19 27.5t33 9.5q7 0 11 -4q4 -5 8 -8t9 -5q4 -2 6 -9
q3 -10 5 -20t-1 -21q-2 -7 -3 -14t-3 -14q-4 -9 -9 -16t-15 -10q-2 5 -0.5 10.5t1.5 10.5q1 5 -8 8q-4 -9 -4.5 -18.5t-5.5 -18.5q-2 2 -4.5 3.5t-4.5 -1.5t-4.5 -2t-5.5 1q-2 3 -2.5 6t-2.5 7h-10q-4 3 -5 6t-2 8v14l-2 1q-1 -1 -1 -1.5t-2 -2.5zM53 -16q4 4 1 12
q-1 -5 -1 -12z" />
    <glyph glyph-name="quotedbl" unicode="&#x22;" horiz-adv-x="239" 
d="M74 706q6 8 12 4q7 -3 15 3q5 -7 9 -13.5t3 -14.5q5 -14 3.5 -27.5t-6.5 -27.5l-12.5 -32l-13.5 -32q-3 -8 -6.5 -16.5t-7.5 -16.5t-9 -13.5t-13 -10.5q-3 2 -6.5 3.5t-7.5 1.5q-4 1 -7.5 0t-7.5 -1q-1 6 -1.5 11.5t0.5 11.5q2 17 5.5 33.5t8.5 33.5q8 25 15 50t15 51
q3 7 12 2zM178 706q6 8 12 4q7 -3 15 3q5 -7 9 -13.5t3 -14.5q5 -14 3.5 -27.5t-6.5 -27.5l-12.5 -32l-13.5 -32q-3 -8 -6.5 -16.5t-7.5 -16.5t-9 -13.5t-13 -10.5q-3 2 -6.5 3.5t-7.5 1.5q-4 1 -7.5 0t-7.5 -1q-1 6 -1.5 11.5t0.5 11.5q2 17 5.5 33.5t8.5 33.5q8 25 15 50
t15 51q3 7 12 2z" />
    <glyph glyph-name="numbersign" unicode="#" horiz-adv-x="536" 
d="M459 479q15 1 29 -2l28 -6q-3 -6 -4 -6q-10 -2 -19.5 -2.5t-20.5 -2.5q2 -5 6 -4.5t7 -0.5q21 -1 25 -19q-2 -3 -5 -5.5t-5 -5.5q-6 -8 -14.5 -11t-19.5 -5q-4 -1 -7.5 -1h-6.5h-30l-8 -27l-8 -27q-5 -15 -9.5 -30t-9.5 -30q4 0 7.5 -0.5t8.5 -0.5q-4 -7 -8 -7.5t-9 -1.5
q-1 0 -2 -1q-1 -3 -2 -6.5t-2 -6.5q3 -1 9 -1q15 1 29 -2.5t29 -5.5q-2 -3 -2.5 -4.5t-1.5 -2.5q-11 -1 -20.5 -2l-19.5 -2q1 -5 5 -5h8q19 -1 25 -20q-2 -2 -5.5 -4.5t-5.5 -5.5q-5 -8 -14 -11.5t-19 -4.5q-5 -1 -15 -1h-27l-16 -45.5l-16 -45.5q-3 -8 -6.5 -16t-7.5 -16
q-2 -6 -10 -8q-3 3 -3.5 4.5t-0.5 6.5q-4 1 -4.5 0t-1.5 -2q-3 -8 -8 -14h-12t-13 -1q0 -4 -1 -6q0 -2 -5 -2h-1q-1 0 -2 1q0 1 -0.5 1.5t-0.5 1.5l1 1q-1 0 -1 -1q-7 -2 -7 -5.5t-7 -6.5q-1 1 -2 1t-2 1q-1 3 -1 9q-5 1 -9 0t-9 1q-9 3 -9 8q2 11 4.5 22t4.5 22
q5 20 9 40.5t9 41.5q-8 -1 -15.5 -1.5t-15.5 -1.5q-3 -1 -11 -1q-7 0 -14 0.5t-15 0.5q-8 -20 -14.5 -40.5t-14.5 -40.5q-3 -8 -6.5 -16t-7.5 -16q-2 -6 -10 -8q-3 3 -3.5 4.5t-0.5 6.5q-4 1 -4.5 0t-1.5 -2q-3 -8 -8 -14h-12t-13 -1q0 -4 -1 -6q0 -2 -5 -2h-1q-1 0 -2 1
q0 1 -0.5 1.5t-0.5 1.5l1 1q-1 0 -1 -1q-7 -2 -7 -5.5t-7 -6.5q-1 1 -2 1t-2 1q-1 3 -1 9q-5 1 -9 0t-9 1q-9 3 -9 8q2 11 4.5 22t4.5 22l10 44l10 44q-3 1 -5.5 1.5t-5.5 0.5q-29 5 -51 16q-17 8 -17 25q0 18 19 24q18 5 35.5 11t36.5 10q10 2 15 2l17.5 57l17.5 57
q2 6 2 7q-1 1 -5 1q-14 2 -27 6t-24 10q-18 9 -17 25q0 18 18 24l36 11.5t37 9.5q3 1 6 1t6 1q1 3 1.5 5.5t1.5 5.5l12 34.5t13 34.5q5 14 11 28.5l12 28.5q7 16 16 26q4 2 5 2q17 3 20 -4q3 -3 1 -8q-1 -5 -5 -15q0 -1 0.5 -2t0.5 -3q4 1 5 2l2 2q5 7 9.5 14t8.5 14
q5 9 15 17q10 -7 31 -4q0 -6 -2 -12.5l-4 -12.5l-10 -31.5l-10 -31.5q-2 -10 -5.5 -19t-5.5 -19q-1 -4 0 -8t1 -8q5 4 4.5 7.5t1.5 6.5q3 8 5 15.5l4 15.5q2 5 3 10.5t3 11.5t4 9q3 -1 2.5 -2.5t-0.5 -3.5q-3 -11 -5.5 -22t-5.5 -22l-6 -22l-6 -22q0 -3 -1 -4h30t30 -1
q7 0 11 -1h2q5 17 11 34t13 34q5 14 11 28.5l12 28.5q7 16 16 26q4 2 5 2q17 3 20 -4q3 -3 1 -8q-1 -5 -5 -15q0 -1 0.5 -2t0.5 -3q4 1 5 2l2 2q5 7 9.5 14t8.5 14q5 9 15 17q10 -7 31 -4q0 -6 -2 -12.5l-4 -12.5l-10 -31.5l-10 -31.5q-2 -10 -5.5 -19t-5.5 -19q-1 -4 0 -8
t1 -8q5 4 4.5 7.5t1.5 6.5q3 8 5 15.5l4 15.5q2 5 3 10.5t3 11.5t4 9q3 -1 2.5 -2.5t-0.5 -3.5q-3 -11 -5.5 -22t-5.5 -22l-6 -22l-6 -22q-1 -3 -1.5 -5.5t-1.5 -5.5h1h10.5t13.5 -1q-4 -7 -8.5 -7.5t-8.5 -1.5q-3 -1 -5.5 -1t-5.5 -1q-2 -6 -2 -10q7 -3 16 -3zM213 624
l1 -1l1 1h-2zM409 624l1 -1l1 1h-2zM259 299l16 50l16 51q-6 -1 -12.5 -1t-12.5 -1q-3 0 -5.5 -0.5t-5.5 -0.5q-8 1 -16 1h-16q-3 -11 -6.5 -22t-6.5 -22l-8 -27t-9 -26h25.5t26.5 -1q7 0 10 -1h4z" />
    <glyph glyph-name="dollar" unicode="$" horiz-adv-x="442" 
d="M104 -131q-1 2 -1 3.5t-2 3.5q-5 -5 -8 -7q-2 0 -2 1q-2 4 -4 10l-2 8l-2 8l-2 2q-1 -5 -5 -15q-3 1 -3 2.5v2.5q0 10 1 14q2 15 5 29.5l6 29.5l6 27t7 27q3 12 8 28v5q-1 1 -2 1h-1q-2 -2 -2 -3q-2 -6 -3 -8q-3 -17 -7.5 -32t-9.5 -30q-4 -13 -5 -22q-2 -8 -6 -15v6
l9.5 45t11.5 43q2 4 3 8t-1 9q-4 1 -14 5q-12 4 -22 11t-19 17q-2 1 -2.5 2t-2.5 3q-11 9 -15 20.5t-6 23.5q-1 5 0 9t1 9q0 12 3.5 23.5t8.5 22.5q6 15 14 29.5t15 28.5q10 17 26 17q3 0 7 2q1 -3 0 -4t-2 -3q-3 -3 -9 -11q-2 -2 0 -6q1 -4 6 -2q8 2 11.5 3.5t9.5 6.5
q4 0 4 -6q-1 -4 -3 -10q-2 -8 -3 -11q0 -2 0.5 -2.5t0.5 -1.5q9 -8 9 -17.5t-5 -19.5q-2 -4 -3.5 -8l-3.5 -9q-4 -9 3 -20q2 -3 10 -7q5 -2 9 2q3 3 3 1q2 -2 3.5 -2.5t3.5 1.5q3 3 5 9l4 18l4 18q2 5 4.5 9.5t3.5 9.5q0 5 0.5 9.5t2.5 9.5q5 14 7.5 29t7.5 29q1 2 1 4.5
t1 4.5q5 7 5 14.5t1 15.5q0 1 -0.5 1.5t-0.5 2.5q-5 2 -11 3.5t-12 3.5q-14 5 -28 12.5t-25 19.5q-4 5 -8.5 8.5t-8.5 8.5l-11.5 15.5t-6.5 18.5q0 5 -1 10.5t-3 10.5q-3 10 -1.5 19t4.5 19q9 26 28 45l18 16t19 16q21 17 47 33q30 19 60 26q4 1 7 2t7 2l2 4t1 4
q4 21 10 41.5t13 40.5q3 8 7 15t12 11q4 2 7 4q10 -5 18 -11.5t17 -12.5v1q-3 -16 -5.5 -32t-4.5 -32q-2 -8 -3.5 -17t-3.5 -17q-1 -5 4 -9q2 -2 4.5 -2.5t4.5 -2.5q28 -14 45 -40q15 -22 20 -54q1 -8 -0.5 -15.5t-1.5 -15.5q-4 -3 -7 -3t-7 1q-4 5 -7.5 10t-8.5 10l-13 15
t-14 14l-14 11.5t-17 7.5q-2 -3 -3 -5.5t-2 -5.5l-15.5 -67l-15.5 -67q-1 -2 -0.5 -3t0.5 -2q2 -4 5.5 -4.5t6.5 -1.5q8 -3 15.5 -5t15.5 -5q15 -5 32 -14q26 -14 40.5 -35t22.5 -49q7 -34 -9 -64q-2 -3 -2.5 -5.5t-2.5 -5.5q-8 -23 -22.5 -40.5t-33.5 -31.5q-13 -9 -27 -16
l-28 -14q-17 -7 -34.5 -12l-35.5 -10q-6 -2 -12.5 -2.5t-11.5 -5.5t-6 -11.5t-3 -12.5l-17.5 -64t-18.5 -64q-4 -14 -9.5 -26.5t-10.5 -25.5q-2 -5 -4.5 -8.5l-4.5 -6.5q-2 -2 -3.5 -0.5t-2.5 -0.5q-2 -5 -5.5 -5.5t-8.5 -1.5q2 6 2.5 11.5t3.5 10.5q0 -1 0.5 -1.5t0.5 -1.5
v-2q2 2 1 2q0 2 -2 2zM214 165q5 1 7 1t4 1q25 8 44 22.5t35 34.5q7 9 6.5 24.5t-6.5 23.5q-17 22 -46 33q-7 2 -10 -5q-1 -2 -1 -3.5t-1 -3.5q-8 -29 -15 -58t-15 -58q-1 -2 -1 -5t-1 -7zM231 523q-20 -12 -33.5 -29t-29.5 -32q-3 -3 -6 -6.5t-4 -8.5q6 -9 12 -14t20 -11
q4 -2 7.5 -4t8.5 0q3 12 6.5 24l6.5 23q4 12 7 23.5l6 23.5q1 2 1.5 4.5t-2.5 6.5zM106 -113q3 9 3.5 11t-0.5 6q-4 -6 -4.5 -8t1.5 -9z" />
    <glyph glyph-name="percent" unicode="%" horiz-adv-x="354" 
d="M245 109q3 -1 3 -6q0 -8 1 -15t5 -14q3 -9 3.5 -17.5t-1.5 -18.5q-3 -9 -5.5 -18.5t-7.5 -17.5q-5 -16 -20 -23q-6 -3 -12 -6.5t-12 -6.5q-11 -5 -24 -3q-4 0 -6 1l-12.5 6t-12.5 7q-14 11 -14 26q0 11 -0.5 21t2.5 21v7q-3 -2 -4.5 -2.5t-3.5 -2.5l-6.5 -4.5t-5.5 -5.5
q-12 -8 -23.5 -17.5t-22.5 -17.5q-5 -3 -10 -6.5t-10 -7.5q-3 2 -5.5 3.5t-4.5 3.5q-8 -2 -14 -2t-12 7q1 5 2.5 9.5t6.5 8.5q5 8 5.5 14t2.5 13q1 2 -1 6q-2 2 -5 4l8 22.5l8 22.5q24 54 50 106l39 74.5l39 74.5q6 12 13 23.5t13 22.5l32 60.5l33 59.5q1 2 1 6q0 3 -2 3
q-4 0 -5 -1q-12 -5 -24.5 -8t-25.5 -5q0 -1 -1 -1h-2v-4q5 -11 3.5 -22.5t-3.5 -22.5q-3 -22 -17 -42q-2 -2 -3 -4.5t-3 -5.5q-4 -7 -7.5 -12.5t-8.5 -11.5q-14 -17 -36 -18q-11 -2 -18 -4q-25 -6 -40 12q0 3 -2 5q-10 11 -11 22t2 22q4 17 10 30.5t14 27.5q5 6 8 12t8 11
q3 3 3 5q1 6 4.5 11t3.5 10q5 3 10.5 3.5t11.5 0.5q1 2 1 3.5t2 2.5q2 4 4 4q4 0 8 -0.5t8 -0.5q3 -1 5.5 -2t6.5 -1q26 1 50.5 2.5t47.5 11.5q10 3 19 6t19 6q6 0 10 -3t9 -8q5 2 8 4t7 4q4 -2 7 -4t4 -4q2 -2 3 -4.5t4 -6.5q1 0 1 -5q0 -14 -5 -34q-7 -23 -16.5 -45
t-20.5 -45q-14 -29 -29.5 -56t-30.5 -56l-23.5 -40.5t-24.5 -41.5l-27 -46.5t-29 -45.5q-9 -11 -15 -21q-2 -4 0 -5t7 1q21 16 46 29q9 5 12.5 6t14.5 3q3 -3 1 -5t-2 -5t6 -7q1 0 1 -0.5t1 -0.5q10 -2 15 -7.5t9 -13.5q0 -1 1 -1q0 -1 2 -1q2 1 2 1.5t1 1.5zM146 -13
q1 0 1 -1l-1 1l-1 1q1 0 1 -1zM225 -7v1v-1l-3 -3q-5 -2 -8 -5l-6 -6q-4 -2 -8 -3v-1h4q2 0 2.5 1t2.5 2q11 1 13 12q1 1 1 1.5t2 1.5zM144 194q-1 -1 -2 -1.5t-2 -1.5h1l1 1q0 1 0.5 1t0.5 1l1 1v-1zM186 80q7 5 8.5 7.5t1.5 7.5q-8 -7 -10 -15l-2 -1zM129 60
q-4 -2 -7.5 -4t-6.5 -4q-6 -5 -11.5 -9t-10.5 -9q-8 -5 -15 -11.5t-15 -12.5l-3 -3t-1 -5q8 5 12 10l20.5 15.5l20.5 16.5q5 4 10.5 7t7.5 8q4 2 3 2q2 0 2 1t-2 1l-1 1q-2 -2 -2 -2.5t-1 -1.5zM207 89q-5 -2 -7.5 -5.5t-4.5 -7.5q-8 -12 -13 -24.5t-9 -25.5q-2 -9 1 -14
q5 -7 9 -4q7 0 12 4q2 2 5.5 5t5.5 7q5 7 8 15t4 16q2 7 2 13.5t-4 13.5q-2 6 -9 7zM120 435q12 10 15 20.5t3 23.5l-2 2l-3 -1q-3 -9 -6.5 -18t-5.5 -17q-1 -3 -1 -10zM99 380q-1 1 -1 3q-8 6 -12 -2q-1 -1 0 -2q2 -4 4 -4q3 -1 6 1t3 4zM133 178l2 -1v1h-2z" />
    <glyph glyph-name="ampersand" unicode="&#x26;" horiz-adv-x="408" 
d="M399 205q1 -5 1.5 -11t-1.5 -11q-2 -3 -3 -5.5t-3 -5.5q-8 -10 -16.5 -19l-17.5 -18q-8 -7 -14.5 -13.5t-14.5 -13.5q-1 -5 1 -9l4 -8q2 -8 4 -14.5t0 -14.5q0 -2 -0.5 -4t-0.5 -3q-4 -2 -6 -0.5t-4 1.5q-2 -1 -6 -5v3l-1 1q-1 -1 -1 -2q1 0 3 -2q-2 -2 -2 -5
q-5 2 -7 5.5t-6 5.5t-8 3.5t-8 3.5q-5 0 -13 -6q-6 -5 -12 -9.5t-11 -10.5q-14 -12 -33 -14q-7 -1 -12.5 -2.5t-10.5 -6.5l-2 2l7 9l7 9q-11 5 -22 6q-8 0 -5 10q4 9 12 19q10 11 19.5 23l19.5 24l2 4q-2 2 -4 4.5t-4 4.5h-4l-14 -11.5t-13 -11.5q-18 -17 -37 -32t-39 -29
q-6 -5 -12 -8.5t-12 -8.5q-5 -3 -10.5 -5.5t-12.5 -0.5q-2 0 -6 -2q-5 -2 -13 -6q-7 -2 -9 3q-5 13 -17 25q-3 3 -3.5 6.5t-0.5 7.5q-5 44 21 80l22 29.5l22 28.5q11 13 22 24.5t24 22.5q4 4 8 7.5t6 8.5q-1 5 -3.5 9.5l-5.5 9.5q-8 12 -13 25.5t-8 27.5q-2 7 -3 13.5
l-2 13.5q-3 34 8 62l7.5 19.5t8.5 19.5q5 12 16 22q15 15 32 29t41 19l18.5 4t18.5 5q16 4 31.5 1t28 -11.5t21.5 -21.5t12 -29q1 -5 1.5 -10.5t1.5 -11.5q1 -10 -1 -19.5t-5 -19.5q-7 -22 -23 -43l-26.5 -35.5l-26.5 -35.5q-8 -9 -14.5 -18.5t-14.5 -18.5q1 -6 3.5 -10.5
l5.5 -9.5q5 -8 13 -1q10 8 19 14.5t18 14.5l13 9l13 9q11 9 23 3q14 -7 15 -22q0 -14 -9 -22l-20 -16.5l-20 -16.5l-14 -12l-14 -12q-5 -5 -3 -9t3 -6.5t6 -4.5q3 0 5 1q4 2 7 4.5t7 4.5l20.5 14.5l19.5 13.5q8 5 19 10q7 4 9 -5q1 -2 1 -7q1 -3 7 -3zM270 382l-1 -1
q1 1 1 2q2 2 4 3v1v-1q-1 -1 -2 -1.5t-2 -2.5zM172 156l21 18q1 1 1 1.5t1 1.5q0 5 -4 5l-8 -10l-8 -10q-2 -2 -2 -6l-1 -1v1zM246 435l-5.5 -7.5t-4.5 -7.5l-11 -17t-11 -18q-4 -6 -2 -11q1 -2 1 -7q-2 -9 0.5 -17.5t5.5 -16.5q0 -2 2 -2t4 1q1 2 2 3t2 3l15 19.5l14 19.5
q15 18 30 39q4 6 6 14q1 13 0 27q0 11 -11 9q-13 -2 -25 -6.5t-23 -12.5q-4 -4 -6 -7q-4 -5 -5 -11q0 -2 -1 -4.5t1 -5.5l11 11q5 5 11 5zM63 26q-1 1 -1 2l-1 1q-4 -2 -5 -3l1 -2q2 1 3 1t3 1z" />
    <glyph glyph-name="quotesingle" unicode="'" horiz-adv-x="134" 
d="M78 706q6 8 12 4q7 -3 15 3q5 -7 9 -13.5t3 -14.5q5 -14 3.5 -27.5t-6.5 -27.5l-12.5 -32l-13.5 -32q-3 -8 -6.5 -16.5t-7.5 -16.5t-9 -13.5t-13 -10.5q-3 2 -6.5 3.5t-7.5 1.5q-4 1 -7.5 0t-7.5 -1q-1 6 -1.5 11.5t0.5 11.5q2 17 5.5 33.5t8.5 33.5q8 25 15 50t15 51
q3 7 12 2z" />
    <glyph glyph-name="parenleft" unicode="(" horiz-adv-x="160" 
d="M189 686q2 4 4 5l21 17.5t21 16.5q4 3 12 7q2 0 3 0.5t2 0.5q6 -2 11 -0.5t10 3.5q2 -2 4 -3.5t5 -3.5q2 -2 4.5 -2t4.5 -1q3 -3 1 -10q-4 -11 -10.5 -21t-14.5 -19q-14 -15 -24.5 -32.5l-21.5 -34.5l-6 -10.5t-4 -11.5q0 -3 -1.5 -6l-2.5 -5l-12 -25t-11 -24
q-5 -11 -8.5 -23t-8.5 -23l-2 -6t-2 -5q-22 -53 -35 -104q-6 -23 -11 -46.5t-9 -47.5q-3 -16 -6.5 -32t-6.5 -32q-2 -6 -2.5 -12t-1.5 -12q-2 -16 -3.5 -31t-2.5 -30q-1 -18 -1.5 -36t1.5 -35q2 -19 5.5 -36.5t13.5 -33.5q7 -8 2 -20q-2 -7 -4.5 -13.5t-0.5 -14.5
q0 -4 -4 -6t-7.5 -3t-8.5 -2q-10 -2 -14 5q-7 8 -15 11q-2 1 -3.5 2.5l-3.5 3.5q-6 8 -8 13q-19 39 -26 79q-2 12 -2.5 23.5t-1.5 23.5q0 11 -0.5 22.5t-1.5 22.5q-1 24 0.5 48t3.5 48q1 11 2.5 22.5t2.5 22.5q2 8 2.5 17t1.5 17q3 26 8.5 51.5t12.5 51.5q11 45 29 85.5
t40 80.5l15.5 25.5l15.5 25.5q16 23 35 47q4 5 7.5 8t7.5 7l1 -1z" />
    <glyph glyph-name="parenright" unicode=")" horiz-adv-x="208" 
d="M-26 93q2 3 2.5 6.5t2.5 6.5q6 12 10.5 24.5l9.5 25.5q5 15 11.5 30t11.5 30l10 27.5t9 27.5l11.5 46l11.5 46l4 22.5l4 22.5t4 20.5t4 20.5q2 12 3.5 24t3.5 24q3 33 3 66q0 4 2 12q2 15 -1 28q-2 8 -2.5 15.5t-1.5 15.5q-2 11 -5 20.5t-8 18.5q-2 3 -3 5.5t-2 5.5
q-2 6 -2 10q1 2 2 4.5t2 5.5q2 5 3 8.5t1 8.5q0 8 1 9.5t7 3.5q3 1 5.5 2t4.5 1q5 1 9.5 0t7.5 -6q5 -7 11 -8q8 -4 14 -15t11 -22.5t9 -23.5q5 -16 8 -32t5 -33q1 -3 1 -9q0 -28 0.5 -55.5t-0.5 -55.5q-1 -38 -6 -76q-2 -14 -3.5 -28t-3.5 -28q-2 -20 -6.5 -40t-9.5 -40
q-11 -46 -29 -88t-40 -84q-11 -21 -24.5 -41l-27.5 -39l-18 -23t-19 -21q-7 -8 -14.5 -13.5l-15.5 -11.5q-5 -4 -10 -7l-10 -6q-7 -3 -13 -2q-4 0 -8.5 -1.5t-9.5 -2.5q-2 3 -5.5 6t-9.5 2q-3 0 -4.5 3t0.5 5q5 13 11 21q6 9 12.5 17.5l12.5 16.5q21 27 38 58q3 5 4.5 9.5
t3.5 9.5q2 6 4 10.5t6 9.5q1 0 1 -1z" />
    <glyph glyph-name="asterisk" unicode="*" horiz-adv-x="262" 
d="M124 673q4 2 5.5 6t3.5 8q2 5 4 9.5t6 9.5q2 2 3 5.5t2 6.5q2 2 3 4t3 4q-2 -7 -3 -13t-3 -13t-4.5 -13.5t-1.5 -15.5q2 3 3.5 5t3.5 4q0 -6 4 -7q6 -2 9 3q2 4 4 10q2 3 2.5 7t1.5 8q3 12 15 13q7 -4 7 -15q1 -2 0.5 -3t-0.5 -3q-4 -14 12 -13q4 1 7.5 0.5t7.5 -0.5
q16 -4 18 -19q1 -2 0.5 -3t-0.5 -2q-1 -3 -2 -5l-2 -4q2 -5 6 -5t7 -4q3 -14 -11 -26q-4 -2 -7.5 -4t-8.5 -4q-3 -2 -7 -2.5t-7 -2.5q-4 -2 -6 -4q3 -5 7 -7.5t8 -4.5q10 -8 6 -19q-2 -5 -5.5 -9t-11.5 -2q-3 0 -3.5 -2t-0.5 -4q-5 -3 -9.5 -3h-9.5q-1 0 -1 1l1 -1
q-4 -2 -6 -2q-6 -1 -8 -8l-2 -19.5l-2 -18.5q-1 -8 -3 -15.5t-7 -13.5q-3 -2 -4.5 0t-3.5 2q-2 1 -4 1t-5 1q0 3 -1 6.5t-1 6.5q1 7 -5 12q-3 3 -3 8q-2 16 2 27q3 15 -4 25q-5 0 -5 -4q-1 -5 -1 -9.5v-9.5t-0.5 -9.5t-3.5 -9.5q-2 -3 -2 -6.5v-6.5q-1 -5 -1 -9.5v-9.5
q-2 -6 -3 -10q-2 3 -6 7q-1 -2 -1.5 -2.5t-1.5 -2.5q-3 11 -4 21.5t1 21.5q3 15 3 31q0 3 -2 7q-5 1 -9 0t-9 -2q-5 -2 -10 -2.5t-10 -2.5q-11 -2 -24 5q-12 8 -13 24q13 5 21 15t17 18q-1 4 -5 4q-5 -1 -9.5 -1t-9.5 -1q3 5 7 7t8 5q4 2 7.5 4.5l7.5 5.5q-2 11 -4.5 20.5
t-8.5 18.5q6 4 8 7q4 4 5 7q0 -4 4 -7l1 -1q-1 1 -2 1q0 5 1 7h-1h7q1 0 1 -0.5t1 -0.5q-1 1 -2 1q0 7 -3 16q5 -1 8 -0.5t6 -1.5q5 -2 13 -10q3 -3 6 -7t7 -7q2 -2 4.5 -2.5t4.5 -1.5q1 -3 3 0zM131 516q-1 -5 -1.5 -8t-0.5 -6l2 -2q1 0 1 1q5 6 -1 15zM136 527v-1l1 1h-1z
" />
    <glyph glyph-name="plus" unicode="+" horiz-adv-x="277" 
d="M251 312q4 -8 8.5 -14t0.5 -16q-4 -2 -8 -2q-5 -2 -6 -3.5t2 -9.5q-2 0 -4 -0.5t-4 -0.5h-58q-7 0 -10 -1q-7 0 -8 -6q-2 -4 -2.5 -8t-1.5 -9l-18 -63q-1 -5 -2 -8.5t-3 -8.5t-5 -9.5t-10 -6.5q-2 -1 -4.5 -3.5l-4.5 -4.5q-1 2 -1.5 2.5t-1.5 2.5l-4 2q-3 -2 -6 -6
q-2 4 -4 5q-2 0 -3.5 -0.5t-3.5 -0.5q-5 5 -6 9l-4 11.5t0 12.5q5 20 8.5 38.5l7.5 38.5q2 4 2 7q2 8 -6 8q-9 2 -18.5 2.5t-19.5 1.5q-8 1 -14.5 1.5t-14.5 4.5q2 5 -1.5 8.5t-6.5 7.5l3 6q3 10 10.5 13t16.5 4q14 1 28 1.5t28 1.5q7 1 9 2.5t4 8.5q5 17 9 33.5t9 33.5
q2 8 5 15t5 15q2 6 7 10t10 6q9 5 19 0q6 -4 6 -8q0 -5 4 -6q6 0 6 -7v-16t-2 -16q-2 -13 -5 -26t-5 -26q-2 -6 -2 -9q-2 -9 7 -9q2 0 4.5 -0.5t4.5 0.5q27 0 54 -9z" />
    <glyph glyph-name="comma" unicode="," horiz-adv-x="128" 
d="M19 -112q-2 4 -5 2q-5 -2 -9 -3t-8 -3q-3 2 1 6q5 7 4 12q0 1 1 1q-1 0 -1 -1l-12 -9q-5 1 -7 4.5t-4 6.5q0 2 2 6q6 23 15.5 43.5t20.5 40.5l8 13.5l8 13.5v-10q-3 -2 -3 -8q-3 -1 -3 -7q-1 0 -1 -1v1q2 3 4 7q1 2 2 3.5t2 3.5q6 4 9.5 10t7.5 11q3 5 6.5 9.5t10.5 6.5
l8 -2t8 -4q18 -14 13 -38q0 -3 -1 -5.5t-2 -4.5l-14 -28t-15 -27q-1 -2 -1.5 -2.5t-1.5 -2.5l-19 -21l-19 -21q-1 -1 -5 -3zM9 -87l2 2v2l-2 -4q0 -1 -1 -1q1 0 1 1zM41 -37l-4 -4q-5 -6 -9 -12t-8 -13q-1 -1 -1.5 -2.5t-1.5 -3.5q0 -2 2 -4q3 0 3 1q12 16 21 36z" />
    <glyph glyph-name="hyphen" unicode="-" horiz-adv-x="413" 
d="M346 338q-2 -5 -5.5 -6t-6.5 -1q-4 -1 -6.5 -1.5t-5.5 -0.5q-2 -1 -2 -2q0 -3 2 -4q3 -1 6.5 -2t8.5 -1q20 0 40 -6l-2 -2l-1 -1q-7 -2 -14 -2.5t-14 -1.5q1 -4 4 -3.5t5 -0.5q13 0 18 -13l-4 -4l-4 -4q-5 -5 -10.5 -7t-13.5 -4q-2 0 -5 -0.5t-5 -0.5q-35 1 -67.5 -1
t-65.5 -6h-8l-59.5 2t-57.5 6q-11 2 -20 4.5t-18 6.5q-12 7 -12 19q0 11 14 16q14 4 26 8t26 6q35 7 71 10.5t73 1.5h7q22 -5 44 -5t45 1q4 0 8 -0.5t9 -0.5z" />
    <glyph glyph-name="period" unicode="." horiz-adv-x="131" 
d="M56 80q5 -3 10 0q1 2 2 2.5t3 2.5q6 -2 7.5 -6.5t6.5 -7.5q1 0 2.5 0.5t3.5 0.5t4 -2q2 -5 4.5 -10t1.5 -10l-4 -27t-7 -25q-1 -2 -2 -3t-2 -3q-4 2 -7 3t-5 2q-2 0 -2.5 -0.5t-1.5 -0.5q-2 -3 -3.5 -6t-3.5 -6q-5 0 -9 -0.5t-9 -0.5q-5 5 -9 10t-9 10q-5 13 -2 25.5
t8 25.5q3 10 7 18.5l9 18.5q1 0 2 1q2 -2 3 -5.5t2 -6.5v-1v1z" />
    <glyph glyph-name="slash" unicode="/" horiz-adv-x="488" 
d="M65 -25q-1 2 -1 2.5t-1 2.5q-7 -3 -12 -12q-7 -11 -17 -13q-5 1 -8.5 2t-7.5 3q0 2 0.5 4.5t1.5 6.5q-6 -3 -8 -5q-3 3 -3 2q-2 2 -2 4t-2 4q-4 5 -2 14l4 16t7 16l22 40l22 40l39.5 68l39.5 68l39 66l39 66l39.5 67l39.5 68l49.5 82l50.5 80q5 8 10 14t10 14q6 8 9 11
q3 4 6 8.5t8 6.5q-2 -4 -3.5 -7.5t-3.5 -7.5q-3 -6 -6.5 -11.5t-4.5 -12.5q-8 -5 -10 -18q-1 0 -1 -1q0 1 0.5 1t0.5 1q7 4 11 16q4 6 7 8q1 2 1.5 4t2.5 2q9 2 12.5 8.5t8.5 11.5q3 0 11 2q2 0 4 -1q3 -5 2.5 -10.5t-2.5 -12.5q-1 -5 -3 -11l-4 -12l-22.5 -44l-23.5 -44
l-34.5 -60.5l-34.5 -61.5l-24.5 -42.5l-24.5 -42.5l-31.5 -55.5l-30.5 -54.5l-90 -159l-45 -81q-19 -25 -34 -50z" />
    <glyph glyph-name="colon" unicode=":" horiz-adv-x="131" 
d="M78 412q6 0 8 -1q5 -5 5 -11v-12q4 -2 7.5 -2.5t5.5 -5.5q5 -11 3 -18q-5 -19 -18 -32q-5 -4 -9.5 -6.5t-10.5 -2.5q-5 1 -8 -0.5l-7 -3.5q-8 -5 -14 2l-30 27q-2 5 -1 10.5t-3 10.5q-2 3 0 5q2 6 5 11.5l6 10.5q2 4 8 4q8 0 19 7q5 3 10.5 5t11.5 0q2 0 4.5 1t4.5 1
q2 -2 3 1v-1zM77 231q3 -17 -2 -36q-3 -12 -15 -12q-5 -1 -9 -2t-9 -3q-14 -5 -31 -2q-10 2 -15 8.5t-7 15.5q-3 15 2.5 27.5t16.5 23.5q10 10 24 8q5 -1 9.5 -2t9.5 -3q7 -2 8 -6q2 -7 6.5 -9.5t9.5 -4.5q0 1 2 -3z" />
    <glyph glyph-name="semicolon" unicode=";" horiz-adv-x="117" 
d="M25 393q8 4 15 7t13 7q10 6 24 1q8 -2 8 -10q-1 -6 1.5 -9t6.5 -7q12 -12 4 -26q-8 -20 -23 -32q-5 -3 -10 -9q-2 0 -2.5 1.5t-2.5 3.5q-5 3 -7 -2q-1 -1 -1.5 -3t-2.5 -4q-1 3 -1 5t-1 4q-1 1 -2.5 1.5t-1.5 -0.5q-6 -4 -12 1q-3 2 -7 2.5t-8 1.5q-8 22 1 46zM-33 128
v14v1v-1q-3 3 -2 6l5.5 15t6.5 14q17 30 31 67q1 1 5 3q12 10 22 1q2 -2 3 -2q8 -1 10 -5t2 -11q1 -6 0.5 -12.5t-3.5 -12.5q-2 -5 -3.5 -10t-3.5 -10q-8 -22 -22 -38l-8 -2l-8 -2q-6 0 -11.5 -4t-11.5 -2q-2 1 -3 -0.5t-3 -2.5z" />
    <glyph glyph-name="less" unicode="&#x3c;" horiz-adv-x="282" 
d="M164 431q-2 -2 -3.5 -5t-3.5 -5l-1 -1l1 1q5 0 7.5 2.5l5.5 5.5q14 13 28.5 24.5l29.5 22.5q7 6 15.5 7.5t16.5 2.5q5 1 6.5 -2.5t-0.5 -8.5q-2 -4 -5 -7q-4 -5 -7 -10.5t-5 -12.5q-1 -4 -4 -7.5t-4 -8.5q9 5 14.5 12t13.5 12q7 -5 4 -14q-6 -14 -15 -28
q-12 -17 -25.5 -33l-27.5 -32t-29.5 -31.5l-30.5 -31.5q-5 -5 -9.5 -8.5t-9.5 -8.5t-8.5 -9t-8.5 -8l2 -6q15 -12 27 -27l24 -30q8 -9 14.5 -18.5t13.5 -18.5q2 -4 4.5 -7.5t4.5 -7.5q3 -8 3 -15q1 -12 -9 -18q-12 -7 -21 0q-5 3 -9.5 6t-8.5 7q-5 5 -10.5 8.5t-12.5 5.5
q-3 1 -5.5 3t-4.5 4l-57 54q-7 6 -13.5 13l-13.5 14q-3 3 -7 11l-6 10t-7 9q-12 10 -6 27t19 32q5 5 9 9.5t9 9.5l38.5 38.5l38.5 37.5l30 27q2 2 4.5 2.5t4.5 1.5zM70 205h-1h1q1 -1 1.5 -2t1.5 -2q2 -1 4 -3q0 -7 7 -7q2 -2 3 -4q3 -3 7 -3q2 -2 2.5 -3.5t1.5 -3.5
q2 -2 3 -4t4 -1q-1 3 -3 3.5t-4 1.5q-3 2 -4 7q-4 2 -7 3q-1 1 -1.5 2t-1.5 2q-4 3 -7 7q-1 1 -2 1.5t-2 1.5q-2 2 -3 4zM255 432v-1q-1 0 -1 -1q0 1 1 2zM55 219q0 4 -5 6q-2 0 -2 -2q0 -5 6 -5z" />
    <glyph glyph-name="equal" unicode="=" horiz-adv-x="405" 
d="M355 402q-2 -5 -5.5 -5.5t-6.5 -0.5q-4 -1 -6.5 -1.5t-5.5 -0.5q-2 -1 -2 -2q0 -2 2 -3q3 -1 6.5 -2t8.5 -1q10 0 20 -1t20 -4l-2 -2h-1q-7 -2 -14 -2.5t-14 -1.5q1 -3 4 -3h5q13 0 18 -12q-2 -2 -4 -3.5t-4 -3.5q-5 -5 -10.5 -6t-13.5 -3q-2 0 -5 -0.5t-5 -0.5
q-35 1 -67.5 -1t-65.5 -5h-8l-59.5 2t-57.5 5q-19 3 -38 9q-12 7 -12 17q0 9 14 14q14 3 26 6.5t26 5.5q35 6 71 9t73 1h7q22 -5 44 -4.5t45 1.5q4 0 8 -0.5t9 -0.5zM310 308q-2 -5 -5.5 -5.5t-6.5 -0.5q-4 -1 -6.5 -1.5t-5.5 -0.5q-2 -1 -2 -2q0 -2 2 -3q3 -1 6.5 -2
t8.5 -1q10 0 20 -1t20 -4l-2 -2h-1q-7 -2 -14 -2.5t-14 -1.5q1 -3 4 -3h5q13 0 18 -12q-2 -2 -4 -3.5t-4 -3.5q-5 -5 -10.5 -6t-13.5 -3q-2 0 -5 -0.5t-5 -0.5q-35 1 -67.5 -1t-65.5 -5h-8l-59.5 2t-57.5 5q-19 3 -38 9q-12 7 -12 17q0 9 14 14q14 3 26 6.5t26 5.5
q35 6 71 9t73 1h7q22 -5 44 -4.5t45 1.5q4 0 8 -0.5t9 -0.5z" />
    <glyph glyph-name="greater" unicode="&#x3e;" horiz-adv-x="257" 
d="M118 303q-8 11 -15.5 22.5t-15.5 22.5q-8 14 -17 28l-18 28l-2 4l-2 4l-8 27t-9 27q-4 13 7 25q2 -3 4.5 -5.5t4.5 -5.5q2 2 3 5t5 1q2 -1 3.5 -0.5t3.5 0.5q13 5 28 -5q6 -5 12.5 -9.5t12.5 -9.5q21 -18 40 -38.5t35 -43.5q7 -10 13 -20l12 -21q11 -20 9 -42l-2 -6
l-2 -6l4 -4v-3q-5 -9 -11.5 -15l-13.5 -12l-9 -7t-9 -6l-36 -25l-36 -25q-24 -17 -48.5 -32t-50.5 -29q-11 -5 -21.5 -8.5t-23.5 -2.5q-10 1 -16.5 8.5t-1.5 21.5q3 7 10 14l40 40t42 38l23.5 18.5l22.5 18.5q5 5 11 8.5t12 7.5q2 3 8 7q0 -1 2 5z" />
    <glyph glyph-name="question" unicode="?" horiz-adv-x="248" 
d="M42 494q-2 8 -7.5 10.5l-11.5 5.5q2 6 2 9q-1 10 2.5 19t8.5 17l13 21l12 21q12 21 29.5 37t39.5 28q4 2 7.5 4t7.5 4q7 3 14 5.5t15 4.5q14 3 28.5 5t28.5 0q5 0 8.5 -0.5t7.5 -1.5l12.5 -2t12.5 -3q10 -3 23 -8q5 -3 6 -4q1 -7 6 -10t9 -8q4 -4 7.5 -8t8.5 -8
q14 -11 17 -31q2 -8 2.5 -15t-1.5 -15h-3q-10 -16 -19 -32t-21 -30q-7 -13 -16.5 -22.5l-18.5 -18.5q-14 -13 -24.5 -26.5l-21.5 -27.5l-37 -51l-36 -51q-15 -22 -28 -44t-25 -45q-7 -14 -12.5 -29.5l-11.5 -31.5q-2 -5 -3.5 -10.5t-6.5 -9.5l-1 1l1 -1q0 -10 -8 -18
l-7.5 -9.5l-7.5 -9.5q-6 -9 -9 -18q-2 -4 -5 -8q1 6 1.5 10t0.5 8q1 0 1 1v-2q-5 -4 -8.5 -8l-7.5 -9q-4 4 -9 0v3q-1 7 -7 6l-4 -2h1q0 3 -1 4q-1 2 -2 8.5t-1 8.5q0 3 -2 5q-1 0 -2 -0.5t-3 -0.5q-4 17 0 35q7 27 16 52t22 49l22 43l22 43t26 40l19.5 25t18.5 25
q13 16 27.5 30l28.5 28l33 33q11 11 18.5 22.5l15.5 24.5q1 2 2 4.5t2 4.5q0 2 0.5 5t-0.5 5q-2 11 -10.5 17t-19.5 5q-8 -1 -15.5 -3.5t-15.5 -5.5q-16 -6 -30.5 -13t-28.5 -18q-3 -3 -6 -3q-5 0 -7.5 -2.5t-4.5 -5.5q-5 -5 -11 -10t-12 -8v-1v7q1 2 3 4l1 1q0 -1 -1 -1
q-1 -1 -1.5 -2t-1.5 -2q-3 -2 -8 -7l-30 -33q-8 -9 -18 -5zM143 578l1 1l-1 -1q0 -1 -1 -1q1 0 1 1zM336 587l1 1l-1 1v-2zM-21 20q5 -3 10 0q1 2 2 2.5t3 2.5q6 -2 7.5 -6.5t6.5 -7.5q1 0 2.5 0.5t3.5 0.5t4 -2q2 -5 4.5 -10t1.5 -10l-4 -27t-7 -25q-1 -2 -2 -3t-2 -3
q-4 2 -7 3t-5 2q-2 0 -2.5 -0.5t-1.5 -0.5q-2 -3 -3.5 -6t-3.5 -6q-5 0 -9 -0.5t-9 -0.5q-5 5 -9 10t-9 10q-5 13 -2 25.5t8 25.5q3 10 7 18.5l9 18.5q1 0 2 1q2 -2 3 -5.5t2 -6.5v-1v1z" />
    <glyph glyph-name="at" unicode="@" horiz-adv-x="408" 
d="M302 424q5 -5 3.5 -11t2.5 -11q3 -4 4 -8.5t3 -9.5q-2 -3 -4.5 -4.5t-1.5 -5.5q1 -8 -0.5 -15.5t-3.5 -15.5q-6 -23 -9 -45q-2 -5 -1.5 -9.5t0.5 -9.5q0 -6 4 -6q2 0 6 2q2 2 4 8l9.5 21.5l9.5 21.5q3 8 5.5 17t4.5 18t3.5 19t3.5 20q3 15 3 30.5v31.5q0 5 -1 11t-2 11
q-1 6 -7 12q-5 8 -10 12q-7 4 -14 7t-15 4q-18 2 -35.5 -0.5t-34.5 -10.5q-2 -2 -4.5 -2.5t-4.5 -2.5l-34.5 -23t-31.5 -28q-26 -27 -46 -57.5t-32 -66.5q-6 -18 -11.5 -36.5t-8.5 -37.5q-1 -5 -1.5 -9.5t-0.5 -9.5q-1 -6 -1 -12t-1 -12q-5 -41 16 -73q1 -1 3 -7l1 1l-1 -1
q0 -2 1 -3h-1q3 -1 4 -4v1q5 -4 10 -7t11 -6q7 -4 14 -5q8 -2 15.5 -3t15.5 -3h8t9 1q26 4 52 19q11 6 19 18l-1 -1q2 1 3 1t2 1q3 5 7.5 7t9.5 5h-1l1 1q0 2 -1 3h1q3 5 6 11t7 11l4 4t6 5q2 -2 3 -4.5t3 -3.5q4 -2 9 0q2 1 4 2.5t4 3.5q7 -2 8.5 -4t6.5 -13q2 2 4.5 3.5
t4.5 3.5q2 -3 0.5 -4.5t-1.5 -3.5q-1 -1 -3 -8q-1 0 -1 -1q0 1 1 2q2 2 4.5 3.5t4.5 3.5q2 1 4 1t5 1q0 -4 -1 -5q-8 -14 -16.5 -27t-18.5 -25q-26 -36 -63 -54q-17 -8 -34 -14t-34 -11q-13 -4 -22 -1q-5 2 -9.5 2h-9.5q-17 -1 -33 2.5t-31 9.5q0 1 -0.5 1t-0.5 1l1 1l-1 -1
q-4 -3 -10 0q-4 2 -7.5 4.5l-6.5 4.5l-22 22t-19 26q-3 6 -9 12q-11 14 -16 29t-7 32q-2 24 -0.5 47.5t6.5 46.5l15 60q4 17 15 34q3 5 5.5 10.5t5.5 10.5q16 34 38.5 63t49.5 55q12 11 26 21t29 18q2 1 4 1t4 1q1 -1 1 -4q1 -2 2 -2t2 -1q2 2 2 4q5 1 9 1.5t8 2.5
q11 5 23 9.5t24 9.5q-2 1 -3.5 1t-3.5 1q3 2 6.5 2h7.5q14 2 29 0.5t29 -4.5q13 -2 24 -7t21 -14l19.5 -15t18.5 -15q14 -11 25 -27q8 -12 9 -25l4 -29t0 -29q-1 -10 -2.5 -19.5t-5.5 -18.5q-5 -10 -9 -19.5t-8 -20.5q-11 -28 -25 -52q-4 -8 -9 -14.5l-10 -13.5
q-4 -8 -14 -10q-7 -2 -12.5 -4.5l-11.5 -5.5l-12 -3q-8 -3 -14 3q-8 8 -21 5q-4 -1 -12 3q-2 -2 -4 -4.5t-4 -4.5q-17 -27 -47 -46q-13 -8 -30 -13q-16 -5 -34 1q-8 1 -15 8q-5 6 -10.5 11.5t-8.5 13.5q-3 11 -5.5 22t-1.5 22q3 28 9.5 54.5t15.5 52.5l8 20l8 20
q2 2 2.5 4.5t2.5 4.5q5 6 9.5 12t8.5 12q15 19 38 30q10 5 19.5 6.5t20.5 -2.5q12 -4 26 -4t24 -12q5 -5 8.5 -9l7.5 -9l-1 -1l1 -1q1 0 1 1zM351 264l-1 -1v1l2 1zM344 253h-1v1h1v-1zM37 389q-4 -1 -4 -7q-3 -2 -3 -7q-2 -4 -4 -7q-2 -4 -3 -7q-4 -2 -4 -10q-1 -1 -2 -1
t-2 -2q-2 -5 -4.5 -10t-1.5 -11q-4 -3 -4 -11q-3 -2 -3 -4.5v-5.5q-3 -2 -3 -5v-6q-4 -4 -2 -7q1 2 1 8q4 2 4 10q3 2 3 4.5v5.5q4 3 4 11q5 5 6.5 11.5t3.5 12.5q4 3 4 11q3 1 3 7q2 4 4 7q2 4 3 7q4 1 4 7v1v-2zM47 410q-3 -2 -3 -7q-2 0 -2 -2q-1 0 -0.5 -0.5t-0.5 -0.5
q2 0 2 1q1 1 0.5 1.5t0.5 1.5q3 1 3 6q1 3 4 4q3 3 3 7q1 2 1.5 3.5t1.5 3.5q2 1 4 3t2 3v1l-2 -4l-3 -3q-1 -2 -2 -3.5t-2 -3.5q-3 -3 -3 -7zM403 369q5 10 6 13t-1 12q-2 -7 -4 -13t-1 -12q-2 -2 -2 -3t1 -2v2q0 1 0.5 1.5t0.5 1.5zM393 491q0 1 -0.5 1.5t-0.5 1.5l-1 1
l-1 -2q0 -1 2 -3q1 -3 1 -6.5t2 -6.5q5 -17 5 -31q-1 -19 0 -38v-14q6 7 6 11q0 8 1 14.5t0 14.5q-2 10 -2 20t-2 20q-1 5 -3 10t-7 7zM173 259v-2q2 -5 4 -5q1 -1 4 2q13 16 23 32q23 36 42 80q4 8 7 16.5l6 17.5q2 3 -0.5 5.5t-5.5 0.5q-44 -10 -59 -53q-2 -7 -4.5 -14
t-4.5 -14q-5 -17 -7.5 -33t-4.5 -33zM17 160q-3 -7 1 -14q2 -4 3 -8.5t6 -6.5q0 -1 2 1q-4 10 -6 14q-1 4 -1.5 8t-4.5 6zM18 250h-1v-7h1v7zM-10 258q-4 -5 0 -9q2 5 0 9zM-7 278q-3 -4 0 -8q3 4 0 8zM108 281v1q-2 0 -2 -1v-1zM412 410v1l-1 -1h1zM18 205l-1 -1h1v1z
M-14 241v-1v-2l1 1q0 1 -1 2zM387 362v-1q1 0 1 1h-1z" />
    <glyph glyph-name="bracketleft" unicode="[" horiz-adv-x="103" 
d="M82 672q-5 -1 -10.5 -1.5t-11.5 -2.5l-1 2l4 4l4 4q0 5 -2.5 6.5t-4.5 3.5q0 3 1 3q7 4 14 7q1 2 -1 3.5t1 3.5q10 7 23 9q21 3 42.5 6.5t43.5 4.5q12 1 24 2.5t24 2.5q26 1 32 -22t-11 -38q-6 -7 -17 -7q-14 -1 -26.5 -1.5t-25.5 -2.5l-33 -3q-8 0 -10 -8q-1 -5 -1.5 -9
t-1.5 -8q-6 -36 -13.5 -71.5l-15.5 -70.5l-24 -102t-23 -103q-8 -33 -14 -66.5t-13 -66.5l-9.5 -44.5l-9.5 -44.5l-4 -21l-4 -21v-14q7 -4 15 -3.5t13 -4.5q8 0 14 -2t13 -5q-1 -3 -3 -7q3 -2 9 -3q2 -8 3 -13q3 -2 9 -4q0 -1 0.5 -1.5t0.5 -1.5q0 -2 0.5 -4.5t0.5 -4.5
q5 -19 -14 -25q-4 -1 -6.5 -1t-4.5 -5q0 -1 -2 -2t-4 -1q-4 -1 -12 -1h-103q-15 0 -26 7q-9 5 -13 14.5t0 19.5q2 5 5 5l10.5 6t7.5 9q8 6 12 8q1 1 1 3q1 15 5 30.5t6 30.5q3 23 7.5 44.5l9.5 44.5l13.5 61l13.5 61l36 156l14 63t15 63q2 9 6 16q4 8 6 17l4 18q3 10 5 19.5
l4 19.5q2 8 3 15t4 15q3 5 -4 9z" />
    <glyph glyph-name="bracketright" unicode="]" horiz-adv-x="257" 
d="M-86 -50q0 7 -1 10q-3 6 1 15q7 9 14 10q16 5 32 8.5t33 2.5h15q10 0 11 8q2 8 3.5 15.5t3.5 15.5q4 25 7 50t8 50q3 20 7 38.5l8 38.5q17 85 38 168l42 167q9 37 21 75q2 8 5.5 15.5t6.5 15.5q1 4 3 10q-1 5 -8 5h-20t-20 1q-8 0 -15 1t-15 1q-4 1 -8 1t-9 1
q-11 0 -20 6q-7 5 -9 12.5t1 15.5q3 9 13 12q21 8 41 8h15t15 1q4 0 7 4q2 2 6 2q14 0 28 0.5t28 -0.5q7 0 13.5 -1.5t13.5 -3.5q5 0 9 -7q1 -3 1.5 -5.5t2.5 -4.5q1 -1 0 -3t1 -4q3 -3 1 -10q-1 -5 -5 -15t-6 -14q-9 -18 -13.5 -37.5t-6.5 -39.5q-2 -17 -5 -33.5l-6 -33.5
l-24 -123l-11.5 -57t-12.5 -57q-8 -38 -17 -75t-17 -75q-8 -29 -14.5 -59t-13.5 -59q-2 -5 -2.5 -9.5t-2.5 -9.5q-3 -8 -5 -17t-1 -19t-4 -22q-4 -8 -9 -9q-9 -1 -11 -12q-3 -9 -8 -12q-8 6 -11 7t-13 2q-5 1 -11 1.5t-11 2.5t-10 2.5t-10 0.5q-22 0 -44 8q-17 7 -25 19z
" />
    <glyph glyph-name="asciicircum" unicode="^" horiz-adv-x="245" 
d="M185 625q-2 1 -3.5 1.5t-2.5 1.5h-1h1q0 -4 6 -8l32 -29q5 -4 6.5 -9t3.5 -11q2 -3 0 -5t-5 -1q-1 1 -2 1t-2 1q-4 2 -7 3t-7 1q-2 0 -4.5 1.5t-5.5 0.5q4 -5 8.5 -7t8.5 -7q-1 -5 -7 -5l-8 2t-9 3q-11 5 -20.5 10.5t-20.5 12.5t-20.5 14t-20.5 14q-3 2 -6 5t-6 5l-6 4
t-5 4q-2 -1 -3 -3q-5 -11 -10.5 -21.5t-12.5 -21.5q-3 -7 -7 -13t-8 -13l-3.5 -3.5l-3.5 -3.5q-4 -4 -7 -6q-5 -3 -11 3q-2 3 -3 6t1 8l3 15q5 8 5 18q0 2 2 6l10 24.5t10 23.5q2 6 5 11.5t5 11.5q2 4 5 7q2 2 4.5 5t3.5 7q3 9 13 9q13 -2 20 -8q4 -2 6.5 -4t5.5 -4
l25.5 -18l25.5 -19q5 -3 9 -7t9 -8q2 -1 2.5 -2.5t1.5 -2.5zM53 647v-1q0 -1 -0.5 -1.5t-0.5 -1.5q-1 0 -1 -1l-1 -2l-2 -2t0 -4l-1 -1l-1 -1v-6l-3 -3q-3 -3 -2 -6q2 2 1.5 3t-0.5 3q2 2 4 3v6q2 0 2 3l2 6l2 2q0 1 0.5 1.5t0.5 2.5zM198 565h-1h1zM59 659q2 0 2 3l-1 2
q-3 -2 -3 -4q1 -1 2 -1z" />
    <glyph glyph-name="backslash" unicode="\" horiz-adv-x="396" 
d="M305 -25q-17 27 -34 49l-22 40l-22 40l-44.5 78l-44.5 79l-29.5 53l-31.5 55l-48 84l-34 60.5l-34 59.5q-24 43 -45 87l-4 11.5t-3 10.5q-2 7 -2.5 12.5t2.5 10.5q2 1 4 1q8 -2 10 -2q5 -5 8.5 -11.5t12.5 -8.5q2 0 2.5 -2t1.5 -4q4 -3 7 -7q3 -12 11 -16q0 -1 0.5 -1
t0.5 -1q0 1 -1 1q-2 13 -10 18q-1 6 -4.5 11.5t-6.5 11.5q-2 4 -3.5 7.5t-3.5 7.5q5 -2 8 -6.5t6 -8.5q3 -3 9 -11q5 -7 10 -13t10 -14q26 -39 50 -79l48 -81l39 -67t39 -66t38.5 -65t38.5 -65l39 -67l39 -67l21.5 -39.5l21.5 -39.5q5 -8 7 -16l4 -16t-2 -13q-2 -2 -2 -4
t-2 -4q0 1 -3 -2q-2 2 -8 5q1 -4 1.5 -6.5t0.5 -4.5q-4 -2 -7.5 -3t-8.5 -2q-9 3 -16 13q-5 9 -12 12q-1 -2 -1 -2.5t-1 -2.5z" />
    <glyph glyph-name="underscore" unicode="_" horiz-adv-x="542" 
d="M467 78q-3 -6 -7.5 -7t-9.5 -1q-5 -1 -8.5 -1.5t-7.5 -0.5q-3 -1 -3 -3q0 -3 3 -4q4 -1 9 -2.5t11 -1.5q29 0 55 -6q-1 -2 -2 -3t-2 -1q-9 -2 -19 -2.5t-19 -1.5q1 -5 5 -4.5t7 -0.5q11 0 16.5 -4t8.5 -11q-3 -3 -11 -9q-6 -6 -14 -8.5t-19 -4.5q-3 0 -7 -0.5t-7 -0.5
q-48 1 -92.5 -1t-90.5 -7h-11q-42 1 -82 2.5t-78 6.5l-27.5 5.5t-25.5 7.5q-16 7 -16 22q0 13 19 18l36 9.5t36 6.5q48 8 97.5 12t100.5 2h9q30 -6 60.5 -6t61.5 1q5 0 11.5 -0.5t12.5 -0.5z" />
    <glyph glyph-name="braceleft" unicode="{" horiz-adv-x="185" 
d="M89 325q2 -2 4 -6q2 -9 3 -18.5t3 -19.5q0 -2 0.5 -3.5t0.5 -5.5q5 7 3.5 14t0.5 14q5 -13 6.5 -25.5t0.5 -25.5q-2 -27 -6.5 -53.5l-9.5 -54.5q-2 -11 -4.5 -20.5l-5.5 -20.5q-7 -22 -9 -46q-5 -25 -8.5 -49t-8.5 -49q-1 -4 0 -7.5t1 -6.5q8 -2 15 0.5t14 1.5
q8 0 14.5 0.5t14.5 0.5q7 0 14 -0.5t16 -0.5q-5 -3 -10 -2.5t-8 -3.5q3 -8 5.5 -9.5t9.5 -1.5q2 0 2.5 0.5t1.5 0.5q4 0 5 -8q-7 -2 -14.5 -2t-14.5 -4q0 -2 1 -5q-1 0 -3 -1t-4 -1q-8 1 -15.5 -1.5t-15.5 -1.5q-6 0 -11.5 -1t-11.5 -3l-36 -8t-36 -7q-2 -1 -3.5 -1t-3.5 -1
q-6 0 -11 5q-4 7 -5 14q-3 0 0 3q4 3 3.5 7t1.5 7q2 5 0 12q-8 33 -5 62l2 30t3 30q2 18 4.5 35t6.5 34q5 28 11.5 55t14.5 55l6 22.5l6 23.5q1 2 1.5 4t0.5 5q3 20 -10 31q-5 4 -9 8.5t-7 9.5q-11 13 -5 26q5 5 11 6.5t12 8.5q-5 -1 -7.5 -1t-5.5 -1q4 10 17 18
q5 3 10.5 7.5l11.5 9.5q5 4 9 8t9 8q10 7 15.5 15.5t8.5 19.5l7.5 27t5.5 26q2 19 6 36.5t9 34.5q2 11 4.5 22.5t5.5 22.5q2 8 4 17t4 17q1 3 1 5.5t1 4.5q-3 1 -8 1h-4q-13 0 -17 3.5t-8 15.5q2 4 3 5q1 2 6 4q-4 6 -5 9v3q7 7 19 12q11 4 22.5 7.5t23.5 5.5q7 1 14.5 1.5
t15.5 2.5q7 2 14 2.5t13 2.5q8 2 16.5 3.5t16.5 -0.5q7 -2 13.5 -2t13.5 -1l21 -3q3 -2 6.5 -3.5t5.5 -3.5q11 -9 10 -23.5t-14 -22.5q-9 -5 -21 -7q-5 -1 -9 -1h-9q-16 -1 -32 -1.5t-33 -1.5q-3 0 -6.5 -0.5t-5.5 -0.5q2 -8 2 -11t-1 -11q-1 -10 -2 -19t-1 -18
q0 -14 -2 -27t-5 -27q-1 -5 1 -13q2 10 5 19.5t5 20.5v-12q-2 -15 -5 -29.5t-8 -28.5q-2 -5 -4 -9t-4 -9q-3 -5 -4 -10t-3 -11l-10.5 -30.5l-10.5 -30.5q-2 -10 -6.5 -17t-10.5 -15q-5 -8 -13 -13.5l-16 -10.5q-13 -7 -26 -17q-6 -3 -1 -10q-1 -1 -2 -1t-2 -1q1 0 2 -0.5
t2 -0.5q2 -10 4 -12.5t7 -7.5q0 2 2 2v5v-1z" />
    <glyph glyph-name="braceright" unicode="}" horiz-adv-x="268" 
d="M112 574q-1 -6 -1.5 -12.5t-1.5 -12.5q3 1 3 2.5t1 3.5q2 2 2 6q3 18 9 36t13 35q2 4 2 6.5t1 6.5q2 6 3.5 12.5t9.5 11.5q-8 4 -14.5 5t-14.5 1h-25.5t-25.5 1q-12 0 -22 3q-12 3 -15 11.5t2 19.5q6 12 17 19q8 5 14.5 6.5l14.5 3.5q7 1 13 1.5t13 1.5q3 0 6 0.5t5 0.5
q15 2 24 -1q14 -5 29.5 -7t30.5 -5q17 -3 37 -11q12 -5 18 -14q-1 -4 -5 -5.5t-5 -5.5q2 -2 3 -3.5t3 -3.5q-5 -8 -8 -12t-7.5 -5.5t-11 -2t-18.5 -0.5q-2 -6 -3 -8q-2 -11 -3 -22t-3 -22q-4 -19 -7 -38t-7 -38l-4 -19.5l-4 -19.5l-4 -21.5l-4 -21.5q-4 -22 11 -42
q8 -9 14.5 -18t14.5 -16q6 -6 6 -15h1q-4 2 -7.5 2.5t-6.5 1.5v1v-1q2 -6 7 -8.5t9 -6.5q4 -12 -8 -22l-12.5 -10.5t-14.5 -10.5q-6 -6 -10 -8q-12 -9 -15 -23q-1 -10 -2.5 -19.5t-3.5 -19.5q-2 -22 -5.5 -43.5t-7.5 -42.5q-4 -26 -9 -50t-12 -49q-6 -24 -14 -46.5
t-17 -45.5q-5 -11 -10.5 -21l-11.5 -21q-3 -5 -3.5 -9.5t-3.5 -9.5q3 -8 -1 -12t-7 -7.5t-8 -6.5q-3 -2 -10 -2q-3 1 -5.5 1.5t-5.5 1.5q-15 4 -30 7.5t-31 6.5q-5 2 -11 3t-12 1q-8 0 -15 1.5t-13 3.5q1 8 -4 8q-4 1 -7.5 1t-6.5 1h-7q1 8 8 8q2 0 8 -2q4 3 7.5 6t7.5 5
q-4 4 -5.5 4.5t-7.5 1.5l2 2h43q8 0 14 -0.5t13 -2.5q2 -1 4 -0.5t4 0.5q7 6 9 15q10 35 19 70t15 71q4 33 11.5 65.5l15.5 64.5q6 20 15 40l4 10.5t8 7.5q-1 -3 -1.5 -6t-1.5 -8q6 5 7 7.5t3 10.5q4 1 6 8q4 6 7.5 12.5t9.5 11.5v1q4 -6 6 -2l10 10l10 10q2 7 -1 12
q-5 4 -10 8.5t-10 8.5q-15 9 -19.5 23t-3.5 30q1 14 2 29.5t2 29.5q1 4 1 8t1 7q0 2 0.5 4t-0.5 4q-3 14 -0.5 26.5t4.5 26.5q2 6 2.5 12.5t5.5 11.5zM17 -20l-1 -1h1v1z" />
    <glyph glyph-name="bar" unicode="|" horiz-adv-x="294" 
d="M45 -175q-5 -2 -5.5 -7t-5.5 -8q-2 2 -2 3q-1 4 -1 8v8q-2 2 -5.5 1t-6.5 4q-2 4 -4 7t-1 8q3 17 5.5 33.5t5.5 33.5l22 128t25 127q11 48 20 95.5t20 95.5l18 80.5l18 80.5q5 26 11 51.5l12 51.5q5 22 11 43.5l12 42.5q5 20 14 37q2 2 3 2q13 -1 14 -10q0 -10 -1 -14
q-1 -5 -2 -11t-2 -11q-1 -3 -1 -9q5 0 5 5q5 10 8.5 19.5l7.5 20.5q3 12 12 23q6 -13 21 -13q-1 -10 -3 -19.5l-4 -19.5l-10 -47.5l-10 -47.5l-6 -29l-6 -29q-1 -6 -1 -12.5v-13.5q0 -1 -1 -1l1 1q4 5 4 11t2 11q3 11 5 22.5l4 23.5q2 8 3 16.5t3 17.5q1 3 2 6.5t2 7.5
q3 -4 1 -10l-12 -69q-3 -17 -6.5 -33t-6.5 -33q-5 -31 -11 -61l-12 -61l-12 -62t-13 -62q-8 -36 -15 -72t-15 -71l-10.5 -46l-10.5 -46l-16 -68.5l-16 -68.5l-6 -23.5t-7 -23.5q-2 -8 -7 -11q-2 6 -2.5 8.5t0.5 10.5q-3 2 -3.5 0.5t-1.5 -3.5q-1 -5 -3 -10l-4 -10q-4 2 -8 3
t-9 3q0 -7 -1 -10q-1 -1 -2 -1.5t-2 -1.5q-1 0 -1 1t-0.5 1t-0.5 1v5v2v-2zM217 686l1 1h-1v-1z" />
    <glyph glyph-name="asciitilde" unicode="~" horiz-adv-x="319" 
d="M264 332q7 -2 12 -3q4 -1 6 -5q3 -5 5 -10.5t1 -12.5q-3 -12 -8 -22t-18 -18q-6 -4 -10 -8l-7 -3.5t-6 -1.5q-10 -2 -19.5 -2.5t-19.5 -1.5q-10 0 -24.5 4.5t-22.5 10.5l-22.5 14t-20.5 15q-6 6 -15 2q-5 -2 -9.5 -5t-8.5 -6q-5 -4 -8 -7.5t-8 -5.5t-8 -5.5t-6 -7.5
q-1 -1 -2 -2.5t-3 -2.5q-12 -9 -19 4q-1 3 -1 9q0 12 9 26q5 10 13 18t17 15q4 2 6.5 4t5.5 4q16 11 34 12.5t36 -4.5q9 -3 15 -8t11 -11l8.5 -8.5t8.5 -7.5q10 -10 25 -5t22 14q2 2 3 4.5t3 4.5q3 6 11 9q6 0 14 4z" />
    <glyph glyph-name="a" unicode="a" horiz-adv-x="527" 
d="M26 13q-2 1 -5 1.5t-3 3.5q-2 8 -7.5 13.5t-11.5 9.5q0 1 0.5 1t0.5 1q0 -1 -0.5 -1t-0.5 -1q-3 0 -4 -1q-2 4 -1 5q0 12 5 24q11 22 19.5 43t19.5 43l16.5 34.5l16.5 34.5q3 5 4.5 9t-3.5 11q0 1 -0.5 3t1.5 4q2 7 4.5 14t9.5 11q9 3 13.5 9t8.5 14l34.5 69.5l35.5 68.5
q13 20 24 40t24 40q8 12 14.5 24t14.5 24q12 22 25 43.5t25 43.5q11 14 12 30q6 4 12 7.5t13 6.5q5 -4 9.5 -2t10.5 0q0 4 2 10q4 -1 6 -3.5t4 -5.5q2 -4 7 -5q6 -2 11.5 -6.5t8.5 -12.5q1 -4 7 -8q8 -5 12 -12t7 -15l10 -41.5t9 -41.5q2 -15 5 -30.5t5 -30.5l4 -26.5
l4 -26.5q2 -8 2.5 -16t2.5 -17q2 -16 3.5 -32t4.5 -33q0 -1 0.5 -2t0.5 -3q2 -1 4 -1.5t4 -2.5q2 -1 4 -2.5t2 -2.5q-1 -9 12 -12q-13 -2 -18 -4q-6 -1 -3 -11q0 -1 3 -4q0 -2 1 -3t1 -3q10 -2 24 -3q-2 -6 -2 -5l-9 -3.5t-8 -3.5t-4 -3q3 -5 6.5 -4t6.5 -1q0 -3 -1 -3
l-3.5 -3.5t-2.5 -3.5q-2 -2 -4.5 -2.5t-4.5 -1.5q-1 -5 1 -7l4 -4q5 -7 -1 -8q-3 -2 -6 -2.5t-8 -2.5q0 -2 -1 -4.5t0 -5.5q1 -20 3 -40.5t3 -41.5q6 -48 6 -98q-1 -6 0 -11.5t0 -10.5q0 -5 -2 -13q-1 -2 -2 -3t0 -3q0 -11 -7 -25q-2 -2 -2.5 -5t-1.5 -6q-4 1 -7.5 1.5
t-8.5 1.5q-1 -3 -1 -5.5t-1 -6.5q-4 1 -11 1h-5.5t-6.5 1q-14 2 -21 9t-9 18l-2 12t-2 13q-4 1 -7.5 1t-8.5 1q-1 2 -2.5 3.5t-2.5 3.5q-3 11 -7 20q-2 6 -2 10q-2 7 -3 14t-2 15q-3 22 -5.5 43l-5.5 44q-2 11 -2.5 23t-2.5 24q0 7 -6 7q-12 -2 -23.5 -3l-22.5 -2
q-14 -2 -27 -2.5t-27 -1.5q-15 -2 -30.5 -3t-31.5 -3q-8 -2 -11 -6q-1 -3 -2.5 -5.5t-1.5 -4.5l-28.5 -54.5l-28.5 -54.5q-8 -16 -18.5 -30.5l-20.5 -29.5q-6 -9 -16 -10q-6 -2 -13 -0.5t-13 7.5q1 1 1 3v1q0 -3 -1 -4zM230 311q8 -2 13.5 -1.5t10.5 1.5q6 1 11.5 1.5
t12.5 2.5q13 2 26 3l27 2q8 0 8 8q-2 12 -2 24.5t-1 24.5q-2 23 -3.5 47.5t-3.5 48.5q0 4 -1 8t-6 9q-21 -46 -45 -89.5t-47 -89.5zM472 334v9q-2 2 -4 2q-2 1 -2 -1t0.5 -4.5t5.5 -5.5zM467 366q-6 -2 0 -10q0 -2 3 -3v1q-1 4 0 7t-3 5zM444 503l-1 -1h2zM444 486h-1l2 -2
v1zM450 421v-1h1v1h-1zM468 377h-1v-1zM455 361h1l-1 2v-2z" />
    <glyph glyph-name="b" unicode="b" horiz-adv-x="547" 
d="M4 42q4 2 2 5l-2 4l-2 4q-2 4 1 8q2 -1 4.5 -1t4.5 -1q9 -5 16 5q0 -5 3 -5l3 3q0 4 -2 5q-1 -1 -2 -1.5t-2 -2.5q0 5 -3 6t-5 4q1 3 1 11q2 2 2 5q2 2 -1 2h-1q-2 -1 -2.5 -2t-1.5 -2h1q-2 4 -2 5l12.5 53t13.5 53l30 123l14 56.5l14 56.5l7.5 32.5t7.5 31.5
q4 14 7 26.5t7 25.5l16.5 55l17.5 53q3 10 6.5 19.5t7.5 18.5t12 19q18 17 37 0q5 -4 7 -6q5 1 9.5 1.5t10.5 1.5q1 -1 1.5 -2.5t2.5 -3.5q7 -6 7 -14q0 -3 0.5 -5.5t0.5 -4.5q-1 -5 2 -6.5l7 -3.5q-4 -14 -3.5 -29.5t-3.5 -30.5q-3 -11 -5.5 -23t-5.5 -24l-4 -17.5
l-4 -17.5q0 -3 1 -5q3 0 4.5 2t3.5 4q17 24 36.5 45.5t40.5 41.5q12 11 25 21.5t27 19.5q4 2 8 3.5l9 3.5l42 18q2 0 6 2q13 6 26.5 5.5t25 -6t20 -15t13.5 -19.5q12 -25 7 -52q-4 -24 -13.5 -46t-22.5 -42q-12 -20 -26.5 -37.5l-29.5 -34.5q-32 -38 -65 -72.5l-68 -69.5
q-3 -2 -6 -5t-5 -8q5 -2 9.5 -2.5t8.5 -1.5q5 -2 9.5 -3t8.5 -3l22.5 -12t22.5 -14q15 -9 23.5 -23t13.5 -30l6 -21q3 -12 0 -24q-2 -15 -9.5 -28t-18.5 -24q-5 -5 -10.5 -9.5t-10.5 -9.5q-5 -4 -9.5 -7t-9.5 -4q-3 0 -6 -3q-7 -6 -14.5 -9t-15.5 -7q-5 -2 -9.5 -4.5
l-9.5 -5.5q-41 -25 -82 -35q-17 -4 -32.5 -7t-32.5 -5t-32.5 -2.5t-32.5 0.5q-15 1 -31 4t-30 8q-2 1 -3.5 1t-2.5 2l-15.5 15.5t-9.5 19.5zM254 502q2 2 4 3v1v-1q-2 -2 -4 -3v-1v1zM268 201q3 -4 6.5 -2.5t6.5 1.5q4 0 1 3q0 2 -2 2l-6 -2l-6 -2q-1 0 -1 1l-1 1
q-6 2 -10 1.5t-11 -2.5q3 -2 7 -1t6 -4q-4 1 -5 -2t-4 -3t-6 -0.5t-6 -0.5q-7 1 -12.5 -1.5t-12.5 -0.5h-3q-6 -5 -13 -7t-12 -7t-11 -8t-11 -7q-8 -5 -10 -12q-5 -15 -9.5 -30l-9.5 -31q0 -2 -0.5 -3t-0.5 -3q0 -5 4 -5h14l40.5 10t40.5 12q17 7 34 15t32 19q15 12 26 24
q3 5 4.5 9.5t-0.5 10.5q0 3 -1 5q-12 9 -27 12q-1 0 -4 -3v1q-8 1 -16 1.5t-16 1.5q-2 0 -5 3q4 2 10 4zM248 377l2 -2q1 1 2 1t2 1q6 5 12.5 11l12.5 12l50 51.5l49 51.5q21 21 39 45q15 21 26 41q2 2 3 4t-1 6q-2 -1 -3 -1t-3 -1q-5 -4 -11 -7.5t-11 -7.5
q-18 -14 -34 -29.5t-30 -32.5q-21 -24 -39.5 -49l-36.5 -51q-8 -11 -14.5 -21.5t-14.5 -21.5zM52 6q3 -1 4.5 -1t3.5 -1h6.5t6.5 -1q11 -2 22.5 -3.5t22.5 1.5q3 1 6.5 0t6.5 -1q6 0 12 -1t12 4q2 1 8 1q9 0 17.5 2l17.5 4q-7 3 -14 1q-5 -2 -11 -2.5t-12 -0.5h-8
q-10 -3 -19.5 -3h-19.5h-13t-13 1q-8 2 -16.5 2.5t-19.5 -2.5zM45 9q0 1 -1 1h-2v-1h3zM290 203v-1q1 -1 1 -0.5t1 -0.5q0 2 -1 2h-1zM479 606l1 1q-1 0 -1 -0.5t-1 -0.5h1zM225 16q-1 0 -1 0.5t-1 0.5q0 -1 1 -1h1z" />
    <glyph glyph-name="c" unicode="c" horiz-adv-x="545" 
d="M480 522q-7 -6 -14 -20l-19 -31q0 2 -0.5 3.5t-0.5 4.5q-2 -2 -2.5 -2t-1.5 -1q-2 -4 -3 -7q-3 -11 -10 -20t-13 -18q-2 -5 -5 -5.5t-8 -1.5q-2 -2 -2.5 -4.5t-2.5 -5.5q-6 -11 -19 -6q-1 0 -5 7l-6 -3h-1q-5 5 -10 9.5t-5 12.5q1 8 -0.5 15t-0.5 15q1 10 3 19.5l4 19.5
l10 39t12 38q1 1 1 3q-3 3 -6 1q-10 -4 -14 -6q-5 -4 -9.5 -7t-8.5 -8q-17 -14 -32 -29t-28 -33q-5 -8 -11.5 -16.5l-12.5 -16.5q-11 -14 -20.5 -28.5t-17.5 -30.5l-33 -64.5t-30 -65.5q-8 -19 -14.5 -38.5t-12.5 -39.5t-4.5 -39.5t9.5 -39.5q9 -21 32 -23q13 -2 25 -1.5
t24 2.5q16 2 31.5 6t31.5 9l40 12l40 12l16 6t15 8q7 2 9 4q10 6 20 -0.5t12 -17.5q3 -12 -3 -24q-17 -30 -44 -49q-24 -18 -47 -32q-3 -2 -11 -6l-40.5 -15.5t-42.5 -12.5q-39 -8 -77 -5q-8 0 -15 2.5t-14 5.5q-4 2 -7 3t-7 1q-5 -1 -9 0t-8 1q-14 2 -23 7q-28 16 -46 39
t-24 55q-2 12 -3.5 24.5t-3.5 24.5q-3 19 -3 40q0 19 2 38l4 38q2 17 5.5 33.5t8.5 33.5q4 11 7 22t8 22q14 32 30.5 62t36.5 58q8 11 15.5 22.5t15.5 22.5q10 15 22 29l23 28q11 15 26 27l30 24q1 2 5 4l31.5 16.5t32.5 12.5q10 2 18.5 5t17.5 5q12 3 23 2q-2 -1 -4 -1.5
t-5 -1.5l3 -3q3 -1 6.5 -1.5t6.5 -1.5l18 -4t17 -8q4 -4 13 -4q25 -2 40 -21q1 -1 2 -1h3q12 8 21 -1q2 -2 5 -2t5 -1q-1 -2 -4.5 -3t-0.5 -6l15 6h1q2 0 4 -1q1 -2 2 -5t2 -5q2 -5 8 -5v1q0 -2 -0.5 -3t-0.5 -2q0 -3 2 -3h1q1 0 1 1q2 2 4 3t4 3q1 1 2.5 2t2.5 -1
q4 -4 2 -6q-3 -5 -5 -10t-6 -10q-2 -2 -2.5 -3.5t-1.5 -3.5q-2 -3 0 -4t4 -1l-18.5 -31.5l-18.5 -31.5q-2 -2 -3.5 -4t-3.5 -4l3.5 9l3.5 9l3 9l1 1l-1 -1q-4 -2 -6 -5.5t-4 -6.5q-7 -7 -7 -18zM480 630q4 1 4 7q0 1 1 1l-1 -1q-2 -2 -2.5 -3.5t-1.5 -3.5q-1 0 -1 -1v-1
q0 1 0.5 1t0.5 1zM517 626l-1 1q0 -1 -1 -1h2zM207 10l-2 -1h2v1z" />
    <glyph glyph-name="d" unicode="d" horiz-adv-x="462" 
d="M152 22q-8 0 -10 -4v1q-3 -1 -5.5 -0.5t-3.5 -4.5h-2h-3q-8 2 -15 0t-15 -5l-1 -1h1q-4 2 -5 2q-7 2 -7 -2q-1 -7 -9 -9q-8 -3 -16 -3.5t-16 4.5q-4 2 -8.5 3t-9.5 2q-12 1 -21 12q-2 3 -6 11q-1 2 -2 5t-2 5q-6 11 0 24q8 -2 13 -2t3 5q0 1 -0.5 1.5t-0.5 1.5
q-6 4 -3 12q5 14 7 27l4 27q4 26 8.5 51t7.5 51q2 17 5 33.5t7 33.5q6 31 12.5 61.5l13.5 61.5l15 78l7.5 37t7.5 36q1 2 1 4t1 4q-2 4 -4 7t-4 7q-7 15 4 24q5 5 8 10.5l6 10.5q6 13 18 22q19 15 47 25q12 5 24 4.5t23 -2.5q6 -1 11 -1.5t11 1.5q5 2 10.5 2.5t10.5 1.5h12
q17 -2 33 -5t31 -8q20 -7 36 -18t27 -28q10 -15 19 -30t16 -32q5 -12 8.5 -25t3.5 -27v-34.5t-1 -34.5q-1 -43 -15 -85q-8 -25 -17 -49.5t-20 -48.5q-8 -16 -16.5 -31t-19.5 -29l-15.5 -22t-18.5 -20q-13 -20 -28.5 -36.5l-32.5 -33.5q-20 -20 -42.5 -36.5t-47.5 -30.5
l-12 -6q-9 -5 -14 -3q-2 0 -4 -2zM372 583l3 -3q2 -2 3 -2h1q-1 1 -2 1t-2 1q-2 2 -4 3v1zM385 529q-2 -4 0 -11q3 -17 4 -33l2 -33q0 -7 -0.5 -14t-1.5 -14q0 -5 -0.5 -9t-0.5 -8v-3.5t3 -3.5q4 10 6.5 20t4.5 21q8 34 -1 66q-1 6 0 10q1 5 -2 10q-4 5 -7.5 10.5t-8.5 11.5
q0 1 -1 1q-3 0 -4 1q2 -6 4 -11t2 -10zM233 586q-4 4 -8 2q3 -1 8 -1q-2 -2 -3.5 -3t-3.5 -3q3 -7 3.5 -9t-0.5 -7l-6 -33l-2 -4t1 -4q2 0 3.5 0.5t3.5 0.5q-2 -11 -2.5 -21t-2.5 -21l-6 -34l-6 -34q-5 -32 -12.5 -64l-15.5 -64l-14 -48t-15 -48q-5 -15 -9 -30.5t-9 -30.5
q-1 -2 -1.5 -5t2.5 -5q7 2 13 5t12 8l19.5 14l19.5 15q17 15 31.5 31t26.5 35q25 37 42 80q23 56 27 115q0 5 0.5 8.5t0.5 8.5v20q0 4 -0.5 7t-1.5 7q-2 10 -3.5 20t-3.5 21q-2 5 -4 8.5t-4 8.5q-12 16 -27 30q-13 11 -27 17q-7 2 -13 3.5t-13 3.5zM164 675h-1l1 -1v1z
M185 583l-1 1q-1 0 -1 -1q1 0 1 -1q0 1 1 1zM13 23v1h-1z" />
    <glyph glyph-name="e" unicode="e" horiz-adv-x="476" 
d="M299 303q-4 -2 -10 -8q2 -1 3.5 -1t3.5 -1v-1l-15.5 -4l-15.5 -4q-14 -3 -28.5 -5.5t-29.5 -5.5q-11 -1 -21.5 -3l-20.5 -4q-3 0 -6.5 -1t-6.5 -2l-3.5 -8.5t-2.5 -7.5l-15.5 -48l-15.5 -48q-3 -10 -5.5 -20.5t-4.5 -20.5q0 -2 0.5 -3.5t-0.5 -3.5q6 1 12.5 1.5t11.5 2.5
q21 5 43 8.5t43 8.5q20 4 38 4.5t35 -0.5q6 0 8 -1q9 -3 17.5 -2.5t17.5 2.5q10 1 23 -2q1 -1 2.5 -2t1.5 -2q-1 -5 1.5 -5.5t4.5 -2.5q6 -3 4 -10q0 -6 -4 -6q-5 -1 -10 -1h-10l-3 -1.5t-3 -3.5q2 -1 3 -1t3 -1h16q5 0 6.5 -3.5t-2.5 -8.5q-2 -2 -6 -2q-6 2 -12.5 1
l-13.5 -2q-2 0 -2 -3q0 -1 2 -3q3 -1 6.5 -1.5t8.5 -1.5q-2 -4 -5 -4q-5 -1 -15 -5q-5 -2 -9.5 -2t-9.5 -1q-2 -1 -2.5 -1t-3.5 -3q2 -1 4 -1.5t4 -2.5q-8 -1 -15.5 -1t-15.5 -1q-17 -2 -34 -5.5l-35 -7.5q-20 -5 -39.5 -8.5t-39.5 -7.5q-8 -2 -16 -3t-17 -1
q-13 -1 -25.5 -3.5t-26.5 -1.5q-12 0 -22 6l-6 3q-14 5 -21.5 15t-11.5 22q-6 25 -1 56q4 30 12.5 60t18.5 60q5 12 8.5 24t7.5 24q0 2 -4 8q1 3 5 9q-6 6 0 13q-5 1 -9.5 -0.5t-9.5 -3.5q-4 -2 -7.5 -4.5t-5.5 -4.5q-3 1 -4 3t-1 4q1 5 0.5 11t2.5 12q0 1 1 2q0 -1 -0.5 -1
t-0.5 -1q-2 1 -4 1t-4 1q0 2 0.5 3t0.5 2l10.5 12.5t13.5 11.5q3 2 7 4t6 4l15.5 10t16.5 9q7 4 12 13q3 11 6.5 21.5l7.5 21.5q8 24 17.5 48l18.5 48q4 7 7 15l3 -3t2 -3q2 3 6 11l-6 2t-5 2q0 1 2 5q-5 1 -11.5 -0.5t-10.5 4.5q2 4 1.5 5t-4.5 4q3 4 4 9q2 2 0.5 4t-3.5 2
h-13q-4 3 0 7q8 4 10 6q-2 2 -3 5t-3 5q6 12 16 19q16 13 36 19q17 4 33 9.5l32 11.5q23 8 46 13t47 9q40 6 81 6q19 -1 37 -9q5 -2 9.5 -4t9.5 -4q14 -5 19 -14q2 -3 3.5 -5.5t3.5 -5.5q9 -14 5 -28q-1 -3 -3 -11q-4 -2 -8 -3t-9 -3q-13 -3 -14 -15v-9q-4 -3 -7 -4t-7 -2
q-14 -2 -29 -3t-30 -1q-6 0 -11.5 -0.5t-10.5 -1.5q-4 0 -7 -0.5t-7 -0.5q-25 -1 -50 -3.5t-48 -7.5q-2 0 -4 -2l-3 -3q2 -14 -1.5 -28t-6.5 -29q-8 -38 -21 -73q-2 -4 -2.5 -8t-1.5 -8q5 -4 9 -3.5t8 1.5q10 2 19.5 2t18.5 1q23 1 45 -5q9 -2 18 -6q9 -3 11 -5t6 -13
q13 -3 22.5 -9.5t9.5 -23.5q-3 -2 -6 -5t-6 -5q-2 -1 -4 -1t-4 -2q-12 -5 -23 -2q-2 2 -7 1.5t-9 -2.5q8 -1 14.5 -1.5t13.5 -2.5q4 -2 3 -6h1q-8 2 -11 -6q-7 1 -14 0.5t-15 1.5q-11 2 -21.5 2t-21.5 -2q-13 -2 -24.5 -3t-23.5 -3q-10 -2 -19.5 -3.5t-18.5 -3.5
q-2 -5 -3 -6q-9 -22 13 -16l42.5 7.5t42.5 5.5l18.5 2t19.5 1zM179 323h3q1 0 1 1q-1 1 -2 0l-2 -2v1zM97 191q-4 -3 -4 -7v-9q3 5 3 9t1 7l2 2v2l-1 -1q0 -2 -1 -3zM239 333h24q2 0 3.5 1t3.5 2h1h-1h-11t-13 -1q-3 0 -7 -2q0 -1 -0.5 -1t-0.5 -1q0 1 0.5 1t0.5 1zM219 329
q-13 0 -16 -0.5t-9 -5.5l10.5 2l11.5 2q1 0 1 1l1 1l1 1v-1zM199 523v-17l11 26t7 24q0 1 -1 1.5t-1 1.5q-15 1 -16 -10q-4 -9 -6 -20q0 -2 -0.5 -4.5t-0.5 -6.5q6 4 7 5zM92 169q-8 -14 -12.5 -27.5l-9.5 -27.5q0 -4 -1 -7.5t1 -7.5t5 -1q4 3 6 8q2 14 5 27t5 26q0 2 0.5 5
t0.5 5zM190 501q-4 -3 -4 -5v-2q1 0 1.5 0.5t1.5 0.5q0 3 1 6zM180 477q0 -1 -2 -3q2 -4 2 0q1 0 1 2zM104 210v1q0 -1 -0.5 -1t-0.5 -1zM130 528v1h-1v-1h1zM195 497q0 -1 -0.5 -1t-0.5 -1h1l1 1q-1 0 -1 1zM15 28l1 1h-1h-1q0 -1 1 -1zM177 440h1v1zM158 409l-1 -1v-2l1 1
v2zM230 331h-2l1 -1zM290 330l1 1h-1v-1zM307 331v-1l1 1h-1zM246 327v1h-1zM131 298l-1 -1q0 -1 1 -2v1v2zM282 295h-2v-1zM126 284v-1q0 -1 1 -1v1zM118 255l-1 -1q0 -1 -1 -2l2 1v2z" />
    <glyph glyph-name="f" unicode="f" horiz-adv-x="499" 
d="M218 345q-7 -7 -13 -6h-7v2l1 1v-1l-2 -1q1 -1 2 -1q-1 -1 -1 -4v1q-4 0 -8 -4q-2 -3 -5 0q0 1 1 1q-1 0 -1 -1q-6 -1 -8.5 -4.5t-4.5 -7.5t-2.5 -7t-1.5 -5q-5 -25 -11 -49t-11 -48l-16.5 -67.5t-16.5 -68.5l-5.5 -21t-6.5 -20q-4 -11 -12 -12q-8 -3 -11 -9q-2 -3 -5 -4
t-6 -3q-14 -4 -28 -1q-4 1 -7 1.5t-7 1.5q-6 8 -8 12q-2 0 -2.5 -0.5t-1.5 -0.5q-3 5 -4 10.5l-2 10.5q0 5 -1 10.5t-1 11.5q-2 14 -0.5 27.5t4.5 27.5l12 57.5l12 56.5l10 43.5l10 43.5q1 5 0.5 7.5t-4.5 5.5q-3 2 -5 5t-5 5q2 1 4 1q2 2 3 2q-3 3 -2 3q0 1 -4 1q-5 2 -5 8
q0 7 5 8q5 3 13 4q-4 2 -6 2t-4 1q-5 3 -2 9q6 9 19 14q9 3 13 9t6 14q9 35 19.5 69.5l21.5 68.5q0 4 1 6q-4 4 -6 5q-4 2 -8 2t-8 2q-16 7 -23 25q-1 2 -1 9q-1 5 2.5 9t-0.5 9q2 5 2.5 9t2.5 9q11 6 26 10.5t25 6.5q3 1 6 1t6 2q15 7 29 8q15 2 29.5 4.5t28.5 6.5
q12 2 24 5.5t24 5.5q17 4 34 6.5t34 4.5q23 2 46.5 3t47.5 1q3 -1 6 -0.5t6 -0.5q12 -3 15 -4.5t8 -13.5q-5 -2 -9.5 -2t-9.5 -2q4 -2 7 -3t7 -2q4 -2 14 -6q11 -5 14 -14q-2 -5 -3 -9t-3 -8q-3 -11 -12 -15q-3 -2 -6.5 -4t-6.5 -4q-8 -2 -11 -3l-46 -11.5t-46 -7.5
q-8 -1 -17 -2t-17 -3q-3 0 -5.5 -0.5t-5.5 -0.5q-19 -2 -37 -3.5t-36 -3.5q-10 -2 -17 -4q-1 -2 -2 -4.5t-1 -4.5q-2 -18 -6 -35.5t-9 -36.5q-5 -27 -12 -53q0 -6 -1 -10h7q22 5 41 5h10q16 4 31 3t30 -3q2 0 4.5 -0.5t4.5 -0.5q7 1 6 -6q0 -2 5 -2h-1q2 -6 3.5 -7t9.5 -1
q1 -2 2 -3.5t1 -3.5q1 -2 1.5 -4t1.5 -4q-2 -1 -4 -3q-7 -4 -2 -9q3 -3 5 -4q-6 -2 -8 -3.5t-7 -9.5q-8 -1 -16 -3.5t-16 -5.5q-8 -2 -16.5 -4.5t-17.5 -4.5q-11 -2 -22.5 -5.5t-22.5 -6.5q-3 -2 -6.5 -1t-5.5 -2zM493 656h-1v-1zM60 372v-1h2zM58 350h-1h-1l1 -1q1 0 1 1z
M209 342v1h-1zM186 339q-1 1 -2 1l1 -1h1zM229 697h15h1h-8.5t-8.5 -1zM317 703h-9v1h9v-1zM221 695q-4 -1 -5 -1.5t-2 -0.5t-1.5 0.5t-1.5 0.5q1 1 3 1h7zM198 691h-3h1q1 1 2 0zM263 699q-1 1 -2 1q1 1 2 1t1 -0.5t1 -0.5q-1 -1 -2 -1zM198 335h9q-4 -2 -5.5 -1.5
t-3.5 2.5v-1zM339 430q1 1 1 2l2 -1h-1q-1 -1 -3 -1h1zM218 345q0 -1 1 -1z" />
    <glyph glyph-name="g" unicode="g" horiz-adv-x="567" 
d="M464 467q-2 -1 -3.5 -1.5t-3.5 -1.5q-2 2 -3 4t-3 4q-3 0 -5 -4t-4 -5q-4 -4 -7 3q-1 1 -1 1.5t-1 1.5q-4 -5 -5 -8t-3 -17q0 3 -2 7h-3q-2 -1 -2.5 2t-3.5 1q-2 -1 -2.5 0.5t-1.5 1.5q-1 2 -3 4v12q-3 4 -6.5 2.5t-8.5 0.5q0 1 -1 2l-3 3q-4 5 -4 11q0 11 -3 20
q-2 8 -1.5 14.5t2.5 14.5q1 4 2 9t-1 10q-5 -2 -6 -3q-27 -24 -52 -49.5t-47 -55.5q-24 -35 -45.5 -70.5t-39.5 -73.5q-16 -32 -28 -66t-19 -69q-2 -14 -3.5 -29t-0.5 -29v-10q-2 8 -3 13.5t-3 11.5q-1 5 -0.5 11t-4.5 11l-2 -14t-1 -13q0 -13 11 -26q8 2 15.5 6.5t14.5 9.5
l13.5 7.5t13.5 8.5q2 -2 4 0q4 2 7.5 3.5t7.5 4.5q5 4 11 8t11 8l36 30l35 30q8 6 13 14.5t8 18.5q-3 1 -7 1q-5 -1 -8.5 -1.5t-7.5 -1.5q-9 -3 -18 -2.5t-17 2.5q-9 1 -10 10v4q-7 3 -14 2h-14q3 2 5 4t7 5q-5 -1 -9 -1h-8q1 2 0.5 5t1.5 5q2 3 4.5 5.5t7.5 4.5q11 4 26 7
q8 2 11 3q14 5 27 7.5t27 5.5t28.5 5.5t29.5 4.5l13.5 2t14.5 1q5 2 7 -2q4 -5 14 -7q3 -1 5.5 -3.5t5.5 -4.5q2 1 4.5 2.5t4.5 1.5t3.5 -2t3.5 -3t5 -1t6 -1q-3 -2 -5 -2t-4 -1q-3 -2 -3 -7q-2 -7 -1 -10q2 -4 0 -7t-2 -7h-3q-2 1 -3 0l-1 -1l-1 -1l2 2h3v-7q0 -1 -1 -2
q1 1 1 2q2 1 3 3t1 3q4 4 7 7.5t8 7.5q4 -2 1 -5q0 -9 -3 -15q-6 -17 -11 -33.5t-12 -31.5q-4 -8 -7 -16t-6 -17l-16 -48t-18 -48l-8.5 -18.5t-9.5 -18.5l-6.5 -9t-8.5 -7q-2 -1 -5 -6q-8 -20 -29 -24l-4 2l-4 2l-4 -2q-7 -3 -10 -2.5t-8 6.5q-2 2 -4 3t-6 1q-3 0 -6 3
q-5 3 -6 5q-4 8 -8.5 16t-4.5 17q-1 5 -1.5 11.5t-2.5 12.5q-1 0 -1 1t-0.5 1t-0.5 2q-3 -2 -5 -3.5t-4 -3.5q-28 -27 -57 -41q-9 -5 -19 -9t-19 -9l-2 -1q-18 -1 -36 -1t-37 10q-41 21 -64 60q-25 40 -26 81q0 4 -0.5 7t-0.5 7q-1 2 -1 9q2 31 6 61t14 60q9 28 21 54.5
t26 52.5q7 11 13.5 23t11.5 26q6 11 12.5 21t12.5 21l9 14.5t8 14.5q1 1 1 4v-1q3 5 6 8.5t5 6.5l-2 4q8 5 11.5 11t6.5 12q1 2 2.5 4.5t3.5 4.5q4 2 7 6l11.5 15.5t13.5 13.5q9 10 17.5 18t19.5 16q7 4 13 8.5l13 9.5q3 2 6 3.5t6 2.5q6 2 12 5t12 5q7 4 18 8q5 2 11 3.5
t11 3.5q1 1 3 1q20 2 39 0t37 -10q5 -2 8.5 -4t7.5 -4q5 2 8 5t6 5l12 10.5l12 10.5q24 16 55 14q12 -2 19 -7q8 -5 15 -14.5t9 -19.5q0 -2 1 -4q0 -4 -2 -6.5t-3 -5.5q-1 -2 0.5 -6t-0.5 -7q-4 -5 -5.5 -10t-6.5 -9q-2 -2 -1 -5q1 -5 -1 -9t-3 -9q-2 -5 -3 -9t-3 -7
l-3.5 -9t-3.5 -8q-3 -7 -5.5 -13.5t-5.5 -12.5q-2 -1 -4 -1.5t-4 -1.5q-4 -1 -3 -8q-4 -4 -4.5 -10t-3.5 -10q-6 -7 -11 -16q-2 -4 -3 -7.5t-2 -7.5q-1 -5 -2 -9t-3 -7q-9 -2 -11 -2t-6 3q-2 -1 -2 -2.5t-1 -3.5h1zM116 484q2 2 4 3q3 3 3 6q5 2 7 10q3 1 3 6h1q0 1 1 1
l-2 -2q-3 -1 -3 -5q-5 -2 -7 -10q-3 -3 -3 -6q-2 -2 -4 -5v2zM515 555l1 1q0 -1 -1 -1v-1v1zM213 617q1 1 1.5 2t2.5 2l3 3l1 1l-1 -1q-2 -2 -3 -4q-2 -2 -4 -3v-1v1zM140 519q1 1 1 2v2q0 -3 -1 -4l-1 -1q1 0 1 1zM149 535l-2 -2v-1l2 4l1 1q0 -1 -0.5 -1t-0.5 -1zM409 482
q0 3 -1 4l-2 -1q0 -1 0.5 -2t0.5 -3zM139 173q0 1 -0.5 1.5t-0.5 1.5q0 -1 -0.5 -1t-0.5 -1q1 -1 1 -2zM319 288h1l-1 1q-1 0 -1 -1h1zM255 272l-1 1l-1 -1h2zM407 460q0 -2 -0.5 -3.5t-0.5 -4.5q-3 5 1 8zM96 476q0 -1 -0.5 -1t-0.5 -1v-1h-1q1 1 1 1.5t1 1.5zM519 542
q-2 -1 -4 -3q2 1 4 3zM515 539q-2 -3 -3 0h3zM133 525h-1q1 0 1 -1v1zM463 467q1 -1 2 -1q-1 0 -1 1h-1z" />
    <glyph glyph-name="h" unicode="h" horiz-adv-x="587" 
d="M208 490q0 -5 -0.5 -10t-0.5 -10q-2 -9 -3 -18l-2 -18l-2 -11.5l-2 -10.5q3 -1 5 -3h10q14 2 28 3t28 4q5 1 11 1.5t12 1.5q17 2 33.5 2.5t33.5 1.5l24 2t23 -1q4 2 6 9l20 78.5l20 78.5q8 34 19 67.5t23 66.5q5 11 11 22l6 6q6 6 12 2q3 0 5 -1q0 2 0.5 4t0.5 4
q2 -3 4 -5q5 -8 12 -3q1 0 2 1t2 0q2 -2 3 -4l1 1q4 6 8 5q7 -3 8 -9v-1q-2 -8 0.5 -14t5.5 -12q1 4 4 8q4 -11 4 -23q0 -10 0.5 -19.5t-0.5 -19.5q0 -11 -1 -21t-3 -21l-15.5 -87l-15.5 -87q-5 -32 -12 -62.5l-14 -61.5l-24.5 -107.5t-26.5 -107.5q-8 -30 -17 -59.5
t-20 -58.5q-7 -20 -30 -33q-2 8 -3.5 9.5l-6.5 6.5q-17 -4 -21 -6t-11 -9q-16 5 -23.5 16.5t-11.5 27.5t-2.5 31.5t4.5 31.5l10 45.5l10 45.5l13.5 62.5t14.5 62.5q0 2 0.5 3.5t0.5 3.5q0 7 -6 7q-10 0 -19.5 -0.5t-19.5 -0.5q-7 -1 -14 -1.5t-14 -0.5h-37.5t-37.5 2
q-11 1 -21.5 0.5t-21.5 0.5q-3 0 -9 -2t-7 -6t-1.5 -7t-1.5 -7q-1 -3 -2 -7t-1 -7q1 -4 -0.5 -7t-2.5 -6q-2 -4 0 -8q2 -5 -3 -7q-1 -1 -1 -6t2 -11q-2 -1 -4 -3q-1 -5 0.5 -10.5t-2.5 -10.5h-1h1q-3 -26 -8.5 -50.5t-13.5 -47.5q-10 -31 -25 -53q-8 -13 -11 -26
q-2 -6 -3.5 -12t-3.5 -12q-8 -2 -13 -7t-13 -7q-1 0 -1 1q-2 4 0.5 7.5t-1.5 7.5q-5 -2 -5.5 -6.5t-4.5 -6.5q-8 -2 -16 0t-14 11q2 8 3 16t3 16q2 4 2 8q-1 3 -2.5 2.5t-3.5 -1.5q0 2 0.5 3.5t0.5 3.5q-1 5 -2 5.5t-7 2.5l1 -1q-4 5 -5.5 10t-3.5 10q-3 10 0 20l10 46
l10 46q4 19 7 37.5t7 37.5l18 84l16 71.5l16 71.5l12.5 53t13.5 53q6 25 12.5 49t14.5 47l3.5 9t4.5 7t6 3q8 -3 14 3q5 5 14 -2q2 -3 7 -8q5 0 6 4t5 6q1 0 1.5 0.5t1.5 0.5q16 -4 18.5 -7.5t0.5 -19.5q-2 -6 -2.5 -12t-1.5 -12v-5.5t2 -5.5q3 -3 3 -6v-7q-2 -7 -2 -13.5
v-13.5l-3 -12q-4 -14 -6 -27l-4 -27l-3 -24q-2 -8 3 -10q-1 -4 -1 -7.5t-3 -6.5v3.5t-2 3.5q-1 -4 2 -7zM245 385q4 -2 7 -2.5t7 -0.5t7.5 -0.5t7.5 -0.5q6 -1 11.5 -1.5t11.5 -1.5q5 0 9.5 0.5t9.5 -1.5q12 -2 24 -2t24 -1q7 0 13 0.5t13 0.5q8 0 9 7q1 1 1 4q1 2 -1 4.5
t-4 1.5q-11 -2 -20.5 -2t-20.5 -1h-23t-24 -2t-24 -1.5t-25 0.5q-4 -1 -13 -1zM403 407q-8 0 -14 -0.5t-12 -0.5h-20.5t-20.5 -1l-16.5 -2t-16.5 0q-9 0 -18.5 0.5t-18.5 -1.5q-11 -2 -21 -2.5t-21 -0.5h-11t-11 -2q16 -2 31.5 -1.5t31.5 0.5q1 0 1.5 0.5t1.5 0.5
q5 1 9.5 1.5t9.5 0.5h37q8 0 11 1q6 2 11.5 2h10.5h39q2 0 4 0.5t3 4.5zM210 697v-1h1zM310 393v2l-1 -1zM232 390h1l-1 1h-1q0 -1 1 -1zM212 504v1v-1z" />
    <glyph glyph-name="i" unicode="i" horiz-adv-x="351" 
d="M210 93q1 -4 7 -4q7 -1 9 -11q0 -4 -0.5 -7.5t-0.5 -7.5q-2 -3 -6 -3t-4 -4q0 -2 4 -10q-14 -25 -48 -31q-26 -6 -48 -5q-8 1 -17 1h-17q-9 0 -17.5 2t-16.5 5q-11 3 -20 6.5t-17 7.5q-17 8 -22 30q-2 9 3 21.5t16 15.5q4 2 14 6l-2 4q12 6 25.5 8.5t26.5 9.5q2 5 3 10
t3 10q7 32 13 63t13 63l8 35l8 36l24 117l9.5 45.5l9.5 45.5q7 25 12 51q1 3 0.5 5.5t-0.5 4.5l-2 2q-19 6 -32 20q-1 2 -3 2.5t-4 2.5q-5 5 -5 8q1 5 -2 7t-4 5q0 3 2 4.5t3 3.5q1 3 -0.5 5.5t-3.5 4.5q-3 4 -1.5 7.5t6.5 4.5q4 1 12 1q0 5 -4 4.5t-6 2.5q3 3 5 4
q3 2 6.5 2t7.5 1t14 3q-4 3 -18 4q2 2 3.5 3t3.5 2q4 2 6 2h29t28 -3v-1q-6 -2 -10 -2q1 -3 2 -3h3h64q8 0 13 1q11 3 18 -4q2 -2 6 -4q0 -4 3 -4h17q5 0 5 -3q0 -1 -3 -4q-2 -2 -4 -3q2 -2 3.5 -2.5t3.5 -2.5q0 -2 -0.5 -3.5t-0.5 -3.5q-3 -8 7 -11q-6 -2 -11.5 -3
t-10.5 -3q-3 -10 4 -16q-5 -11 -14 -14l-15.5 -6t-15.5 -5q-5 -2 -9 -3t-9 -1q-2 -8 -2 -11q0 -8 -0.5 -15.5t0.5 -15.5q2 -23 -1 -45.5t-8 -44.5q-8 -41 -17 -80.5l-19 -79.5l-13.5 -49.5l-13.5 -48.5q-2 -8 -4 -14.5l-4 -13.5q-5 -14 -9 -29t-9 -29q-1 -2 -1 -6
q-2 -6 6 -8q15 0 26 -8q-2 -3 -4.5 -3h-4.5q-4 0 -4 -3q0 -4 4 -4q3 -1 6.5 -1h6.5h9q4 -8 -3 -13q-2 1 -4 3q0 1 -1 1l1 -1q1 -1 2 -1.5t2 -1.5zM319 686h-1q1 0 2 -1z" />
    <glyph glyph-name="j" unicode="j" horiz-adv-x="470" 
d="M311 420q2 2 2.5 5t1.5 6l11.5 45t10.5 45l4 18l4 18t3.5 18t3.5 18q2 5 3 10.5l2 10.5q2 9 -6 7q-4 0 -12 -2q-13 -4 -22 -1q-3 2 -5 -0.5t-6 -2.5q-5 2 -10 0q-8 -2 -17 -1t-18 1q5 2 8.5 3t8.5 3q2 0 4.5 0.5t4.5 0.5q3 -1 5.5 -0.5t5.5 1.5q7 1 13 3t14 2q4 -2 4 5
q-11 2 -21.5 -2t-21.5 -4q-11 -1 -21 -4t-21 -5q-5 5 -6 7h-21t-20 -1q2 4 4 4t4 1q5 2 10 2.5t10 2.5q2 0 3 1t3 2v2q0 1 1 1q-3 3 -4 3l-14 -2t-14 -3q-5 -1 -9 -2t-9 -2q-2 0 -4 1.5t-1 3.5q0 3 2 9q0 2 -2 6q5 4 8 8.5t8 6.5q3 9 10 10.5t15 3.5q20 4 41 7.5t42 6.5
q2 1 6 1q11 4 21 5l21 2q7 0 13.5 1.5t16.5 3.5q-5 1 -7.5 1h-4.5q-13 1 -25.5 0.5t-25.5 -2.5q-5 -1 -9 -0.5t-9 1.5q13 2 25.5 3.5t24.5 3.5q8 1 15.5 0.5t15.5 -2.5q5 -2 10.5 -1.5t10.5 -3.5q3 0 5 1q10 3 19 0l18 -6q19 -5 29 -19q2 -3 5 -6t5 -6q4 -5 6.5 -9t3.5 -10
q0 -4 1.5 -7.5t2.5 -6.5q-2 -4 -5 -4.5t-6 -1.5q-4 2 -6.5 5.5t-7.5 3.5h-1h1q5 -12 13 -17q5 -5 4 -11v1q-5 2 -6.5 1.5t-4.5 -5.5q-5 -2 -6.5 2.5t-6.5 2.5q-1 -4 1.5 -5t4.5 -3l6 -9l-4 -2q-3 1 -6 2.5t-6 3.5q-3 -5 -4 -9t-2 -9t-1 -10.5v-10.5q-2 -22 -9 -41l-1 1l1 -1
l-2 -12t-5 -12q0 1 -1 1h1q-1 -8 -2 -14.5t-5 -13.5q0 1 -1 1h2q-2 -14 -4 -22q-7 -23 -12.5 -45.5l-11.5 -45.5l-3 -6l-1 1l1 -1q0 -7 -3 -10q-1 0 -1 1q0 -1 1 -1q-2 -7 -3 -14t-3 -14q-7 -23 -13 -45t-13 -45q-2 -8 -5.5 -16.5t-6.5 -16.5q-2 -5 -4 -15q-3 -2 -3 -7v1
l-6 -9q-2 -7 3 -9l-1 1q-2 -9 -6 -16t-8 -15q-7 -12 -8 -22q0 -5 -2 -9q-13 -22 -28 -40t-35 -32q-16 -11 -33 -17.5t-36 -10.5q-4 -1 -8 -1.5t-8 -2.5q-10 -3 -20 -5t-21 -1h-14q-8 -1 -20 4q-9 4 -17 5q-11 3 -17 11l-11.5 12t-10.5 13l-9.5 13.5t-6.5 14.5q-4 13 -7 25
t-5 26q0 2 -0.5 5t-0.5 5q-2 12 -0.5 23t10.5 21q3 7 8 12t9 11q5 8 12.5 10t15.5 3q6 -3 12.5 -4t11.5 -6l19.5 -17l19.5 -16q8 -8 19 -12.5t22 -6.5q9 -2 20 0q4 1 7 2.5t7 2.5q21 6 26 24q0 3 2 5q2 3 4 5.5t3 5.5q2 3 2 6.5t1 6.5q2 4 4 6v-2h1l-2 2q2 2 4 7q0 -1 1 -1
h-1q0 5 1 7h5q0 2 -0.5 4.5t-0.5 5.5q0 2 1.5 1.5t3.5 1.5q2 1 3 2.5t-1 2.5q-6 3 -2 7q0 1 2 3q1 0 3 -2q2 4 0 7.5t0 7.5q2 3 2.5 6.5t2.5 6.5h1h-1q0 2 0.5 4t0.5 4q2 0 3.5 -1t2.5 2v5q3 2 3 4.5v5.5l1 1q0 -1 -1 -1h-3q0 8 3 10q1 0 1 -1q0 1 -1 1q2 12 3 23.5t5 22.5
q2 4 1.5 8t1.5 8l4 15.5t3 15.5q2 5 6 5q2 -2 4 0h-1q3 2 3 5t1 5q3 2 3 5v6v-1zM318 143q1 0 1 1v1q0 -1 -0.5 -1t-0.5 -1l-1 -1zM297 373l1 1v-1q-1 0 -1 -1v1zM301 383l1 1l-2 -2zM416 488l-2 -2v-2l2 4q0 1 1 1zM301 99q3 4 3.5 5.5t1.5 6.5q-4 -2 -4.5 -5.5t-0.5 -6.5
q0 -1 -1 -1zM421 512q-1 -1 -1 -3t2 0v3h-1zM334 652h2l-1 1zM338 631q1 0 1 1h-1h-1zM405 448h-1v-1zM286 329h-1l1 -1v1zM308 410q-3 4 -3 5t3 5v1v-11zM281 706h-1l1 1v-1zM301 400q0 2 1 3l1 1l1 -1v-3h1h-4zM487 616h1l-1 1v-1zM308 420q1 3 3 0v1h-3v-1z" />
    <glyph glyph-name="k" unicode="k" horiz-adv-x="539" 
d="M422 11q1 -4 0.5 -8t1.5 -8q2 -6 -4 -8q-4 1 -5.5 5t-6.5 4l3 -9h-10q0 -6 4.5 -10t2.5 -11q-4 1 -6 3.5t-4 4.5q-3 2 -5 4t-5 4q-4 2 -7 -2q-3 -2 -1 -6q3 -3 7 -9v-5q-3 -2 -6 0t-7 1t-5.5 2.5t-5.5 4.5q0 -2 -2 -4h1q-6 0 -10 2t-9 5q-21 15 -39 32t-35 37
q-20 24 -38 49.5l-37 50.5q-2 4 -4 7.5t-7 5.5q-4 -2 -6 -5l-4 -6l-25 -34l-25 -34q-26 -34 -36 -72q-2 -7 -4.5 -13t-5.5 -12q-10 -19 -32 -22q-28 -6 -42 17q-4 5 -8 12q0 7 0.5 13.5t0.5 14.5q1 3 1 6.5t1 6.5q2 10 4.5 19.5t5.5 19.5q6 21 11 42t9 42q4 20 7.5 40.5
t5.5 41.5q2 11 3.5 21.5t3.5 21.5q2 13 4.5 25t4.5 25q3 18 6.5 36l7.5 37l13.5 63.5l13.5 63.5l10.5 46l10.5 46q1 4 2 7.5t2 7.5q2 6 5 11.5t10 7.5q0 2 0.5 4.5t0.5 4.5q1 5 2.5 8t7.5 2q5 4 10 7t7 11q0 1 2 7q3 -2 5.5 -4t4.5 -4q6 2 6.5 8.5t8.5 7.5q1 -7 5 -14
q2 -5 3 -5q5 0 5.5 -4t2.5 -5q3 -2 3.5 -5.5t5.5 -3.5q0 -3 0.5 -6.5t0.5 -6.5v-20q0 -6 4 -7q3 0 3 -4v-26t-2 -26l-10.5 -60.5l-10.5 -60.5q-3 -21 -7 -42t-9 -41q-2 -5 0 -8q3 1 4.5 3.5t3.5 4.5l45 69q27 43 57 84q19 25 39.5 47.5l41.5 45.5l30.5 34.5l31.5 34.5
l9.5 9.5l9.5 9.5q15 14 30 19q9 4 18 3q6 0 11 -1.5t7 -8.5q2 -5 6 -6t7 -3q-3 -8 0.5 -13.5t3.5 -11.5q-1 -4 -4.5 -6.5t-2.5 -7.5t-3 -11q-3 -5 -6.5 -8.5t-6.5 -7.5q-3 -5 -6.5 -8.5t-7.5 -8.5q-3 -3 -3 -8q-1 -11 -5.5 -21.5t-11.5 -19.5l-22 -31l-22 -29l-93 -123
q-23 -30 -44 -60.5l-44 -61.5q-4 -5 -7.5 -11t-7.5 -11q-2 -2 -2.5 -3.5t-1.5 -3.5q2 -5 4.5 -8t5.5 -6l29 -29l29 -30q9 -9 17 -18.5l17 -19.5l21.5 -24.5l21.5 -24.5l21.5 -21.5t18.5 -23.5q2 -2 4 -6q3 -5 1 -10q-1 -3 -9 -3q-2 2 -3 4h-1h1q1 -1 1.5 -2t1.5 -2zM218 600
h-1q0 -2 0.5 -2.5t0.5 -1.5l1 1q0 1 -0.5 1.5t-0.5 1.5z" />
    <glyph glyph-name="l" unicode="l" horiz-adv-x="485" 
d="M261 681l7 -7t6 -7q-5 -23 -9 -46t-7 -47q-1 -4 -2 -7.5t-3 -8.5q-5 -15 -13 -26t-10 -24l-4 -18l-4 -18q-1 -4 -1 -8t-1 -9q-4 -2 -3.5 -5.5t0.5 -7.5q-4 -3 -3.5 -6.5t0.5 -7.5q-4 -2 -4 -5.5v-7.5q-4 -3 -3.5 -6.5t0.5 -7.5q-4 -4 -1 -8q0 6 1 9q3 2 3 5.5v7.5
q4 3 3.5 6.5t-0.5 7.5q4 2 4 5.5v7.5q3 3 3 6.5v7.5q1 2 2 3.5t2 3.5q10 40 28 83t27 94q0 -1 2 5q2 -10 2 -16q-2 -20 -4.5 -39t-4.5 -37q-4 -20 -14.5 -34.5t-14.5 -31.5l-22 -94l-22 -94q-12 -51 -25 -101t-28 -101l-8 -25.5t-9 -25.5q-1 -2 -1 -4t-1 -4q-2 -9 6 -7
q10 2 20 4.5t20 4.5q18 3 36 6.5t37 6.5q6 2 12.5 2t13.5 1q3 -4 8 -2q10 0 20 0.5t20 1.5h10q17 5 34.5 3.5t34.5 -4.5q2 0 6 -2q8 -3 14.5 -6.5l14.5 -7.5q5 -2 8.5 -6t6.5 -9q0 -1 -0.5 -1.5t-0.5 -1.5q-4 -6 -4 -8t5 -7l1 -1q5 -5 7.5 -8.5t4 -6.5t2.5 -7t2 -11
q-2 -5 -4.5 -10.5t-4.5 -10.5q-2 1 -4.5 1t-5.5 1q-2 -4 -1 -9q-2 -2 -3 -2q-4 2 -8 1q-4 -2 -14 -4q-4 -1 -8 -1t-7 3t-5 0.5t-4 -2.5q-6 2 -11.5 5.5t-10.5 8.5q-11 13 -31 8q-30 -10 -60.5 -17l-61.5 -14l-53.5 -12t-52.5 -11q-7 -2 -14 -2.5t-14 -2.5q-8 -1 -14.5 -2
t-14.5 -2l-13.5 -2t-14.5 2q-9 -2 -18 -3t-19 -3q-13 -2 -23 2q-14 8 -17 24q-1 22 16 39q1 1 2 1.5t2 1.5l9.5 5.5t6.5 6.5q3 4 3 9.5t2 10.5q5 15 9 30.5t9 30.5q11 34 20.5 68l18.5 68l11.5 40l10.5 40q5 17 8.5 33l7.5 33l4 14t4 15q3 7 4.5 13.5t3.5 13.5q2 14 7 23
q3 4 3.5 8.5t2.5 9.5q5 11 8 23t5 23l11.5 45t11.5 50l10 43l10 43q2 10 4.5 18.5t7.5 16.5q2 2 2.5 5.5t1.5 6.5q2 -2 3.5 -4t2.5 -4q2 -2 4 0q1 2 2.5 2.5t3.5 2.5q1 -2 1 -6q1 -1 1 -1.5t2 -1.5q7 -3 19 -3q3 -5 0.5 -8.5t-1.5 -7.5q0 -2 2 -2h1q2 0 2 1q2 7 4 13t4 13
q3 1 6 1t7 1q1 -2 1.5 -2t0.5 -2q-2 -8 -2 -12q0 -2 1 -2.5t3 -2.5zM454 -4v-1h-1v1h1zM183 307q5 5 2 10q-2 -2 -1.5 -5t-0.5 -5q0 -1 -1 -1q1 0 1 1zM433 26l-1 1l1 -1q2 -6 5 -8q0 -1 1 -1t1 1q1 0 1 3q-2 5 -8 5zM195 353q0 1 0.5 1.5t0.5 1.5l-2 2v-1q0 -2 1 -4z
M189 328q0 2 -1 3q0 -1 -0.5 -1.5t-0.5 -1.5q1 -1 1 -2q1 1 1 2zM201 380q2 2 2 3l-2 2v-2v-3zM191 340h1v1zM181 297v-1l1 1h-1zM198 367q1 0 1 1h-1l-1 -1h1z" />
    <glyph glyph-name="m" unicode="m" horiz-adv-x="676" 
d="M436 -128q-1 7 2 12.5t7 10.5q3 6 1 11q-2 2 -1.5 4.5t0.5 5.5h-15q1 2 1.5 4t1.5 4q7 15 8 28q0 2 2 4q0 1 1 1l-1 -1q-2 2 -2 6q2 8 3.5 15.5t3.5 15.5q9 35 16 69.5l14 69.5q2 14 4.5 26.5l5.5 26.5l6 36t7 35q5 23 9 45.5t9 45.5q7 30 13 60.5t13 60.5q3 12 5.5 24.5
t5.5 24.5q1 2 1 5q0 2 -2 4q-1 0 -1 -0.5t-1 -0.5h-1q-8 -14 -11 -25l-10.5 -46l-10.5 -46q-8 -33 -15 -66l-14 -66q-6 -27 -11 -54.5l-10 -54.5q-4 -21 -7.5 -41.5t-7.5 -41.5l-15 -69q-5 -20 -9 -39.5t-9 -39.5q-2 -6 -3.5 -12t-2.5 -13q-3 -13 -16 -13q0 2 -0.5 4t-0.5 4
q-1 17 -0.5 32.5t3.5 32.5v2q0 24 4.5 48l8.5 47l18 108l8 42l8 41q6 38 14 75l16 74q2 5 1.5 11t-0.5 11q1 0 1 1l-1 -1q-5 -3 -8 -8t-7 -10q-14 -17 -27 -34.5l-26 -34.5q-8 -10 -14 -20t-14 -20q-5 -8 -11 -16.5l-12 -16.5q-2 -3 -4.5 -5t-4.5 -4v6q0 1 1 1v1
q-1 -1 -1 -2q-7 1 -7 -6h-4h1l-3.5 -3.5l-3.5 -3.5q-2 2 -4 0h-3q-1 1 -1 2t-1 2q-1 0 -1 -0.5t-1 -0.5v-1q1 -1 2 -1t2 -1q-2 -3 -3.5 -6t-3.5 -6q-2 -5 -4 -5t-7 5q-2 2 -4 3v-7q-2 -2 -3.5 -1t-3.5 1t-4 -0.5t-4 0.5q-5 2 -9.5 3.5t-8.5 5.5q-11 11 -19.5 23.5
t-14.5 26.5q-5 13 -9.5 26t-9.5 26l-8 18t-9 17q-3 3 -5 4q-5 -5 -5 -14q-1 -16 -4 -31t-5 -30q-5 -25 -9.5 -50l-9.5 -51l-12.5 -72l-13.5 -72l-4 -22.5l-4 -22.5q-2 -7 -4.5 -13t-9.5 -11q-2 4 -1.5 7.5t-0.5 7.5q4 2 4.5 6t1.5 9q5 24 8.5 48t8.5 48q4 24 8.5 48.5
t9.5 48.5q2 8 3 14.5t0 14.5v-1l2 4t1 4q2 9 4.5 18.5t4.5 18.5l18 93q2 5 2.5 11t-4.5 11q-2 2 -2 5t-1 5q0 2 -1 2.5t-2 2.5q-3 -2 -3.5 -3.5t-1.5 -3.5l-12 -62.5l-12 -62.5q-5 -27 -11 -54.5t-11 -55.5l-11.5 -62.5l-11.5 -62.5q-2 -14 -4.5 -28t-5.5 -28q-1 -7 -8 -12
q-1 0 -1.5 0.5t-1.5 0.5l-9 -9q-2 4 -2 3q-1 5 -1 15q4 4 4 7.5t-2 8.5q-2 -5 -2 -8.5v-7.5q-1 -2 -2 -3.5t-3 -3.5q-6 -3 -12 4q-2 -5 -4.5 -8t-4.5 -7q-3 3 -4 5l2 2q-1 1 -1 2l-1 -1v-3h-7.5t-7.5 4v7q0 2 0.5 3.5t-1.5 3.5q-2 -2 -4 -3.5t-4 -3.5q-4 2 -6.5 5t-4.5 6
q-7 10 -10 20.5t-1 22.5q3 13 4.5 25.5t3.5 26.5q1 3 1 7v8q2 5 2 6.5t-2 7.5v-14q-6 0 -9 1l3 21l10 61.5t11 61.5q4 22 9 44l10 45q8 32 15 64t15 64q2 7 5 14t5 14q4 11 7 26q2 6 3 11.5t3 11.5q2 16 7 30.5t11 29.5q4 11 11 16q-2 8 -3 13q1 1 5 3q3 3 3 5q0 4 -2 12
q-2 6 5 8q5 1 8 4t5 7q4 1 7 1t5 1q5 2 9.5 1.5t9.5 -5.5q2 -2 5 -3t6 -3q9 -3 14 -11q2 -4 4 -7.5t4 -7.5q8 -19 15 -38t13 -38l7.5 -27t10.5 -26q2 -4 3 -5q5 0 3 5q-1 8 -5 19q-2 6 -3.5 11.5t-1.5 11.5q2 -3 3 -5.5t2 -4.5q2 -5 3 -9.5t3 -9.5q5 7 2.5 12t-3.5 10
q4 -1 6 -7l10 -29l10 -29l8 -20l8 -20q4 -7 9 -10q5 -8 8.5 -16.5t6.5 -16.5l4 -10t7 -10q2 3 8 9l42.5 59l43.5 60l20 29t21 29l41 56.5t43 55.5q4 4 7 8t6 9q6 8 12 8q7 1 12.5 4t10.5 7q5 5 11 8t11 7q24 -2 38 -20q2 -2 4 -5l4 -6q5 -10 6.5 -21t1.5 -22q-2 -36 -9 -70
l-15.5 -66.5l-15.5 -66.5l-15.5 -66.5l-14.5 -66.5q-7 -32 -13 -64l-12 -64l-20.5 -100t-23.5 -99l-10.5 -40l-10.5 -40q-6 -24 -22 -45q-4 -5 -8.5 -8.5t-7.5 -8.5q-2 -3 -8 -3q-2 -1 -5 -0.5t-6 -1.5v3q-2 0 -2 1l-1 -1v-3q-2 -2 -4 -5l-4 -6q-5 9 -3 14q1 2 1 8
q0 10 -11 7q-1 0 -1.5 -0.5t-1.5 -0.5zM274 474v-3l1 -1q1 1 1 2l-2 2q-1 1 -1 3q-1 0 -1 1zM267 491q0 -2 1 -3l1 -1v1q-1 1 -1 1.5t-1 1.5t-1 1.5t-1 1.5v-1zM199 656v1l-1 1l2 -2q0 -1 0.5 -1.5t0.5 -1.5q1 1 0 1zM88 78q-3 -6 -3 -7.5t3 -6.5v14q2 5 2 6t-2 5v-11z
M81 34h-3v-8q0 -2 1 -3q0 1 1 1l1 1v9zM80 56q2 -4 1 -7t3 -5q-1 3 0 5.5t-4 6.5zM123 595q4 5 0 11q-3 -6 0 -11zM120 579q-3 -4 0 -8q3 4 0 8zM262 508q-1 -1 -1 -2t0.5 -1.5t0.5 -1.5q2 2 3 4h-1zM125 615q-1 2 -0.5 4t-2.5 5q1 -3 0.5 -5t2.5 -4zM218 603l-1 -1l1 -1
l1 1zM116 548v-1l1 1h-1zM279 461l-1 -1h1v1z" />
    <glyph glyph-name="n" unicode="n" horiz-adv-x="576" 
d="M335 136q-20 26 -32.5 54t-23.5 57l-33 93.5l-33 94.5q-1 3 -1.5 6t-5.5 5q-2 -2 -2 -3q-3 -12 -5.5 -24t-5.5 -24l-15.5 -70l-15.5 -70l-10 -44.5l-10 -44.5q-2 -8 -3.5 -15t-3.5 -15q-3 4 -2 7.5t0 6.5h-1q2 2 3 4q2 3 0.5 6t0.5 7q2 2 2 5t2 6q3 5 2 11t1 11l4 11.5
t3 11.5q0 2 0.5 4.5t-1.5 4.5q0 2 1.5 4.5t3.5 4.5q2 5 2 7.5t-2 13.5q5 2 5 3.5t-3 6.5v-1l2 5q6 1 4 6q-1 3 -1 5.5t4 4.5q1 0 1 3q2 8 4.5 16.5t4.5 17.5q1 4 0.5 8t1.5 8q1 5 2.5 8.5t2.5 7.5q1 3 0 7t1 6q1 3 2 5.5t0 5.5v4.5t4 3.5v2v3q0 2 -0.5 4.5t-0.5 4.5q4 3 4 4
t-2 6q1 1 1 2.5t1 1.5q5 1 5 8l3 20q2 4 2 6q-2 7 -2.5 14t-4.5 14q-2 3 -3 7t-3 9q-1 2 -1.5 4t-4.5 4q-1 -2 -2 -2.5t-1 -2.5q-2 -7 -3 -13t-3 -12l-33 -141q-9 -42 -19 -84t-18 -85q-2 -12 -4.5 -24.5t-4.5 -24.5q-2 -6 -3 -8q-2 -2 -6 0q-3 -6 -5 -12.5t-6 -11.5t-6 -11
t-6 -11q-5 2 -8.5 5t-8.5 4q-2 -5 -3 -8.5t-3 -8.5q-8 3 -14.5 1t-12.5 -3q-2 1 -2.5 2t-2.5 3q-8 8 -10 17t0 20l7.5 37t6.5 36l3 15q0 4 -1 5q-3 5 -2.5 9t1.5 9q6 35 14 68.5l16 67.5q5 17 9 33l8 33q2 5 4.5 10.5t4.5 11.5q3 7 5 14.5l4 15.5q8 26 14 51t14 50
q14 53 36 100q5 12 14 19.5t20 14.5q4 3 22 -1q0 -2 -0.5 -4t0.5 -4q0 -1 1 -2q1 1 2 1t2 1q2 1 3 2t3 0q3 -3 4 -5t1 -7q-1 0 -1 -1v1q2 2 3 2.5t2 2.5h2q2 -3 0.5 -6.5t-0.5 -6.5q2 -5 5 -6q4 -1 6 4h-1q4 -1 5 -3.5t3 -4.5t3 -4t3 -2q7 -1 10 -5t5 -9q23 -44 42 -92
l10 -27t11 -27q7 -14 11.5 -30t12.5 -30q5 -9 8 -18.5l6 -19.5q5 -14 9.5 -28.5l9.5 -29.5q1 0 3 -2q4 1 4 6q2 10 4.5 20t4.5 20q5 24 11 48t11 49l19 75.5l18 75.5l6 21q2 9 6.5 17.5t12.5 16.5q4 0 6 1q4 1 6 9q1 7 10 7q2 -6 7.5 -9.5l10.5 -6.5q0 -7 -2 -14t1 -14
l-2 -2q0 -1 1 -2v1q1 1 1 3q4 6 6 12.5l4 13.5q2 5 3 6l6 6q8 -3 8 -11q-1 -5 -1.5 -9t-0.5 -9q-1 -4 -1.5 -7t-0.5 -6q0 -4 3 -4t5 2q1 2 1 3.5t1 3.5l2 4q2 -3 1.5 -6t0.5 -6q-3 -5 -3 -7t3 -7v14q2 2 2.5 4t1.5 4l2 8t3 9l1 1q1 0 1 -0.5t1 -0.5q0 -1 0.5 -2t0.5 -3
q0 -14 0.5 -28.5t-1.5 -28.5q-2 -22 -5.5 -43.5t-7.5 -43.5q-4 -24 -8.5 -48t-9.5 -48q-8 -44 -17 -87l-18 -87q-8 -37 -15 -74t-15 -74q-11 -62 -27 -120q-3 -11 -6.5 -22t-6.5 -22t-10 -18q-4 -4 -4.5 -9t-2.5 -10t-4.5 -10t-7.5 -9q-2 -4 -5 -4q-4 -2 -8 -3t-6 -5
q0 -2 -3 -2q-9 -2 -17.5 -1.5t-16.5 8.5q-2 4 -3 4q-10 3 -12.5 10.5t-4.5 15.5q-5 16 -5 32t2 33l9 60l12 75q2 8 3.5 16.5t-0.5 16.5q2 5 0 8l-4 6q-2 1 -2 6q-1 2 -0.5 4t-0.5 2q-6 3 -5.5 8t-2.5 10q-3 3 -4 7.5t-1 9.5q0 2 -2 2q0 4 -3 6.5t-1 7.5q-4 2 -3.5 6t-2.5 7
q-2 3 -2 7t-3 6q2 4 -1 6.5t-2 5.5q1 4 -1.5 6.5t-2.5 5.5t-2 6l-4 6t-1.5 6.5t-3.5 5.5h-1q1 1 1 2t1 2q-4 2 -3.5 6t-1.5 7t-2.5 6.5t-2.5 7.5q-2 3 -2.5 6.5t-2.5 6.5q-1 2 -1 6q2 5 -3 8h1q-5 4 -5.5 10t-3.5 11q-2 2 -1 5.5t-3 6.5q-3 3 -5 11q-2 4 -3 7.5t-2 8.5
q0 5 -3 10q-5 8 -6.5 17t-7.5 17q1 7 -3 12q2 5 -1.5 7t-3.5 5q-1 5 -3 9.5t-2 9.5q0 2 -2 2.5t-4 -0.5q-6 -5 -5 -11q1 -3 1.5 -6.5t2.5 -7.5l34 -97.5l34 -97.5l24.5 -66l24.5 -67q2 -8 3 -13zM197 559q-9 -11 -5 -21q3 -7 5.5 -14t5.5 -14q2 -4 5 -3q3 2 2.5 5.5t0.5 6.5
q1 6 -3 12q-2 2 -2 4q0 6 -3 11q-2 3 -3 5.5zM97 177q-1 0 -1 -1h1l1 1h-1z" />
    <glyph glyph-name="o" unicode="o" horiz-adv-x="465" 
d="M78 513q3 1 4 3.5t3 5.5l16.5 30l17.5 30q8 13 17.5 25.5t20.5 23.5l12 10t13 10q4 2 8 3.5l9 3.5q17 5 32 15q2 1 3 2.5t3 3.5h-1q6 0 7 3q6 0 7 4v-1l16 4l16 4q1 1 1 1.5t1 1.5v-1l6 -2t8 0q-2 2 -3.5 3t-3.5 3q5 -2 11 -3t12 -1q5 0 10.5 1l10.5 2q26 3 45 -5
q23 -8 35 -26q12 -17 20.5 -35t12.5 -38q3 -15 5.5 -30.5t4.5 -31.5q2 -12 1.5 -24.5t0.5 -25.5q0 -22 -2 -43.5t-5 -42.5q-2 -18 -4.5 -36t-5.5 -36q-5 -27 -12.5 -53t-17.5 -52q-8 -22 -18.5 -42t-22.5 -40q-1 -2 -1.5 -2.5t-1.5 -2.5q-13 -25 -30.5 -45t-37.5 -39
q-10 -9 -21.5 -14t-23.5 -7q-3 -1 -6 -1t-6 -1q-4 -1 -7.5 -2.5l-8.5 -3.5q5 -3 9 -3.5t18 0.5q-16 -6 -27 -5q-5 1 -11 1.5t-11 1.5q-1 0 -5 -2q3 -4 7 -4.5t9 -3.5q-5 -2 -9.5 -1.5t-8.5 -0.5q-8 0 -15.5 -0.5t-15.5 0.5h-13.5t-12.5 2q-11 3 -17 4.5t-11.5 3.5t-11 6
t-14.5 10q-12 7 -22 19l-3 3q-22 20 -33.5 44.5t-18.5 52.5q-6 22 -7.5 44t-0.5 45q0 23 2.5 45t6.5 45l10 50.5t12 48.5q5 20 13 39.5l16 38.5q2 5 6 10.5t9 9.5h-1v-10q-3 -2 -3 -7q-3 -1 -3 -7q-2 0 -2 -2v-1l2 4q3 1 3 6q4 1 4 7zM149 12l-1 1h1q0 -1 0.5 -1.5t0.5 -1.5
q1 0 1.5 0.5t1.5 0.5l-1 1h-3zM128 422q-3 -3 -4 -6.5t-3 -6.5q-14 -32 -21.5 -65.5t-12.5 -68.5q-2 -11 -2 -22t-2 -22t-2 -21v-21q1 -22 13 -43q2 -5 7 -7q3 -3 5 1q2 5 0 5q-4 1 -4 8q0 9 -0.5 18.5t-0.5 18.5q-1 16 -1 31t2 31q1 12 1.5 24t2.5 23q7 48 18 96
q2 7 3.5 13.5t0.5 13.5q1 0 1 1q0 -1 -1 -1zM365 357v-23q0 -1 -1 -1q1 0 1 1q1 2 2 3.5t1 3.5l4 25l4 25l4 30t2 30q0 20 3 40q1 11 0.5 23t-2.5 24q-2 11 -5.5 22t-5.5 22q-1 7 -10 12l-1 1q0 -1 1 -1q4 -8 5 -12q2 -4 -2 -5q-2 4 -4.5 7.5t-4.5 8.5q-3 4 -5.5 8t-5.5 8
q-7 8 -15 7l-3.5 -9t-6.5 -8l-36 -33q-22 -20 -35 -45q-8 -13 -14.5 -25.5l-13.5 -26.5q-12 -25 -21.5 -50.5t-15.5 -52.5q-5 -20 -8.5 -40.5t-6.5 -40.5q-2 -12 -2.5 -24.5t-1.5 -24.5q-1 -17 0.5 -33.5t3.5 -33.5q2 -18 8.5 -33.5t19.5 -28.5q5 -5 10.5 -8.5t13.5 -3.5
q9 4 20 13q32 25 55 60q11 17 20 35l18 36q3 8 6.5 15t5.5 15q5 20 9 41t7 41zM363 613q-3 16 -15 21q-2 2 -4.5 2t-4.5 1q-2 0 -3.5 -1.5t-0.5 -3.5q2 -5 5 -6q2 -2 5.5 -3t6.5 -3t5.5 -3.5t5.5 -3.5zM206 634q-8 -1 -12.5 -4t-7.5 -8v-5q5 4 10 7.5t10 9.5zM118 76
q3 -10 4.5 -11.5t8.5 -2.5q-3 3 -5.5 6t-7.5 8zM397 641q0 5 -5 5h-2v-2q2 -4 6 -4zM176 8q-6 2 -9 1q-1 0 -1 -0.5t-1 -0.5q0 -1 0.5 -1t0.5 -1q6 -2 10 2zM111 129q-1 0 -1 2q-1 0 -1 -1v-3zM363 324v-1h1zM110 79v2h-1v-1q1 0 1 -1z" />
    <glyph glyph-name="p" unicode="p" horiz-adv-x="488" 
d="M0 97q1 2 2 3t1 3q0 6 -1.5 12t-7.5 12q-2 2 -4.5 5t-5.5 7q-4 4 -4 15v7q-2 9 5 16q7 -2 12.5 -6t13.5 -6q6 6 0 13q-2 2 -4 3.5t-4 5.5q4 -2 7 -2t5 -2q3 5 4 10t3 10q4 16 7 31.5t7 32.5l16.5 69.5l16.5 69.5q2 8 4 17l4 18q5 23 11 47t11 48q1 8 4 16q4 17 8.5 33.5
t12.5 33.5q-1 3 -4 4q-6 7 -11 19q-3 11 0 20q2 5 4.5 7t11.5 6q3 11 15 16l4 2t4 3q5 2 10 3.5t11 1.5q11 1 21.5 1.5t21.5 0.5q6 1 11 -1l10 -4q3 0 9 -2q5 -2 7 2l1 2q6 -2 12 0t11 -1q5 -2 10 -3t10 -3q6 -2 12 -4.5t13 -3.5q50 -16 85 -57q33 -38 53 -79
q7 -14 11.5 -29t7.5 -30q11 -52 8 -102q-1 -17 -4 -33t-7 -33q-9 -33 -25.5 -63t-37.5 -56q-12 -16 -25.5 -30l-27.5 -28q-9 -9 -19.5 -16.5t-21.5 -14.5l-19.5 -12t-20.5 -11q-5 -2 -11.5 -5t-12.5 -5q-2 -1 -6 -1q-5 0 -7 -1q-8 -2 -16 -3l-16 -2q-3 -1 -6.5 -1.5
t-5.5 0.5q-9 4 -18 3t-18 -3q-3 -1 -6.5 -2t-7.5 -1h-8q-3 -2 -7 -2.5t-7 -2.5q-2 -2 -2.5 -5t-0.5 -5l-10 -36.5l-10 -36.5l-8 -27.5t-10 -26.5l-5.5 -9t-7.5 -7q-2 -3 -3.5 -5.5t-3.5 -4.5q-7 -11 -18 -14q-10 -4 -15 -3q-3 1 -6.5 0.5t-6.5 -0.5q-2 3 -3 7.5t-6 6.5
q-4 0 -7 -3q-2 5 -0.5 8.5t2.5 8.5q1 3 1.5 7t1.5 7q1 5 1.5 9t1.5 8q2 5 2.5 8.5t2.5 8.5l2 8t2 9q2 4 2 7.5t1 7.5q0 5 2 8.5t-1 9.5q-4 -12 -9.5 -23t-7.5 -22q-2 -4 -3 -8t-3 -8q-3 7 -2 15q2 8 2.5 15t2.5 15q0 -1 -2 3l-12 -44.5l-12 -44.5q-16 9 -9 28q4 15 7 30.5
t7 30.5q3 14 6.5 28t7.5 28q1 8 3 15.5t1 15.5v-1q3 3 3 6v7zM389 548q-1 0 -1 1q0 -1 1 -1l1 -1zM191 432v1q0 -1 1 -1q-2 -9 -3 -18.5t-3 -19.5l-4 -22.5l-4 -22.5q-4 -20 -7 -40.5t-7 -40.5l-9.5 -45.5l-9.5 -45.5v-6q2 0 3 -0.5t3 0.5l39.5 10t37.5 14q13 7 25 14.5
t23 18.5q17 19 32 38q9 11 16.5 22.5t13.5 25.5q11 24 10 46q-1 7 -1.5 14.5t-0.5 14.5q-3 34 -14 71q-5 16 -11 30t-15 27q-8 9 -14.5 18.5t-13.5 17.5l-7.5 9t-8.5 7q-12 8 -24.5 14t-26.5 12q-4 2 -10 -2q0 1 -0.5 2t-0.5 2h-3q-1 -1 0 -2l3 -3q2 -4 2 -6
q-2 -6 -2.5 -11.5t-1.5 -11.5q2 0 2.5 0.5t2.5 0.5q1 -3 1.5 -5t0.5 -5q4 -1 4 -3.5v-4.5q-2 -14 -2.5 -28.5t-2.5 -28.5q-2 -10 -3.5 -19.5t-4.5 -19.5q-1 -5 -1.5 -9.5t-3.5 -8.5zM412 332q2 3 4 5q1 2 0.5 4t1.5 3q3 4 3.5 8.5t1.5 7.5q2 5 3 8.5t1 8.5q2 14 0.5 27.5
t-4.5 27.5q-2 9 -2.5 14t-2 8.5t-3.5 7.5t-6 11q0 4 -3 3q2 -16 2.5 -32t2.5 -32q0 -6 1 -10q1 -11 1 -21.5t-2 -21.5q-3 -11 1 -27zM226 92h-3v-1h3v1zM3 8l-1 1q-1 -1 -1 -2t1 -1q0 1 0.5 1t0.5 1zM429 431l-1 1h-1v-3zM409 325q0 1 0.5 1t0.5 1l-1 -1v-1zM5 18v1v-1z" />
    <glyph glyph-name="q" unicode="q" horiz-adv-x="473" 
d="M121 -49q-4 2 -7 2t-6 -0.5t-8 -0.5q2 4 1 6q0 1 -4 3h-8q-2 6 -4 14q-1 2 -3 4t0 5q1 2 2.5 2.5t3.5 2.5q1 2 1 4t1 5q1 1 2.5 1.5t3.5 2.5q7 4 2 11q-3 3 -7 5q0 5 4 7q4 3 12 7q4 2 7.5 4l8.5 5q-2 2 -2.5 3t-2.5 2q-8 5 -16 9t-18 6q-23 7 -34 26q-4 6 -9 10
q-14 14 -22 35q-5 17 -9 34.5t-7 34.5q-7 42 -1 88q2 11 2 21t2 21q2 16 5 32t8 32l10.5 34.5t13.5 34.5l18 41.5t20 41.5q31 61 81 111q2 2 4.5 3.5t4.5 3.5q1 0 1 -1q0 1 -1 1q7 9 14 10q1 -3 3 0q7 2 8 3q20 9 41 15.5t43 9.5q17 2 35.5 2.5t35.5 -6.5q16 -6 30.5 -13.5
t28.5 -18.5q7 -5 11.5 -11l9.5 -13q16 -26 24 -54.5t11 -59.5q2 -16 3 -32t-1 -32q-2 -19 -2.5 -38t-2.5 -39q-3 -25 -8.5 -49t-12.5 -48l-14 -45t-17 -44q-5 -11 -10.5 -21.5t-12.5 -20.5l-6.5 -10.5l-6.5 -10.5q-12 -17 -26 -32t-30 -29q-4 -2 -7.5 -4t-7.5 -4
q-5 -3 -9 -7t-6 -9q3 -4 8 -5t10 -3q17 -4 36 -15q15 -8 33 -23q-4 -2 -5 -3q-1 3 -4 4v1h-1q1 0 1 -0.5t1 -0.5l3 -3q4 -5 8 -9.5t8 -9.5q-2 -3 -3 -2t-3 2q-2 0 -3 0.5t-3 0.5q-2 1 -3.5 0.5t-3.5 -0.5q-4 -2 -7 -4l3 -3t3 -2q4 -2 7.5 -4t7.5 -4q7 -4 4 -11q0 -2 -4 -8
q-7 3 -12.5 7t-13.5 5q1 -2 1 -3t1 -2q4 -2 7.5 -4t6.5 -4q2 -2 4 -6v-1q-2 -2 -3 -1q-2 0 -2.5 1t-2.5 2q-4 2 -7 3t-8 1q2 -4 4 -7t4 -7q-3 -3 -6 -5t-7 -4q-9 7 -19 11.5t-22 2.5l-1 1l1 -1q2 -4 3 -7v1q-3 0 -5 1q-25 16 -57 16h-60q-13 0 -25 -2l-24 -4q-5 0 -8 3
q-2 2 -5 0.5t-5 2.5v-1zM181 168q5 -6 8 -13t11 -11q40 -3 69 20q9 7 17 14.5t14 16.5q20 27 35.5 56.5t24.5 61.5l6 21q7 25 11.5 49.5t4.5 50.5v9q6 45 0 92q-2 19 -9.5 34.5t-18.5 29.5q-11 15 -28 12q-15 -2 -29 -7t-26 -14q-14 -10 -26 -21.5t-22 -25.5
q-4 -5 -7.5 -10.5t-8.5 -11.5q-23 -33 -34 -74q-3 -9 -3 -17q1 -10 -2 -23l-4 -18l-4 -18q-5 -18 -8 -36l-6 -36q-2 -11 -2 -23t-1 -24q-2 -15 0.5 -29.5t7.5 -28.5q10 -25 31 -43q2 -2 2 0q-1 5 -1 8.5t-1 8.5h-1zM430 598q1 -11 1.5 -17.5t2 -11.5l3.5 -11.5t7 -17.5
q2 19 -1 32t-13 26z" />
    <glyph glyph-name="r" unicode="r" horiz-adv-x="522" 
d="M312 663q-3 3 -4 2q-2 0 -3 -1t-3 -1q-4 -2 -7 -3q1 2 1 4q2 3 1 5.5t-3 1.5q-8 -1 -14.5 1.5t-13.5 4.5l-23 4t-25 3q-12 1 -24.5 2.5t-26.5 5.5q5 1 8 1t6 1q3 0 5 3q1 3 3 3h4q10 -2 19 -2.5t19 -0.5v-6q5 0 8 1q7 2 13.5 1.5t14.5 -1.5l16 -4t16 -1q4 -4 8 0h-9
q-3 3 -4 3q-11 2 -22 5t-22 3q-5 -1 -8.5 0.5t-7.5 3.5q10 1 19 1h18q39 2 77 -6q30 -7 55.5 -21t45.5 -37q12 -14 20.5 -28t12.5 -32q1 -4 2 -7.5t6 -5.5l16.5 -35.5t13.5 -36.5q2 -11 2 -22t-2 -22q-3 -17 -9.5 -33t-15.5 -31l-20 -31.5t-22 -29.5q-31 -36 -67 -67
q-32 -29 -68 -52.5l-73 -46.5l-32 -19.5t-32 -20.5q-7 -3 -13 -9q2 -2 2.5 -3t2.5 -2l37 -23.5l37 -23.5q6 -5 12.5 -8.5l13.5 -7.5l48 -29.5l49 -28.5l18 -12t18 -13q8 -8 17 -13.5l18 -11.5q6 -4 7 -5q1 0 1 -3l-1 -1q-1 0 -1 -1q-7 0 -10 1t-5.5 2.5t-6.5 1.5
q2 -5 6 -6.5t6 -3.5q3 -2 5.5 -5t5.5 -6q-4 -2 -5 -4q-8 -11 -20 -5q-2 2 -4 0l-2 -1q-2 -3 0 -5t5 -3.5t5 -3.5q1 -1 1 -6q0 -2 -2 -3t-4 -1q-10 4 -14 5q-2 -1 -2 -5q-1 -7 -6 -7q-8 2 -16 1.5t-16 -2.5q-3 1 -9 5q-5 3 -10.5 4.5t-11.5 -0.5q-7 -3 -11 5h-1h7h1h-1
q-1 2 -7 4h1q-4 4 -7 0q-12 2 -17 10l4 2h-2l-2 -2q-4 0 -8 2q-23 13 -46.5 25t-46.5 27l-32 21.5l-32 21.5q-5 3 -9.5 6t-9.5 5l-5 -5l-2 -6l-2 -6q-2 -10 -5 -20t-10 -18q-2 -3 -3.5 -6.5l-3.5 -8.5q-4 3 -7 6t-7 6q-2 -5 -4 -9t-4 -9q-2 0 -5 0.5t-5 0.5q-2 -1 -3.5 -2
t-3.5 -2h-13q-1 2 -5 8q-3 -2 -7 -4q-7 3 -5 13q2 5 2.5 9t2.5 9q1 5 1.5 8.5t-0.5 8.5q-3 -1 -3 -2.5t-1 -3.5t-3 -8q-5 1 -5 7q-1 4 -1 10q1 8 0.5 14t-4.5 13q-3 4 -1 13q2 7 2.5 14t2.5 14q2 8 -5 12q-7 5 -12.5 11t-7.5 15q2 2 2.5 5t2.5 6q-2 6 -4 9q-3 8 -3.5 14.5
t5.5 13.5q2 2 1 4.5t-1 6.5q2 2 4 3.5t4 3.5t3.5 4.5t3.5 5.5q3 -1 6 -1t5 -1q2 0 2.5 0.5t2.5 0.5v2v4l2 1q11 0 13 13q2 8 3.5 16t2.5 16q10 60 23 118l27 116q8 26 15 53t15 53q2 8 5 14.5t8 12.5q3 3 6.5 4.5t5.5 4.5q9 13 25 9q1 -1 3 1q3 3 7 -1q2 -2 6 0q9 1 14 -8
q2 -3 3.5 -6.5t3.5 -6.5q2 -2 2.5 -5.5t1.5 -6.5q2 1 3.5 1t3.5 1q2 -6 5 -11.5t1 -12.5q0 -2 1 -3q5 -6 5 -13t-2 -14q-6 -50 -18 -100q-4 -18 -7 -35.5t-7 -35.5q-2 -6 -2.5 -12t-2.5 -11q-1 -5 -1.5 -8.5t0.5 -8.5q0 -3 -1 -6.5t-2 -7.5q8 2 9.5 3.5l6.5 6.5q8 1 13 5
t10 9q1 1 0.5 1.5t0.5 1.5h-1q5 0 7 1q14 9 29 20q3 1 5 6q10 2 15 7q8 7 16 13l16 12q14 11 26.5 22.5t23.5 24.5q3 3 5.5 6t3.5 8q-4 2 -5 2h1q4 6 7 9q6 6 5 13q0 5 0.5 9.5t0.5 9.5v-1q3 2 0 4q6 24 -9 48q-8 13 -18 23t-21 19q-21 15 -44 26t-49 16q-14 3 -26.5 6
t-26.5 6q-3 0 -7 3q6 2 10 4q-5 1 -9.5 1t-8.5 1q-9 0 -14 8q-2 2 -2.5 4.5t-2.5 4.5q2 5 7 5q9 0 14 4q5 5 13 3h27q2 0 3.5 0.5t3.5 -0.5q13 -2 25.5 -2.5t25.5 -2.5l25 -4l24 -4q1 0 1.5 0.5t1.5 0.5q-3 5 -7.5 5.5t-8.5 2.5q1 2 1 2.5t1 2.5l1 -1h-1zM424 630h-1h1l1 -1
zM366 606q-1 0 -1 1l1 -1q1 0 1 -1zM275 292l3 3h1l1 1q-1 0 -1 -0.5t-1 -0.5q-2 -2 -3 -4q-1 0 -1 -1q0 1 0.5 1t0.5 1zM275 302l1 1l-1 -1q-1 -2 -3 -4q-8 0 -11 -6q-10 -4 -14 -7l-28.5 -18l-29.5 -19l-9 -6q-6 -6 -1 -13q2 2 5 3t5 3q5 3 9.5 6.5l9.5 7.5l24.5 18.5
l24.5 18.5q2 1 2.5 2t2.5 3q6 2 9 7zM187 329q-1 -1 -1 -1.5t-1 -1.5v-1l2 4l1 1zM217 481q0 -2 -2 -2v-2l2 1v3l1 1q0 -1 -1 -1zM430 619q0 1 -1 1h2v-4t3 -3q0 -2 0.5 -2.5t0.5 -1.5t3 -1v1l-1 1l-3 3q0 5 -4 6zM339 650l2 -2q1 0 2 1h-1q-1 1 -3 1l-2 2q-1 -1 -2 -1
q1 0 1 -1h3zM309 673l-1 1h1q1 -1 1 -1.5t1 -1.5l1 1q-1 0 -1.5 0.5t-1.5 0.5zM292 -94l1 -1l-1 1q-1 1 -1.5 1t-1.5 1h-1q1 -1 2 -1t2 -1zM275 -84q-1 0 -1 1l1 -1l2 -2h2zM359 650q2 -2 3 -2h1q-1 1 -2 1t-2 1q-2 5 -6.5 8t-9.5 5q-4 2 -5 -3l10 -6t11 -4zM385 -109
q0 -4 3 -4.5t5 -2.5q2 -1 3.5 0t1.5 3q0 3 -2 3q-6 5 -11 1zM492 434q8 6 4 15q-3 -8 -4 -15zM222 508q1 4 1.5 5t0.5 2q0 2 -0.5 4t-0.5 6q-1 -4 -1.5 -5t-0.5 -3q0 -4 1 -9zM330 666q0 1 -1 1l-4 2l-1 -1q0 -2 1.5 -3t3.5 0q1 0 1 1zM181 658q0 -1 -2 -3q1 0 1.5 -0.5
t1.5 -0.5q3 0 2 3h-1q-1 0 -1 0.5t-1 0.5zM293 680l1 1q-1 1 -3 1v-1zM316 681q1 0 1.5 0.5t1.5 0.5l-1 1h-3q1 -1 1 -2zM26 -12v-1l1 -1v2h-1zM213 692h1l1 1zM363 659l-1 -1h1v1zM194 656q-1 0 -1 -1h2q-1 0 -1 1zM373 622v-1h1zM221 503h-1q1 0 1 -1v1zM209 436v1h-1z
" />
    <glyph glyph-name="s" unicode="s" horiz-adv-x="522" 
d="M353 530q1 -1 2 -1t3 -1q-8 -9 -16.5 -16.5t-16.5 -15.5q-22 -20 -42.5 -41t-38.5 -44l-29.5 -38.5l-28.5 -39.5q-2 -2 -3 -5t-3 -5q1 -6 9 -8q12 -6 24 -11l25 -10q22 -11 42 -23t38 -28q5 -5 11 -9q5 -5 6 -8q7 -12 14 -18q11 -9 20 -23q5 -8 10 -14t11 -12
q18 -23 21 -50q2 -10 2 -17q2 -22 -13 -34q-5 -5 -7 -10.5t-6 -10.5l1 1q-4 -4 -4 -5t4 -6h-1q-1 -6 -5.5 -10t-9.5 -7q-7 -5 -14 -9.5l-15 -9.5q-4 -1 -4 -7q-4 2 -8 1q-3 -1 -4.5 -2.5t-5.5 -6.5q5 3 10 3.5t8 4.5q3 2 9 4t8 3q-23 -24 -56 -30l-21.5 -2t-21.5 0h-15
q-27 -2 -53 1.5t-52 10.5q-10 2 -19.5 5t-20.5 6l2 4l-3 3q-12 8 -25 13l-27 10q-3 2 -6.5 3.5t-6.5 4.5q-1 2 -3.5 2.5t-4.5 2.5q-8 4 -16 7.5t-15 8.5l-4 4q2 1 3 1t2 1q3 -4 10 -4q2 0 2 -2q1 0 1.5 0.5t1.5 0.5q-1 0 -1 0.5t-1 0.5h-3q-2 3 -4.5 3t-5.5 1q-4 2 -7 5
t-7 6q3 2 6 -0.5t7 1.5q-4 3 -8.5 5t-9.5 4q-8 4 -11 6q-4 6 -1 10q4 1 6.5 -1.5t6.5 -4.5l15 -6q4 -1 7.5 -2.5t8.5 -1.5q-2 3 -3.5 4.5t-2.5 3.5q-1 5 -3.5 7t-5.5 4q-5 3 -9.5 6t-9.5 7q2 3 4.5 1.5t4.5 0.5t3.5 2.5t3.5 2.5h4q3 1 3 1.5t-2 5.5q2 2 4.5 0.5t4.5 -0.5
q2 2 4 3t5 0t10 -1q16 -2 32 -2.5t32 -2.5q7 -1 13.5 -1.5t12.5 -1.5q8 -2 15 -2h15h53q34 0 67 6q4 0 7 5l-5 5q-21 15 -44 27.5t-49 20.5q-27 8 -53.5 17.5l-52.5 18.5q-26 11 -48 33q-18 18 -10 44q1 5 3 10.5l4 10.5q-2 1 -3 1t-3 1q1 3 0 6t-3 7q-3 6 -3 12
q-4 14 -2.5 27t6.5 26q3 11 6.5 20.5t9.5 18.5q1 2 1 3.5t2 2.5q9 7 13 21q1 2 2 2.5t2 1.5q8 8 13.5 16.5t10.5 18.5q-2 3 -0.5 4.5l3.5 3.5q9 5 14 13t8 18q0 4 2 4q5 2 7 7t7 9q5 7 11 13l12 12q37 39 81 69l19 13.5t19 12.5q19 12 38.5 21.5t41.5 14.5q2 1 4.5 1t4.5 1
q1 0 1.5 -0.5t1.5 -0.5q-2 -2 -2.5 -3t-1.5 -2q-6 0 -7 -3l-1 -1l1 1q6 0 7 3q5 -1 9 0.5l9 3.5q26 11 60 6q16 -2 31 -6t29 -11q13 -8 21 -16q-1 -4 -1 -12q2 -1 3.5 -2t3.5 -3q27 -19 24 -48h-1q0 1 -0.5 1t-0.5 1q-6 4 -6 0q-2 -5 -2.5 -9t-5.5 -7l-1 1l1 -1
q-1 -2 -1.5 -5t-2.5 -5q-1 -2 -3.5 -3.5t-4.5 -3.5q2 -4 3 -8t3 -9q4 -10 0 -24q-2 -5 -4 -6t-9 2q0 2 0.5 5t0.5 6q1 6 -3 9l-4 4t-6 -1h-2l-3.5 3.5t-3.5 1.5q-9 0 -11 5q-10 11 -25 4q-12 -6 -24.5 -11.5t-24.5 -13.5q-4 -3 -7.5 -5t-7.5 -4h1q-9 -1 -17 -9
q-1 -1 -1.5 -2t-2.5 -2h-2q-1 0 -1 -0.5t-1 -0.5l2 -1l2 2q1 2 2 2.5t2 1.5zM373 17q1 2 3 4l1 1v-1l-4 -4q0 -1 -1 -1zM506 628v-3l1 -1l1 2l-2 2q0 2 -1 3l-1 1v-2zM418 648l1 -1h-1q-5 3 -6 3t-5 -2h11zM492 598h1h-1q1 1 1 3q2 3 0 6t-3 1q-2 -2 0 -8zM187 349
q-9 -5 -11 -16q-1 -1 -2 -1.5t-2 -2.5v-4q1 1 1.5 1t1.5 1q1 2 1 3t1 3q10 5 10 16q7 2 11 13q15 11 19 30l1 1v-1q-7 -7 -13 -14t-8 -15q-3 -2 -5.5 -4t-4.5 -4q-1 -1 -0.5 -2.5t0.5 -3.5zM10 326q8 0 9 6q-6 13 -7 18t0 19q-4 -2 -4.5 -4.5t-1.5 -5.5q-1 -4 -1 -10
q0 -1 2 -3q6 -7 -2 -10q-2 0 0 -4q1 -2 5 -6v-1v1zM428 615l1 -1q-1 0 -1 1q-11 20 -38 22h-2q-6 2 -10.5 0.5t-9.5 -3.5q-16 -7 -29 -22q-1 0 -1 -3q3 -2 10 0q5 2 11 3.5t12 1.5q13 1 25.5 1t25.5 -2q2 0 6 2zM451 613q-8 8 -14.5 15.5t-20.5 8.5q8 -6 15 -12.5t15 -12.5
h1q1 0 4 1zM461 634q3 -6 4.5 -10t3.5 -8q2 -7 6 -7q2 0 2 3t-2 7t-4.5 8t-9.5 7zM18 317q-1 1 -2 1v-1h2zM120 -11l-1 1v-1h1zM333 616v1l-2 -1h2zM50 398l-1 1v-1h1z" />
    <glyph glyph-name="t" unicode="t" horiz-adv-x="582" 
d="M568 635q-2 -4 -3 -4q-3 -2 -5.5 -2t-6.5 -1q2 -8 3 -13q3 3 4 5q4 -1 7.5 -1t7.5 -1q-1 -2 -2 -2t-3 -1h-5l2 -2q9 0 17 -6q-1 -7 -5.5 -11t-10.5 -7q0 1 -1 1h1q-4 -11 -12 -15.5t-18 -7.5q-5 -1 -10 -1t-10 -1q-5 0 -7 1q-6 5 -12.5 4t-14.5 -1q-8 -1 -14.5 -1h-14.5
l-21 -3l-25 -4t-25 -3l-30 -3q-9 -2 -18 -2t-18 -1q-10 -2 -7 -9q4 -13 5 -25.5t0 -24.5t-1.5 -24.5t-2.5 -24.5q-4 -23 -7.5 -46t-8.5 -46q-5 -22 -11 -44t-11 -44q-11 -38 -21 -76.5t-22 -76.5q-5 -14 -10 -26.5t-10 -26.5q-3 -8 -6.5 -16.5t-6.5 -16.5l-2 -4t-3 -4
q-2 1 -4 1q-1 -2 -2 -4.5t-2 -4.5q-2 -8 -6.5 -12l-10.5 -9l-8 -6l-8 -6q-5 -3 -10 -4.5t-10 -3.5q-2 5 -0.5 9t2.5 8q0 5 2 9t-1 9q-2 -4 -4 -7.5t-4 -7.5l-1 1h1q-1 -3 -1 -5.5t-2 -4.5l-5 -5t-5 -7q-2 -1 -3.5 2t-3.5 1q-4 -2 -4 0.5t-2 3.5q-2 -1 -3.5 -3t-5.5 1
q-2 1 -6 1q-9 0 -10 6q0 3 -3 3q-5 0 -6.5 3t-2.5 7q-2 0 -3 -0.5t-3 0.5q-1 0 -1 4l2 8t2 9q0 5 -6 7h-4q-4 0 -4 3q2 7 0.5 13t-1.5 11q0 1 2 3q0 -2 1 -3q0 -1 1 -1q-2 2 -2 4q3 19 8.5 37.5t10.5 37.5l22 77l22 77l21 75l20 75q7 24 13 48.5t10 48.5l3 12q3 10 -8 10
q-21 1 -42.5 2.5t-44.5 0.5q-8 0 -15.5 1t-15.5 3q-5 2 -8.5 2t-8.5 1t-8.5 2t-7.5 4q1 1 1.5 2t1.5 2q-3 3 -6.5 1.5t-8.5 1.5q-1 2 -2.5 4.5t-3.5 4.5q-2 5 -3 8t3 7t2 11q-1 2 -1 3.5t-1 4.5l13 9.5t14 5.5q4 2 7 2q17 2 25 15q1 2 5 4q-2 1 -4 1t-3 2q-3 5 -9 3
q-3 -2 -6 -1.5t-6 -1.5q-10 -3 -16 5v-1q2 1 3 2t3 1q10 0 19.5 2t18.5 5t20 3q8 1 15.5 1.5t15.5 1.5q7 1 13.5 1h13.5q-2 3 -4 3h-4h-16t-16 1q1 4 6 4q11 3 22.5 4l22.5 2q19 1 37 1t36 1q6 1 12 1.5t12 0.5t12.5 0.5t13.5 0.5q8 0 16.5 0.5t16.5 1.5q18 2 37 0
q13 -1 25 0q4 1 11 1q31 0 56 7q13 3 27 3q8 0 15.5 1t15.5 1q6 0 12 -1t12 -1q10 0 21 -6q-4 -2 -7.5 -3t-8.5 -2q27 -2 44 -14q-2 -5 -7 -4.5t-6 -4.5q5 -2 10 -3.5t11 0.5q2 0 4 -2l1 -1q0 -2 -0.5 -3t-0.5 -3q-8 -2 -15.5 1t-15.5 -2q3 -2 5.5 -2.5t4.5 -2.5
q-4 1 -8.5 1t-9.5 -2q6 -1 10.5 -2t8.5 3q1 -1 4 -1q2 -5 4 -4q2 0 2.5 1t2.5 2q1 -1 9 -5q-5 -2 -9.5 -2h-8.5h-15q-2 -1 -5 -4q-1 -4 4 -4q5 -1 9 -1.5t9 -0.5zM452 696h-13q-1 0 -7 -2q0 -1 -1 -1q1 0 1 1h13q5 0 7 2q2 0 4 0.5t4 0.5q-5 2 -8 -1zM289 680
q-8 -1 -15 -0.5t-15 -1.5q12 -2 26 0q2 0 4 2q7 1 13.5 0.5t12.5 1.5q0 1 1 2q-9 0 -13 -1q-2 0 -3.5 0.5t-3.5 -0.5q-4 -2 -7 -3zM371 684q-14 3 -19 2.5t-10 -2.5h29zM503 696q-11 6 -22 2q6 -2 7 -2h15zM520 675q6 1 9.5 1t6.5 1v2q-4 1 -7.5 1t-8.5 -5zM249 679h-8
q4 -3 8 0zM414 689h-2q0 -1 2 -1q1 0 2 1h-2zM324 686l-1 -1h1v1z" />
    <glyph glyph-name="u" unicode="u" horiz-adv-x="579" 
d="M204 679q7 -2 9 -7q1 -3 -1 -9l-18 -54l-6 -21q5 -2 7 0t4 3q6 2 8 -4q1 -7 0 -13t-3 -12q-7 -20 -13 -39.5l-12 -39.5q-13 -38 -23 -77.5t-18 -79.5q-5 -24 -9 -47.5t-7 -46.5q-1 -7 -1.5 -14.5t-0.5 -14.5q0 -5 1 -7q4 0 5 1q6 8 10 12q0 11 3 22t1 22q1 2 2 3.5t1 3.5
q3 18 6.5 35.5t7.5 35.5q4 13 5 22q1 4 1 6.5t1 5.5q-2 0 -3 -0.5t-3 -0.5v3q8 4 9.5 10t3.5 12q4 23 12 47q1 2 2 3.5t2 3.5q-1 -5 -1.5 -10t-1.5 -10q-5 -24 -9.5 -48t-9.5 -48q-5 -23 -8 -45l-6 -45q-1 -2 -0.5 -2.5t0.5 -2.5q4 -1 5 1t3 4q14 17 26.5 35l25.5 35
q2 4 5 6.5t5 5.5q1 0 1 -1l-1 1q2 2 3.5 5t3.5 5q1 -3 3 0q1 1 2 1.5t2 2.5v-1l31 45q15 24 32 47l34 46q10 12 18.5 26t17.5 27l25 37.5l25 37.5q7 9 14.5 17.5l15.5 17.5q4 5 7.5 10t5.5 11q5 11 12 20.5t18 14.5q5 -2 4 -5t0 -6l8 -2l8 -2q5 -8 2 -14t-1 -13q3 4 3.5 8
t2.5 8l6 18q2 5 4.5 8.5l5.5 7.5q8 -1 14 -4.5t11 -8.5q2 -1 4 -5t1 -9t4 -8q4 -3 3.5 -7t0.5 -8q-1 0 -1 -1v1q3 -3 3 -4q-2 -7 -1 -14t3 -14q2 -6 -1 -9q-1 1 -2 1.5t-2 1.5q0 1 -1 1q1 0 1 -0.5t1 -0.5v-3q-5 -1 -6 -4t-1 -7q-2 0 -2 -2v-1q1 0 1 1q1 1 0.5 1.5t0.5 1.5
q4 6 6 10h4q-1 -13 -4 -25.5t-5 -25.5q-5 -20 -9 -38t-8 -38q-3 -17 -5.5 -35.5t-5.5 -35.5q-4 -23 -7.5 -45.5t-8.5 -44.5l-6 -34l-6 -34l-6 -26t-5 -26l-21.5 -92l-21.5 -92q-3 -17 -8 -35q-4 -21 -23 -35h-2q0 8 2 15.5l4 14.5q2 8 3 15.5t3 15.5t3.5 15.5t3.5 15.5
q-5 -2 -5 -3q-4 -8 -5 -12l-1 1l1 -1q-1 -4 -0.5 -7.5t-3.5 -6.5q0 1 -1 1h2q1 -8 -2.5 -15t-3.5 -15q-4 -3 -2.5 -8t-2.5 -7h-1h1q-2 -6 -4 -10q0 -4 -2 -8q-1 -6 -2.5 -7.5t-7.5 -1.5q-1 1 -3 1q-4 -4 -6 -7q-2 4 -4 6q-3 -3 -4 -5q-2 -6 -7 -6t-8 6h-1q-2 -2 -3 -4t-4 -1
q-5 0 -7 8q-13 -4 -24 4q-16 10 -12 29q3 13 5 26.5l4 26.5q0 4 -2 5q-3 -2 -2.5 -5t-0.5 -5q-1 -1 -1.5 -1t-1.5 -1q-2 2 -2 4q-1 2 -0.5 3t0.5 3q2 6 2 8q1 2 0.5 4t-0.5 4q-3 0 -3 -2q-4 -9 -5 -17q-6 2 -4 9l4 22l4 22q1 5 1.5 9t1.5 8q1 3 0.5 5.5t-0.5 5.5
q-4 -4 -4.5 -8.5t-2.5 -9.5q-4 4 -1 9q2 9 3 18.5t4 19.5q3 8 4.5 17.5t3.5 18.5q2 7 3 13t3 12q1 5 1 8.5t1 8.5q2 2 2 4q-1 7 1.5 12.5t4.5 10.5q1 2 1.5 5t-1.5 6q-1 0 -1 3q6 6 7.5 15t2.5 17v1v-1q-5 -2 -7 -4v11h1q0 1 1 1q-2 0 -2 -2l-11.5 -14t-10.5 -16l-16.5 -24
t-16.5 -25q-4 -4 -7 -8t-4 -9h1q-1 0 -1.5 -0.5t-1.5 -0.5q-15 -17 -21 -34q-6 -2 -9 -6.5t-5 -10.5h1q-3 -3 -4 -7q0 -1 -1 -1l1 1h4h-1q0 -6 -6 -7q-8 -3 -11 -7.5t-5 -13.5q0 -4 -4 -6l-2 1q0 -1 0.5 -1t0.5 -1q-4 -4 -6 -5q-1 -1 -2.5 -1.5t-1.5 -1.5q-2 -9 -9 -13.5
t-12 -10.5q-3 -5 -7 -7.5l-9 -5.5h-1l1 1q9 -1 17 5q11 7 20 16t17 19q3 4 6.5 7.5l7.5 7.5q-1 -1 -1 -4q-12 -18 -26 -33.5t-31 -28.5q-9 -9 -21 -12q-7 -3 -14 -8q-3 -2 -5.5 -4t-6.5 -3q-13 -5 -27 -6t-28 5q-5 3 -9 3q-12 1 -22 13q-2 2 -4.5 4t-5.5 5l1 1q0 1 -0.5 1.5
t-0.5 1.5v-1q2 5 -1 7q-2 2 -4 3q-3 3 -5 -3q-4 2 -6 6l-4 8q-4 9 -7 19.5t-3 21.5t-0.5 21t-2.5 20q-2 8 -1.5 14.5t5.5 13.5q1 3 0 6q-1 2 -1.5 3.5t1.5 3.5t2 4q1 11 1.5 22t2.5 23q2 16 2.5 32t4.5 32q0 5 3 10q4 2 2 7q-1 4 0.5 6.5t2.5 5.5l9.5 45.5l9.5 45.5
q2 8 3.5 16t3.5 16l12 50t14 50l13.5 40l12.5 40q4 13 7.5 18t15.5 17q1 0 3 -5q-3 -2 -3 -7l-2 -2q-1 0 -1 -2l2 1v3q4 1 4 7q5 -2 6.5 -1.5t3.5 2.5q4 6 7.5 12.5t7.5 12.5q1 2 5 4q8 1 15 1.5t15 -3.5q-1 -4 -1.5 -7t-1.5 -8q5 2 6 6t6 6q0 -2 2 -4q-4 -1 0 -4v1
q0 -2 -0.5 -4.5t-0.5 -4.5q0 -1 3 -1q3 2 2.5 5t-1.5 5zM187 108q2 2 4 3l1 1l-1 -1q-2 -2 -4 -3v-1v1zM293 253l1 1q0 -1 -1 -1q0 -1 -1 -1q1 0 1 1zM351 298l3 3q0 1 1 1l-1 -1l-3 -3l-1 -1zM303 270q-3 -2 -3 -7q0 -1 -0.5 -1t-0.5 -1q0 1 0.5 1t0.5 1q3 1 3 8q2 2 4 3
q2 4 3 7q7 1 7 9l4 4q7 8 13 17.5t11 20.5q5 4 7 10q5 6 9.5 13t5.5 16q2 1 4 3q1 1 1 1.5t1 1.5v1q-1 -1 -1 -2t-1 -2l-3 -3q-8 -5 -11.5 -12.5l-6.5 -14.5q-6 -4 -7 -11q-7 -7 -12 -15.5l-10 -17.5q-1 -2 -1 -5q-1 -1 -2 -1.5t-2 -2.5q-6 -3 -6 -10q-3 -2 -3 -7zM197 654
l2 2v3h-2q-1 -1 -1 -2q1 -1 1 -1.5t1 -1.5q-4 -3 -4 -7q-1 -2 -2 -3t-2 -3l1 -2h1q1 0 1 1q0 2 0.5 3.5t0.5 3.5q3 3 3 7zM187 622q-2 -2 -2 -5q-1 0 1 -2l2 2q0 4 -1 6q1 0 1 1q0 -1 -1 -2zM133 650q-6 -5 -6 -16q-1 -1 -1 -2v2q7 5 7 17q1 0 1 1q0 -1 -1 -2zM322 49
q1 1 1 2t-0.5 1.5t-0.5 1.5q0 -1 -0.5 -1.5t-0.5 -1.5q0 -2 1 -2zM191 632q0 1 -1 1v-1l1 -1v1zM570 618v2h-1q0 -1 1 -2zM117 606l1 -1l1 1h-2zM187 580v-1h2z" />
    <glyph glyph-name="v" unicode="v" horiz-adv-x="527" 
d="M96 6q-1 -1 -2 -1.5t-2 -1.5q-1 0 -5 -2q-8 2 -13 4q-2 3 -4 5.5t-4 6.5q-2 3 -2.5 6.5t-1.5 6.5q-3 6 -8 4q-3 0 -7 -2q-7 -3 -6 -9q0 -1 -2 -3q-9 6 -14.5 13.5t-10.5 16.5q-6 12 -10 24t-5 26q-2 23 -2.5 46t1.5 46q2 16 1.5 31.5t0.5 31.5q1 19 1.5 38t2.5 39
q2 26 3.5 52.5t3.5 53.5q2 32 2 63t1 63v51q0 27 6 54q1 2 1 5q3 8 6 11t13 6q4 -2 8.5 -4.5t6.5 -7.5q1 -2 3 -1.5t3 2.5t1 3.5t1 3.5q0 3 1 5q0 3 1 5h10q2 -5 3.5 -8l3.5 -7q2 -1 8 -3q1 -5 4 -12q4 6 5 12.5t9 9.5q7 -3 7 -12q0 -11 2 -21l4 -21t2.5 -21.5t2.5 -21.5
l2 -12.5t3 -12.5q2 -5 2 -11t1 -11q0 -4 5 -3q-1 6 -1 12.5t-1 13.5l-3 27v13t-1 13t-2.5 14t1.5 15q3 -14 6 -26t5 -24l6 -37.5t5 -38.5l4 -46t3 -46q0 -20 1 -38.5t1 -37.5q-1 -8 -1 -16v-16q0 -2 -0.5 -3.5t2.5 -2.5l5 5q8 14 15 28l15 29l27.5 52l27.5 52
q9 18 19.5 35.5l21.5 34.5l20.5 33l20.5 33l27.5 44l27.5 44q7 10 15 15l9 5.5t10 3.5q3 2 6.5 5t7.5 6q7 7 15.5 10.5t18.5 5.5q2 1 6 -1q3 -3 6 -2q3 2 5.5 0.5t5.5 -2.5q10 -2 13.5 -9t5.5 -15q1 -2 0 -4t-1 -4l-4 -11.5t-2 -11.5q0 -3 -2 -7l-14 -27.5t-15 -26.5
l-25 -40t-23 -41l-27 -47.5l-29 -46.5q-26 -38 -48.5 -78.5t-43.5 -82.5l-37 -72.5l-37 -73.5q-8 -14 -14.5 -28.5t-14.5 -28.5q-2 -2 -2.5 -4.5t-2.5 -4.5q-3 -4 -4.5 -8l-3.5 -9q-2 -8 -5 -15.5t-7 -15.5q-2 -5 -5 -9t-8 -7q-2 -1 -4 -5q-2 -5 -6 -8.5t-8 -6.5
q-4 -4 -14 -6q-4 -1 -6.5 1.5t-5.5 4.5zM139 519q-5 -3 -1 -7q3 2 1 7z" />
    <glyph glyph-name="w" unicode="w" horiz-adv-x="701" 
d="M540 674q7 6 7 9t-6 8l-12 6q5 1 8.5 0.5t7.5 -1.5q3 -1 7 -2t6 1q5 2 9.5 0.5t9.5 -0.5q1 0 1 -0.5t1 -0.5q-1 0 -1 0.5t-1 0.5q3 3 6 1q6 -2 12 -4.5t13 -1.5q2 0 6 -2q8 -4 11 -7q14 -12 24 -26t15 -31l6 -24.5l6 -25.5q3 -12 3 -23l2 -18.5t0 -18.5
q-1 -16 -1.5 -32.5t-2.5 -32.5q-2 -21 -6 -41t-9 -40q-9 -40 -22 -78t-32 -75q-8 -14 -15 -29t-16 -29l-10.5 -16l-10.5 -16q-8 -8 -12 -15q-1 -2 -0.5 -3.5t-0.5 -5.5l11 14.5l10 13.5q3 4 6 7.5t8 6.5h-1q0 -6 -3 -9.5t-6 -7.5q-8 -14 -18 -27t-19 -27q-11 -17 -24.5 -34
t-27.5 -31q-10 -10 -21 -17t-22 -12q-12 -5 -21 -4q-22 0 -43 7q-10 2 -14 3q-7 2 -13 3.5t-12 3.5q-4 2 -7 5t-7 6t-7.5 7t-7.5 8q-1 -2 -2 -3.5t-1 -3.5h-3q-8 5 -14.5 11t-13.5 11q-11 10 -19 24l-3.5 9t-3.5 8q-5 12 -9.5 24t-7.5 25q-2 10 -5.5 20t-7.5 19q0 1 -3 3
q-3 1 -5 -3l-5.5 -9l-5.5 -9l-28 -52.5t-30 -52.5q-5 -8 -10 -15t-10 -15q-2 -4 -4.5 -7.5t-7.5 -5.5q-1 2 -3 4l-2 4q-5 -5 -8 -10t-9 -8v4q0 2 0.5 3t-1.5 2q-2 0 -4 -5q-1 -2 -1 -4.5t-1 -4.5q-11 -10 -24 -4q-2 7 -3 8.5t-8 5.5q-3 5 -2.5 11.5t-4.5 11.5l-3 -6
q-2 -5 -6 -1q-1 0 -2.5 -1.5t-2.5 -0.5q-4 1 -4 8v9q0 4 -1 5q-6 8 -5.5 17t0.5 18q-1 3 -1 8q-2 2 -6 4q0 8 -1 15.5t0 15.5q1 12 -0.5 23.5t-1.5 24.5q1 20 1.5 39.5t0.5 38.5q0 13 0.5 25t0.5 23q-1 13 -0.5 25t0.5 24t-0.5 24t-0.5 24v88q0 15 -1 28.5t-1 27.5
q-1 8 -0.5 15t3.5 15q2 5 2 10t1 10q2 5 3.5 10t3.5 10q1 2 2 2.5t2 2.5q2 2 3 2q7 -2 10.5 4t10.5 5q5 -1 9.5 -0.5t9.5 -0.5q6 0 12 -6q6 -8 14 -9q3 0 4.5 -2.5t3.5 -4.5q8 -16 14.5 -32t9.5 -33q4 -22 7 -44t5 -45q2 -27 2 -54t1 -55q1 -18 1.5 -37t1.5 -38
q0 -2 0.5 -3.5t0.5 -4.5l5 5q11 20 23 39t23 39q5 9 9.5 19t9.5 20t11 19l13 19q21 28 54 29q5 0 10 0.5t9 5.5q2 -2 5 -3.5t5 -1.5q3 0 5.5 -1t5.5 -2q13 -3 21 -16q2 -2 2 -3t2 -2q5 -5 6.5 -11t1.5 -14q0 -5 0.5 -9t4.5 -8q4 -3 4 -9q1 -13 3 -25t1 -24v-36.5t1 -35.5
v-7.5t4 -6.5q2 2 4 6l6 -30q3 -14 7 -22q1 -3 3.5 -3.5t4.5 1.5q8 6 12 10q17 18 30.5 38t25.5 42q25 47 41.5 96.5t26.5 101.5q5 23 7.5 46.5t2.5 47.5q0 8 0.5 16.5t-0.5 18.5q-1 12 -4 24t-11 23q-1 2 -3 8q5 1 6.5 -2.5t5.5 -2.5q2 2 2 4v4h-1q4 -2 5 -5.5t3 -6.5
q2 -5 2.5 -9t4.5 -7q1 0 1 -1l-1 1q1 19 -11 36q-6 9 -16 14l-11.5 5.5t-11.5 6.5q0 8 7 6q4 -1 7.5 -2.5t7.5 -3.5q2 -1 5 -2t5 -2q0 -2 2 -2l2 1v1q-1 1 -3 1zM554 670h1h-1l-2 1zM564 187l-2 -2q0 -2 1 -3v2q1 1 1 3l1 1zM571 467l2 2q-1 1 -1 2q0 -2 -0.5 -2.5
t-0.5 -1.5l-1 -1zM571 685l1 -1q-1 0 -1 1l-2 2q-1 0 -1.5 -0.5t-1.5 -0.5q1 0 1 -0.5t1 -0.5h3zM577 512q5 5 1 10q-4 -4 0 -10q-6 -4 -1 -11v11zM470 193q1 1 2 1.5t2 1.5l17.5 23.5t16.5 25.5l12 18t11 19l8 15.5t6 15.5q2 6 4.5 11.5t6.5 10.5q4 7 7 19q2 8 5.5 16.5
t4.5 17.5q5 6 6.5 12t3.5 13q1 4 2 7.5t2 7.5q4 14 7 27t7 27q1 3 0 6.5t0 6.5q2 8 3.5 17t3.5 18q-2 5 0 8.5t2 7.5q0 12 -0.5 23.5t-1.5 24.5q0 7 -2.5 13t-5.5 12q-2 2 -4 4.5t-6 0.5v-34q1 -19 -0.5 -36.5t-3.5 -34.5q-3 -24 -8 -48.5l-10 -48.5q-6 -23 -14 -46l-16 -46
l-12 -28.5t-14 -29.5l-18.5 -35t-20.5 -34q-2 -2 -3.5 -4t0.5 -6zM25 32q-4 -8 -1 -21q2 5 2 8.5v5.5t-0.5 3.5t-0.5 3.5zM584 587q-5 -5 -1 -15q0 2 0.5 3.5t0.5 3.5v8zM580 619l-2 -1q0 -2 0.5 -3.5t0.5 -3.5q0 -1 2 -1l1 1q-1 2 -1 4t-1 4zM559 410q0 2 0.5 3t0.5 2
t-0.5 1.5t-0.5 1.5q-1 -1 -1 -3t1 -5zM580 534q0 2 -1 3q0 -1 -0.5 -1.5t-0.5 -1.5l2 -2v2zM572 480q1 0 1 3q0 2 -1 3q0 -1 -0.5 -1.5t-0.5 -1.5v-2q0 -1 1 -1zM582 601l1 1h-1v-1zM580 545l1 -1q0 1 1 1h-2zM623 315h1l-1 1v-1z" />
    <glyph glyph-name="x" unicode="x" horiz-adv-x="596" 
d="M399 269q-9 8 -13.5 18.5t-10.5 19.5q-3 6 -7 12q-5 8 -9.5 16.5t-9.5 16.5q-2 4 -3 5q-1 0 -2 0.5t-2 0.5t-1 -1v-2q0 -1 0.5 -1.5t0.5 -1.5q11 -17 20 -34.5t19 -33.5l24.5 -40l24.5 -40q1 -2 1.5 -4t1.5 -4q-4 -2 -7 -3q5 -8 8.5 -15t8.5 -14l9.5 -15l9.5 -15t7 -19
q-10 11 -19 22.5t-20 21.5q-5 -8 -1 -13l6 -10.5t7 -10.5q4 -6 7 -11.5l6 -10.5q4 -6 -1 -11q-4 3 -8 8q-2 -5 -1 -5l6 -10.5l6 -11.5l14 -22t15 -22q4 -5 5 -11q3 -4 -2 -9q-2 2 -3.5 3t-3.5 3q-4 0 -4 -1q-2 -4 -6 -14q-16 -12 -36 2q-2 2 -4.5 2.5t-5.5 1.5
q-3 0 -5.5 2.5t-4.5 3.5q-3 2 -6 1t-5 1q-5 5 -12 9.5t-12 11.5q-8 12 -16 18q-13 11 -23 24t-19 27l-33.5 46.5t-31.5 48.5q-4 6 -7.5 12l-7.5 13q-2 4 -4 6q-5 -1 -7.5 -4t-5.5 -7q-8 -10 -15.5 -20.5l-15.5 -21.5l-30.5 -39.5l-30.5 -39.5l-20 -27.5l-21 -27.5
q-4 -7 -8 -10q-2 -3 -4 -3q-5 2 -7.5 -1.5t-4.5 -5.5q-5 -5 -9.5 -10t-9.5 -12q-1 3 -1 8q-2 2 -3.5 0.5t-3.5 -1.5v-2q0 6 -1 8q1 1 1 2v-2q-3 -1 -7 -3q-2 5 -3.5 5.5t-6.5 -2.5q0 5 2.5 7.5t4.5 5.5v5l-1 1q-15 -2 -28 -9v7l1 1q0 -1 -1 -1t-2 -0.5t-2 -0.5l-1 1
q0 9 -0.5 13t0 7.5t3 7.5l7.5 12q6 8 11.5 16.5t8.5 19.5q2 5 5.5 8.5t5.5 8.5t4.5 9t4.5 8l33.5 48.5l33.5 49.5q13 20 27 39l28 39l7.5 10.5t3 6.5t-1 7.5t-5.5 12.5q-44 96 -77 196q-3 5 -2 7q2 8 -1 13t-5 10q-1 1 -1 1.5t-1 1.5q-4 13 1 22q3 0 4.5 -3t6.5 -1
q-1 1 -1 2t-1 2q-2 5 -5.5 11l-6.5 11q-2 3 -3 6.5t-3 6.5q-5 10 6 15q3 -2 6 -4.5t6 -4.5q2 -2 4 -3q2 -6 4 -10q2 -5 6 -3l1 -1h-1l-3.5 8.5t-6.5 5.5q-2 1 -4 3q-1 2 -0.5 3.5t-0.5 2.5q-7 11 -4 25q2 5 6 7.5t9 4.5q6 2 9 2q5 -1 9 -0.5t9 1.5q10 2 17 -1.5t14 -8.5
q4 -5 8 -9.5t10 -6.5q4 -1 6 -6q8 -12 15 -28q5 -8 10 -17.5l10 -18.5l11.5 -24l10.5 -24q4 -7 7.5 -14l7.5 -15q1 -3 6 -8q-2 -11 7 -18q2 -3 3 -6t4 -5q0 -4 0.5 -7.5t4.5 -6.5q1 5 0.5 7t-5.5 7q-1 6 -1.5 7t-5.5 3q5 11 -8 18q0 8 -2 12l-14 33t-15 32q-2 5 -4 8t-5 7
q-2 4 -3.5 7.5t-0.5 8.5h-1q7 -5 11 -10.5t7 -12.5l12 -25l12 -25q8 -16 14.5 -30.5l13.5 -29.5q1 -2 2 -3.5t2 -3.5q4 -1 8 3q11 11 20 21.5t19 20.5l19 19.5l19 19.5q33 32 68 60.5l71 56.5q6 5 11.5 8l10.5 6q2 2 4 2t8 -2q-2 -14 -10 -24q-6 -6 -6 -12v1q6 -5 14 0
l30 15q1 -2 2 -3t1 -3q3 -11 -2 -25q-9 -20 -24 -35q-8 -7 -15 -14.5l-14 -14.5l-32.5 -36l-32.5 -36q-9 -11 -18 -20.5t-18 -20.5l-35.5 -40.5t-35.5 -41.5q-4 -7 -8 -13q2 -4 4 -7.5t4 -7.5l18 -36t19 -35q5 -8 5 -15zM51 15q9 5 5 11q-5 -5 -5 -11z" />
    <glyph glyph-name="y" unicode="y" horiz-adv-x="573" 
d="M432 485q-7 -4 -11 -9.5t-9 -10.5l-6 -8t-8 -6h-1h1q-1 -5 -3.5 -8t-4.5 -6q-6 -6 -6 -10h1q-2 -1 -4 -3q-5 -2 -6.5 -5.5l-3.5 -8.5q-4 -2 -5 -3l-7 -9l-7 -9q-1 -1 -1 -6q-9 -3 -11 -14l1 1q-8 -5 -12 -12q-2 -3 2 -5h-1q-3 -3 -5 -3q-2 -2 -8 -4q-1 0 -1 1l1 -1v-10
q-4 -1 -10 -3v-1v7v1v-1q-6 -3 -10.5 -8t-9.5 -10q-6 -8 -6 -17q2 0 3 0.5t3 0.5h-1v-3q-7 -7 -9.5 -15.5t-4.5 -16.5l-18 -56t-19 -56l-29 -86l-29 -86q-3 -9 -6.5 -17.5t-6.5 -17.5q-6 -22 -23 -39q-7 -8 -17 -11l-3 12l3 6l-2 2l-2 -2q0 -2 0.5 -3t0.5 -3q-4 -2 -7.5 -5
t-8.5 -5q-1 4 0.5 7.5t1.5 7.5q1 5 1 8.5v8.5q-2 2 -5.5 2.5t-6.5 1.5q0 1 -0.5 1.5t-0.5 1.5q-1 20 2.5 39.5t8.5 39.5q10 49 22.5 96.5t26.5 95.5q2 5 3 11t3 12q2 2 0 5q-1 0 -1 1l-1 1h-1l-2 -1q-2 -4 -2 -6l-15.5 -52.5l-15.5 -52.5l-10 -36l-10 -36l-15.5 -64
t-11.5 -64q-2 -6 -3 -8q-3 1 -3 3v4v8q0 7 -5 10q-5 5 -4 11v20t1 20q2 19 5 37l6 37q2 11 3 23t3 23q2 16 5.5 31t7.5 30l12 46l12 46q3 9 -3 16l-5.5 9l-5.5 9q-15 26 -26.5 53.5l-22.5 56.5l-10.5 29l-10.5 29q-11 30 -18 60q-4 14 -8.5 26.5l-9.5 26.5l-6 15q5 2 5 10
q4 0 6 1q1 1 1 3v8q0 2 -0.5 3.5t0.5 3.5q4 8 4 16v16q2 3 4 1t5 -1q0 1 0.5 2.5t0.5 2.5q-2 5 -3.5 10t-3.5 10v-1h8.5t7.5 3q6 4 12.5 4t12.5 2t12 -4q2 -3 3.5 -5.5t5.5 -4.5q2 1 2 2.5t1 3.5l-1 -1q5 0 7 7q7 -2 10.5 -8t10.5 -9h-1q3 -3 4 0q8 -5 12.5 -13t9.5 -16
q4 -5 6.5 -11.5t6.5 -11.5q1 -3 6 -8q0 -6 3 -7q1 -2 1.5 -4t1.5 -4h1q1 0 1 1v1q-1 2 -5 6q0 5 -4 6q0 3 0.5 5.5t0.5 5.5l-1 -1q8 -8 12.5 -17t9.5 -18q16 -29 27 -55q7 -15 13 -30l12 -31q1 -2 2 -5t5 -4q2 2 3.5 3t3.5 3l26.5 33l26.5 33q8 8 14.5 16.5t14.5 16.5
l21.5 22.5l21.5 23.5q10 11 18.5 22.5t18.5 22.5l13 15t13 14q8 9 19 14t22 9q3 2 6.5 2t6.5 2q6 4 12.5 5t14.5 2q-1 -3 -2.5 -6.5t-0.5 -5.5q1 -4 -2 -6.5t-2 -6.5q2 1 4.5 2t4.5 1t8 -2q10 -3 18 5q3 2 6 5t6 5q4 -8 5.5 -9t7.5 -1q7 -11 12 -28q-3 -7 -8.5 -12.5
t-10.5 -12.5q-2 -2 -4.5 -4t-2.5 -5q-1 -7 -5 -12t-5 -12q-2 -2 -3 -4h-2v-1l2 2l3 3q5 2 8 5t5 7q5 9 14 11v1q-1 -5 -3 -7.5t-5 -5.5l-13.5 -16l-13.5 -16q-2 -2 -2 -6q-5 -3 -8.5 -7t-5.5 -10q-3 -1 0 -4v1q-5 -5 -9.5 -10.5t-9.5 -10.5q-2 -3 -5 -5.5t-3 -7.5
q-8 -5 -14 -12l-12 -14q-1 -1 -1 -5q-6 -3 -10 -8.5t-9 -10.5q-1 -1 -1 -4zM401 474l4 4q7 3 7 10l3 3q1 2 3 4q13 5 14 17l3 3q16 8 20 24q2 1 4 3q12 7 20 21v3l1 1l-1 -1q-7 -3 -11 -8.5l-8 -10.5q-1 -2 -1 -5l-3 -3q-7 -4 -11 -9t-9 -10q0 -3 -1 -5l-3 -3
q-11 -7 -14 -17q-1 -1 -1.5 -2t-1.5 -2l-3 -3q-7 -3 -7 -10l-4 -4l-3 -3q-2 -1 -5 -4q-1 -1 -1 -2.5t2 -1.5l2 2q1 2 1 3t1 3zM499 590q1 0 1 1v-2q-1 -1 -2 -1.5t-2 -1.5q-1 -2 -1.5 -3.5t-1.5 -3.5l-1 -1q0 1 1 1q3 3 3 7q2 2 3 4zM520 607h1q-1 0 -1 -1q-1 0 -1 -1
q0 1 0.5 1t0.5 1zM516 620q1 1 2 1.5t2 1.5t3 1q0 1 1 1l-4 -2l-3 -3l-1 -1v1zM138 603v-3l1 -1l1 2l-2 2l-2 4v-2zM334 390q4 2 5 2l1 2q-1 0 -1.5 0.5t-1.5 0.5q-2 -4 -3 -5l-1 -1zM111 661q0 -2 -1 -1q0 4 -1 5h-3l1 -1q2 -2 4 -3zM378 444q-6 -5 -7.5 -6.5t-3.5 -6.5
q9 3 11 13l4 4l4 4v4q-5 -5 -5.5 -6t-2.5 -6zM351 417q-1 0 -1 1l1 -1q0 -5 -3.5 -8t-5.5 -8q6 0 8 4q8 10 13 17q1 1 -1 4q-8 -6 -11 -9zM326 381q-2 -2 -3 -2.5t-3 -2.5l-7 -7v2l1 -1q-4 -4 -8 -6.5t-6 -7.5q-9 -8 -11.5 -12.5t-1.5 -13.5q2 0 4 2l19 22.5t18 24.5
q2 2 1 2q-1 2 -3 0zM170 273q1 2 2 2.5t1 1.5q0 2 -1 3t-2.5 -0.5t-1.5 -3.5l1 -1q0 -1 1 -2zM156 593v-1l1 1h-1zM149 247l1 1h-1v-1zM126 167l-1 -1h1v1zM106 93h-1v-2z" />
    <glyph glyph-name="z" unicode="z" horiz-adv-x="673" 
d="M234 139q10 2 19 2.5t18 2.5q25 4 52 6q29 2 56.5 2.5t55.5 -7.5q26 -6 47 -20q20 -14 33 -40q1 -2 1 -4.5t1 -4.5q1 -5 0 -10.5t4 -10.5q1 -2 1 -7q-2 -10 -6 -15q-3 0 -3 2t-2 3q-1 0 -2 0.5t-2 0.5l-4 -2t-4 -3q3 -4 4 -8l-1 -1q-5 0 -8.5 -2t-7.5 1q-3 2 -8 0l-1 1
l1 -1q-2 -2 -4 -3l-4 -2q-5 -2 -9 0q-3 1 -3 3.5t-1 4.5l1 1v-1q-8 7 -19 7q-23 0 -45.5 0.5t-45.5 -0.5q-24 -2 -48.5 -3.5t-48.5 -3.5q-48 -4 -97 -12l-27.5 -4l-27.5 -4q-8 -1 -16.5 -3.5t-16.5 -4.5q-5 -1 -9 -2t-9 -2l-1 1v2q4 2 7 3t7 2q13 3 25 5.5t25 5.5q3 1 6 1
t7 2l7 3.5t8 0.5q1 0 4 3q2 -1 5 -1q1 -1 3 1q1 2 -2 4q-5 3 -15 1q-17 -2 -33.5 -6.5l-33.5 -9.5q-8 -3 -16 -2q1 2 1 4t1 4q-4 1 -7.5 -0.5t-6.5 -2.5q-2 0 -3 -8q-5 -1 -10.5 -1t-11.5 2q-2 6 -2 9v10q0 4 -5 6q-3 1 -5.5 1.5t-5.5 0.5q2 13 8 27.5t18 34.5q3 2 5.5 3
t4.5 5q8 18 20 33.5t23 31.5q16 21 29 41l13.5 18.5t14.5 17.5l37 46t38 46l34 38.5l35 37.5l43.5 43t44.5 41l10 8l10 8q2 2 3 3.5l3 4.5q-14 2 -27.5 1t-28.5 1q8 2 7 2h5h12t12 1q-11 3 -21.5 2.5t-21.5 -0.5q-11 1 -22 1t-22 1q5 1 15 1h93h7.5t6.5 3l-2 2
q-18 0 -36 -0.5t-36 -0.5q-20 0 -39 0.5t-39 0.5q-10 1 -18.5 3.5t-17.5 4.5q-3 1 -6 3l-6 4q-2 1 -3.5 2.5t-3.5 1.5q-8 1 -15 11q1 1 1.5 2t1.5 2q4 6 -2 8q-3 1 -5.5 1.5t-6.5 1.5q3 5 0 7.5t-7 4.5q2 3 3 5.5t2 5.5q-1 2 -1 3t-2 3q-7 10 1 16q1 1 1 2v1q-1 5 1 8.5
t4 7.5q10 12 20 18q38 21 80 24q14 2 28.5 3.5t28.5 3.5q5 1 10 1.5t10 0.5q16 2 32 2t32 1q15 1 30.5 1.5t30.5 -0.5q15 0 30.5 0.5t30.5 -0.5q8 0 16.5 -1l16.5 -2q1 0 4 -3q1 -2 5 -4l27 -3q13 -2 20 -8q0 -1 0.5 -1.5t0.5 -2.5q-4 -2 -8.5 -1.5t-8.5 0.5q-5 -1 -8.5 -1
t-8.5 -1q8 -3 17 -2t17 -2q-2 -8 -3.5 -10.5t-8.5 -7.5l6 -3q6 -2 12 -3l12 -2q5 -1 7.5 -3t4.5 -4q9 -11 10.5 -25.5t-6.5 -26.5q-9 -16 -18.5 -30.5t-23.5 -26.5q-6 -5 -11 -11.5t-11 -12.5l-19 -19l-43.5 -37.5t-42.5 -38.5q-23 -21 -44.5 -44l-44.5 -46l-43.5 -47
l-43.5 -47l-25.5 -26.5t-24.5 -26.5l-13.5 -13l-13.5 -12q-3 -3 -5 -9v-1v1zM167 31q3 -2 7 -4t8 0q5 2 9 2.5t9 0.5q5 -2 8 0q5 2 10 2.5t10 1.5q-1 0 5 2q-5 3 -7 3q-5 -1 -9.5 -1t-9.5 -1l-1 1l1 -1l-1 -1l-1 -1q-8 1 -16.5 -1t-16.5 -1q-1 0 -2 -1t-3 -2q-6 2 -9 -1v-2
l1 -1q5 0 8 5zM245 34v-1q0 1 -1 1q3 3 11 3h11.5t10.5 1q7 2 13.5 2h13.5q8 1 16 1h16l1 -1q-1 0 -1 1q3 3 6.5 3h7.5h81q5 0 6 2q-2 2 -3 2q-17 0 -34 1t-34 0q-12 -1 -24 -0.5t-23 -3.5q-28 0 -53 -3q-6 -1 -12 -1t-12 -1l-3 -3q1 -1 2 -1.5t2 -1.5h2zM617 662h-3
q-4 0 0 -2l2 1q1 0 1 1zM6 40q-1 0 -2 -1l2 -1q1 0 1.5 0.5t1.5 0.5q-1 1 -3 1z" />
    <glyph glyph-name="grave" unicode="`" horiz-adv-x="140" 
d="M106 558q2 -5 1 -8.5t1 -8.5q2 -2 -1 -4.5t-6 -1.5q-3 0 -5 2q-1 1 -1 2t-1 2l-1 1l-2 -2q0 -1 0.5 -1.5t0.5 -1.5q-11 0 -20 4.5t-17 10.5q-21 18 -37 44q-3 5 -4.5 9.5t1.5 9.5q2 4 1 6.5t-3 5.5q-3 7 6 15q6 5 14 0q3 -2 5.5 -4t4.5 -4q5 -7 13 -7q5 -1 8.5 -4t7.5 -6
l25 -24l25 -25q2 -2 3 -4q2 -5 -3 -5q-4 -1 -8 -1t-8 -1q0 1 -1 1h1zM85 620q8 -4 10.5 -6.5t9.5 -11.5q-4 1 -6 3l-4 4q-3 2 -5 5t-5 6zM82 624q-7 0 -10 7h-1q8 -2 11 -7zM68 634l-1 1zM72 631q-2 1 -4 3l3 -3h1zM82 624q2 -2 3 -4q-1 1 -1.5 2t-1.5 2zM96 537q-1 -3 -4 0
h4z" />
    <glyph glyph-name="dieresis" unicode="&#xa8;" horiz-adv-x="197" 
d="M89 602q1 -7 -1.5 -14l-4.5 -13q-7 -13 -15 -18q-6 -3 -10 -7q-7 -7 -20 -7q-6 1 -10.5 3.5t-9.5 6.5q-13 13 -5 30q2 4 2.5 7.5t2.5 7.5q0 3 3 3q8 1 9.5 6.5t4.5 10.5q2 2 2.5 4.5t2.5 4.5q6 10 19 8q2 0 4 -0.5t4 -0.5q21 -4 22 -24v-8zM25 619q1 2 1 3t0 -1q0 2 0 1
t-1 -2v-1zM25 620v-2q-1 -1 -1 -0.5t1 1.5v1zM180 602q1 -7 -1.5 -14l-4.5 -13q-7 -13 -15 -18q-6 -3 -10 -7q-7 -7 -20 -7q-6 1 -10.5 3.5t-9.5 6.5q-13 13 -5 30q2 4 2.5 7.5t2.5 7.5q0 3 3 3q8 1 9.5 6.5t4.5 10.5q2 2 2.5 4.5t2.5 4.5q6 10 19 8q2 0 4 -0.5t4 -0.5
q21 -4 22 -24v-8zM116 619q1 2 1 3t0 -1q0 2 0 1t-1 -2v-1zM116 620v-2q-1 -1 -1 -0.5t1 1.5v1z" />
    <glyph glyph-name="acute" unicode="&#xb4;" horiz-adv-x="160" 
d="M123 634q11 0 18 -6q-3 -7 -8 -12l-10 -10l-16 -14.5t-15 -16.5q-7 -8 -14.5 -15t-15.5 -13q-6 -4 -10 -4t-9 5q-4 3 -7.5 2.5t-7.5 1.5q-1 2 -0.5 4.5t-0.5 4.5t-3 4t-3 4q-2 4 -2 7q3 14 12 22l25.5 20l25.5 20q3 3 6 5t7 4q5 2 9 4.5t10 1.5q2 0 4 1l4 2q6 2 8 2
q6 0 4 -5q-6 -9 -11 -19q-10 -1 -11 -11q-5 0 -8 -3t-6 -7q-2 -2 -3 -4q-2 -2 -4 -3q-2 -2 -3 -4q-1 0 -1 -1q0 1 1 2l3 3q1 1 2 1.5t2 2.5l3 3q5 0 8.5 3t5.5 7q10 4 11 11z" />
    <glyph glyph-name="circumflex" unicode="&#x2c6;" horiz-adv-x="199" 
d="M51 540q-4 0 -5 -1q-11 -4 -18 7q-9 13 -1 28q2 5 6 9t9 8l25.5 19.5l25.5 18.5q10 7 20 10t21 -1q3 -1 7 -1q15 -14 23.5 -31l16.5 -34q5 -11 0 -28q-3 -12 -14 -13q-8 -2 -17 7q-2 2 -3.5 5t-3.5 6q-5 8 -8 16t-7 16q-3 5 -5 10q-5 0 -9 -6q-9 -11 -19.5 -21t-22.5 -18
q-8 -6 -13 -8t-8 2l3 3l1 1v-1q-2 -1 -4 -3z" />
    <glyph glyph-name="caron" unicode="&#x2c7;" horiz-adv-x="162" 
d="M43 644q7 -4 11.5 -9.5t8.5 -11.5q3 -6 7 -10q3 -7 9 -1q4 4 7 7.5t7 7.5q3 4 6 7.5t7 6.5q3 3 6 5t7 4q6 3 12 -3q4 -6 10 -6q-5 -7 -10.5 -13.5t-11.5 -12.5q-2 -3 -4 -5.5t-3 -6.5q-1 -1 -1.5 -2t-1.5 -2l-3 -3q-5 -5 -9.5 -9t-9.5 -9q1 0 1 -1q0 -2 1 -2q5 5 10 9
t7 11q2 1 2.5 2t1.5 2q2 2 4 3q4 4 7.5 8t7.5 8t7 8t7 8q1 1 2.5 1t3.5 1q3 -3 1 -10q-2 -5 -4 -8.5t-4 -7.5l-15.5 -21.5l-15.5 -21.5q-10 -15 -25 -18q-5 -1 -8.5 -3.5t-8.5 -5.5q-9 2 -11.5 2.5t-10.5 -1.5q-9 7 -18 18q-2 2 -1 4.5t-2 4.5v-1q-2 9 -7 11q-1 3 -2 5.5
t-3 5.5l-4.5 11l-4.5 11q-4 8 -2.5 15t4.5 15q2 3 5 5q5 0 6 -1q4 -3 6 -8q5 -8 11 -14.5t13 -12.5q2 -2 4.5 -2t4.5 -1q3 2 1 7q-2 3 -3.5 5.5t-3.5 6.5q-2 5 -4.5 9t-2.5 9h-1zM44 644l-2 1l1 -1h1zM145 644v2q0 -1 -1 -2h1zM144 644l-3 -3q2 2 4 3h-1zM26 568q-1 -3 -4 0
v-1h4v1z" />
    <glyph glyph-name="breve" unicode="&#x2d8;" horiz-adv-x="156" 
d="M11 618q0 -6 1 -10q5 7 8.5 13.5t9.5 11.5q2 0 4.5 -0.5t5.5 -0.5q2 5 5 9t6 9q5 1 13 -5q5 -7 5 -14q0 -5 -0.5 -10.5t-0.5 -10.5q0 -6 -0.5 -11.5t-1.5 -11.5q0 -7 5 -8t10 2q12 10 17 22q4 8 7 16.5t7 16.5q1 2 1.5 3.5t1.5 2.5q3 1 3 -1v-3q1 -2 0.5 -3t0.5 -2
q1 -3 4 -3q0 1 1 1t1 1q2 3 2.5 6.5t2.5 6.5q1 2 4 2t5 -2q6 -7 3 -15q-2 -13 -5.5 -26t-9.5 -25q-3 -7 -7.5 -12t-9.5 -10q-11 -12 -24.5 -16t-28.5 -6q-21 -2 -39 12q-6 6 -8 9q-5 9 -7 18t1 20q2 6 2.5 12t4.5 11v1zM108 600q4 1 4 7q4 4 2 7q-2 -2 -2 -3.5v-3.5
q-4 -1 -4 -7v-1v1zM11 617q0 1 1 1h-1v-1z" />
    <glyph glyph-name="dotaccent" unicode="&#x2d9;" horiz-adv-x="95" 
d="M89 602q1 -7 -1.5 -14l-4.5 -13q-7 -13 -15 -18q-6 -3 -10 -7q-7 -7 -20 -7q-6 1 -10.5 3.5t-9.5 6.5q-13 13 -5 30q2 4 2.5 7.5t2.5 7.5q0 3 3 3q8 1 9.5 6.5t4.5 10.5q2 2 2.5 4.5t2.5 4.5q6 10 19 8q2 0 4 -0.5t4 -0.5q21 -4 22 -24v-8zM25 619q1 2 1 3t0 -1q0 2 0 1
t-1 -2v-1zM25 620v-2q-1 -1 -1 -0.5t1 1.5v1z" />
    <glyph glyph-name="ring" unicode="&#x2da;" horiz-adv-x="104" 
d="M23 533q-16 10 -14 30q1 9 1 17.5t3 16.5q5 15 13.5 28t22.5 21q2 1 3.5 1.5t2.5 1.5q10 7 22.5 1.5t16.5 -16.5q4 -13 4.5 -25.5t-4.5 -25.5l-6 -16t-8 -16q-6 -11 -16 -16t-22 -7q-4 -1 -6 1l-4 4q-4 4 -9 0zM45 569q1 -3 1 -5.5t1 -5.5q0 -2 2 -2.5t3 0.5q5 5 6 7
q7 11 11 24t3 27q-2 11 -11 5q-11 -6 -11 -18q0 -4 -1 -8t-2 -9q-1 -4 -1 -7.5t-1 -7.5zM17 553q-1 6 -1.5 7.5t-2.5 4.5q-2 -4 4 -12zM43 595l-2 2q-1 -1 -1 -2t0.5 -1.5t0.5 -1.5q1 1 1 1.5t1 1.5z" />
    <glyph glyph-name="tilde" unicode="&#x2dc;" horiz-adv-x="167" 
d="M52 605q9 -1 19 -4t18 -9q8 -5 15 -4.5t15 2.5q6 2 8 3q18 6 21 -11q2 -10 -3 -15q-5 -6 -11 -11.5l-13 -11.5t-18 -1q-4 2 -8 4.5t-8 4.5q-12 8 -29 13q-16 4 -29 -6q-2 -3 -5 -5q-3 -4 -13 -4q-3 1 -4.5 3.5t0.5 5.5q2 4 4 7t3 7q0 3 2 7q8 26 36 25z" />
    <glyph glyph-name="hungarumlaut" unicode="&#x2dd;" horiz-adv-x="252" 
d="M123 634q11 0 18 -6q-3 -7 -8 -12l-10 -10l-16 -14.5t-15 -16.5q-7 -8 -14.5 -15t-15.5 -13q-6 -4 -10 -4t-9 5q-4 3 -7.5 2.5t-7.5 1.5q-1 2 -0.5 4.5t-0.5 4.5t-3 4t-3 4q-2 4 -2 7q3 14 12 22l25.5 20l25.5 20q3 3 6 5t7 4q5 2 9 4.5t10 1.5q2 0 4 1l4 2q6 2 8 2
q6 0 4 -5q-6 -9 -11 -19q-10 -1 -11 -11q-5 0 -8 -3t-6 -7q-2 -2 -3 -4q-2 -2 -4 -3q-2 -2 -3 -4q-1 0 -1 -1q0 1 1 2l3 3q1 1 2 1.5t2 2.5l3 3q5 0 8.5 3t5.5 7q10 4 11 11zM221 634q11 0 18 -6q-3 -7 -8 -12l-10 -10l-16 -14.5t-15 -16.5q-7 -8 -14.5 -15t-15.5 -13
q-6 -4 -10 -4t-9 5q-4 3 -7.5 2.5t-7.5 1.5q-1 2 -0.5 4.5t-0.5 4.5t-3 4t-3 4q-2 4 -2 7q3 14 12 22l25.5 20l25.5 20q3 3 6 5t7 4q5 2 9 4.5t10 1.5q2 0 4 1l4 2q6 2 8 2q6 0 4 -5q-6 -9 -11 -19q-10 -1 -11 -11q-5 0 -8 -3t-6 -7q-2 -2 -3 -4q-2 -2 -4 -3q-2 -2 -3 -4
q-1 0 -1 -1q0 1 1 2l3 3q1 1 2 1.5t2 2.5l3 3q5 0 8.5 3t5.5 7q10 4 11 11z" />
    <glyph glyph-name="AE" unicode="&#xc6;" horiz-adv-x="1062" 
d="M26 13q-2 1 -5 1.5t-3 3.5q-2 8 -7.5 13.5t-11.5 9.5q0 1 0.5 1t0.5 1q0 -1 -0.5 -1t-0.5 -1q-3 0 -4 -1q-2 4 -1 5q0 12 5 24q11 22 19.5 43t19.5 43l16.5 34.5l16.5 34.5q3 5 4.5 9t-3.5 11q0 1 -0.5 3t1.5 4q2 7 4.5 14t9.5 11q9 3 13.5 9t8.5 14l34.5 69.5l35.5 68.5
q13 20 24 40t24 40q8 12 14.5 24t14.5 24q12 22 25 43.5t25 43.5q11 14 12 30q6 4 12 7.5t13 6.5q5 -4 9.5 -2t10.5 0q0 4 2 10q4 -1 6 -3.5t4 -5.5q2 -4 7 -5q6 -2 11.5 -6.5t8.5 -12.5q1 -4 7 -8q8 -5 12 -12t7 -15l10 -41.5t9 -41.5q2 -15 5 -30.5t5 -30.5l4 -26.5
l4 -26.5q2 -8 2.5 -16t2.5 -17q2 -16 3.5 -32t4.5 -33q0 -1 0.5 -2t0.5 -3q2 -1 4 -1.5t4 -2.5q2 -1 4 -2.5t2 -2.5q-1 -9 12 -12q-13 -2 -18 -4q-6 -1 -3 -11q0 -1 3 -4q0 -2 1 -3t1 -3q10 -2 24 -3q-2 -6 -2 -5l-9 -3.5t-8 -3.5t-4 -3q3 -5 6.5 -4t6.5 -1q0 -3 -1 -3
l-3.5 -3.5t-2.5 -3.5q-2 -2 -4.5 -2.5t-4.5 -1.5q-1 -5 1 -7l4 -4q5 -7 -1 -8q-3 -2 -6 -2.5t-8 -2.5q0 -2 -1 -4.5t0 -5.5q1 -20 3 -40.5t3 -41.5q6 -48 6 -98q-1 -6 0 -11.5t0 -10.5q0 -5 -2 -13q-1 -2 -2 -3t0 -3q0 -11 -7 -25q-2 -2 -2.5 -5t-1.5 -6q-4 1 -7.5 1.5
t-8.5 1.5q-1 -3 -1 -5.5t-1 -6.5q-4 1 -11 1h-5.5t-6.5 1q-14 2 -21 9t-9 18l-2 12t-2 13q-4 1 -7.5 1t-8.5 1q-1 2 -2.5 3.5t-2.5 3.5q-3 11 -7 20q-2 6 -2 10q-2 7 -3 14t-2 15q-3 22 -5.5 43l-5.5 44q-2 11 -2.5 23t-2.5 24q0 7 -6 7q-12 -2 -23.5 -3l-22.5 -2
q-14 -2 -27 -2.5t-27 -1.5q-15 -2 -30.5 -3t-31.5 -3q-8 -2 -11 -6q-1 -3 -2.5 -5.5t-1.5 -4.5l-28.5 -54.5l-28.5 -54.5q-8 -16 -18.5 -30.5l-20.5 -29.5q-6 -9 -16 -10q-6 -2 -13 -0.5t-13 7.5q1 1 1 3v1q0 -3 -1 -4zM230 311q8 -2 13.5 -1.5t10.5 1.5q6 1 11.5 1.5
t12.5 2.5q13 2 26 3l27 2q8 0 8 8q-2 12 -2 24.5t-1 24.5q-2 23 -3.5 47.5t-3.5 48.5q0 4 -1 8t-6 9q-21 -46 -45 -89.5t-47 -89.5zM472 334v9q-2 2 -4 2q-2 1 -2 -1t0.5 -4.5t5.5 -5.5zM467 366q-6 -2 0 -10q0 -2 3 -3v1q-1 4 0 7t-3 5zM444 503l-1 -1h2zM444 486h-1l2 -2
v1zM450 421v-1h1v1h-1zM468 377h-1v-1zM455 361h1l-1 2v-2zM885 303q-4 -2 -10 -8q2 -1 3.5 -1t3.5 -1v-1l-15.5 -4l-15.5 -4q-14 -3 -28.5 -5.5t-29.5 -5.5q-11 -1 -21.5 -3l-20.5 -4q-3 0 -6.5 -1t-6.5 -2l-3.5 -8.5t-2.5 -7.5l-15.5 -48l-15.5 -48q-3 -10 -5.5 -20.5
t-4.5 -20.5q0 -2 0.5 -3.5t-0.5 -3.5q6 1 12.5 1.5t11.5 2.5q21 5 43 8.5t43 8.5q20 4 38 4.5t35 -0.5q6 0 8 -1q9 -3 17.5 -2.5t17.5 2.5q10 1 23 -2q1 -1 2.5 -2t1.5 -2q-1 -5 1.5 -5.5t4.5 -2.5q6 -3 4 -10q0 -6 -4 -6q-5 -1 -10 -1h-10l-3 -1.5t-3 -3.5q2 -1 3 -1t3 -1
h16q5 0 6.5 -3.5t-2.5 -8.5q-2 -2 -6 -2q-6 2 -12.5 1l-13.5 -2q-2 0 -2 -3q0 -1 2 -3q3 -1 6.5 -1.5t8.5 -1.5q-2 -4 -5 -4q-5 -1 -15 -5q-5 -2 -9.5 -2t-9.5 -1q-2 -1 -2.5 -1t-3.5 -3q2 -1 4 -1.5t4 -2.5q-8 -1 -15.5 -1t-15.5 -1q-17 -2 -34 -5.5l-35 -7.5
q-20 -5 -39.5 -8.5t-39.5 -7.5q-8 -2 -16 -3t-17 -1q-13 -1 -25.5 -3.5t-26.5 -1.5q-12 0 -22 6l-6 3q-14 5 -21.5 15t-11.5 22q-6 25 -1 56q4 30 12.5 60t18.5 60q5 12 8.5 24t7.5 24q0 2 -4 8q1 3 5 9q-6 6 0 13q-5 1 -9.5 -0.5t-9.5 -3.5q-4 -2 -7.5 -4.5t-5.5 -4.5
q-3 1 -4 3t-1 4q1 5 0.5 11t2.5 12q0 1 1 2q0 -1 -0.5 -1t-0.5 -1q-2 1 -4 1t-4 1q0 2 0.5 3t0.5 2l10.5 12.5t13.5 11.5q3 2 7 4t6 4l15.5 10t16.5 9q7 4 12 13q3 11 6.5 21.5l7.5 21.5q8 24 17.5 48l18.5 48q4 7 7 15l3 -3t2 -3q2 3 6 11l-6 2t-5 2q0 1 2 5
q-5 1 -11.5 -0.5t-10.5 4.5q2 4 1.5 5t-4.5 4q3 4 4 9q2 2 0.5 4t-3.5 2h-13q-4 3 0 7q8 4 10 6q-2 2 -3 5t-3 5q6 12 16 19q16 13 36 19q17 4 33 9.5l32 11.5q23 8 46 13t47 9q40 6 81 6q19 -1 37 -9q5 -2 9.5 -4t9.5 -4q14 -5 19 -14q2 -3 3.5 -5.5t3.5 -5.5q9 -14 5 -28
q-1 -3 -3 -11q-4 -2 -8 -3t-9 -3q-13 -3 -14 -15v-9q-4 -3 -7 -4t-7 -2q-14 -2 -29 -3t-30 -1q-6 0 -11.5 -0.5t-10.5 -1.5q-4 0 -7 -0.5t-7 -0.5q-25 -1 -50 -3.5t-48 -7.5q-2 0 -4 -2l-3 -3q2 -14 -1.5 -28t-6.5 -29q-8 -38 -21 -73q-2 -4 -2.5 -8t-1.5 -8q5 -4 9 -3.5
t8 1.5q10 2 19.5 2t18.5 1q23 1 45 -5q9 -2 18 -6q9 -3 11 -5t6 -13q13 -3 22.5 -9.5t9.5 -23.5q-3 -2 -6 -5t-6 -5q-2 -1 -4 -1t-4 -2q-12 -5 -23 -2q-2 2 -7 1.5t-9 -2.5q8 -1 14.5 -1.5t13.5 -2.5q4 -2 3 -6h1q-8 2 -11 -6q-7 1 -14 0.5t-15 1.5q-11 2 -21.5 2t-21.5 -2
q-13 -2 -24.5 -3t-23.5 -3q-10 -2 -19.5 -3.5t-18.5 -3.5q-2 -5 -3 -6q-9 -22 13 -16l42.5 7.5t42.5 5.5l18.5 2t19.5 1zM765 323h3q1 0 1 1q-1 1 -2 0l-2 -2v1zM683 191q-4 -3 -4 -7v-9q3 5 3 9t1 7l2 2v2l-1 -1q0 -2 -1 -3zM825 333h24q2 0 3.5 1t3.5 2h1h-1h-11t-13 -1
q-3 0 -7 -2q0 -1 -0.5 -1t-0.5 -1q0 1 0.5 1t0.5 1zM805 329q-13 0 -16 -0.5t-9 -5.5l10.5 2l11.5 2q1 0 1 1l1 1l1 1v-1zM785 523v-17l11 26t7 24q0 1 -1 1.5t-1 1.5q-15 1 -16 -10q-4 -9 -6 -20q0 -2 -0.5 -4.5t-0.5 -6.5q6 4 7 5zM678 169q-8 -14 -12.5 -27.5l-9.5 -27.5
q0 -4 -1 -7.5t1 -7.5t5 -1q4 3 6 8q2 14 5 27t5 26q0 2 0.5 5t0.5 5zM776 501q-4 -3 -4 -5v-2q1 0 1.5 0.5t1.5 0.5q0 3 1 6zM766 477q0 -1 -2 -3q2 -4 2 0q1 0 1 2zM690 210v1q0 -1 -0.5 -1t-0.5 -1zM716 528v1h-1v-1h1zM781 497q0 -1 -0.5 -1t-0.5 -1h1l1 1q-1 0 -1 1z
M601 28l1 1h-1h-1q0 -1 1 -1zM763 440h1v1zM744 409l-1 -1v-2l1 1v2zM816 331h-2l1 -1zM876 330l1 1h-1v-1zM893 331v-1l1 1h-1zM832 327v1h-1zM717 298l-1 -1q0 -1 1 -2v1v2zM868 295h-2v-1zM712 284v-1q0 -1 1 -1v1zM704 255l-1 -1q0 -1 -1 -2l2 1v2z" />
    <glyph glyph-name="Egrave" unicode="&#xc8;" horiz-adv-x="476" 
d="M299 303q-4 -2 -10 -8q2 -1 3.5 -1t3.5 -1v-1l-15.5 -4l-15.5 -4q-14 -3 -28.5 -5.5t-29.5 -5.5q-11 -1 -21.5 -3l-20.5 -4q-3 0 -6.5 -1t-6.5 -2l-3.5 -8.5t-2.5 -7.5l-15.5 -48l-15.5 -48q-3 -10 -5.5 -20.5t-4.5 -20.5q0 -2 0.5 -3.5t-0.5 -3.5q6 1 12.5 1.5t11.5 2.5
q21 5 43 8.5t43 8.5q20 4 38 4.5t35 -0.5q6 0 8 -1q9 -3 17.5 -2.5t17.5 2.5q10 1 23 -2q1 -1 2.5 -2t1.5 -2q-1 -5 1.5 -5.5t4.5 -2.5q6 -3 4 -10q0 -6 -4 -6q-5 -1 -10 -1h-10l-3 -1.5t-3 -3.5q2 -1 3 -1t3 -1h16q5 0 6.5 -3.5t-2.5 -8.5q-2 -2 -6 -2q-6 2 -12.5 1
l-13.5 -2q-2 0 -2 -3q0 -1 2 -3q3 -1 6.5 -1.5t8.5 -1.5q-2 -4 -5 -4q-5 -1 -15 -5q-5 -2 -9.5 -2t-9.5 -1q-2 -1 -2.5 -1t-3.5 -3q2 -1 4 -1.5t4 -2.5q-8 -1 -15.5 -1t-15.5 -1q-17 -2 -34 -5.5l-35 -7.5q-20 -5 -39.5 -8.5t-39.5 -7.5q-8 -2 -16 -3t-17 -1
q-13 -1 -25.5 -3.5t-26.5 -1.5q-12 0 -22 6l-6 3q-14 5 -21.5 15t-11.5 22q-6 25 -1 56q4 30 12.5 60t18.5 60q5 12 8.5 24t7.5 24q0 2 -4 8q1 3 5 9q-6 6 0 13q-5 1 -9.5 -0.5t-9.5 -3.5q-4 -2 -7.5 -4.5t-5.5 -4.5q-3 1 -4 3t-1 4q1 5 0.5 11t2.5 12q0 1 1 2q0 -1 -0.5 -1
t-0.5 -1q-2 1 -4 1t-4 1q0 2 0.5 3t0.5 2l10.5 12.5t13.5 11.5q3 2 7 4t6 4l15.5 10t16.5 9q7 4 12 13q3 11 6.5 21.5l7.5 21.5q8 24 17.5 48l18.5 48q4 7 7 15l3 -3t2 -3q2 3 6 11l-6 2t-5 2q0 1 2 5q-5 1 -11.5 -0.5t-10.5 4.5q2 4 1.5 5t-4.5 4q3 4 4 9q2 2 0.5 4t-3.5 2
h-13q-4 3 0 7q8 4 10 6q-2 2 -3 5t-3 5q6 12 16 19q16 13 36 19q17 4 33 9.5l32 11.5q23 8 46 13t47 9q40 6 81 6q19 -1 37 -9q5 -2 9.5 -4t9.5 -4q14 -5 19 -14q2 -3 3.5 -5.5t3.5 -5.5q9 -14 5 -28q-1 -3 -3 -11q-4 -2 -8 -3t-9 -3q-13 -3 -14 -15v-9q-4 -3 -7 -4t-7 -2
q-14 -2 -29 -3t-30 -1q-6 0 -11.5 -0.5t-10.5 -1.5q-4 0 -7 -0.5t-7 -0.5q-25 -1 -50 -3.5t-48 -7.5q-2 0 -4 -2l-3 -3q2 -14 -1.5 -28t-6.5 -29q-8 -38 -21 -73q-2 -4 -2.5 -8t-1.5 -8q5 -4 9 -3.5t8 1.5q10 2 19.5 2t18.5 1q23 1 45 -5q9 -2 18 -6q9 -3 11 -5t6 -13
q13 -3 22.5 -9.5t9.5 -23.5q-3 -2 -6 -5t-6 -5q-2 -1 -4 -1t-4 -2q-12 -5 -23 -2q-2 2 -7 1.5t-9 -2.5q8 -1 14.5 -1.5t13.5 -2.5q4 -2 3 -6h1q-8 2 -11 -6q-7 1 -14 0.5t-15 1.5q-11 2 -21.5 2t-21.5 -2q-13 -2 -24.5 -3t-23.5 -3q-10 -2 -19.5 -3.5t-18.5 -3.5
q-2 -5 -3 -6q-9 -22 13 -16l42.5 7.5t42.5 5.5l18.5 2t19.5 1zM179 323h3q1 0 1 1q-1 1 -2 0l-2 -2v1zM97 191q-4 -3 -4 -7v-9q3 5 3 9t1 7l2 2v2l-1 -1q0 -2 -1 -3zM239 333h24q2 0 3.5 1t3.5 2h1h-1h-11t-13 -1q-3 0 -7 -2q0 -1 -0.5 -1t-0.5 -1q0 1 0.5 1t0.5 1zM219 329
q-13 0 -16 -0.5t-9 -5.5l10.5 2l11.5 2q1 0 1 1l1 1l1 1v-1zM199 523v-17l11 26t7 24q0 1 -1 1.5t-1 1.5q-15 1 -16 -10q-4 -9 -6 -20q0 -2 -0.5 -4.5t-0.5 -6.5q6 4 7 5zM92 169q-8 -14 -12.5 -27.5l-9.5 -27.5q0 -4 -1 -7.5t1 -7.5t5 -1q4 3 6 8q2 14 5 27t5 26q0 2 0.5 5
t0.5 5zM190 501q-4 -3 -4 -5v-2q1 0 1.5 0.5t1.5 0.5q0 3 1 6zM180 477q0 -1 -2 -3q2 -4 2 0q1 0 1 2zM104 210v1q0 -1 -0.5 -1t-0.5 -1zM130 528v1h-1v-1h1zM195 497q0 -1 -0.5 -1t-0.5 -1h1l1 1q-1 0 -1 1zM15 28l1 1h-1h-1q0 -1 1 -1zM177 440h1v1zM158 409l-1 -1v-2l1 1
v2zM230 331h-2l1 -1zM290 330l1 1h-1v-1zM307 331v-1l1 1h-1zM246 327v1h-1zM131 298l-1 -1q0 -1 1 -2v1v2zM282 295h-2v-1zM126 284v-1q0 -1 1 -1v1zM118 255l-1 -1q0 -1 -1 -2l2 1v2zM354 758q2 -5 1 -8.5t1 -8.5q2 -2 -1 -4.5t-6 -1.5q-3 0 -5 2q-1 1 -1 2t-1 2l-1 1
l-2 -2q0 -1 0.5 -1.5t0.5 -1.5q-11 0 -20 4.5t-17 10.5q-21 18 -37 44q-3 5 -4.5 9.5t1.5 9.5q2 4 1 6.5t-3 5.5q-3 7 6 15q6 5 14 0q3 -2 5.5 -4t4.5 -4q5 -7 13 -7q5 -1 8.5 -4t7.5 -6l25 -24l25 -25q2 -2 3 -4q2 -5 -3 -5q-4 -1 -8 -1t-8 -1q0 1 -1 1h1zM333 820
q8 -4 10.5 -6.5t9.5 -11.5q-4 1 -6 3l-4 4q-3 2 -5 5t-5 6zM330 824q-7 0 -10 7h-1q8 -2 11 -7zM316 834l-1 1zM320 831q-2 1 -4 3l3 -3h1zM330 824q2 -2 3 -4q-1 1 -1.5 2t-1.5 2zM344 737q-1 -3 -4 0h4z" />
    <glyph glyph-name="Eacute" unicode="&#xc9;" horiz-adv-x="476" 
d="M299 303q-4 -2 -10 -8q2 -1 3.5 -1t3.5 -1v-1l-15.5 -4l-15.5 -4q-14 -3 -28.5 -5.5t-29.5 -5.5q-11 -1 -21.5 -3l-20.5 -4q-3 0 -6.5 -1t-6.5 -2l-3.5 -8.5t-2.5 -7.5l-15.5 -48l-15.5 -48q-3 -10 -5.5 -20.5t-4.5 -20.5q0 -2 0.5 -3.5t-0.5 -3.5q6 1 12.5 1.5t11.5 2.5
q21 5 43 8.5t43 8.5q20 4 38 4.5t35 -0.5q6 0 8 -1q9 -3 17.5 -2.5t17.5 2.5q10 1 23 -2q1 -1 2.5 -2t1.5 -2q-1 -5 1.5 -5.5t4.5 -2.5q6 -3 4 -10q0 -6 -4 -6q-5 -1 -10 -1h-10l-3 -1.5t-3 -3.5q2 -1 3 -1t3 -1h16q5 0 6.5 -3.5t-2.5 -8.5q-2 -2 -6 -2q-6 2 -12.5 1
l-13.5 -2q-2 0 -2 -3q0 -1 2 -3q3 -1 6.5 -1.5t8.5 -1.5q-2 -4 -5 -4q-5 -1 -15 -5q-5 -2 -9.5 -2t-9.5 -1q-2 -1 -2.5 -1t-3.5 -3q2 -1 4 -1.5t4 -2.5q-8 -1 -15.5 -1t-15.5 -1q-17 -2 -34 -5.5l-35 -7.5q-20 -5 -39.5 -8.5t-39.5 -7.5q-8 -2 -16 -3t-17 -1
q-13 -1 -25.5 -3.5t-26.5 -1.5q-12 0 -22 6l-6 3q-14 5 -21.5 15t-11.5 22q-6 25 -1 56q4 30 12.5 60t18.5 60q5 12 8.5 24t7.5 24q0 2 -4 8q1 3 5 9q-6 6 0 13q-5 1 -9.5 -0.5t-9.5 -3.5q-4 -2 -7.5 -4.5t-5.5 -4.5q-3 1 -4 3t-1 4q1 5 0.5 11t2.5 12q0 1 1 2q0 -1 -0.5 -1
t-0.5 -1q-2 1 -4 1t-4 1q0 2 0.5 3t0.5 2l10.5 12.5t13.5 11.5q3 2 7 4t6 4l15.5 10t16.5 9q7 4 12 13q3 11 6.5 21.5l7.5 21.5q8 24 17.5 48l18.5 48q4 7 7 15l3 -3t2 -3q2 3 6 11l-6 2t-5 2q0 1 2 5q-5 1 -11.5 -0.5t-10.5 4.5q2 4 1.5 5t-4.5 4q3 4 4 9q2 2 0.5 4t-3.5 2
h-13q-4 3 0 7q8 4 10 6q-2 2 -3 5t-3 5q6 12 16 19q16 13 36 19q17 4 33 9.5l32 11.5q23 8 46 13t47 9q40 6 81 6q19 -1 37 -9q5 -2 9.5 -4t9.5 -4q14 -5 19 -14q2 -3 3.5 -5.5t3.5 -5.5q9 -14 5 -28q-1 -3 -3 -11q-4 -2 -8 -3t-9 -3q-13 -3 -14 -15v-9q-4 -3 -7 -4t-7 -2
q-14 -2 -29 -3t-30 -1q-6 0 -11.5 -0.5t-10.5 -1.5q-4 0 -7 -0.5t-7 -0.5q-25 -1 -50 -3.5t-48 -7.5q-2 0 -4 -2l-3 -3q2 -14 -1.5 -28t-6.5 -29q-8 -38 -21 -73q-2 -4 -2.5 -8t-1.5 -8q5 -4 9 -3.5t8 1.5q10 2 19.5 2t18.5 1q23 1 45 -5q9 -2 18 -6q9 -3 11 -5t6 -13
q13 -3 22.5 -9.5t9.5 -23.5q-3 -2 -6 -5t-6 -5q-2 -1 -4 -1t-4 -2q-12 -5 -23 -2q-2 2 -7 1.5t-9 -2.5q8 -1 14.5 -1.5t13.5 -2.5q4 -2 3 -6h1q-8 2 -11 -6q-7 1 -14 0.5t-15 1.5q-11 2 -21.5 2t-21.5 -2q-13 -2 -24.5 -3t-23.5 -3q-10 -2 -19.5 -3.5t-18.5 -3.5
q-2 -5 -3 -6q-9 -22 13 -16l42.5 7.5t42.5 5.5l18.5 2t19.5 1zM179 323h3q1 0 1 1q-1 1 -2 0l-2 -2v1zM97 191q-4 -3 -4 -7v-9q3 5 3 9t1 7l2 2v2l-1 -1q0 -2 -1 -3zM239 333h24q2 0 3.5 1t3.5 2h1h-1h-11t-13 -1q-3 0 -7 -2q0 -1 -0.5 -1t-0.5 -1q0 1 0.5 1t0.5 1zM219 329
q-13 0 -16 -0.5t-9 -5.5l10.5 2l11.5 2q1 0 1 1l1 1l1 1v-1zM199 523v-17l11 26t7 24q0 1 -1 1.5t-1 1.5q-15 1 -16 -10q-4 -9 -6 -20q0 -2 -0.5 -4.5t-0.5 -6.5q6 4 7 5zM92 169q-8 -14 -12.5 -27.5l-9.5 -27.5q0 -4 -1 -7.5t1 -7.5t5 -1q4 3 6 8q2 14 5 27t5 26q0 2 0.5 5
t0.5 5zM190 501q-4 -3 -4 -5v-2q1 0 1.5 0.5t1.5 0.5q0 3 1 6zM180 477q0 -1 -2 -3q2 -4 2 0q1 0 1 2zM104 210v1q0 -1 -0.5 -1t-0.5 -1zM130 528v1h-1v-1h1zM195 497q0 -1 -0.5 -1t-0.5 -1h1l1 1q-1 0 -1 1zM15 28l1 1h-1h-1q0 -1 1 -1zM177 440h1v1zM158 409l-1 -1v-2l1 1
v2zM230 331h-2l1 -1zM290 330l1 1h-1v-1zM307 331v-1l1 1h-1zM246 327v1h-1zM131 298l-1 -1q0 -1 1 -2v1v2zM282 295h-2v-1zM126 284v-1q0 -1 1 -1v1zM118 255l-1 -1q0 -1 -1 -2l2 1v2zM367 834q11 0 18 -6q-3 -7 -8 -12l-10 -10l-16 -14.5t-15 -16.5q-7 -8 -14.5 -15
t-15.5 -13q-6 -4 -10 -4t-9 5q-4 3 -7.5 2.5t-7.5 1.5q-1 2 -0.5 4.5t-0.5 4.5t-3 4t-3 4q-2 4 -2 7q3 14 12 22l25.5 20l25.5 20q3 3 6 5t7 4q5 2 9 4.5t10 1.5q2 0 4 1l4 2q6 2 8 2q6 0 4 -5q-6 -9 -11 -19q-10 -1 -11 -11q-5 0 -8 -3t-6 -7q-2 -2 -3 -4q-2 -2 -4 -3
q-2 -2 -3 -4q-1 0 -1 -1q0 1 1 2l3 3q1 1 2 1.5t2 2.5l3 3q5 0 8.5 3t5.5 7q10 4 11 11z" />
    </font>
</defs>
</svg>
